<svg xmlns="http://www.w3.org/2000/svg" class="svg-icon icon eye-icon" viewBox="0 0 20 20"><path d="M14.8967 8.40218C14.7046 8.27545 14.4462 8.32842 14.3195 8.5205C13.5804 9.64065 11.7459 10.4188 9.65741 10.4188C7.58593 10.4188 5.76299 9.6533 5.01214 8.54559C4.88303 8.35511 4.62394 8.30536 4.43346 8.43448C4.24298 8.5636 4.19323 8.82268 4.32235 9.01317C4.62016 9.45252 5.03862 9.84124 5.54688 10.1663L4.28879 11.4247C4.12607 11.5874 4.12607 11.8513 4.28879 12.014C4.45151 12.1767 4.71532 12.1767 4.87804 12.014L6.31348 10.5783C6.74085 10.7703 7.20842 10.9251 7.70419 11.0377L7.2413 12.7684C7.18175 12.9906 7.31366 13.2191 7.53593 13.2787C7.75821 13.3382 7.98668 13.2063 8.04624 12.984L8.52863 11.1822C8.89557 11.2282 9.27321 11.2521 9.65741 11.2521C10.0258 11.2521 10.3882 11.2302 10.7409 11.1877L11.2217 12.984C11.2812 13.2063 11.5097 13.3382 11.732 13.2787C11.9543 13.2191 12.0862 12.9906 12.0266 12.7684L11.566 11.0477C12.0658 10.9371 12.5375 10.7837 12.9689 10.5928L14.3899 12.014C14.5526 12.1767 14.8164 12.1767 14.9791 12.014C15.1419 11.8513 15.1419 11.5874 14.9791 11.4247L13.7388 10.1849C14.2734 9.84776 14.7105 9.44098 15.015 8.97943C15.1418 8.78735 15.0888 8.52891 14.8967 8.40218Z" fill="#666666"></path></svg>