<svg width="24" height="24" viewBox="0 0 24 24" fill="none" xmlns="http://www.w3.org/2000/svg">
<g id="ic/Always">
<path id="Subtract" fill-rule="evenodd" clip-rule="evenodd" d="M4.30005 12C4.30005 7.74967 7.74973 4.29999 12 4.29999C16.2504 4.29999 19.7 7.74967 19.7 12C19.7 16.2503 16.2504 19.7 12 19.7C7.74973 19.7 4.30005 16.2503 4.30005 12ZM5.30005 12C5.30005 15.6937 8.30636 18.7 12 18.7C15.6937 18.7 18.7 15.6937 18.7 12C18.7 8.3063 15.6937 5.29999 12 5.29999C8.30636 5.29999 5.30005 8.3063 5.30005 12Z" fill="white"/>
<path id="Subtract_2" fill-rule="evenodd" clip-rule="evenodd" d="M13.9176 13.552H10.0829L9.28291 15.8H8.19275L11.3466 7.40002H12.6455L15.7993 15.8H14.7096L13.9176 13.552ZM12.1737 8.63201H11.8184L10.3977 12.672H13.5944L12.1737 8.63201Z" fill="white"/>
</g>
</svg>
