<?xml version="1.0" encoding="UTF-8"?>
<svg width="24px" height="20px" viewBox="0 0 24 20" version="1.1" xmlns="http://www.w3.org/2000/svg" xmlns:xlink="http://www.w3.org/1999/xlink">
    <title>ic/timeLine/always/off</title>
    <g id="Symbol" stroke="none" stroke-width="1" fill="none" fill-rule="evenodd">
        <g id="ic/timeLine/always/off">
            <rect id="bg" x="0" y="0" width="24" height="20"></rect>
            <path d="M12,4 C15.3137085,4 18,6.6862915 18,10 C18,13.3137085 15.3137085,16 12,16 C8.6862915,16 6,13.3137085 6,10 C6,6.6862915 8.6862915,4 12,4 Z M12.8263598,6.65305758 L11.2238494,6.65305758 L9.03974895,12.6530576 L10.5041841,12.6530576 L10.9267782,11.3183295 L13.0606695,11.3183295 L13.4874477,12.6530576 L14.960251,12.6530576 L12.8263598,6.65305758 Z M12.0062762,7.72418729 C12.025802,7.93339231 12.0592748,8.11330863 12.1066946,8.26393624 L12.1066946,8.26393624 L12.751046,10.2806726 L11.2154812,10.2806726 L11.8682008,8.24719984 C11.9239888,8.07425703 11.9588563,7.89991951 11.9728033,7.72418729 L11.9728033,7.72418729 Z" id="形状结合" fill="#A3B1C0"></path>
        </g>
    </g>
</svg>