<?xml version="1.0" encoding="UTF-8"?>
<svg width="24px" height="24px" viewBox="0 0 24 24" version="1.1" xmlns="http://www.w3.org/2000/svg" xmlns:xlink="http://www.w3.org/1999/xlink">
    <title>file_newfile</title>
    <g id="Symbol" stroke="none" stroke-width="1" fill="none" fill-rule="evenodd">
        <g id="ic/zsgfile/new" fill="#A3B1C0" fill-rule="nonzero">
            <g id="编组" transform="translate(6.488389, 4.543197)">
                <path d="M7.08742096,0 L11.0232219,3.93580091 L11.0232219,14.913605 L0,14.913605 L0,0 L7.08742096,0 Z M5.88661094,4.35680252 L5.13661094,4.35680252 L5.07689619,4.36485958 C4.98176477,4.39111406 4.91161094,4.47848713 4.91161094,4.58180252 L4.91161094,6.85680252 L2.63661094,6.85680252 C2.51263246,6.85680252 2.41161094,6.95782405 2.41161094,7.08180252 L2.41161094,7.83180252 L2.41966799,7.89151727 C2.44592247,7.98664869 2.53329554,8.05680252 2.63661094,8.05680252 L4.91161094,8.05680252 L4.91161094,10.3318025 C4.91161094,10.455781 5.01263246,10.5568025 5.13661094,10.5568025 L5.88661094,10.5568025 L5.94632568,10.5487455 C6.0414571,10.522491 6.11161094,10.4351179 6.11161094,10.3318025 L6.11161094,8.05680252 L8.38661094,8.05680252 C8.51058941,8.05680252 8.61161094,7.955781 8.61161094,7.83180252 L8.61161094,7.08180252 L8.60355388,7.02208778 C8.5772994,6.92695636 8.48992633,6.85680252 8.38661094,6.85680252 L6.11161094,6.85680252 L6.11161094,4.58180252 C6.11161094,4.45782405 6.01058941,4.35680252 5.88661094,4.35680252 Z" id="Shape"></path>
            </g>
        </g>
    </g>
</svg>