<?xml version="1.0" encoding="UTF-8"?>
<svg width="24px" height="20px" viewBox="0 0 24 20" version="1.1" xmlns="http://www.w3.org/2000/svg" xmlns:xlink="http://www.w3.org/1999/xlink">
    <title>ic/nodeToolbar/fullScreen/unselected</title>
    <g id="Symbol" stroke="none" stroke-width="1" fill="none" fill-rule="evenodd">
        <g id="ic/nodeToolbar/fullScreen/unselected">
            <rect id="矩形" fill="#000000" fill-rule="nonzero" opacity="0" x="0" y="0" width="24" height="20"></rect>
            <path d="M14.4291294,4.8 L15.9942319,4.8 C16.7668815,4.8 17.0470629,4.88044886 17.329532,5.03151501 C17.6120012,5.18258116 17.8336846,5.40426459 17.9847507,5.68673372 C18.1358169,5.96920286 18.2162657,6.24938427 18.2162657,7.02203384 L18.2162657,8.32683765 L18.2162657,8.32683765 M18.2162657,11.6846456 L18.2162657,12.9779662 C18.2162657,13.7506157 18.1358169,14.0307971 17.9847507,14.3132663 C17.8336846,14.5957354 17.6120012,14.8174188 17.329532,14.968485 C17.0470629,15.1195511 16.7668815,15.2 15.9942319,15.2 L14.4254398,15.2 L14.4254398,15.2 M9.57563232,15.2 L8.00576809,15.2 C7.23311852,15.2 6.95293711,15.1195511 6.67046798,14.968485 C6.38799884,14.8174188 6.16631541,14.5957354 6.01524926,14.3132663 C5.86418312,14.0307971 5.78373425,13.7506157 5.78373425,12.9779662 L5.78373425,11.6816849 L5.78373425,11.6816849 M5.78373425,8.33468702 L5.78373425,7.02203384 C5.78373425,6.24938427 5.86418312,5.96920286 6.01524926,5.68673372 C6.16631541,5.40426459 6.38799884,5.18258116 6.67046798,5.03151501 C6.95293711,4.88044886 7.23311852,4.8 8.00576809,4.8 L9.57623636,4.8 L9.57623636,4.8" id="形状" stroke="#69727B" stroke-width="1.5"></path>
            <path d="M9.09611038,7.5 L14.9038896,7.5 C15.0821934,7.5 15.1468506,7.51856512 15.2120358,7.55342654 C15.277221,7.58828796 15.3283787,7.63944568 15.3632401,7.70463086 C15.3981015,7.76981605 15.4166667,7.8344733 15.4166667,8.01277705 L15.4166667,11.987223 C15.4166667,12.1655267 15.3981015,12.230184 15.3632401,12.2953691 C15.3283787,12.3605543 15.277221,12.411712 15.2120358,12.4465735 C15.1468506,12.4814349 15.0821934,12.5 14.9038896,12.5 L9.09611038,12.5 C8.91780663,12.5 8.85314938,12.4814349 8.7879642,12.4465735 C8.72277901,12.411712 8.67162129,12.3605543 8.63675987,12.2953691 C8.60189846,12.230184 8.58333333,12.1655267 8.58333333,11.987223 L8.58333333,8.01277705 C8.58333333,7.8344733 8.60189846,7.76981605 8.63675987,7.70463086 C8.67162129,7.63944568 8.72277901,7.58828796 8.7879642,7.55342654 C8.85314938,7.51856512 8.91780663,7.5 9.09611038,7.5 Z" id="矩形" fill="#69727B"></path>
        </g>
    </g>
</svg>