<?xml version="1.0" encoding="UTF-8"?>
<svg width="16px" height="17px" viewBox="0 0 16 17" version="1.1" xmlns="http://www.w3.org/2000/svg" xmlns:xlink="http://www.w3.org/1999/xlink">
    <title>ic_color-picker</title>
    <g id="ZENO@2Tools" stroke="none" stroke-width="1" fill="none" fill-rule="evenodd">
        <g id="颜色取色器" transform="translate(-86.000000, -329.000000)" fill-rule="nonzero">
            <g id="编组" transform="translate(72.000000, 50.250000)">
                <g id="ic_color-picker" transform="translate(14.000000, 279.000000)">
                    <rect id="矩形" fill="#000000" opacity="0" x="0" y="0" width="16" height="16"></rect>
                    <path d="M12.9333333,4.89333333 L11.1066667,3.06666667 C10.6239153,2.57761636 9.84113817,2.55701696 9.33333333,3.02 L8,4.35333333 L7.14,3.52666667 C6.87858522,3.2652519 6.45474812,3.2652519 6.19333334,3.52666667 C5.93191856,3.78808145 5.93191856,4.21191854 6.19333333,4.47333333 L7.02,5.33333333 L3.33333333,9.02 C3.11784378,9.23731007 2.98366973,9.5221357 2.95333333,9.82666667 L2.66666667,12.6066667 C2.64848402,12.8043632 2.71935795,12.9998775 2.86,13.14 C2.98581255,13.264791 3.15613134,13.3343578 3.33333333,13.3333445 L3.39333333,13.3333445 L6.17333333,13.08 C6.4778643,13.0496636 6.76268993,12.9154895 6.98,12.7 L10.7,8.98 L11.5266667,9.80666667 C11.6518444,9.9328751 11.8222416,10.0038655 12,10.0038655 C12.1777584,10.0038655 12.3481556,9.9328751 12.4733333,9.80666667 C12.5995418,9.68148894 12.6705322,9.51109169 12.6705322,9.33333334 C12.6705322,9.15557498 12.5995418,8.98517773 12.4733333,8.86 L11.6466667,8.03333333 L12.98,6.7 C13.46486,6.18777453 13.443991,5.37984432 12.9333333,4.89333333 Z M4.26666667,9.96 L8,6.24 L9.79333333,8.04 L7.93333333,9.9" id="形状" fill="#8A8A8C"></path>
                </g>
            </g>
        </g>
    </g>
</svg>