<?xml version="1.0" encoding="UTF-8"?>
<svg width="16px" height="17px" viewBox="0 0 16 17" version="1.1" xmlns="http://www.w3.org/2000/svg" xmlns:xlink="http://www.w3.org/1999/xlink">
    <title>ic/direction_pullDown</title>
    <g id="ZENO@2Tools" stroke="none" stroke-width="1" fill="none" fill-rule="evenodd">
        <g id="颜色取色器" transform="translate(-275.000000, -96.000000)" fill-rule="nonzero">
            <g id="编组" transform="translate(72.000000, 50.250000)">
                <g id="preset_select" transform="translate(14.000000, 44.496564)">
                    <g id="ic/direction_pullDown" transform="translate(189.000000, 1.750000)">
                        <rect id="矩形" fill="#000000" opacity="0" x="0" y="0" width="16" height="16"></rect>
                        <path d="M13.598298,6.4015625 C13.5397713,6.54375 13.4159125,6.634375 13.2784428,6.634375 L6.99975221,6.634375 C6.86228251,6.634375 6.73842366,6.54375 6.67989696,6.4015625 C6.62137025,6.259375 6.64042546,6.090625 6.72889606,5.9703125 L9.86756079,1.6453125 C9.93425402,1.553125 10.0336133,1.5 10.1384169,1.5 C10.2432206,1.5 10.3425799,1.553125 10.4092731,1.6453125 L13.5492989,5.9703125 C13.6037424,6.0453125 13.6309641,6.1375 13.6309641,6.2296875 C13.6309641,6.2890625 13.6200754,6.346875 13.598298,6.4015625 L13.598298,6.4015625 Z M13.6159921,9.7703125 C13.6159921,9.8640625 13.5874093,9.95625 13.534327,10.0296875 L10.3943011,14.3546875 C10.3276079,14.446875 10.2282486,14.5 10.123445,14.5 C10.0186414,14.5 9.91928207,14.446875 9.85258885,14.3546875 L6.71256303,10.03125 C6.62545351,9.9109375 6.60639831,9.7421875 6.66356392,9.6 C6.72209063,9.4578125 6.84594947,9.3671875 6.98341918,9.3671875 L13.2621097,9.3671875 C13.3995794,9.3671875 13.5234383,9.4578125 13.581965,9.6 C13.6051034,9.653125 13.6159921,9.7125 13.6159921,9.7703125 L13.6159921,9.7703125 Z" id="形状" fill="#5B5B5C"></path>
                    </g>
                </g>
            </g>
        </g>
    </g>
</svg>