<?xml version="1.0" encoding="UTF-8"?>
<svg width="25px" height="13px" viewBox="0 0 25 13" version="1.1" xmlns="http://www.w3.org/2000/svg" xmlns:xlink="http://www.w3.org/1999/xlink">
    <title>ic_handle_aligned</title>
    <g id="ZENO@2Tools" stroke="none" stroke-width="1" fill="none" fill-rule="evenodd">
        <g id="曲线图" transform="translate(-395.000000, -526.000000)" fill="#8C8C8C" fill-rule="nonzero">
            <g id="函数曲线工具" transform="translate(65.000000, 54.000000)">
                <g id="菜单文本" transform="translate(213.029034, 415.000000)">
                    <g id="节点手柄" transform="translate(0.000000, 53.000000)">
                        <g id="Aligned" transform="translate(113.000000, 1.500000)">
                            <g id="ic_handle_aligned" transform="translate(4.000000, 3.000000)">
                                <path d="M12,2.12494179 C12.9315516,2.12494179 13.7143512,2.76182471 13.9367279,3.62391963 L16.779351,3.62414858 L16.7800626,3.21014858 L18.609649,3.21014858 L18.609649,5.039735 L16.7800626,5.039735 L16.779351,4.62414858 L15.4205623,4.62399531 C16.7299042,5.54504216 17.65469,7.09663991 18.1806119,9.25259898 C18.2460548,9.52087467 18.0816263,9.79140699 17.8133506,9.85684983 C17.5450749,9.92229267 17.2745426,9.75786416 17.2090997,9.48958847 C16.6070493,7.02154926 15.4923795,5.51746228 13.8343069,4.92098029 C13.5270379,5.62984709 12.8213367,6.12494179 12,6.12494179 C11.1790465,6.12494179 10.4736208,5.63030904 10.1654864,4.92280729 C8.50949183,5.519791 7.39442676,7.02488135 6.79083905,9.49368739 C6.72525776,9.76192927 6.45464061,9.92621813 6.18639873,9.86063683 C5.91815685,9.79505554 5.75386799,9.52443838 5.81944929,9.25619651 C6.34689228,7.09883907 7.27270704,5.54625273 8.58263833,4.62462337 L7.21935096,4.62414858 L7.21993738,5.039735 L5.39035096,5.039735 L5.39035096,3.21014858 L7.21993738,3.21014858 L7.21935096,3.62414858 L10.0632721,3.62391963 C10.2856488,2.76182471 11.0684484,2.12494179 12,2.12494179 Z M12,3.12494179 C11.4477153,3.12494179 11,3.57265704 11,4.12494179 C11,4.67722654 11.4477153,5.12494179 12,5.12494179 C12.5522847,5.12494179 13,4.67722654 13,4.12494179 C13,3.57265704 12.5522847,3.12494179 12,3.12494179 Z" id="形状"></path>
                            </g>
                        </g>
                    </g>
                </g>
            </g>
        </g>
    </g>
</svg>