<?xml version="1.0" encoding="UTF-8"?>
<svg width="25px" height="13px" viewBox="0 0 25 13" version="1.1" xmlns="http://www.w3.org/2000/svg" xmlns:xlink="http://www.w3.org/1999/xlink">
    <title>ic_handle_free</title>
    <defs>
        <path d="M16.4011312,1.55757223 L17.6948441,2.85128519 L16.4011312,4.14499816 L16.0907685,3.83457223 L14.7694131,5.08822745 C16.3587274,5.05953828 17.5201401,6.58735648 18.1344129,9.58304632 L18.1861317,9.84557692 C18.2374571,10.1169076 18.0591075,10.3784719 17.7877769,10.4297973 C17.5164463,10.4811226 17.2548819,10.3027731 17.2035565,10.0314425 C16.5765404,6.71673214 15.5388403,5.54135766 13.8553128,6.33052513 C13.8831463,6.4619805 13.8973338,6.59770356 13.8973338,6.73674028 C13.8973338,7.84130978 13.0019033,8.73674028 11.8973338,8.73674028 C10.7927643,8.73674028 9.89733381,7.84130978 9.89733381,6.73674028 C9.89733381,6.59208591 9.9126909,6.45101839 9.94186365,6.31507913 C8.48064039,5.62062269 7.55777764,6.43556363 7.00984836,8.88174015 L6.92041888,9.31261667 L6.87834868,9.53984471 L6.87834868,9.53984471 L6.79938579,10.0179633 C6.75763009,10.2909305 6.50249679,10.4783644 6.22952963,10.4366087 C5.95656247,10.394853 5.76912854,10.1397197 5.81088424,9.86675254 C6.29822297,6.68090077 7.41461348,5.04933611 9.02527318,5.07231148 L7.72176851,3.83457223 L7.41248147,4.14499816 L6.11876851,2.85128519 L7.41248147,1.55757223 L8.70619444,2.85128519 L8.42876851,3.12757223 L10.6137099,5.20295402 C10.9610642,4.91194445 11.4087385,4.73674028 11.8973338,4.73674028 C12.3901984,4.73674028 12.8414237,4.91501965 13.1900401,5.21060891 L15.3837685,3.12757223 L15.1074182,2.85128519 L16.4011312,1.55757223 Z M11.8973338,5.73674028 C11.3450491,5.73674028 10.8973338,6.18445553 10.8973338,6.73674028 C10.8973338,7.28902503 11.3450491,7.73674028 11.8973338,7.73674028 C12.4496186,7.73674028 12.8973338,7.28902503 12.8973338,6.73674028 C12.8973338,6.18445553 12.4496186,5.73674028 11.8973338,5.73674028 Z" id="path-1"></path>
    </defs>
    <g id="ZENO@2Tools" stroke="none" stroke-width="1" fill="none" fill-rule="evenodd">
        <g id="曲线图" transform="translate(-433.000000, -526.000000)" fill-rule="nonzero">
            <g id="函数曲线工具" transform="translate(65.000000, 54.000000)">
                <g id="菜单文本" transform="translate(213.029034, 415.000000)">
                    <g id="节点手柄" transform="translate(0.000000, 53.000000)">
                        <g id="Free" transform="translate(151.000000, 1.500000)">
                            <g id="形状" transform="translate(4.000000, 3.000000)">
                                <use fill="#8C8C8C" xlink:href="#path-1"></use>
                            </g>
                        </g>
                    </g>
                </g>
            </g>
        </g>
    </g>
</svg>