<?xml version="1.0" encoding="UTF-8"?>
<svg width="34px" height="20px" viewBox="0 0 34 20" version="1.1" xmlns="http://www.w3.org/2000/svg" xmlns:xlink="http://www.w3.org/1999/xlink">
    <title>ic/timeLine/Kill/on</title>
    <g id="Symbol" stroke="none" stroke-width="1" fill="none" fill-rule="evenodd">
        <g id="ic/timeLine/Kill/on">
            <rect id="bg" x="0" y="0" width="34" height="20"></rect>
            <g id="Kill" transform="translate(10.217773, 6.298828)" fill="#C95449" fill-rule="nonzero">
                <path d="M5.8203125,7.40234375 L3.828125,7.40234375 L1.78710937,4.36035156 C1.74804688,4.30175781 1.68619792,4.17317708 1.6015625,3.97460938 L1.57714844,3.97460938 L1.57714844,7.40234375 L0,7.40234375 L0,0.400390625 L1.57714844,0.400390625 L1.57714844,3.7109375 L1.6015625,3.7109375 C1.640625,3.61979167 1.70572917,3.48958333 1.796875,3.3203125 L3.73046875,0.400390625 L5.61035156,0.400390625 L3.16894531,3.74023438 L5.8203125,7.40234375 Z" id="路径"></path>
                <path d="M7.11914062,1.61132812 C6.85872396,1.61132812 6.64550781,1.53401693 6.47949219,1.37939453 C6.31347656,1.22477214 6.23046875,1.03515625 6.23046875,0.810546875 C6.23046875,0.579427083 6.31347656,0.390625 6.47949219,0.244140625 C6.64550781,0.09765625 6.85872396,0.0244140625 7.11914062,0.0244140625 C7.3828125,0.0244140625 7.59684245,0.09765625 7.76123047,0.244140625 C7.92561849,0.390625 8.0078125,0.579427083 8.0078125,0.810546875 C8.0078125,1.04492188 7.92561849,1.23697917 7.76123047,1.38671875 C7.59684245,1.53645833 7.3828125,1.61132812 7.11914062,1.61132812 Z M7.88085938,7.40234375 L6.33789062,7.40234375 L6.33789062,2.40234375 L7.88085938,2.40234375 L7.88085938,7.40234375 Z" id="形状"></path>
                <polygon id="路径" points="10.7226562 7.40234375 9.1796875 7.40234375 9.1796875 0 10.7226562 0"></polygon>
                <polygon id="路径" points="13.5644531 7.40234375 12.0214844 7.40234375 12.0214844 0 13.5644531 0"></polygon>
            </g>
        </g>
    </g>
</svg>