<?xml version="1.0" encoding="UTF-8"?>
<svg width="16px" height="16px" viewBox="0 0 16 16" version="1.1" xmlns="http://www.w3.org/2000/svg" xmlns:xlink="http://www.w3.org/1999/xlink">
    <title>ic/logger/info/idle</title>
    <g id="Symbol" stroke="none" stroke-width="1" fill="none" fill-rule="evenodd">
        <g id="ic/logger/info/idle">
            <path d="M5.1277704,-2.07168062e-16 L10.8722296,2.07168062e-16 C12.6552671,-1.2037061e-16 13.3018396,0.185651222 13.9536914,0.534265408 C14.6055433,0.882879593 15.1171204,1.39445674 15.4657346,2.04630859 C15.8143488,2.69816044 16,3.34473292 16,5.1277704 L16,10.8722296 C16,12.6552671 15.8143488,13.3018396 15.4657346,13.9536914 C15.1171204,14.6055433 14.6055433,15.1171204 13.9536914,15.4657346 C13.3018396,15.8143488 12.6552671,16 10.8722296,16 L5.1277704,16 C3.34473292,16 2.69816044,15.8143488 2.04630859,15.4657346 C1.39445674,15.1171204 0.882879593,14.6055433 0.534265408,13.9536914 C0.185651222,13.3018396 8.02470732e-17,12.6552671 -1.38112041e-16,10.8722296 L1.38112041e-16,5.1277704 C-8.02470732e-17,3.34473292 0.185651222,2.69816044 0.534265408,2.04630859 C0.882879593,1.39445674 1.39445674,0.882879593 2.04630859,0.534265408 C2.69816044,0.185651222 3.34473292,1.2037061e-16 5.1277704,-2.07168062e-16 Z" id="矩形" fill="#69727B"></path>
            <path d="M8,3 C5.23857625,3 3,5.23857625 3,8 C3,10.7614237 5.23857625,13 8,13 C10.7614237,13 13,10.7614237 13,8 C12.9979314,5.23943355 10.7605664,3.00206862 8,3 L8,3 Z M8.49887472,10.5018755 L7.50112528,10.5018755 L7.50112528,7.50112528 L8.50262566,7.50112528 L8.50262566,10.5018755 L8.49887472,10.5018755 Z M8.49887472,6.49962491 L7.50112528,6.49962491 L7.50112528,5.49812453 L8.50262566,5.49812453 L8.50262566,6.49962491 L8.49887472,6.49962491 Z" id="形状" fill="#DFE2E5" fill-rule="nonzero"></path>
        </g>
    </g>
</svg>