<?xml version="1.0" encoding="UTF-8"?>
<svg width="16px" height="16px" viewBox="0 0 16 16" version="1.1" xmlns="http://www.w3.org/2000/svg" xmlns:xlink="http://www.w3.org/1999/xlink">
    <title>ic/logger/key/idle</title>
    <g id="Symbol" stroke="none" stroke-width="1" fill="none" fill-rule="evenodd">
        <g id="ic/logger/key/idle">
            <path d="M5.1277704,-2.07168062e-16 L10.8722296,2.07168062e-16 C12.6552671,-1.2037061e-16 13.3018396,0.185651222 13.9536914,0.534265408 C14.6055433,0.882879593 15.1171204,1.39445674 15.4657346,2.04630859 C15.8143488,2.69816044 16,3.34473292 16,5.1277704 L16,10.8722296 C16,12.6552671 15.8143488,13.3018396 15.4657346,13.9536914 C15.1171204,14.6055433 14.6055433,15.1171204 13.9536914,15.4657346 C13.3018396,15.8143488 12.6552671,16 10.8722296,16 L5.1277704,16 C3.34473292,16 2.69816044,15.8143488 2.04630859,15.4657346 C1.39445674,15.1171204 0.882879593,14.6055433 0.534265408,13.9536914 C0.185651222,13.3018396 8.02470732e-17,12.6552671 -1.38112041e-16,10.8722296 L1.38112041e-16,5.1277704 C-8.02470732e-17,3.34473292 0.185651222,2.69816044 0.534265408,2.04630859 C0.882879593,1.39445674 1.39445674,0.882879593 2.04630859,0.534265408 C2.69816044,0.185651222 3.34473292,1.2037061e-16 5.1277704,-2.07168062e-16 Z" id="矩形" fill="#69727B"></path>
            <path d="M8.00055866,3 C5.23854749,3 3.00055866,5.23798883 3.00055866,8 C3.00055866,10.7620112 5.23854749,13 8.00055866,13 C10.7625698,13 12.9994413,10.7608939 12.9994413,8 C12.9994413,5.23910615 10.7614525,3 8.00055866,3 Z M10.4127746,7.73083675 L9.55097809,8.5708966 C9.47681755,8.64249988 9.44357317,8.7460689 9.46147399,8.84708067 L9.66477615,10.0336492 C9.70824956,10.2893752 9.44101591,10.483727 9.21214116,10.3622571 L8.14448518,9.80349584 C8.05370246,9.75618653 7.94501891,9.75618653 7.85423619,9.80349584 L6.78785884,10.3635357 C6.55898409,10.483727 6.29047181,10.2893752 6.33522385,10.0349279 L6.53852601,8.8483593 C6.55642683,8.74734753 6.52190382,8.64377851 6.44902191,8.57217523 L5.58722535,7.73211538 C5.40182402,7.55182856 5.50411441,7.2372856 5.75984039,7.19892671 L6.95152347,7.02631167 C7.05381386,7.01096811 7.1407607,6.94703661 7.18679137,6.85497526 L7.71998005,5.77453298 C7.83505674,5.54182234 8.16494326,5.54182234 8.28001995,5.77453298 L8.81320863,6.85497526 C8.8592393,6.94703661 8.94618614,7.01096811 9.04847653,7.02631167 L10.2401596,7.19892671 C10.4958856,7.23472834 10.598176,7.55054993 10.4127746,7.73083675 Z" id="形状" fill="#DFE2E5" fill-rule="nonzero"></path>
        </g>
    </g>
</svg>