<?xml version="1.0" encoding="UTF-8"?>
<svg width="16px" height="16px" viewBox="0 0 16 16" version="1.1" xmlns="http://www.w3.org/2000/svg" xmlns:xlink="http://www.w3.org/1999/xlink">
    <title>ic/logger/error/idle</title>
    <g id="Symbol" stroke="none" stroke-width="1" fill="none" fill-rule="evenodd">
        <g id="ic/logger/error/idle">
            <path d="M5.1277704,-2.07168062e-16 L10.8722296,2.07168062e-16 C12.6552671,-1.2037061e-16 13.3018396,0.185651222 13.9536914,0.534265408 C14.6055433,0.882879593 15.1171204,1.39445674 15.4657346,2.04630859 C15.8143488,2.69816044 16,3.34473292 16,5.1277704 L16,10.8722296 C16,12.6552671 15.8143488,13.3018396 15.4657346,13.9536914 C15.1171204,14.6055433 14.6055433,15.1171204 13.9536914,15.4657346 C13.3018396,15.8143488 12.6552671,16 10.8722296,16 L5.1277704,16 C3.34473292,16 2.69816044,15.8143488 2.04630859,15.4657346 C1.39445674,15.1171204 0.882879593,14.6055433 0.534265408,13.9536914 C0.185651222,13.3018396 8.02470732e-17,12.6552671 -1.38112041e-16,10.8722296 L1.38112041e-16,5.1277704 C-8.02470732e-17,3.34473292 0.185651222,2.69816044 0.534265408,2.04630859 C0.882879593,1.39445674 1.39445674,0.882879593 2.04630859,0.534265408 C2.69816044,0.185651222 3.34473292,1.2037061e-16 5.1277704,-2.07168062e-16 Z" id="矩形" fill="#69727B"></path>
            <path d="M10.0454545,3 C10.1728578,3 10.2943937,3.05355794 10.3804545,3.1475 L12.8804545,5.87477273 C12.957302,5.9585679 13,6.06812052 13,6.18181818 L13,9.81818182 C13,9.93187948 12.957302,10.0414321 12.8804545,10.1252273 L10.3804545,12.8525 C10.2943937,12.9464421 10.1728578,13 10.0454545,13 L6.18181818,13 C6.06127508,13 5.94567851,12.9520679 5.86045454,12.8668182 L3.13318181,10.1395455 C3.0479321,10.0543215 3,9.93872492 3,9.81818182 L3,6.18181818 C3,6.06127508 3.0479321,5.94567851 3.13318181,5.86045454 L5.86045454,3.13318181 C5.94567851,3.0479321 6.06127508,3 6.18181818,3 L10.0454545,3 Z M9.37885822,5.84332432 L8.00070711,7.22147543 L6.62114178,5.84332432 L5.84332432,6.62114178 L7.22288965,7.99929289 L5.84332432,9.37885822 L6.62114178,10.1566757 L8.00070711,8.77711035 L9.37885822,10.1566757 L10.1566757,9.37885822 L8.77852457,7.99929289 L10.1566757,6.62114178 L9.37885822,5.84332432 Z" id="形状结合" fill="#DFE2E5" fill-rule="nonzero"></path>
        </g>
    </g>
</svg>