<svg width="256" height="256" viewBox="0 0 256 256" fill="none" xmlns="http://www.w3.org/2000/svg">
    <circle cx="128" cy="128" r="124.495" fill="#212126" stroke="white" stroke-width="3"/>
    <path d="M65.2566 41.1159C71.4327 39.8059 77.9764 40.2693 83.894 42.4728C89.7961 44.6563 95.0453 48.5598 98.8552 53.5661C101.785 57.3983 103.873 61.8722 104.909 66.5867C105.655 69.8107 105.76 73.1326 105.72 76.4279C105.72 92.9509 105.72 109.472 105.72 125.995C95.3416 125.995 84.9612 125.995 74.5831 125.995C74.5809 108.578 74.5853 91.1618 74.5809 73.7453C74.5697 72.5935 73.556 71.5886 72.4241 71.5017C71.1163 71.3591 69.8753 72.4732 69.853 73.7832C69.8441 91.1863 69.8508 108.589 69.8485 125.995C59.4882 125.997 49.1279 125.995 38.7698 125.995C38.7632 108.353 38.7721 90.7095 38.7654 73.068C38.8902 65.9228 41.4256 58.851 45.8483 53.2364C50.6296 47.0915 57.6256 42.6956 65.2566 41.1159Z" fill="white"/>
    <path d="M93.6772 43.638C102.937 39.1553 114.286 39.3246 123.401 44.097C131.07 48.0005 137.097 55.0076 139.806 63.1778C140.869 66.2881 141.43 69.5633 141.535 72.8474C141.535 81.9511 141.537 91.0549 141.533 100.159C133.419 100.678 125.687 105.009 120.939 111.597C117.878 115.777 116.035 120.826 115.67 125.995C113.932 125.995 112.192 125.995 110.454 125.995C110.454 108.719 110.452 91.4448 110.456 74.1687C110.227 71.6421 110.151 69.0888 109.588 66.6023C107.685 57.2067 101.778 48.7447 93.6772 43.638Z" fill="white"/>
    <path d="M166.438 41.2563C168.978 40.5991 171.611 40.3428 174.232 40.3829C188.509 40.3829 202.786 40.3829 217.065 40.3829C217.068 49.0165 217.065 57.6479 217.065 66.2815C202.864 66.2837 188.66 66.286 174.459 66.2815C173.429 66.2013 172.148 66.3015 171.636 67.3532C170.907 68.5719 171.957 70.2875 173.36 70.234C187.929 70.2429 202.496 70.234 217.065 70.2385C217.065 78.8721 217.068 87.5057 217.065 96.1393C202.641 96.1393 188.219 96.1393 173.797 96.1393C170.513 96.2083 167.22 95.6736 164.123 94.5796C157.051 92.1333 151.1 86.688 148.012 79.8747C144.367 72.0075 144.708 62.4404 148.919 54.8584C152.56 48.1743 159.05 43.11 166.438 41.2563Z" fill="white"/>
    <path d="M145.399 100.076C169.29 100.116 193.183 100.083 217.076 100.094C216.76 106.259 214.65 112.384 210.827 117.263C208.922 119.663 206.614 121.773 203.942 123.294C200.827 125.101 197.225 126.077 193.62 125.997C186.198 125.997 178.777 125.99 171.357 125.999C170.834 118.166 166.808 110.659 160.565 105.9C156.773 102.961 152.208 101.028 147.453 100.368C146.769 100.257 146.069 100.246 145.399 100.076Z" fill="white"/>
    <path d="M137.772 105.403C139.091 105.167 140.488 105.898 141.101 107.079C141.457 107.718 141.504 108.467 141.484 109.184C141.473 111.72 141.484 114.253 141.48 116.789C141.497 118.041 140.744 119.264 139.595 119.776C137.701 120.659 136.155 122.236 135.259 124.119C134.793 125.139 133.739 125.915 132.599 125.91C129.687 125.912 126.772 125.91 123.86 125.91C122.073 125.91 120.607 124.07 120.904 122.327C122.842 114.16 129.611 107.373 137.772 105.403Z" fill="white"/>
    <path d="M148.23 105.403C149.195 105.23 150.127 105.64 151.031 105.922C158.399 108.371 164.312 114.768 166.121 122.323C166.425 124.085 164.921 125.948 163.111 125.912C160.28 125.912 157.448 125.908 154.618 125.915C153.453 125.981 152.317 125.255 151.818 124.215C150.909 122.283 149.342 120.65 147.395 119.759C146.256 119.237 145.521 118.016 145.543 116.771C145.55 114.012 145.539 111.256 145.55 108.498C145.566 106.999 146.756 105.646 148.23 105.403Z" fill="white"/>
    <path d="M142.476 123.814C144.797 123.181 147.377 124.858 147.756 127.227C148.293 129.684 146.216 132.269 143.708 132.3C141.538 132.456 139.472 130.7 139.234 128.548C138.908 126.443 140.419 124.301 142.476 123.814Z" fill="white"/>
    <path d="M59.3122 130.905C61.8299 130.23 64.4411 129.898 67.0479 129.949C83.2568 129.949 99.4634 129.949 115.672 129.949C116.174 137.941 120.353 145.597 126.792 150.352C131.072 153.602 136.319 155.469 141.662 155.884C130.019 155.808 118.373 155.87 106.729 155.85C84.0856 155.844 61.4444 155.864 38.801 155.839C39.1486 151.653 40.345 147.517 42.475 143.886C46.0867 137.565 52.2783 132.784 59.3122 130.905Z" fill="white"/>
    <path d="M171.357 129.943C186.593 129.956 201.828 129.947 217.063 129.947C217.068 138.581 217.065 147.217 217.065 155.85C210.419 155.853 203.773 155.848 197.127 155.853C197.124 175.756 197.124 195.658 197.124 215.561C186.579 215.561 176.032 215.561 165.487 215.561C165.484 195.656 165.489 175.753 165.484 155.85C158.787 155.875 152.087 155.804 145.392 155.888C149.848 155.501 154.251 154.193 158.058 151.815C165.665 147.223 170.809 138.822 171.357 129.943Z" fill="white"/>
    <path d="M123.076 130.206C123.475 130.054 123.907 130.076 124.328 130.072C127.08 130.083 129.831 130.068 132.585 130.076C133.724 130.09 134.789 130.847 135.257 131.874C135.987 133.419 137.157 134.753 138.594 135.676C139.218 136.085 139.964 136.315 140.506 136.847C141.205 137.518 141.529 138.51 141.484 139.465C141.464 142.206 141.502 144.946 141.464 147.687C141.366 149.44 139.621 150.868 137.886 150.617C129.667 148.698 122.844 141.869 120.901 133.664C120.668 132.182 121.657 130.658 123.076 130.206Z" fill="white"/>
    <path d="M153.602 130.221C153.997 130.068 154.429 130.072 154.848 130.072C157.597 130.081 160.349 130.072 163.098 130.074C164.909 130.059 166.422 131.901 166.121 133.673C164.323 141.201 158.45 147.578 151.122 150.046C150.084 150.372 148.968 150.884 147.874 150.51C146.55 150.14 145.561 148.868 145.548 147.493C145.539 144.741 145.55 141.99 145.543 139.238C145.517 137.986 146.256 136.758 147.402 136.239C149.342 135.344 150.906 133.719 151.813 131.792C152.163 131.052 152.831 130.486 153.602 130.221Z" fill="white"/>
    <path d="M38.7699 159.861C58.8199 159.861 78.8699 159.861 98.9199 159.861C104.194 159.894 109.472 159.792 114.748 159.919C123.018 160.175 131.026 164.428 135.932 171.081C140.51 177.126 142.38 185.1 141.054 192.559C140.018 198.706 136.807 204.448 132.146 208.583C127.401 212.845 121.144 215.39 114.768 215.617C89.4352 215.619 64.1025 215.617 38.7676 215.617C38.7676 206.983 38.7654 198.35 38.7699 189.716C63.7327 189.716 88.6954 189.716 113.66 189.716C114.817 189.732 115.815 188.475 115.505 187.355C115.329 186.515 114.549 185.815 113.681 185.819C88.7088 185.815 63.7393 185.819 38.7676 185.817C38.7676 177.164 38.7654 168.512 38.7699 159.861Z" fill="white"/>
</svg>
