<svg width="48" height="48" viewBox="0 0 48 48" fill="none" xmlns="http://www.w3.org/2000/svg">
<g clip-path="url(#clip0_15_222)">
<circle cx="24" cy="24" r="23.124" fill="#212126" stroke="white"/>
<path d="M12.2357 7.70928C13.3937 7.46364 14.6206 7.55054 15.7302 7.9637C16.8368 8.3731 17.821 9.105 18.5354 10.0437C19.0847 10.7622 19.4762 11.6011 19.6704 12.4851C19.8104 13.0895 19.83 13.7124 19.8225 14.3303C19.8225 17.4283 19.8225 20.526 19.8225 23.6241C17.8766 23.6241 15.9303 23.6241 13.9844 23.6241C13.984 20.3585 13.9848 17.0929 13.984 13.8273C13.9819 13.6113 13.7918 13.4229 13.5796 13.4066C13.3344 13.3799 13.1017 13.5888 13.0975 13.8344C13.0958 17.0975 13.0971 20.3606 13.0966 23.6241C11.1541 23.6245 9.21153 23.6241 7.26939 23.6241C7.26814 20.3163 7.26981 17.0081 7.26855 13.7003C7.29195 12.3606 7.76735 11.0346 8.5966 9.98187C9.4931 8.8297 10.8048 8.00547 12.2357 7.70928Z" fill="white"/>
<path d="M17.5646 8.18209C19.3008 7.34156 21.4288 7.37331 23.1378 8.26814C24.5757 9.00005 25.7058 10.3139 26.2138 11.8458C26.413 12.429 26.5183 13.0431 26.5379 13.6588C26.5379 15.3658 26.5384 17.0727 26.5375 18.7797C25.0161 18.877 23.5665 19.6891 22.6762 20.9244C22.1022 21.7081 21.7567 22.6548 21.6882 23.624C21.3624 23.624 21.0361 23.624 20.7103 23.624C20.7103 20.3847 20.7098 17.1458 20.7107 13.9066C20.6677 13.4328 20.6535 12.9541 20.5478 12.4879C20.191 10.7262 19.0835 9.13958 17.5646 8.18209Z" fill="white"/>
<path d="M31.2072 7.73556C31.6834 7.61232 32.1772 7.56428 32.6685 7.5718C35.3454 7.5718 38.0224 7.5718 40.6998 7.5718C40.7002 9.1906 40.6998 10.809 40.6998 12.4278C38.037 12.4282 35.3739 12.4286 32.7111 12.4278C32.5181 12.4127 32.2779 12.4315 32.1818 12.6287C32.0452 12.8572 32.2419 13.1789 32.5051 13.1689C35.2368 13.1705 37.9681 13.1689 40.6998 13.1697C40.6998 14.7885 40.7002 16.4073 40.6998 18.0261C37.9953 18.0261 35.2911 18.0261 32.587 18.0261C31.9712 18.0391 31.3538 17.9388 30.7731 17.7337C29.4472 17.275 28.3313 16.254 27.7523 14.9765C27.0689 13.5014 27.1328 11.7076 27.9224 10.286C28.605 9.03269 29.8219 8.08313 31.2072 7.73556Z" fill="white"/>
<path d="M27.2623 18.7643C31.7419 18.7718 36.2219 18.7655 40.7019 18.7676C40.6426 19.9236 40.247 21.072 39.5301 21.9868C39.1729 22.4368 38.7401 22.8324 38.2392 23.1177C37.6552 23.4565 36.9797 23.6395 36.3038 23.6244C34.9123 23.6244 33.5207 23.6232 32.1296 23.6249C32.0314 22.156 31.2765 20.7486 30.106 19.8563C29.395 19.3053 28.539 18.9427 27.6475 18.819C27.5192 18.7981 27.3881 18.796 27.2623 18.7643Z" fill="white"/>
<path d="M25.8323 19.7632C26.0797 19.7189 26.3416 19.8559 26.4565 20.0773C26.5233 20.1972 26.5321 20.3376 26.5283 20.4721C26.5262 20.9475 26.5283 21.4225 26.5275 21.8979C26.5308 22.1327 26.3896 22.362 26.1741 22.4581C25.819 22.6235 25.5291 22.9193 25.3611 23.2723C25.2738 23.4637 25.0762 23.609 24.8623 23.6082C24.3163 23.6086 23.7699 23.6082 23.2239 23.6082C22.8888 23.6082 22.614 23.2631 22.6695 22.9364C23.033 21.405 24.3021 20.1325 25.8323 19.7632Z" fill="white"/>
<path d="M27.7932 19.7632C27.9741 19.7306 28.1487 19.8074 28.3183 19.8605C29.6998 20.3196 30.8086 21.519 31.1478 22.9356C31.2046 23.266 30.9226 23.6153 30.5834 23.6086C30.0524 23.6086 29.5215 23.6078 28.9909 23.609C28.7724 23.6215 28.5594 23.4854 28.4658 23.2903C28.2954 22.9281 28.0017 22.6219 27.6366 22.4548C27.4231 22.357 27.2852 22.1281 27.2894 21.8945C27.2907 21.3774 27.2886 20.8606 27.2907 20.3434C27.2936 20.0623 27.5167 19.8087 27.7932 19.7632Z" fill="white"/>
<path d="M26.7141 23.215C27.1494 23.0964 27.6332 23.411 27.7042 23.855C27.8049 24.3158 27.4155 24.8004 26.9452 24.8063C26.5383 24.8355 26.151 24.5063 26.1063 24.1028C26.0453 23.708 26.3285 23.3065 26.7141 23.215Z" fill="white"/>
<path d="M11.1211 24.5448C11.5932 24.4182 12.0828 24.356 12.5716 24.3656C15.6107 24.3656 18.6495 24.3656 21.6886 24.3656C21.7826 25.8641 22.5663 27.2995 23.7737 28.191C24.5762 28.8005 25.56 29.1506 26.5617 29.2283C24.3786 29.2141 22.195 29.2257 20.0118 29.222C15.7661 29.2207 11.5209 29.2245 7.27527 29.2199C7.34044 28.4349 7.56477 27.6596 7.96415 26.9786C8.64133 25.7935 9.80227 24.897 11.1211 24.5448Z" fill="white"/>
<path d="M32.1295 24.3643C34.9861 24.3668 37.8427 24.3651 40.6993 24.3651C40.7002 25.9839 40.6997 27.6031 40.6997 29.2219C39.4536 29.2223 38.2074 29.2215 36.9612 29.2223C36.9608 32.9541 36.9608 36.6859 36.9608 40.4177C34.9836 40.4177 33.0059 40.4177 31.0287 40.4177C31.0283 36.6855 31.0291 32.9537 31.0283 29.2219C29.7725 29.2265 28.5163 29.2131 27.261 29.229C28.0965 29.1563 28.922 28.9111 29.6359 28.4654C31.0621 27.6044 32.0267 26.029 32.1295 24.3643Z" fill="white"/>
<path d="M23.0768 24.4136C23.1515 24.3852 23.2326 24.3894 23.3115 24.3885C23.8275 24.3906 24.3434 24.3877 24.8597 24.3894C25.0732 24.3919 25.2729 24.5339 25.3606 24.7265C25.4976 25.016 25.717 25.2663 25.9864 25.4392C26.1034 25.5161 26.2433 25.5591 26.3448 25.6589C26.476 25.7847 26.5366 25.9706 26.5282 26.1498C26.5245 26.6636 26.5316 27.1775 26.5245 27.6913C26.5061 28.0201 26.179 28.2879 25.8536 28.2407C24.3125 27.881 23.0333 26.6006 22.669 25.062C22.6252 24.7842 22.8106 24.4984 23.0768 24.4136Z" fill="white"/>
<path d="M28.8005 24.4165C28.8744 24.3877 28.9554 24.3886 29.034 24.3886C29.5495 24.3902 30.0654 24.3886 30.5809 24.389C30.9206 24.386 31.2042 24.7315 31.1478 25.0636C30.8107 26.4752 29.7095 27.6709 28.3355 28.1337C28.1408 28.1947 27.9315 28.2908 27.7264 28.2206C27.4783 28.1513 27.2928 27.9127 27.2903 27.655C27.2886 27.139 27.2907 26.6231 27.2894 26.1072C27.2844 25.8724 27.4231 25.6422 27.6378 25.5449C28.0017 25.377 28.295 25.0724 28.465 24.7111C28.5306 24.5724 28.6559 24.4663 28.8005 24.4165Z" fill="white"/>
<path d="M7.26944 29.9739C11.0288 29.9739 14.7882 29.9739 18.5476 29.9739C19.5364 29.9801 20.526 29.9609 21.5153 29.9847C23.066 30.0328 24.5674 30.8303 25.4873 32.0777C26.3458 33.211 26.6963 34.7062 26.4477 36.1048C26.2535 37.2574 25.6515 38.334 24.7775 39.1093C23.8877 39.9085 22.7147 40.3856 21.5191 40.4282C16.7692 40.4286 12.0193 40.4282 7.26903 40.4282C7.26903 38.8094 7.26861 37.1906 7.26944 35.5718C11.95 35.5718 16.6305 35.5718 21.3114 35.5718C21.5282 35.5747 21.7154 35.3391 21.6573 35.129C21.6243 34.9715 21.4781 34.8403 21.3152 34.8411C16.633 34.8403 11.9512 34.8411 7.26903 34.8407C7.26903 33.2181 7.26861 31.596 7.26944 29.9739Z" fill="white"/>
</g>
<defs>
<clipPath id="clip0_15_222">
<rect width="48" height="48" fill="white"/>
</clipPath>
</defs>
</svg>
