<svg width="32" height="32" viewBox="0 0 32 32" fill="none" xmlns="http://www.w3.org/2000/svg">
    <g clip-path="url(#clip0_15_221)">
        <circle cx="16" cy="16" r="15.2493" fill="#212126" stroke="white"/>
        <path d="M8.1571 5.13952C8.92912 4.97576 9.74708 5.03369 10.4868 5.30913C11.2245 5.58206 11.8807 6.07 12.3569 6.6958C12.7232 7.17482 12.9841 7.73406 13.1136 8.32337C13.2069 8.72636 13.22 9.14161 13.215 9.55352C13.215 11.6189 13.215 13.684 13.215 15.7494C11.9177 15.7494 10.6202 15.7494 9.32292 15.7494C9.32264 13.5723 9.3232 11.3953 9.32264 9.2182C9.32125 9.07421 9.19453 8.94861 9.05305 8.93775C8.88957 8.91992 8.73444 9.05917 8.73166 9.22293C8.73054 11.3983 8.73138 13.5737 8.7311 15.7494C7.43606 15.7497 6.14102 15.7494 4.84626 15.7494C4.84542 13.5442 4.84654 11.3387 4.8457 9.13353C4.8613 8.24038 5.17824 7.35641 5.73106 6.65458C6.32873 5.88647 7.20323 5.33698 8.1571 5.13952Z" fill="white"/>
        <path d="M11.7097 5.45472C12.8672 4.89438 14.2859 4.91554 15.4252 5.5121C16.3838 6.00003 17.1372 6.87593 17.4758 7.8972C17.6087 8.28599 17.6789 8.69539 17.692 9.1059C17.692 10.2439 17.6922 11.3818 17.6917 12.5198C16.6774 12.5847 15.711 13.1261 15.1175 13.9496C14.7348 14.4721 14.5045 15.1032 14.4588 15.7493C14.2416 15.7493 14.0241 15.7493 13.8068 15.7493C13.8068 13.5898 13.8066 11.4306 13.8071 9.27105C13.7784 8.95523 13.769 8.63606 13.6985 8.32525C13.4607 7.15081 12.7224 6.09305 11.7097 5.45472Z" fill="white"/>
        <path d="M20.8047 5.15704C21.1222 5.07488 21.4514 5.04286 21.7789 5.04787C23.5636 5.04787 25.3482 5.04787 27.1332 5.04787C27.1334 6.12707 27.1332 7.20599 27.1332 8.28519C25.358 8.28547 23.5825 8.28574 21.8074 8.28519C21.6787 8.27516 21.5185 8.28769 21.4545 8.41915C21.3634 8.57149 21.4946 8.78594 21.67 8.77925C23.4912 8.78037 25.312 8.77925 27.1332 8.77981C27.1332 9.85901 27.1334 10.9382 27.1332 12.0174C25.3301 12.0174 23.5274 12.0174 21.7246 12.0174C21.3141 12.026 20.9025 11.9592 20.5154 11.8225C19.6314 11.5167 18.8875 10.836 18.5015 9.98433C18.0459 9.00094 18.0885 7.80505 18.6149 6.8573C19.0699 6.02179 19.8812 5.38876 20.8047 5.15704Z" fill="white"/>
        <path d="M18.1748 12.5095C21.1612 12.5145 24.1479 12.5104 27.1345 12.5117C27.095 13.2824 26.8312 14.048 26.3533 14.6579C26.1152 14.9578 25.8267 15.2216 25.4927 15.4118C25.1034 15.6377 24.6531 15.7597 24.2024 15.7496C23.2748 15.7496 22.3471 15.7488 21.4196 15.7499C21.3542 14.7707 20.8509 13.8324 20.0706 13.2375C19.5966 12.8702 19.0259 12.6284 18.4316 12.546C18.3461 12.5321 18.2586 12.5307 18.1748 12.5095Z" fill="white"/>
        <path d="M17.2215 13.1755C17.3864 13.1459 17.561 13.2373 17.6376 13.3849C17.6821 13.4648 17.688 13.5584 17.6855 13.6481C17.6841 13.965 17.6855 14.2817 17.6849 14.5986C17.6871 14.7551 17.593 14.908 17.4493 14.9721C17.2126 15.0824 17.0193 15.2795 16.9073 15.5149C16.8491 15.6424 16.7174 15.7394 16.5748 15.7388C16.2108 15.7391 15.8465 15.7388 15.4825 15.7388C15.2592 15.7388 15.0759 15.5088 15.1129 15.291C15.3552 14.27 16.2013 13.4217 17.2215 13.1755Z" fill="white"/>
        <path d="M18.5288 13.1755C18.6494 13.1538 18.7658 13.205 18.8789 13.2404C19.7999 13.5464 20.539 14.346 20.7652 15.2904C20.8031 15.5107 20.6151 15.7436 20.3889 15.7391C20.035 15.7391 19.681 15.7385 19.3273 15.7394C19.1816 15.7477 19.0396 15.6569 18.9772 15.5269C18.8636 15.2854 18.6678 15.0813 18.4244 14.9699C18.2821 14.9047 18.1901 14.7521 18.1929 14.5964C18.1938 14.2516 18.1924 13.9071 18.1938 13.5623C18.1957 13.3749 18.3444 13.2058 18.5288 13.1755Z" fill="white"/>
        <path d="M17.8094 15.4766C18.0996 15.3976 18.4221 15.6073 18.4695 15.9033C18.5366 16.2105 18.277 16.5336 17.9634 16.5375C17.6922 16.557 17.434 16.3375 17.4042 16.0685C17.3635 15.8053 17.5524 15.5376 17.8094 15.4766Z" fill="white"/>
        <path d="M7.41412 16.3632C7.72883 16.2788 8.05523 16.2373 8.38108 16.2437C10.4072 16.2437 12.433 16.2437 14.4591 16.2437C14.5218 17.2427 15.0443 18.1996 15.8491 18.7939C16.3841 19.2003 17.04 19.4337 17.7079 19.4855C16.2524 19.476 14.7967 19.4838 13.3412 19.4813C10.5108 19.4804 7.68065 19.483 4.85022 19.4799C4.89367 18.9566 5.04322 18.4397 5.30947 17.9857C5.76092 17.1956 6.53488 16.5979 7.41412 16.3632Z" fill="white"/>
        <path d="M21.4197 16.2428C23.3241 16.2445 25.2286 16.2434 27.133 16.2434C27.1335 17.3226 27.1332 18.402 27.1332 19.4812C26.3025 19.4815 25.4717 19.481 24.6409 19.4815C24.6406 21.9694 24.6406 24.4572 24.6406 26.9451C23.3225 26.9451 22.004 26.9451 20.6859 26.9451C20.6856 24.457 20.6862 21.9691 20.6856 19.4812C19.8484 19.4843 19.011 19.4754 18.1741 19.486C18.7311 19.4375 19.2814 19.274 19.7574 18.9769C20.7082 18.4029 21.3512 17.3526 21.4197 16.2428Z" fill="white"/>
        <path d="M15.3845 16.2757C15.4344 16.2568 15.4884 16.2596 15.541 16.259C15.885 16.2604 16.2289 16.2585 16.5732 16.2596C16.7155 16.2613 16.8486 16.356 16.9071 16.4843C16.9984 16.6773 17.1446 16.8442 17.3243 16.9595C17.4023 17.0107 17.4956 17.0394 17.5632 17.106C17.6507 17.1898 17.6911 17.3137 17.6855 17.4332C17.683 17.7758 17.6877 18.1183 17.683 18.4609C17.6707 18.6801 17.4527 18.8586 17.2357 18.8271C16.2083 18.5873 15.3555 17.7337 15.1127 16.708C15.0834 16.5228 15.2071 16.3323 15.3845 16.2757Z" fill="white"/>
        <path d="M19.2003 16.2777C19.2496 16.2585 19.3036 16.259 19.356 16.259C19.6997 16.2601 20.0436 16.259 20.3873 16.2593C20.6137 16.2574 20.8028 16.4877 20.7652 16.7091C20.5405 17.6502 19.8063 18.4472 18.8903 18.7558C18.7605 18.7965 18.621 18.8605 18.4843 18.8137C18.3188 18.7675 18.1952 18.6085 18.1935 18.4367C18.1924 18.0927 18.1938 17.7487 18.193 17.4048C18.1896 17.2483 18.2821 17.0948 18.4252 17.0299C18.6678 16.918 18.8633 16.7149 18.9767 16.474C19.0204 16.3816 19.1039 16.3108 19.2003 16.2777Z" fill="white"/>
        <path d="M4.8463 19.9825C7.35254 19.9825 9.85879 19.9825 12.365 19.9825C13.0243 19.9867 13.684 19.9739 14.3435 19.9898C15.3773 20.0218 16.3783 20.5535 16.9915 21.3851C17.5639 22.1407 17.7975 23.1374 17.6318 24.0698C17.5023 24.8382 17.101 25.5559 16.5184 26.0728C15.9251 26.6056 15.1431 26.9237 14.346 26.9521C11.1795 26.9524 8.01288 26.9521 4.84602 26.9521C4.84602 25.8729 4.84574 24.7937 4.8463 23.7145C7.96664 23.7145 11.087 23.7145 14.2076 23.7145C14.3522 23.7164 14.4769 23.5593 14.4382 23.4193C14.4162 23.3143 14.3187 23.2268 14.2101 23.2274C11.0887 23.2268 7.96748 23.2274 4.84602 23.2271C4.84602 22.1454 4.84574 21.064 4.8463 19.9825Z" fill="white"/>
    </g>
    <defs>
        <clipPath id="clip0_15_221">
            <rect width="32" height="32" fill="white"/>
        </clipPath>
    </defs>
</svg>
