<svg width="64" height="64" viewBox="0 0 64 64" fill="none" xmlns="http://www.w3.org/2000/svg">
    <g clip-path="url(#clip0_15_223)">
        <circle cx="32" cy="32" r="30.7487" fill="#212126" stroke="white" stroke-width="1.5"/>
        <path d="M16.3142 10.279C17.8582 9.95152 19.4942 10.0674 20.9736 10.6183C22.4491 11.1641 23.7614 12.14 24.7139 13.3916C25.4463 14.3496 25.9682 15.4681 26.2272 16.6467C26.4138 17.4527 26.44 18.2832 26.43 19.107C26.43 23.2378 26.43 27.368 26.43 31.4988C23.8355 31.4988 21.2404 31.4988 18.6458 31.4988C18.6453 27.1446 18.6464 22.7905 18.6453 18.4364C18.6425 18.1484 18.3891 17.8972 18.1061 17.8755C17.7791 17.8398 17.4689 18.1183 17.4633 18.4459C17.4611 22.7966 17.4628 27.1474 17.4622 31.4988C14.8721 31.4993 12.282 31.4988 9.69252 31.4988C9.69085 27.0884 9.69308 22.6774 9.69141 18.2671C9.7226 16.4808 10.3565 14.7128 11.4621 13.3092C12.6575 11.7729 14.4065 10.674 16.3142 10.279Z" fill="white"/>
        <path d="M23.4194 10.9096C25.7344 9.78887 28.5717 9.83121 30.8505 11.0243C32.7677 12.0002 34.2744 13.752 34.9517 15.7945C35.2174 16.5721 35.3577 17.3909 35.3839 18.2119C35.3839 20.4878 35.3845 22.7638 35.3834 25.0397C33.3547 25.1695 31.4219 26.2523 30.235 27.8994C29.4696 28.9443 29.009 30.2065 28.9176 31.4987C28.4832 31.4987 28.0482 31.4987 27.6137 31.4987C27.6137 27.1797 27.6131 22.8613 27.6142 18.5422C27.5569 17.9106 27.5379 17.2723 27.397 16.6506C26.9213 14.3017 25.4447 12.1862 23.4194 10.9096Z" fill="white"/>
        <path d="M41.6095 10.3141C42.2445 10.1498 42.9028 10.0857 43.5579 10.0957C47.1272 10.0957 50.6965 10.0957 54.2663 10.0957C54.2669 12.2541 54.2663 14.412 54.2663 16.5704C50.716 16.5709 47.1651 16.5715 43.6147 16.5704C43.3574 16.5503 43.0371 16.5754 42.909 16.8383C42.7268 17.143 42.9892 17.5719 43.3401 17.5585C46.9824 17.5607 50.6241 17.5585 54.2663 17.5596C54.2663 19.718 54.2669 21.8764 54.2663 24.0348C50.6603 24.0348 47.0548 24.0348 43.4493 24.0348C42.6282 24.0521 41.805 23.9184 41.0307 23.6449C39.2628 23.0333 37.775 21.672 37.003 19.9687C36.0918 18.0019 36.177 15.6101 37.2297 13.7146C38.1399 12.0436 39.7624 10.7775 41.6095 10.3141Z" fill="white"/>
        <path d="M36.3497 25.019C42.3225 25.0291 48.2958 25.0207 54.2692 25.0235C54.1901 26.5647 53.6626 28.0959 52.7068 29.3158C52.2305 29.9157 51.6535 30.4432 50.9856 30.8236C50.2069 31.2753 49.3063 31.5193 48.405 31.4993C46.5496 31.4993 44.6942 31.4976 42.8394 31.4998C42.7085 29.5414 41.702 27.6648 40.1413 26.4751C39.1932 25.7404 38.0519 25.2569 36.8633 25.092C36.6923 25.0642 36.5174 25.0614 36.3497 25.019Z" fill="white"/>
        <path d="M34.4431 26.3508C34.7728 26.2917 35.1221 26.4744 35.2753 26.7697C35.3644 26.9295 35.3761 27.1167 35.3711 27.296C35.3683 27.9299 35.3711 28.5632 35.3699 29.1971C35.3744 29.5101 35.1861 29.8159 34.8987 29.944C34.4253 30.1646 34.0387 30.559 33.8148 31.0296C33.6984 31.2847 33.4349 31.4786 33.1497 31.4775C32.4217 31.478 31.6932 31.4775 30.9651 31.4775C30.5184 31.4775 30.1519 31.0174 30.226 30.5818C30.7106 28.5398 32.4028 26.8432 34.4431 26.3508Z" fill="white"/>
        <path d="M37.0576 26.3508C37.2988 26.3074 37.5316 26.4099 37.7578 26.4806C39.5998 27.0928 41.0781 28.6919 41.5304 30.5807C41.6061 31.0213 41.2301 31.487 40.7779 31.4781C40.0699 31.4781 39.3619 31.477 38.6546 31.4786C38.3632 31.4953 38.0792 31.3138 37.9544 31.0536C37.7271 30.5707 37.3356 30.1624 36.8487 29.9396C36.5641 29.8093 36.3803 29.5041 36.3859 29.1927C36.3875 28.5031 36.3848 27.8141 36.3875 27.1245C36.3914 26.7497 36.6889 26.4116 37.0576 26.3508Z" fill="white"/>
        <path d="M35.619 30.9534C36.1994 30.7952 36.8444 31.2147 36.9391 31.8067C37.0733 32.4211 36.5542 33.0673 35.927 33.075C35.3845 33.114 34.8681 32.6751 34.8085 32.1371C34.7272 31.6107 35.1049 31.0754 35.619 30.9534Z" fill="white"/>
        <path d="M14.8281 32.7263C15.4575 32.5576 16.1103 32.4746 16.762 32.4874C20.8143 32.4874 24.8659 32.4874 28.9181 32.4874C29.0435 34.4854 30.0884 36.3992 31.6982 37.5879C32.7682 38.4005 34.0799 38.8673 35.4156 38.9709C32.5047 38.952 29.5932 38.9676 26.6823 38.9626C21.0215 38.9609 15.3612 38.9659 9.70032 38.9598C9.78721 37.9132 10.0863 36.8794 10.6188 35.9714C11.5217 34.3912 13.0696 33.1959 14.8281 32.7263Z" fill="white"/>
        <path d="M42.8394 32.4857C46.6482 32.4891 50.457 32.4868 54.2658 32.4868C54.2669 34.6452 54.2664 36.8042 54.2664 38.9626C52.6048 38.9631 50.9433 38.962 49.2817 38.9631C49.2811 43.9389 49.2811 48.9146 49.2811 53.8904C46.6448 53.8904 44.008 53.8904 41.3717 53.8904C41.3711 48.9141 41.3722 43.9383 41.3711 38.9626C39.6967 38.9687 38.0218 38.9509 36.348 38.9721C37.462 38.8751 38.5627 38.5482 39.5146 37.9538C41.4162 36.8059 42.7023 34.7054 42.8394 32.4857Z" fill="white"/>
        <path d="M30.7691 32.5515C30.8688 32.5136 30.9769 32.5192 31.0822 32.5181C31.7701 32.5209 32.458 32.517 33.1464 32.5192C33.4311 32.5225 33.6973 32.7119 33.8143 32.9687C33.997 33.3547 34.2894 33.6883 34.6487 33.9189C34.8046 34.0214 34.9912 34.0788 35.1266 34.2119C35.3015 34.3796 35.3823 34.6275 35.3711 34.8664C35.3661 35.5515 35.3756 36.2366 35.3661 36.9218C35.3416 37.3601 34.9055 37.7172 34.4715 37.6542C32.4168 37.1746 30.7112 35.4674 30.2255 33.416C30.167 33.0456 30.4143 32.6646 30.7691 32.5515Z" fill="white"/>
        <path d="M38.4006 32.5554C38.4992 32.517 38.6073 32.5181 38.712 32.5181C39.3993 32.5203 40.0872 32.5181 40.7746 32.5186C41.2274 32.5147 41.6056 32.9754 41.5304 33.4182C41.0809 35.3003 39.6127 36.8945 37.7807 37.5116C37.5211 37.593 37.242 37.7211 36.9685 37.6275C36.6377 37.535 36.3904 37.217 36.387 36.8733C36.3848 36.1854 36.3876 35.4975 36.3859 34.8096C36.3792 34.4966 36.5642 34.1896 36.8505 34.0599C37.3356 33.8359 37.7266 33.4299 37.9533 32.9481C38.0408 32.7632 38.2079 32.6217 38.4006 32.5554Z" fill="white"/>
        <path d="M9.69247 39.9652C14.705 39.9652 19.7175 39.9652 24.73 39.9652C26.0484 39.9735 27.3679 39.9479 28.6869 39.9797C30.7545 40.0437 32.7564 41.1071 33.9829 42.7703C35.1276 44.2814 35.5949 46.275 35.2635 48.1398C35.0045 49.6766 34.2019 51.112 33.0366 52.1458C31.8502 53.2114 30.2861 53.8475 28.6919 53.9043C22.3588 53.9048 16.0256 53.9043 9.69191 53.9043C9.69191 51.7459 9.69135 49.5875 9.69247 47.4291C15.9332 47.4291 22.1739 47.4291 28.4151 47.4291C28.7042 47.433 28.9537 47.1188 28.8763 46.8386C28.8323 46.6287 28.6374 46.4538 28.4201 46.4549C22.1772 46.4538 15.9348 46.4549 9.69191 46.4543C9.69191 44.2909 9.69135 42.128 9.69247 39.9652Z" fill="white"/>
    </g>
    <defs>
        <clipPath id="clip0_15_223">
            <rect width="64" height="64" fill="white"/>
        </clipPath>
    </defs>
</svg>
