<svg width="128" height="128" viewBox="0 0 128 128" fill="none" xmlns="http://www.w3.org/2000/svg">
    <circle cx="64" cy="64" r="61.9974" fill="#212126" stroke="white" stroke-width="2"/>
    <path d="M32.6283 20.558C35.7163 19.9029 38.9882 20.1346 41.947 21.2364C44.898 22.3281 47.5226 24.2799 49.4276 26.7831C50.8925 28.6992 51.9364 30.9361 52.4544 33.2934C52.8276 34.9053 52.8799 36.5663 52.8599 38.2139C52.8599 46.4755 52.8599 54.7359 52.8599 62.9974C47.6708 62.9974 42.4806 62.9974 37.2915 62.9974C37.2904 54.2891 37.2927 45.5809 37.2904 36.8727C37.2849 36.2967 36.778 35.7943 36.2121 35.7509C35.5581 35.6796 34.9376 36.2366 34.9265 36.8916C34.922 45.5932 34.9254 54.2947 34.9243 62.9974C29.7441 62.9985 24.564 62.9974 19.3849 62.9974C19.3816 54.1766 19.386 45.3548 19.3827 36.534C19.4451 32.9614 20.7128 29.4255 22.9241 26.6182C25.3148 23.5457 28.8128 21.3478 32.6283 20.558Z" fill="white"/>
    <path d="M46.8386 21.819C51.4685 19.5776 57.1432 19.6623 61.7007 22.0485C65.5351 24.0003 68.5485 27.5038 69.9031 31.5889C70.4345 33.1441 70.7152 34.7817 70.7676 36.4237C70.7676 40.9756 70.7687 45.5274 70.7665 50.0793C66.7093 50.3388 62.8436 52.5045 60.4697 55.7986C58.939 57.8885 58.0177 60.4129 57.835 62.9974C56.9661 62.9974 56.0961 62.9974 55.2271 62.9974C55.2271 54.3593 55.226 45.7224 55.2282 37.0843C55.1135 35.821 55.0756 34.5444 54.7938 33.3011C53.8424 28.6034 50.8892 24.3723 46.8386 21.819Z" fill="white"/>
    <path d="M83.219 20.6282C84.4889 20.2995 85.8057 20.1714 87.1158 20.1915C94.2544 20.1915 101.393 20.1915 108.533 20.1915C108.534 24.5083 108.533 28.824 108.533 33.1407C101.432 33.1419 94.3301 33.143 87.2294 33.1407C86.7147 33.1006 86.0742 33.1508 85.8179 33.6766C85.4537 34.286 85.9784 35.1437 86.6802 35.117C93.9647 35.1215 101.248 35.117 108.533 35.1192C108.533 39.436 108.534 43.7528 108.533 48.0696C101.321 48.0696 94.1095 48.0696 86.8985 48.0696C85.2565 48.1042 83.61 47.8368 82.0615 47.2898C78.5256 46.0666 75.5501 43.344 74.0061 39.9373C72.1836 36.0038 72.354 31.2202 74.4595 27.4292C76.2798 24.0872 79.5249 21.555 83.219 20.6282Z" fill="white"/>
    <path d="M72.6993 50.0381C84.6449 50.0581 96.5916 50.0414 108.538 50.047C108.38 53.1295 107.325 56.1919 105.413 58.6316C104.461 59.8314 103.307 60.8863 101.971 61.6472C100.414 62.5507 98.6124 63.0386 96.8099 62.9985C93.0991 62.9985 89.3884 62.9952 85.6787 62.9996C85.4169 59.0828 83.4039 55.3296 80.2824 52.9501C78.3864 51.4807 76.1038 50.5138 73.7265 50.184C73.3845 50.1283 73.0347 50.1228 72.6993 50.0381Z" fill="white"/>
    <path d="M68.8861 52.7017C69.5456 52.5836 70.244 52.949 70.5504 53.5394C70.7286 53.8592 70.752 54.2335 70.742 54.5922C70.7364 55.8599 70.742 57.1265 70.7398 58.3943C70.7487 59.0204 70.3721 59.632 69.7973 59.8882C68.8504 60.3293 68.0773 61.1181 67.6295 62.0594C67.3966 62.5696 66.8697 62.9573 66.2993 62.9551C64.8433 62.9562 63.3862 62.9551 61.9302 62.9551C61.0367 62.9551 60.3037 62.0349 60.4519 61.1637C61.4211 57.0798 64.8054 53.6865 68.8861 52.7017Z" fill="white"/>
    <path d="M74.1152 52.7017C74.5976 52.6148 75.0633 52.8198 75.5155 52.9612C79.1996 54.1855 82.1562 57.3839 83.0607 61.1615C83.2123 62.0427 82.4603 62.974 81.5557 62.9562C80.1398 62.9562 78.7239 62.9539 77.3091 62.9573C76.7265 62.9907 76.1583 62.6275 75.9088 62.1073C75.4543 61.1414 74.6711 60.3249 73.6975 59.8793C73.1282 59.6186 72.7606 59.0081 72.7717 58.3854C72.7751 57.0062 72.7695 55.6282 72.7751 54.249C72.7829 53.4993 73.3778 52.8231 74.1152 52.7017Z" fill="white"/>
    <path d="M71.2377 61.9068C72.3985 61.5904 73.6885 62.4293 73.8779 63.6135C74.1464 64.8423 73.1081 66.1345 71.8537 66.1501C70.7687 66.2281 69.736 65.3502 69.6168 64.2741C69.4542 63.2214 70.2095 62.1508 71.2377 61.9068Z" fill="white"/>
    <path d="M29.6561 65.4527C30.9149 65.1151 32.2206 64.9491 33.524 64.9747C41.6284 64.9747 49.7317 64.9747 57.8362 64.9747C58.0868 68.9707 60.1767 72.7985 63.3962 75.1758C65.5362 76.8011 68.1597 77.7346 70.8311 77.9418C65.0093 77.904 59.1863 77.9352 53.3645 77.9251C42.0428 77.9218 30.7222 77.9318 19.4005 77.9196C19.5743 75.8263 20.1725 73.7587 21.2375 71.9429C23.0433 68.7824 26.1392 66.3918 29.6561 65.4527Z" fill="white"/>
    <path d="M85.6786 64.9714C93.2962 64.9781 100.914 64.9737 108.531 64.9737C108.534 69.2905 108.533 73.6084 108.533 77.9252C105.209 77.9263 101.886 77.9241 98.5633 77.9263C98.5622 87.8778 98.5622 97.8292 98.5622 107.781C93.2896 107.781 88.0158 107.781 82.7432 107.781C82.7421 97.8281 82.7443 87.8766 82.7421 77.9252C79.3934 77.9374 76.0435 77.9018 72.6959 77.9441C74.9239 77.7503 77.1252 77.0963 79.0291 75.9077C82.8323 73.6117 85.4046 69.4108 85.6786 64.9714Z" fill="white"/>
    <path d="M61.538 65.1029C61.7374 65.0271 61.9535 65.0382 62.1641 65.036C63.5399 65.0416 64.9157 65.0338 66.2926 65.0382C66.8619 65.0449 67.3944 65.4237 67.6283 65.9372C67.9937 66.7093 68.5786 67.3766 69.2971 67.8378C69.609 68.0427 69.9822 68.1575 70.2529 68.4237C70.6027 68.759 70.7643 69.2548 70.742 69.7327C70.732 71.1029 70.7509 72.4732 70.732 73.8434C70.6829 74.7201 69.8107 75.4342 68.9429 75.3083C64.8333 74.3492 61.4222 70.9347 60.4507 66.8318C60.3338 66.091 60.8284 65.329 61.538 65.1029Z" fill="white"/>
    <path d="M76.8011 65.1107C76.9983 65.0338 77.2144 65.036 77.4238 65.036C78.7985 65.0405 80.1743 65.036 81.549 65.0371C82.4547 65.0293 83.2111 65.9506 83.0607 66.8363C82.1617 70.6005 79.2252 73.7888 75.5612 75.0231C75.0421 75.1858 74.484 75.442 73.937 75.2549C73.2752 75.0699 72.7806 74.4338 72.7739 73.7465C72.7695 72.3707 72.7751 70.9949 72.7717 69.6191C72.7583 68.993 73.1282 68.3792 73.7008 68.1196C74.6711 67.6718 75.4531 66.8597 75.9065 65.896C76.0814 65.5262 76.4156 65.2432 76.8011 65.1107Z" fill="white"/>
    <path d="M19.3849 79.9304C29.4099 79.9304 39.4349 79.9304 49.4599 79.9304C52.0968 79.9471 54.7359 79.8958 57.3739 79.9593C61.5091 80.0875 65.5128 82.2141 67.9659 85.5405C70.2552 88.5629 71.1898 92.5499 70.527 96.2796C70.009 99.3532 68.4037 102.224 66.0732 104.292C63.7003 106.423 60.5722 107.695 57.3839 107.809C44.7176 107.81 32.0513 107.809 19.3838 107.809C19.3838 103.492 19.3827 99.1749 19.3849 94.8581C31.8663 94.8581 44.3477 94.8581 56.8302 94.8581C57.4084 94.8659 57.9075 94.2376 57.7526 93.6773C57.6646 93.2573 57.2747 92.9075 56.8403 92.9097C44.3544 92.9075 31.8697 92.9097 19.3838 92.9086C19.3838 88.5818 19.3827 84.2561 19.3849 79.9304Z" fill="white"/>
</svg>
