<?xml version="1.0" encoding="UTF-8"?>
<svg width="20px" height="20px" viewBox="0 0 20 20" version="1.1" xmlns="http://www.w3.org/2000/svg" xmlns:xlink="http://www.w3.org/1999/xlink">
    <title>ic/nodeColor/empty</title>
    <g id="Symbol" stroke="none" stroke-width="1" fill="none" fill-rule="evenodd">
        <g id="ic/nodeColor/empty" fill="#69727B" fill-rule="nonzero">
            <path d="M16.0858716,11.9177745 L16.9343997,12.7663026 L15.5908968,14.1083913 L16.9343997,15.4533084 L16.0858716,16.3018365 L14.7416616,14.9576265 L13.3988658,16.3018365 L12.5503376,15.4533084 L13.8931334,14.1090984 L12.5503376,12.7663026 L13.3988658,11.9177745 L14.7423687,13.2598631 L16.0858716,11.9177745 Z M16.25,8.38652448 L16.25,11.1095245 L15.05,11.1095245 L15.05,9.586 L4.95,9.586 L4.95,14.249 L11.742,14.2485245 L11.742,15.4485245 L4.25,15.4490245 C4.00416667,15.4490245 3.80030864,15.2724813 3.75804184,15.0390108 L3.75,14.9490245 L3.75,8.38652448 L16.25,8.38652448 Z" id="形状结合"></path>
            <path d="M15.75,4.55097552 L4.25,4.55097552 C3.9734375,4.55097552 3.75,4.77441302 3.75,5.05097552 L3.75,7.80097552 L16.25,7.80097552 L16.25,5.05097552 C16.25,4.77441302 16.0265625,4.55097552 15.75,4.55097552 Z" id="路径"></path>
        </g>
    </g>
</svg>