<?xml version="1.0" encoding="UTF-8"?>
<svg width="16px" height="16px" viewBox="0 0 16 16" version="1.1" xmlns="http://www.w3.org/2000/svg" xmlns:xlink="http://www.w3.org/1999/xlink">
    <title>parameter_control_string</title>
    <g id="Symbol" stroke="none" stroke-width="1" fill="none" fill-rule="evenodd">
        <g id="ic/parameter_control/string">
            <rect id="矩形" x="1" y="1" width="14" height="14"></rect>
            <rect id="矩形" fill="#707D9C" x="2.35" y="3.35" width="11.3" height="9.3" rx="2"></rect>
            <path d="M8.30515777,4.56579225 C8.47843535,5.02530309 8.61031555,5.38782579 8.70020699,5.65336037 L11.340768,5.65336037 L11.340768,6.58894099 L10.3117476,6.58894099 C9.96223546,7.63747729 9.46014447,8.52338107 8.80429181,9.2472437 C9.51514383,9.73928104 10.3933595,10.1148143 11.4377561,10.3732522 C11.0539433,10.8398598 10.8002366,11.1793182 10.675453,11.392219 C9.61922866,11.0385671 8.72267985,10.5719596 7.98639801,9.9923964 C7.24479365,10.5512609 6.33464284,11.0320618 5.2553542,11.4342077 C5.04337577,11.086529 4.81197212,10.7510727 4.56224391,10.4294344 C5.59954378,10.1059435 6.46829722,9.70616314 7.16791281,9.23068475 C6.50318929,8.4878976 6.03185063,7.60790774 5.75448824,6.58894099 L4.63853335,6.58894099 L4.63853335,5.65336037 L7.53575804,5.65336037 C7.44487186,5.36039742 7.34786247,5.06936927 7.24479365,4.7804672 L8.30515777,4.56579225 Z M9.13369662,6.58894099 L6.8254974,6.58894099 C7.05110735,7.32584647 7.44766778,7.99900627 7.98284966,8.55354201 C8.51959073,8.00129886 8.91447976,7.32718718 9.13369662,6.58894099 Z" id="形状结合" fill="#2D3239" fill-rule="nonzero"></path>
        </g>
    </g>
</svg>