<?xml version="1.0" encoding="UTF-8"?>
<svg width="16px" height="16px" viewBox="0 0 16 16" version="1.1" xmlns="http://www.w3.org/2000/svg" xmlns:xlink="http://www.w3.org/1999/xlink">
    <title>parameter_control_explanation_null</title>
    <g id="Symbol" stroke="none" stroke-width="1" fill="none" fill-rule="evenodd">
        <g id="ic/parameter_control/explanation_null">
            <rect id="矩形" x="1" y="1" width="14" height="14"></rect>
            <path d="M11.675,11.615 C11.3630386,11.3714183 11.0281291,11.1587508 10.675,10.98 C10.9879106,10.106405 11.1567781,9.18776572 11.175,8.26 L13.175,8.26 C13.1060137,9.5250869 12.5717706,10.7200104 11.675,11.615 L11.675,11.615 Z M9.375,12.97 C9.76447128,12.6268981 10.0851646,12.2128813 10.32,11.75 C10.5622409,11.8717051 10.7946132,12.0121315 11.015,12.17 C10.5219333,12.5318119 9.96825329,12.8027257 9.38,12.97 L9.375,12.97 Z M8.5,12.575 L8.5,11.22 C8.87018603,11.253933 9.23563261,11.3276929 9.59,11.44 C9.3629354,11.9289797 8.97939894,12.3283502 8.5,12.575 L8.5,12.575 Z M8.5,8.26 L10.335,8.26 C10.3195492,9.07767587 10.1813401,9.88839051 9.925,10.665 C9.46351463,10.5109155 8.98500096,10.4135338 8.5,10.375 L8.5,8.26 Z M8.5,5.63 C8.98509876,5.59216193 9.46369651,5.49476309 9.925,5.34 C10.1492791,6.01250036 10.2821355,6.71209879 10.32,7.42 L8.5,7.42 L8.5,5.63 Z M8.5,3.43 C8.97858801,3.67537326 9.36202683,4.07288322 9.59,4.56 C9.23566196,4.67242059 8.87020299,4.74618296 8.5,4.78 L8.5,3.43 Z M11.05,3.835 C10.8297837,3.99312712 10.5973906,4.13356614 10.355,4.255 C10.1198562,3.79231395 9.7992051,3.37835172 9.41,3.035 C9.99284764,3.20189787 10.5413824,3.47108622 11.03,3.83 L11.05,3.835 Z M13.145,7.42 L11.145,7.42 C11.0949231,6.60332762 10.9264985,5.79825782 10.645,5.03 C10.9984631,4.85183701 11.3334285,4.63913398 11.645,4.395 C12.4633496,5.20699229 12.9846563,6.27073992 13.125,7.415 L13.145,7.42 Z M7.645,4.795 C7.23557949,4.76680815 6.83102096,4.68958951 6.44,4.565 C6.67753932,4.03428453 7.10846572,3.61408659 7.645,3.39 L7.645,4.795 Z M7.645,7.42 L5.695,7.42 C5.73393586,6.71222899 5.86676543,6.01277198 6.09,5.34 C6.58959367,5.5074039 7.10906159,5.60827145 7.635,5.64 L7.635,7.42 L7.645,7.42 Z M7.645,10.37 C7.11899537,10.4012048 6.59945908,10.5020856 6.1,10.67 C5.8436599,9.89339051 5.70545075,9.08267586 5.69,8.265 L7.645,8.265 L7.645,10.37 Z M7.645,12.62 C7.10902928,12.3950619 6.67837636,11.9751306 6.44,11.445 C6.83102096,11.3204105 7.23557949,11.2431919 7.645,11.215 L7.645,12.62 Z M4.98,12.175 L5,12.175 C5.22021626,12.0168729 5.4526094,11.8764339 5.695,11.755 C5.93014384,12.2176861 6.25079491,12.6316483 6.64,12.975 C6.03894669,12.8106287 5.47298597,12.5378153 4.97,12.17 L4.98,12.175 Z M2.85,8.26 L4.85,8.26 C4.86875071,9.1877122 5.03760269,10.106267 5.35,10.98 C4.99653691,11.158163 4.66157151,11.370866 4.35,11.615 C3.45322935,10.7200104 2.91898634,9.5250869 2.85,8.26 Z M4.325,4.385 C4.640973,4.62219918 4.97922599,4.8281651 5.335,5 C5.0535015,5.76825781 4.88507685,6.57332762 4.835,7.39 L2.835,7.39 C2.98130479,6.24978977 3.50597408,5.19164802 4.325,4.385 L4.325,4.385 Z M6.625,3.03 C6.23552872,3.37310192 5.91483543,3.78711866 5.68,4.25 C5.44291339,4.12761828 5.21557797,3.98720523 5,3.83 C5.48852844,3.46977273 6.03700009,3.19892254 6.62,3.03 L6.625,3.03 Z M8,2 C4.6862915,2 2,4.6862915 2,8 C2,11.3137085 4.6862915,14 8,14 C11.3137085,14 14,11.3137085 14,8 C14,6.40870106 13.367859,4.88257758 12.2426407,3.75735931 C11.1174224,2.63214104 9.59129894,2 8,2 Z" id="形状" fill="#344361" fill-rule="nonzero"></path>
        </g>
    </g>
</svg>