<?xml version="1.0" encoding="UTF-8"?>
<svg width="16px" height="16px" viewBox="0 0 16 16" version="1.1" xmlns="http://www.w3.org/2000/svg" xmlns:xlink="http://www.w3.org/1999/xlink">
    <title>parameter_control_enum</title>
    <g id="Symbol" stroke="none" stroke-width="1" fill="none" fill-rule="evenodd">
        <g id="ic/parameter_control/enum">
            <rect id="矩形" x="1" y="1" width="14" height="14"></rect>
            <g id="List" transform="translate(1.000000, 1.000000)" fill-rule="nonzero">
                <rect id="矩形" fill="#000000" opacity="0" x="0" y="0" width="14" height="14"></rect>
                <path d="M3.57859567,8.62693027 L1.5,8.62693027 L1.5,10.7179533 C1.5,10.7550711 1.52474519,10.7798163 1.56186297,10.7798163 L3.57865047,10.7798163 L3.57865047,8.62693027 L3.57859567,8.62693027 Z M4.15391578,8.62693027 L4.15391578,10.7798163 L12.4373396,10.7798163 C12.4744574,10.7798163 12.4992026,10.7550711 12.4992026,10.7179533 L12.4992026,8.62693027 L4.15391578,8.62693027 Z M4.15391578,5.90495974 L12.4992026,5.90495974 L12.4992026,8.05161016 L4.15391578,8.05161016 L4.15391578,5.90495974 L4.15391578,5.90495974 Z M1.5,5.90495974 L3.57865047,5.90495974 L3.57865047,8.05161016 L1.5,8.05161016 L1.5,5.90495974 L1.5,5.90495974 Z M3.57860663,3.22018371 L1.56186297,3.22018371 C1.52474519,3.22018371 1.5,3.2448741 1.5,3.28205763 L1.5,5.32971634 L3.57865047,5.32971634 L3.57865047,3.22018371 L3.57860663,3.22018371 Z M12.4435423,3.22018371 L4.15391578,3.22018371 L4.15391578,5.32971634 L12.4992026,5.32971634 L12.4992026,3.28204667 C12.5053943,3.24486314 12.4744574,3.22018371 12.4435314,3.22018371 L12.4435423,3.22018371 Z" id="形状" fill="#CC91CA"></path>
            </g>
        </g>
    </g>
</svg>