<?xml version="1.0" encoding="UTF-8"?>
<svg width="16px" height="16px" viewBox="0 0 16 16" version="1.1" xmlns="http://www.w3.org/2000/svg" xmlns:xlink="http://www.w3.org/1999/xlink">
    <title>parameter_control_float</title>
    <g id="Symbol" stroke="none" stroke-width="1" fill="none" fill-rule="evenodd">
        <g id="ic/parameter_control/float">
            <rect id="矩形" x="1" y="1" width="14" height="14"></rect>
            <rect id="矩形" fill="#57473E" x="2.35" y="3.35" width="11.3" height="9.3" rx="2"></rect>
            <g id=".0" transform="translate(5.080000, 5.364000)" fill="#CCA691" fill-rule="nonzero">
                <path d="M0.712,5.272 C0.509333333,5.272 0.34,5.20133333 0.204,5.06 C0.068,4.91866667 0,4.744 0,4.536 C0,4.32266667 0.068,4.14533333 0.204,4.004 C0.34,3.86266667 0.509333333,3.792 0.712,3.792 C0.914666667,3.792 1.084,3.86266667 1.22,4.004 C1.356,4.14533333 1.424,4.32266667 1.424,4.536 C1.424,4.744 1.356,4.91866667 1.22,5.06 C1.084,5.20133333 0.914666667,5.272 0.712,5.272 Z M4.024,5.272 C3.752,5.272 3.504,5.21466667 3.28,5.1 C3.056,4.98533333 2.86533333,4.816 2.708,4.592 C2.55066667,4.368 2.428,4.09066667 2.34,3.76 C2.252,3.42933333 2.208,3.048 2.208,2.616 C2.208,2.184 2.252,1.80533333 2.34,1.48 C2.428,1.15466667 2.55066667,0.881333333 2.708,0.66 C2.86533333,0.438666667 3.056,0.273333333 3.28,0.164 C3.504,0.0546666667 3.752,0 4.024,0 C4.296,0 4.544,0.0546666667 4.768,0.164 C4.992,0.273333333 5.18266667,0.438666667 5.34,0.66 C5.49733333,0.881333333 5.62,1.15466667 5.708,1.48 C5.796,1.80533333 5.84,2.184 5.84,2.616 C5.84,3.048 5.796,3.42933333 5.708,3.76 C5.62,4.09066667 5.49733333,4.368 5.34,4.592 C5.18266667,4.816 4.992,4.98533333 4.768,5.1 C4.544,5.21466667 4.296,5.272 4.024,5.272 Z M4.024,4.36 C4.12533333,4.36 4.21866667,4.33466667 4.304,4.284 C4.38933333,4.23333333 4.464,4.14133333 4.528,4.008 C4.592,3.87466667 4.64133333,3.696 4.676,3.472 C4.71066667,3.248 4.728,2.96266667 4.728,2.616 C4.728,2.26933333 4.71066667,1.98533333 4.676,1.764 C4.64133333,1.54266667 4.592,1.36933333 4.528,1.244 C4.464,1.11866667 4.38933333,1.032 4.304,0.984 C4.21866667,0.936 4.12533333,0.912 4.024,0.912 C3.928,0.912 3.83733333,0.936 3.752,0.984 C3.66666667,1.032 3.592,1.11866667 3.528,1.244 C3.464,1.36933333 3.41333333,1.54266667 3.376,1.764 C3.33866667,1.98533333 3.32,2.26933333 3.32,2.616 C3.32,2.96266667 3.33866667,3.248 3.376,3.472 C3.41333333,3.696 3.464,3.87466667 3.528,4.008 C3.592,4.14133333 3.66666667,4.23333333 3.752,4.284 C3.83733333,4.33466667 3.928,4.36 4.024,4.36 Z" id="形状结合"></path>
            </g>
        </g>
    </g>
</svg>