<?xml version="1.0" encoding="UTF-8"?>
<svg width="16px" height="16px" viewBox="0 0 16 16" version="1.1" xmlns="http://www.w3.org/2000/svg" xmlns:xlink="http://www.w3.org/1999/xlink">
    <title>parameter_control_group</title>
    <g id="Symbol" stroke="none" stroke-width="1" fill="none" fill-rule="evenodd">
        <g id="ic/parameter_control/group">
            <rect id="矩形" fill="#000000" fill-rule="nonzero" opacity="0" x="1" y="1" width="14" height="14"></rect>
            <path d="M6.40897306,7.48046875 L13.0339731,7.48046875 C13.1542856,7.48046875 13.2527231,7.38203125 13.2527231,7.26171875 L13.2527231,4.85546875 C13.2527231,4.73515625 13.1542856,4.63671875 13.0339731,4.63671875 L6.40897306,4.63671875 C6.28866056,4.63671875 6.19022306,4.73515625 6.19022306,4.85546875 L6.19022306,7.26171875 C6.19022306,7.38203125 6.28866056,7.48046875 6.40897306,7.48046875 Z M7.17459806,5.62109375 L12.2683481,5.62109375 L12.2683481,6.49609375 L7.17459806,6.49609375 L7.17459806,5.62109375 Z" id="shape" fill="#707D9C" fill-rule="nonzero"></path>
            <path d="M13.0339731,8.51953125 C13.1542856,8.51953125 13.2527231,8.61796875 13.2527231,8.73828125 L13.2527231,11.1445312 C13.2527231,11.2648437 13.1542856,11.3632812 13.0339731,11.3632812 L6.40897306,11.3632812 C6.28866056,11.3632812 6.19022306,11.2648438 6.19022306,11.1445312 L6.19022306,8.73828125 C6.19022306,8.61796875 6.28866056,8.51953125 6.40897306,8.51953125 Z M12.2683481,9.50390625 L7.17459806,9.50390625 L7.17459806,10.3789062 L12.2683481,10.3789063 L12.2683481,9.50390625 Z" id="shape" fill="#707D9C" fill-rule="nonzero"></path>
            <path d="M4.25555454,5.23678728 L5.2259102,6.85531019 C5.3111057,6.99741363 5.26497271,7.18167584 5.12286927,7.26687134 C5.0762651,7.29481201 5.02294726,7.30957031 4.96860916,7.30957031 L3.02789785,7.30957031 C2.86221242,7.30957031 2.72789784,7.17525573 2.72789784,7.0095703 C2.72789784,6.9552322 2.74265614,6.90191436 2.77059681,6.85531019 L3.74095246,5.23678728 C3.82614797,5.09468384 4.01041017,5.04855085 4.15251361,5.13374635 C4.1948072,5.1591027 4.2301982,5.19449369 4.25555454,5.23678728 Z" id="三角形" fill="#707D9C" transform="translate(3.998254, 6.058594) rotate(-270.000000) translate(-3.998254, -6.058594) "></path>
            <path d="M4.25555454,9.11959978 L5.2259102,10.7381227 C5.3111057,10.8802261 5.26497271,11.0644883 5.12286927,11.1496838 C5.0762651,11.1776245 5.02294726,11.1923828 4.96860916,11.1923828 L3.02789785,11.1923828 C2.86221242,11.1923828 2.72789784,11.0580682 2.72789784,10.8923828 C2.72789784,10.8380447 2.74265614,10.7847269 2.77059681,10.7381227 L3.74095246,9.11959978 C3.82614797,8.97749634 4.01041017,8.93136335 4.15251361,9.01655885 C4.1948072,9.0419152 4.2301982,9.07730619 4.25555454,9.11959978 Z" id="三角形" fill="#707D9C" transform="translate(3.998254, 9.941406) rotate(-270.000000) translate(-3.998254, -9.941406) "></path>
        </g>
    </g>
</svg>