<?xml version="1.0" encoding="UTF-8"?>
<svg width="16px" height="16px" viewBox="0 0 16 16" version="1.1" xmlns="http://www.w3.org/2000/svg" xmlns:xlink="http://www.w3.org/1999/xlink">
    <title>parameter_control_tab</title>
    <g id="Symbol" stroke="none" stroke-width="1" fill="none" fill-rule="evenodd">
        <g id="ic/parameter_control/tab" fill-rule="nonzero">
            <rect id="矩形" fill="#000000" opacity="0" x="1" y="1" width="14" height="14"></rect>
            <path d="M12.400522,3.599478 L3.599478,3.599478 C3.30770387,3.599478 3.02787888,3.715379 2.8215622,3.92169326 C2.61524553,4.12800751 2.49933782,4.40783114 2.49933782,4.69960527 L2.49933782,11.3003947 C2.49933782,11.5921689 2.61524553,11.8719925 2.8215622,12.0783067 C3.02787888,12.284621 3.30770387,12.400522 3.599478,12.400522 L12.400522,12.400522 C12.6922961,12.400522 12.9721211,12.284621 13.1784378,12.0783067 C13.3847545,11.8719925 13.5006622,11.5921689 13.5006622,11.3003947 L13.5006622,4.69960527 C13.5006622,4.40783114 13.3847545,4.12800751 13.1784378,3.92169326 C12.9721211,3.715379 12.6922961,3.599478 12.400522,3.599478 Z" id="路径" fill="#707D9C"></path>
            <path d="M3.599478,11.3003947 L3.599478,5.24967536 C3.599478,4.94588507 3.8457449,4.69960527 4.14953519,4.69960527 L6.89987272,4.69960527 C7.20366301,4.69960527 7.44992991,4.94588507 7.44992991,5.24967536 L7.44992991,6.34980264 C7.44992991,6.49569029 7.50788356,6.63560277 7.61104171,6.73876092 C7.71419986,6.84191908 7.85411234,6.89987272 8,6.89987272 L12.400522,6.89987272 L12.400522,11.3003947 L3.599478,11.3003947 Z" id="路径" fill="#2D3239"></path>
        </g>
    </g>
</svg>