<?xml version="1.0" encoding="UTF-8"?>
<svg width="16px" height="16px" viewBox="0 0 16 16" version="1.1" xmlns="http://www.w3.org/2000/svg" xmlns:xlink="http://www.w3.org/1999/xlink">
    <title>parameter_key-frame_idle</title>
    <g id="Symbol" stroke="none" stroke-width="1" fill="none" fill-rule="evenodd">
        <g id="ic/parameter/key-frame/idle">
            <circle id="bg" cx="8" cy="8" r="5"></circle>
            <path d="M9.45833331,5.5 L6.54166669,5.5 C5.96637006,5.5 5.5,5.96637006 5.5,6.54166669 L5.5,9.45833331 C5.5,10.0336299 5.96637006,10.5 6.54166669,10.5 L9.45833331,10.5 C10.0336299,10.5 10.5,10.0336299 10.5,9.45833331 L10.5,6.54166669 C10.5,5.96637006 10.0336299,5.5 9.45833331,5.5 Z M6.54166669,6.33333333 L9.45833331,6.33333333 C9.57339265,6.33333333 9.66666667,6.42660735 9.66666667,6.54166669 L9.66666667,9.45833331 C9.66666667,9.57339265 9.57339265,9.66666667 9.45833331,9.66666667 L6.54166669,9.66666667 C6.42660735,9.66666667 6.33333333,9.57339265 6.33333333,9.45833331 L6.33333333,6.54166669 C6.33333333,6.42660735 6.42660735,6.33333333 6.54166669,6.33333333 Z" id="frame" fill="#69727B" fill-rule="nonzero" transform="translate(8.000000, 8.000000) rotate(45.000000) translate(-8.000000, -8.000000) "></path>
        </g>
    </g>
</svg>