<?xml version="1.0" encoding="UTF-8"?>
<svg width="34px" height="20px" viewBox="0 0 34 20" version="1.1" xmlns="http://www.w3.org/2000/svg" xmlns:xlink="http://www.w3.org/1999/xlink">
    <title>ic/timeLine/RUN/on</title>
    <g id="Symbol" stroke="none" stroke-width="1" fill="none" fill-rule="evenodd">
        <g id="ic/timeLine/RUN/on">
            <rect id="bg" x="0" y="0" width="34" height="20"></rect>
            <g id="RUN" transform="translate(6.970703, 6.400000)" fill="#CB7230" fill-rule="nonzero">
                <path d="M5.87402344,7.00195312 L4.0625,7.00195312 L2.97363281,5.20019531 C2.8922526,5.06347656 2.8141276,4.94140625 2.73925781,4.83398438 C2.66438802,4.7265625 2.58870443,4.63460286 2.51220703,4.55810547 C2.43570964,4.48160807 2.35595703,4.42301432 2.27294922,4.38232422 C2.18994141,4.34163411 2.09960938,4.32128906 2.00195312,4.32128906 L1.57714844,4.32128906 L1.57714844,7.00195312 L0,7.00195312 L0,0 L2.5,0 C4.19921875,0 5.04882812,0.634765625 5.04882812,1.90429688 C5.04882812,2.1484375 5.01139323,2.37386068 4.93652344,2.58056641 C4.86165365,2.78727214 4.75585938,2.97363281 4.61914062,3.13964844 C4.48242188,3.30566406 4.31722005,3.44889323 4.12353516,3.56933594 C3.92985026,3.68977865 3.71419271,3.78417969 3.4765625,3.85253906 L3.4765625,3.87207031 C3.58072917,3.9046224 3.68164062,3.95751953 3.77929688,4.03076172 C3.87695312,4.10400391 3.97135417,4.18945312 4.0625,4.28710938 C4.15364583,4.38476562 4.24072266,4.48974609 4.32373047,4.60205078 C4.40673828,4.71435547 4.48242188,4.82421875 4.55078125,4.93164062 L5.87402344,7.00195312 Z M1.57714844,1.18164062 L1.57714844,3.12988281 L2.26074219,3.12988281 C2.59928385,3.12988281 2.87109375,3.03222656 3.07617188,2.83691406 C3.28450521,2.63834635 3.38867188,2.39257812 3.38867188,2.09960938 C3.38867188,1.48763021 3.02246094,1.18164062 2.29003906,1.18164062 L1.57714844,1.18164062 Z" id="形状"></path>
                <path d="M12.2363281,3.96972656 C12.2363281,6.07259115 11.2565104,7.12402344 9.296875,7.12402344 C7.39583333,7.12402344 6.4453125,6.09700521 6.4453125,4.04296875 L6.4453125,0 L8.02734375,0 L8.02734375,4.0625 C8.02734375,5.1953125 8.47005208,5.76171875 9.35546875,5.76171875 C10.2246094,5.76171875 10.6591797,5.21484375 10.6591797,4.12109375 L10.6591797,0 L12.2363281,0 L12.2363281,3.96972656 Z" id="路径"></path>
                <path d="M20.0585938,7.00195312 L18.4667969,7.00195312 L15.5810547,2.60253906 C15.4117839,2.3453776 15.2945964,2.15169271 15.2294922,2.02148438 L15.2099609,2.02148438 C15.2360026,2.26888021 15.2490234,2.64648438 15.2490234,3.15429688 L15.2490234,7.00195312 L13.7597656,7.00195312 L13.7597656,0 L15.4589844,0 L18.2373047,4.26269531 C18.3642578,4.4547526 18.4814453,4.64518229 18.5888672,4.83398438 L18.6083984,4.83398438 C18.5823568,4.67122396 18.5693359,4.35058594 18.5693359,3.87207031 L18.5693359,0 L20.0585938,0 L20.0585938,7.00195312 Z" id="路径"></path>
            </g>
        </g>
    </g>
</svg>