<svg xmlns="http://www.w3.org/2000/svg" width="16" height="16" viewBox="0 0 16 16" fill="none">
  <path fill-rule="evenodd" clip-rule="evenodd" d="M7.99999 3.10281C7.82854 3.10279 7.66306 3.03973 7.53493 2.92561C7.40681 2.81148 7.32495 2.65422 7.30489 2.48365L7.29999 2.40161V1.70042C7.30019 1.5217 7.36851 1.3498 7.49099 1.21984C7.61347 1.08989 7.78086 1.01168 7.95897 1.00121C8.13708 0.990732 8.31246 1.04878 8.44928 1.16349C8.58609 1.2782 8.67402 1.44091 8.69509 1.61838L8.69999 1.70042V2.40161C8.69999 2.58758 8.62624 2.76594 8.49497 2.89743C8.36369 3.02893 8.18564 3.10281 7.99999 3.10281ZM8 12.8972C8.17145 12.8972 8.33694 12.9603 8.46506 13.0744C8.59319 13.1885 8.67504 13.3458 8.6951 13.5163L8.7 13.5984V14.2996C8.6998 14.4783 8.63148 14.6502 8.50901 14.7802C8.38653 14.9101 8.21913 14.9883 8.04102 14.9988C7.86291 15.0093 7.68753 14.9512 7.55072 14.8365C7.4139 14.7218 7.32597 14.5591 7.3049 14.3816L7.3 14.2996V13.5984C7.3 13.4124 7.37375 13.2341 7.50503 13.1026C7.6363 12.9711 7.81435 12.8972 8 12.8972ZM4.535 11.4597C4.66623 11.5912 4.73995 11.7696 4.73995 11.9555C4.73995 12.1414 4.66623 12.3197 4.535 12.4512L4.0401 12.947C3.97553 13.0139 3.89829 13.0674 3.81288 13.1041C3.72748 13.1409 3.63563 13.1602 3.54268 13.161C3.44974 13.1618 3.35756 13.1441 3.27153 13.1088C3.1855 13.0736 3.10735 13.0215 3.04162 12.9557C2.9759 12.8898 2.92392 12.8115 2.88872 12.7254C2.85353 12.6392 2.83582 12.5469 2.83662 12.4538C2.83743 12.3606 2.85674 12.2686 2.89343 12.1831C2.93012 12.0975 2.98344 12.0202 3.0503 11.9555L3.5452 11.4597C3.67647 11.3283 3.85449 11.2544 4.0401 11.2544C4.22571 11.2544 4.40373 11.3283 4.535 11.4597ZM12.4548 11.4597L12.9497 11.9555C13.0772 12.0877 13.1478 12.2649 13.1462 12.4487C13.1446 12.6326 13.071 12.8084 12.9412 12.9384C12.8114 13.0684 12.6358 13.1422 12.4523 13.1438C12.2687 13.1454 12.0919 13.0747 11.9599 12.947L11.465 12.4512C11.3375 12.319 11.2669 12.1419 11.2685 11.958C11.2701 11.7742 11.3437 11.5983 11.4735 11.4683C11.6033 11.3383 11.7789 11.2645 11.9624 11.2629C12.146 11.2613 12.3228 11.332 12.4548 11.4597ZM2.4 7.28763C2.58565 7.28763 2.7637 7.3615 2.89497 7.493C3.02625 7.6245 3.1 7.80285 3.1 7.98882C3.1 8.17479 3.02625 8.35314 2.89497 8.48464C2.7637 8.61614 2.58565 8.69002 2.4 8.69002H1.7C1.51435 8.69002 1.3363 8.61614 1.20503 8.48464C1.07375 8.35314 1 8.17479 1 7.98882C1 7.80285 1.07375 7.6245 1.20503 7.493C1.3363 7.3615 1.51435 7.28763 1.7 7.28763H2.4ZM14.3 7.28763C14.4857 7.28763 14.6637 7.3615 14.795 7.493C14.9263 7.6245 15 7.80285 15 7.98882C15 8.17479 14.9263 8.35314 14.795 8.48464C14.6637 8.61614 14.4857 8.69002 14.3 8.69002H13.6C13.4143 8.69002 13.2363 8.61614 13.105 8.48464C12.9738 8.35314 12.9 8.17479 12.9 7.98882C12.9 7.80285 12.9738 7.6245 13.105 7.493C13.2363 7.3615 13.4143 7.28763 13.6 7.28763H14.3ZM12.9497 3.03137C13.0809 3.16286 13.1547 3.34118 13.1547 3.52711C13.1547 3.71305 13.0809 3.89137 12.9497 4.02286L12.4548 4.5186C12.3902 4.58558 12.313 4.63899 12.2276 4.67574C12.1422 4.71249 12.0503 4.73184 11.9574 4.73265C11.8644 4.73345 11.7723 4.71571 11.6862 4.68046C11.6002 4.6452 11.522 4.59313 11.4563 4.5273C11.3906 4.46146 11.3386 4.38317 11.3034 4.29699C11.2682 4.21082 11.2505 4.11849 11.2513 4.02538C11.2521 3.93228 11.2714 3.84027 11.3081 3.75472C11.3448 3.66917 11.3981 3.5918 11.465 3.52711L11.9599 3.03137C12.0912 2.89992 12.2692 2.82607 12.4548 2.82607C12.6404 2.82607 12.8184 2.89992 12.9497 3.03137ZM4.0401 3.03137L4.535 3.52711C4.65936 3.65996 4.72724 3.83605 4.72429 4.01814C4.72134 4.20023 4.64778 4.37402 4.51918 4.50275C4.39059 4.63148 4.21703 4.70504 4.03525 4.70787C3.85347 4.7107 3.67773 4.64257 3.5452 4.5179L3.0503 4.02216C2.92594 3.88932 2.85806 3.71322 2.86101 3.53113C2.86396 3.34904 2.93752 3.17525 3.06612 3.04652C3.19471 2.91779 3.36827 2.84423 3.55005 2.84141C3.73182 2.83858 3.90757 2.9067 4.0401 3.03137ZM3.94123 9.06964C3.85331 8.73868 3.80662 8.40039 3.80065 8.06222V7.91343C3.80997 7.3858 3.91835 6.86112 4.12389 6.36768C4.33203 5.868 4.63299 5.41671 5.00732 5.0359C5.39682 4.63978 5.86341 4.32232 6.38227 4.10545C6.87498 3.89951 7.39889 3.79094 7.92575 3.78166H8.07354C8.41126 3.78761 8.7491 3.83438 9.07962 3.92249C9.9743 4.16096 10.7652 4.68887 11.3295 5.42413C11.8937 6.15939 12.1996 7.06079 12.1996 7.98818C12.1996 8.91557 11.8937 9.81697 11.3295 10.5522C11.2247 10.6888 11.112 10.8182 10.9924 10.94C10.8577 11.0769 10.7132 11.2051 10.5597 11.3233C9.82567 11.8885 8.9258 12.195 8 12.195C7.07419 12.195 6.17432 11.8885 5.44032 11.3233C4.70631 10.7581 4.1793 9.96585 3.94123 9.06964Z" fill="#F8F8F8"/>
</svg>