<svg width="30" height="30" viewBox="0 0 30 30" fill="none" xmlns="http://www.w3.org/2000/svg">
<rect x="5" y="5" width="20" height="20" fill="#BD19E6"/>
<path d="M20.6435 11.4517L15.2435 9.05175C15.1667 9.01763 15.0836 9 14.9996 9C14.9156 9 14.8325 9.01763 14.7557 9.05175L9.3558 11.4517C9.3438 11.4571 9.3354 11.4661 9.3234 11.4727C9.3066 11.4811 9.2886 11.4865 9.273 11.4967C9.2598 11.5057 9.2496 11.5171 9.237 11.5267C9.19314 11.5593 9.15467 11.5986 9.123 11.6431C9.111 11.6599 9.0984 11.6749 9.0876 11.6917C9.06974 11.7234 9.05449 11.7565 9.042 11.7907C9.0366 11.8069 9.0282 11.8219 9.0234 11.8381C9.00833 11.8908 9.00046 11.9453 9 12.0001V18C9 18.2376 9.1392 18.4518 9.3564 18.5484L14.7563 20.9484C14.8343 20.9832 14.9171 21 14.9999 21C15.0835 20.9979 15.1656 20.9782 15.2411 20.9424L15.2435 20.9484L20.6435 18.5484C20.7496 18.5014 20.8398 18.4245 20.903 18.3271C20.9663 18.2298 20.9999 18.1161 20.9998 18V12.0001C20.9999 11.884 20.9663 11.7704 20.903 11.673C20.8398 11.5757 20.7496 11.4988 20.6435 11.4517ZM14.9999 10.2571L18.9227 12.0001L14.9999 13.7431L14.2151 13.3945L11.0778 12.0001L14.9999 10.2571ZM15.5999 19.4766V14.7901L19.7999 12.9235V17.6106L15.5999 19.4766Z" fill="#F8F8F8"/>
</svg>
