<svg xmlns="http://www.w3.org/2000/svg" width="16" height="16" viewBox="0 0 16 16" fill="none">
  <path d="M12.6435 4.45172L7.24352 2.05175C7.16674 2.01763 7.08365 2 6.99962 2C6.9156 2 6.83251 2.01763 6.75573 2.05175L1.3558 4.45172C1.3438 4.45712 1.3354 4.46612 1.3234 4.47272C1.3066 4.48112 1.2886 4.48652 1.273 4.49672C1.2598 4.50572 1.2496 4.51712 1.237 4.52672C1.19314 4.55931 1.15467 4.59859 1.123 4.64312C1.111 4.65992 1.0984 4.67492 1.0876 4.69172C1.06974 4.72343 1.05449 4.75654 1.042 4.79072C1.0366 4.80692 1.0282 4.82192 1.0234 4.83812C1.00833 4.89081 1.00046 4.94531 1 5.00011V11C1 11.2376 1.1392 11.4518 1.3564 11.5484L6.75633 13.9484C6.83433 13.9832 6.91712 14 6.99992 14C7.08346 13.9979 7.16563 13.9782 7.24112 13.9424L7.24352 13.9484L12.6435 11.5484C12.7496 11.5014 12.8398 11.4245 12.903 11.3271C12.9663 11.2298 12.9999 11.1161 12.9998 11V5.00011C12.9999 4.88401 12.9663 4.77038 12.903 4.67303C12.8398 4.57567 12.7496 4.49879 12.6435 4.45172ZM6.99992 3.25714L10.9227 5.00011L6.99992 6.74309L6.21513 6.3945L3.07777 5.00011L6.99992 3.25714ZM7.59992 12.4766V7.79008L11.7999 5.9235V10.6106L7.59992 12.4766Z" fill="#F8F8F8"/>
</svg>