<svg width="16" height="16" viewBox="0 0 16 16" fill="none" xmlns="http://www.w3.org/2000/svg">
<path fill-rule="evenodd" clip-rule="evenodd" d="M7.5 3H8.5V5.04148C8.95583 5.11795 9.37681 5.29722 9.73828 5.55463L11.4142 3.87871L12.1213 4.58582L10.4454 6.26174C10.7028 6.62321 10.882 7.04418 10.9585 7.5H13V8.5H10.9585C10.882 8.95583 10.7028 9.37681 10.4454 9.73828L12.1213 11.4142L11.4142 12.1213L9.73826 10.4454C9.37679 10.7028 8.95582 10.882 8.5 10.9585V13H7.5V10.9585C7.02316 10.8785 6.58447 10.686 6.21214 10.4093L4.50001 12.1214L3.79291 11.4143L5.51944 9.68777C5.28087 9.33782 5.11442 8.93476 5.04148 8.5H3V7.5H5.04148C5.11795 7.04418 5.29722 6.62321 5.55462 6.26174L3.87868 4.5858L4.58578 3.87869L6.26172 5.55463C6.62319 5.29722 7.04417 5.11795 7.5 5.04148V3Z" fill="white"/>
</svg>
