<svg width="30" height="30" viewBox="0 0 30 30" fill="none" xmlns="http://www.w3.org/2000/svg">
<rect x="5" y="5" width="20" height="20" fill="#E67B19"/>
<path fill-rule="evenodd" clip-rule="evenodd" d="M15 10.1028C14.8285 10.1028 14.6631 10.0397 14.5349 9.92561C14.4068 9.81148 14.325 9.65422 14.3049 9.48365L14.3 9.40161V8.70042C14.3002 8.5217 14.3685 8.3498 14.491 8.21984C14.6135 8.08989 14.7809 8.01168 14.959 8.00121C15.1371 7.99073 15.3125 8.04878 15.4493 8.16349C15.5861 8.2782 15.674 8.44091 15.6951 8.61838L15.7 8.70042V9.40161C15.7 9.58758 15.6262 9.76594 15.495 9.89743C15.3637 10.0289 15.1856 10.1028 15 10.1028ZM15 19.8972C15.1715 19.8972 15.3369 19.9603 15.4651 20.0744C15.5932 20.1885 15.675 20.3458 15.6951 20.5163L15.7 20.5984V21.2996C15.6998 21.4783 15.6315 21.6502 15.509 21.7802C15.3865 21.9101 15.2191 21.9883 15.041 21.9988C14.8629 22.0093 14.6875 21.9512 14.5507 21.8365C14.4139 21.7218 14.326 21.5591 14.3049 21.3816L14.3 21.2996V20.5984C14.3 20.4124 14.3738 20.2341 14.505 20.1026C14.6363 19.9711 14.8143 19.8972 15 19.8972ZM11.535 18.4597C11.6662 18.5912 11.74 18.7696 11.74 18.9555C11.74 19.1414 11.6662 19.3197 11.535 19.4512L11.0401 19.947C10.9755 20.0139 10.8983 20.0674 10.8129 20.1041C10.7275 20.1409 10.6356 20.1602 10.5427 20.161C10.4497 20.1618 10.3576 20.1441 10.2715 20.1088C10.1855 20.0736 10.1073 20.0215 10.0416 19.9557C9.9759 19.8898 9.92392 19.8115 9.88872 19.7254C9.85353 19.6392 9.83582 19.5469 9.83662 19.4538C9.83743 19.3606 9.85674 19.2686 9.89343 19.1831C9.93012 19.0975 9.98344 19.0202 10.0503 18.9555L10.5452 18.4597C10.6765 18.3283 10.8545 18.2544 11.0401 18.2544C11.2257 18.2544 11.4037 18.3283 11.535 18.4597ZM19.4548 18.4597L19.9497 18.9555C20.0772 19.0877 20.1478 19.2649 20.1462 19.4487C20.1446 19.6326 20.071 19.8084 19.9412 19.9384C19.8114 20.0684 19.6358 20.1422 19.4523 20.1438C19.2687 20.1454 19.0919 20.0747 18.9599 19.947L18.465 19.4512C18.3375 19.319 18.2669 19.1419 18.2685 18.958C18.2701 18.7742 18.3437 18.5983 18.4735 18.4683C18.6033 18.3383 18.7789 18.2645 18.9624 18.2629C19.146 18.2613 19.3228 18.332 19.4548 18.4597ZM9.4 14.2876C9.58565 14.2876 9.7637 14.3615 9.89497 14.493C10.0263 14.6245 10.1 14.8029 10.1 14.9888C10.1 15.1748 10.0263 15.3531 9.89497 15.4846C9.7637 15.6161 9.58565 15.69 9.4 15.69H8.7C8.51435 15.69 8.3363 15.6161 8.20503 15.4846C8.07375 15.3531 8 15.1748 8 14.9888C8 14.8029 8.07375 14.6245 8.20503 14.493C8.3363 14.3615 8.51435 14.2876 8.7 14.2876H9.4ZM21.3 14.2876C21.4857 14.2876 21.6637 14.3615 21.795 14.493C21.9263 14.6245 22 14.8029 22 14.9888C22 15.1748 21.9263 15.3531 21.795 15.4846C21.6637 15.6161 21.4857 15.69 21.3 15.69H20.6C20.4143 15.69 20.2363 15.6161 20.105 15.4846C19.9738 15.3531 19.9 15.1748 19.9 14.9888C19.9 14.8029 19.9738 14.6245 20.105 14.493C20.2363 14.3615 20.4143 14.2876 20.6 14.2876H21.3ZM19.9497 10.0314C20.0809 10.1629 20.1547 10.3412 20.1547 10.5271C20.1547 10.713 20.0809 10.8914 19.9497 11.0229L19.4548 11.5186C19.3902 11.5856 19.313 11.639 19.2276 11.6757C19.1422 11.7125 19.0503 11.7318 18.9574 11.7326C18.8644 11.7335 18.7723 11.7157 18.6862 11.6805C18.6002 11.6452 18.522 11.5931 18.4563 11.5273C18.3906 11.4615 18.3386 11.3832 18.3034 11.297C18.2682 11.2108 18.2505 11.1185 18.2513 11.0254C18.2521 10.9323 18.2714 10.8403 18.3081 10.7547C18.3448 10.6692 18.3981 10.5918 18.465 10.5271L18.9599 10.0314C19.0912 9.89992 19.2692 9.82607 19.4548 9.82607C19.6404 9.82607 19.8184 9.89992 19.9497 10.0314ZM11.0401 10.0314L11.535 10.5271C11.6594 10.66 11.7272 10.8361 11.7243 11.0181C11.7213 11.2002 11.6478 11.374 11.5192 11.5028C11.3906 11.6315 11.217 11.705 11.0353 11.7079C10.8535 11.7107 10.6777 11.6426 10.5452 11.5179L10.0503 11.0222C9.92594 10.8893 9.85806 10.7132 9.86101 10.5311C9.86396 10.349 9.93752 10.1752 10.0661 10.0465C10.1947 9.91779 10.3683 9.84423 10.55 9.84141C10.7318 9.83858 10.9076 9.9067 11.0401 10.0314ZM10.9412 16.0696C10.8533 15.7387 10.8066 15.4004 10.8007 15.0622V14.9134C10.81 14.3858 10.9183 13.8611 11.1239 13.3677C11.332 12.868 11.633 12.4167 12.0073 12.0359C12.3968 11.6398 12.8634 11.3223 13.3823 11.1055C13.875 10.8995 14.3989 10.7909 14.9257 10.7817H15.0735C15.4113 10.7876 15.7491 10.8344 16.0796 10.9225C16.9743 11.161 17.7652 11.6889 18.3295 12.4241C18.8937 13.1594 19.1996 14.0608 19.1996 14.9882C19.1996 15.9156 18.8937 16.817 18.3295 17.5522C18.2247 17.6888 18.112 17.8182 17.9924 17.94C17.8577 18.0769 17.7132 18.2051 17.5597 18.3233C16.8257 18.8885 15.9258 19.195 15 19.195C14.0742 19.195 13.1743 18.8885 12.4403 18.3233C11.7063 17.7581 11.1793 16.9658 10.9412 16.0696Z" fill="#F8F8F8"/>
</svg>
