<svg xmlns="http://www.w3.org/2000/svg" width="16" height="16" viewBox="0 0 16 16" fill="none">
  <path d="M4.4961 3.13169C4.34403 3.04482 4.17181 2.99941 3.99669 3.00001C3.82156 3.0006 3.64965 3.04717 3.49818 3.13506C3.3467 3.22295 3.22095 3.34908 3.13353 3.50082C3.0461 3.65257 3.00006 3.82461 3 3.99974V12.0003C3.00006 12.1754 3.0461 12.3474 3.13353 12.4992C3.22095 12.6509 3.3467 12.7771 3.49818 12.8649C3.64965 12.9528 3.82156 12.9994 3.99669 13C4.17181 13.0006 4.34403 12.9552 4.4961 12.8683L11.4965 8.86806C11.6495 8.78055 11.7766 8.65418 11.865 8.50175C11.9535 8.34931 12 8.17622 12 8C12 7.82378 11.9535 7.65069 11.865 7.49825C11.7766 7.34582 11.6495 7.21945 11.4965 7.13194L4.4961 3.13169Z" fill="#F8F8F8"/>
</svg>