<?xml version="1.0" encoding="UTF-8"?>
<svg width="20px" height="20px" viewBox="0 0 20 20" version="1.1" xmlns="http://www.w3.org/2000/svg" xmlns:xlink="http://www.w3.org/1999/xlink">
    <title>ic/toolbar/localSetting/light</title>
    <g id="Symbol" stroke="none" stroke-width="1" fill="none" fill-rule="evenodd">
        <g id="ic/toolbar/localSetting/light" fill="#DFE2E5">
            <path d="M11.0917241,3.5 C11.3278436,3.5 11.5317781,3.66517932 11.5808203,3.89614962 L11.9024942,5.41109597 C12.3042751,5.57785397 12.6794288,5.79584132 13.0198054,6.05690801 L14.4957959,5.57859455 C14.7202752,5.50575162 14.9651219,5.59978931 15.0831286,5.8041701 L16.1751468,7.69548283 C16.2932018,7.89994743 16.2521449,8.1591265 16.0766765,8.31709363 L14.9248456,9.35486712 C14.9522375,9.56603637 14.966365,9.78136836 14.966365,10 C14.966365,10.2186316 14.9522375,10.4339636 14.9248456,10.6451329 L16.0766654,11.6827526 C16.25214,11.8407146 16.293205,12.099894 16.1751549,12.3043629 L15.0832687,14.1955653 C14.9652422,14.3999932 14.7203233,14.4940282 14.4958133,14.4211149 L13.0198054,13.943092 C12.6794288,14.2041587 12.3042751,14.422146 11.9024942,14.588904 L11.5809672,16.103787 C11.5319499,16.3347874 11.3280014,16.5 11.0918576,16.5 L8.90818954,16.5 C8.67213269,16.5 8.46823435,16.3349064 8.41912805,16.1040137 L8.09589231,14.5882125 C7.69445022,14.4214231 7.3196114,14.2034833 6.97950975,13.9425268 L5.50437231,14.4211834 C5.27984725,14.4941486 5.03488097,14.4001258 4.91683368,14.1956747 L3.82484676,12.3044161 C3.70681812,12.0999973 3.74782769,11.8408808 3.92321228,11.6828996 L5.07520624,10.6451329 C5.04781432,10.4339636 5.03368681,10.2186316 5.03368681,10 C5.03368681,9.78136836 5.04781432,9.56603637 5.07520624,9.35486712 L3.92323221,8.31725381 C3.74783688,8.15927845 3.70681663,7.90015825 3.82484178,7.6957327 L4.91682038,5.80437027 C5.03483005,5.59997152 5.27969925,5.50593032 5.50419019,5.57879284 L6.98050655,6.05670856 C7.32034376,5.79609099 7.69484237,5.57841395 8.09589231,5.41178752 L8.41893951,3.89598416 C8.46804664,3.66509254 8.67194452,3.5 8.90800056,3.5 L11.0917241,3.5 Z M10.0000259,7.66516146 C8.71053021,7.66516146 7.66518738,8.71050428 7.66518738,10 C7.66518738,11.2894957 8.71053021,12.3348385 10.0000259,12.3348385 C11.2895216,12.3348385 12.3348645,11.2894957 12.3348645,10 C12.3348645,8.71050428 11.2895216,7.66516146 10.0000259,7.66516146 Z" id="形状结合"></path>
        </g>
    </g>
</svg>