<?xml version="1.0" encoding="UTF-8"?>
<svg width="20px" height="20px" viewBox="0 0 20 20" version="1.1" xmlns="http://www.w3.org/2000/svg" xmlns:xlink="http://www.w3.org/1999/xlink">
    <title>ic/nodeToolbar/subnetPanel/selected</title>
    <g id="Symbol" stroke="none" stroke-width="1" fill="none" fill-rule="evenodd">
        <g id="ic/nodeToolbar/subnetPanel/selected" fill="#DFE2E5">
            <path d="M16.4213655,4.04460002 C16.6975079,4.04460002 16.9213655,4.26845764 16.9213655,4.54460002 L16.9213655,15.4554 C16.9213655,15.7315424 16.6975079,15.9554 16.4213655,15.9554 L3.57863449,15.9554 C3.30249212,15.9554 3.07863449,15.7315424 3.07863449,15.4554 L3.07863449,4.54460002 C3.07863449,4.26845764 3.30249212,4.04460002 3.57863449,4.04460002 L16.4213655,4.04460002 Z M8.17977204,7.2971048 L4.85641227,7.2971048 L4.85641227,14.1776222 L8.17977204,14.1776222 L8.17977204,7.2971048 Z M15.1435877,7.2971048 L9.95754982,7.2971048 L9.95754982,14.1776222 L15.1435877,14.1776222 L15.1435877,7.2971048 Z M7.26809216,11.4873635 L7.26809216,12.9873635 L5.76809216,12.9873635 L5.76809216,11.4873635 L7.26809216,11.4873635 Z M7.26809216,8.4873635 L7.26809216,9.9873635 L5.76809216,9.9873635 L5.76809216,8.4873635 L7.26809216,8.4873635 Z" id="形状结合"></path>
        </g>
    </g>
</svg>