<?xml version="1.0" encoding="UTF-8"?>
<svg width="20px" height="20px" viewBox="0 0 20 20" version="1.1" xmlns="http://www.w3.org/2000/svg" xmlns:xlink="http://www.w3.org/1999/xlink">
    <title>ic/subnet/general</title>
    <g id="Symbol" stroke="none" stroke-width="1" fill="none" fill-rule="evenodd">
        <g id="ic/subnet/general" fill="#6399B7" fill-rule="nonzero">
            <path d="M8.37653315,5 C8.65267553,5 8.87653315,5.22385763 8.87653315,5.5 L8.87625,7.7 L11.12325,7.7 L11.1234668,5.5 C11.1234668,5.22385763 11.3473245,5 11.6234668,5 L12.0234668,5 C12.2996092,5 12.5234668,5.22385763 12.5234668,5.5 L12.52325,7.7 L14.96875,7.7 C15.2448924,7.7 15.46875,7.92385763 15.46875,8.2 L15.46875,8.6 C15.46875,8.87614237 15.2448924,9.1 14.96875,9.1 L12.52325,9.1 L12.52325,10.9 L14.96875,10.9 C15.2448924,10.9 15.46875,11.1238576 15.46875,11.4 L15.46875,11.8 C15.46875,12.0761424 15.2448924,12.3 14.96875,12.3 L12.52325,12.3 L12.5234668,14.5 C12.5234668,14.7761424 12.2996092,15 12.0234668,15 L11.6234668,15 C11.3473245,15 11.1234668,14.7761424 11.1234668,14.5 L11.12325,12.3 L8.87625,12.3 L8.87653315,14.5 C8.87653315,14.7761424 8.65267553,15 8.37653315,15 L7.97653315,15 C7.70039078,15 7.47653315,14.7761424 7.47653315,14.5 L7.47625,12.3 L5.03125,12.3 C4.75510763,12.3 4.53125,12.0761424 4.53125,11.8 L4.53125,11.4 C4.53125,11.1238576 4.75510763,10.9 5.03125,10.9 L7.47625,10.9 L7.47625,9.1 L5.03125,9.1 C4.75510763,9.1 4.53125,8.87614237 4.53125,8.6 L4.53125,8.2 C4.53125,7.92385763 4.75510763,7.7 5.03125,7.7 L7.47625,7.7 L7.47653315,5.5 C7.47653315,5.22385763 7.70039078,5 7.97653315,5 L8.37653315,5 Z M11.12325,10.9 L11.12325,9.1 L8.87625,9.1 L8.87625,10.9 L11.12325,10.9 Z" id="形状"></path>
        </g>
    </g>
</svg>