<?xml version="1.0" encoding="UTF-8"?>
<svg width="14px" height="14px" viewBox="0 0 14 14" version="1.1" xmlns="http://www.w3.org/2000/svg" xmlns:xlink="http://www.w3.org/1999/xlink">
    <title>timeline_run_thunder</title>
    <g id="Symbol" stroke="none" stroke-width="1" fill="none" fill-rule="evenodd">
        <g id="ic/timeline/run_thunder" fill-rule="nonzero">
            <rect id="Rectangle" fill="#000000" opacity="0" x="0" y="0" width="14" height="14"></rect>
            <path d="M6.07070142,0.940438713 L5.98916083,1.04475023 L1.90583661,6.87808812 C1.65237329,7.25251912 1.61943649,7.72298498 1.81366006,8.11987336 L1.87998598,8.24080895 C2.09826584,8.58979818 2.48534156,8.81115972 2.90828943,8.81660818 L4.59912346,8.81599764 L4.6,12.25 C4.60040038,12.7839887 4.94377844,13.2567517 5.45099668,13.4221398 C5.57694946,13.4612577 5.69838635,13.4808509 5.82076655,13.4832234 C6.22640046,13.4843516 6.5977708,13.2963657 6.83065748,12.9776519 L11.4981785,6.55981154 C11.7703912,6.18284506 11.8084854,5.68757525 11.5981283,5.27537531 L11.5295578,5.15644192 C11.3053965,4.81377206 10.9199569,4.60127678 10.5019808,4.60000302 L8.23312346,4.59999764 L8.23333789,1.75 C8.23206514,1.21038171 7.88209975,0.735228126 7.36860896,0.574410964 C6.89790908,0.426995233 6.389404,0.574903039 6.07070142,0.940438713 Z M6.93312346,1.96299764 L6.93333789,5.25 L6.94038556,5.34605224 C6.98681143,5.65949181 7.25698781,5.9 7.58333789,5.9 L10.3691235,5.89999764 L5.89912346,12.0469976 L5.9,8.16666211 L5.89295233,8.07060987 C5.84652646,7.7571703 5.57635008,7.51666211 5.25,7.51666211 L3.04512346,7.51599764 L6.93312346,1.96299764 Z" id="Path" fill="#FFFFFF"></path>
        </g>
    </g>
</svg>