<?xml version="1.0" encoding="UTF-8"?>
<svg width="20px" height="20px" viewBox="0 0 20 20" version="1.1" xmlns="http://www.w3.org/2000/svg" xmlns:xlink="http://www.w3.org/1999/xlink">
    <title>ic/toolbar/nodeSearch/light</title>
    <g id="Symbol" stroke="none" stroke-width="1" fill="none" fill-rule="evenodd">
        <g id="ic/toolbar/nodeSearch/light" fill="#DFE2E5" fill-rule="nonzero">
            <path d="M9.42665238,3.5 C12.6836573,3.5 15.2725587,6.08890139 15.2725587,9.34590633 C15.2725587,10.5107025 14.941444,11.5900497 14.3670714,12.496091 L16.4192539,14.5485668 L14.4678207,16.5 L12.3757911,14.4081241 C11.512844,14.9072512 10.5064658,15.1918127 9.42665238,15.1918127 C6.16964742,15.1918127 3.58074605,12.6029113 3.58074605,9.34590633 C3.58074605,6.08890137 6.16964744,3.5 9.42665238,3.5 Z M9.42665238,6.00538843 C7.55596235,6.00538843 6.08613448,7.47521631 6.08613448,9.34590633 C6.08613448,11.2165963 7.55596236,12.6864242 9.42665238,12.6864242 C11.2973424,12.6864242 12.7671703,11.2165964 12.7671703,9.34590633 C12.7671703,7.4752163 11.2973424,6.00538843 9.42665238,6.00538843 Z" id="形状结合"></path>
        </g>
    </g>
</svg>