<?xml version="1.0" encoding="UTF-8"?>
<svg width="20px" height="20px" viewBox="0 0 20 20" version="1.1" xmlns="http://www.w3.org/2000/svg" xmlns:xlink="http://www.w3.org/1999/xlink">
    <title>ic/toolbar/logger-delete/idle</title>
    <g id="Symbol" stroke="none" stroke-width="1" fill="none" fill-rule="evenodd">
        <g id="ic/toolbar/logger-delete/idle" fill="#69727B" fill-rule="nonzero">
            <path d="M15.0534102,5.38189668 L13.0055114,5.66987437 L12.8131816,4.30443619 C12.7907966,4.14810126 12.7066077,4.0072897 12.5794906,3.9135724 C12.3142616,3.71348736 11.9109894,3.734685 11.6959109,3.76570594 L7.59546024,4.34166131 C6.84216852,4.44764951 6.62347092,4.83747926 6.66948531,5.1668182 L6.84733867,6.43092132 L6.86181511,6.53329041 L5.63183501,6.70597362 L4.81339933,6.8212681 C4.62742747,6.84350677 4.46802546,6.96458556 4.39671313,7.13777518 C4.3254008,7.31096479 4.35333102,7.50917927 4.46972437,7.65591945 C4.58611771,7.80265963 4.77277087,7.87497611 4.95764668,7.84495897 L5.33817016,7.79118935 L5.63183501,7.75034512 L5.70008107,7.74052182 L6.5200678,7.62522734 L7.55306496,7.47994596 L8.73392857,7.31398396 L11.8360221,6.87813981 L14.9381157,6.44177865 L15.1971405,6.40558756 C15.479948,6.36629437 15.676931,6.10468448 15.6371208,5.82187695 C15.5973106,5.53906942 15.3377687,5.34105245 15.0534102,5.38189668 L15.0534102,5.38189668 Z M8.21691298,9.5335319 C8.21691298,9.24799207 8.44838874,9.0165163 8.73392857,9.0165163 C9.0194684,9.0165163 9.25094417,9.24799207 9.25094417,9.5335319 L9.25094417,12.9344605 C9.25094417,13.2200003 9.0194684,13.4514761 8.73392857,13.4514761 C8.44838874,13.4514761 8.21691298,13.2200003 8.21691298,12.9344605 L8.21691298,9.5335319 Z M11.3190065,9.5335319 C11.3190065,9.24799207 11.5504823,9.0165163 11.8360221,9.0165163 C12.121562,9.0165163 12.3530377,9.24799207 12.3530377,9.5335319 L12.3530377,12.9344605 C12.3530377,13.2200003 12.121562,13.4514761 11.8360221,13.4514761 C11.5504823,13.4514761 11.3190065,13.2200003 11.3190065,12.9344605 L11.3190065,9.5335319 Z M5.63183501,8.87537105 L5.63183501,15.2201864 C5.63183501,15.5531445 5.79314388,15.8473263 6.03872628,16.037071 C6.21347755,16.1714951 6.42959007,16.2542176 6.66638321,16.2542176 L13.9035675,16.2542176 C14.1309278,16.2534876 14.3515753,16.1770886 14.5307074,16.037071 C14.7768068,15.8478433 14.9381157,15.5541785 14.9381157,15.2201864 L14.9381157,8.56361064 L5.61787559,8.56361064 L5.63183501,8.87588806 L5.63183501,8.87537105 Z" id="形状"></path>
        </g>
    </g>
</svg>