<?xml version="1.0" encoding="UTF-8"?>
<svg width="20px" height="20px" viewBox="0 0 20 20" version="1.1" xmlns="http://www.w3.org/2000/svg" xmlns:xlink="http://www.w3.org/1999/xlink">
    <title>viewToolbar_grid_light</title>
    <g id="Symbol" stroke="none" stroke-width="1" fill="none" fill-rule="evenodd">
        <g id="ic/viewToolbar/grid/light" fill="#DFE2E5" fill-rule="nonzero">
            <path d="M14.5736702,4.21345185 C14.9335785,4.21345185 15.2427463,4.46911271 15.3103289,4.82261881 L15.7013381,6.87045185 L15.75,6.87111255 L15.7493381,7.12345185 L17.2360848,14.8957151 C17.3181561,15.3250073 17.0184769,15.7251588 16.5983881,15.780133 L16.4994261,15.7865481 L3.50057391,15.7865481 C3.0298865,15.7865481 2.67553075,15.3580297 2.76391521,14.8957151 L4.68967108,4.82261881 C4.75725372,4.46911271 5.06642151,4.21345185 5.42632979,4.21345185 Z M7.22333807,11.4684519 L4.94533807,11.4684519 L4.40657391,14.2864519 L6.93533807,14.2864519 L7.22333807,11.4684519 Z M11.2383381,11.4684519 L8.73233807,11.4684519 L8.44333807,14.2864519 L11.5263381,14.2864519 L11.2383381,11.4684519 Z M15.0533381,11.4684519 L12.7463381,11.4684519 L13.0343381,14.2864519 L15.5925739,14.2864519 L15.0533381,11.4684519 Z M7.54133807,8.37045185 L5.53733807,8.37045185 L5.23233807,9.96845185 L7.37733807,9.96845185 L7.54133807,8.37045185 Z M10.9203381,8.37045185 L9.04933807,8.37045185 L8.88533807,9.96845185 L11.0843381,9.96845185 L10.9203381,8.37045185 Z M14.4613381,8.37045185 L12.4293381,8.37045185 L12.5923381,9.96845185 L14.7663381,9.96845185 L14.4613381,8.37045185 Z M7.81333807,5.71345185 L6.04557391,5.71345185 L5.82433807,6.87045185 L7.69433807,6.87045185 L7.81333807,5.71345185 Z M10.6483381,5.71345185 L9.32033807,5.71345185 L9.20233807,6.87045185 L10.7673381,6.87045185 L10.6483381,5.71345185 Z M13.9535739,5.71345185 L12.1573381,5.71345185 L12.2753381,6.87045185 L14.1743381,6.87045185 L13.9535739,5.71345185 Z" id="Combined-Shape"></path>
        </g>
    </g>
</svg>