<?xml version="1.0" encoding="UTF-8"?>
<svg width="20px" height="20px" viewBox="0 0 20 20" version="1.1" xmlns="http://www.w3.org/2000/svg" xmlns:xlink="http://www.w3.org/1999/xlink">
    <title>viewToolbar_background_light</title>
    <g id="Symbol" stroke="none" stroke-width="1" fill="none" fill-rule="evenodd">
        <g id="ic/viewToolbar/background/light" fill-rule="nonzero">
            <g id="ic_color_lens" transform="translate(1.000000, 1.500000)">
                <rect id="Rectangle" fill="#000000" opacity="0" x="0" y="0" width="18" height="18"></rect>
                <path d="M9,2.25 C5.27250586,2.25 2.25,5.27250586 2.25,9 C2.25,12.8557344 6.41394811,15.0123379 9,14.75 C10.231446,14.6250779 10.2389189,13.8108729 9.8325,13.37125 C9.65188457,13.1758785 9.55125,12.9137441 9.55125,12.6250059 C9.55125,12.0024941 10.0537559,11.5000059 10.67625,11.5000059 L12.0000059,11.5000059 C14.0700059,11.5000059 15.75,10.3199941 15.75,8.25 C15.75,4.93500586 12.7274941,2.25 9,2.25 Z M4.87499414,9 C4.2525,9 3.74999414,8.49749414 3.74999414,7.875 C3.74999414,7.25250586 4.2525,6.75 4.87499414,6.75 C5.49748828,6.75 5.99999414,7.25250586 5.99999414,7.875 C5.99999414,8.49749414 5.49750586,9 4.87499414,9 Z M7.12499414,5.99999414 C6.5025,5.99999414 5.99999414,5.49750586 5.99999414,4.87499414 C5.99999414,4.25248242 6.5025,3.74999414 7.12499414,3.74999414 C7.74748828,3.74999414 8.24999414,4.2525 8.24999414,4.87499414 C8.24999414,5.49748828 7.74750586,5.99999414 7.12499414,5.99999414 Z M10.8750059,5.99999414 C10.2524941,5.99999414 9.75000586,5.49750586 9.75000586,4.87499414 C9.75000586,4.25248242 10.2524941,3.74999414 10.8750059,3.74999414 C11.4975176,3.74999414 12.0000059,4.2525 12.0000059,4.87499414 C12.0000059,5.49748828 11.4975,5.99999414 10.8750059,5.99999414 Z M13.1250059,9 C12.5024941,9 12.0000059,8.49749414 12.0000059,7.875 C12.0000059,7.25250586 12.5024941,6.75 13.1250059,6.75 C13.7475176,6.75 14.2500059,7.25250586 14.2500059,7.875 C14.2500059,8.49749414 13.7475,9 13.1250059,9 Z" id="Shape" fill="#DFE2E5"></path>
            </g>
        </g>
    </g>
</svg>