<?xml version="1.0" encoding="UTF-8"?>
<svg width="24px" height="20px" viewBox="0 0 24 20" version="1.1" xmlns="http://www.w3.org/2000/svg" xmlns:xlink="http://www.w3.org/1999/xlink">
    <title>viewToolbar_record_recordOffClick</title>
    <g id="Symbol" stroke="none" stroke-width="1" fill="none" fill-rule="evenodd">
        <g id="ic/viewToolbar/record/record_off_click" fill="#C3D2DF">
            <path d="M8.9319426,5.65 L15.0680574,5.65 C15.5138168,5.65 15.6754599,5.69641281 15.8384229,5.78356635 C16.0013858,5.8707199 16.1292801,5.99861419 16.2164336,6.16157715 C16.3035872,6.32454011 16.35,6.48618323 16.35,6.9319426 L16.35,13.0680574 C16.35,13.5138168 16.3035872,13.6754599 16.2164336,13.8384229 C16.1292801,14.0013858 16.0013858,14.1292801 15.8384229,14.2164336 C15.6754599,14.3035872 15.5138168,14.35 15.0680574,14.35 L8.9319426,14.35 C8.48618323,14.35 8.32454011,14.3035872 8.16157715,14.2164336 C7.99861419,14.1292801 7.8707199,14.0013858 7.78356635,13.8384229 C7.69641281,13.6754599 7.65,13.5138168 7.65,13.0680574 L7.65,6.9319426 C7.65,6.48618323 7.69641281,6.32454011 7.78356635,6.16157715 C7.8707199,5.99861419 7.99861419,5.8707199 8.16157715,5.78356635 C8.32454011,5.69641281 8.48618323,5.65 8.9319426,5.65 Z" id="Rectangle"></path>
        </g>
    </g>
</svg>