<?xml version="1.0" encoding="UTF-8"?>
<svg width="24px" height="20px" viewBox="0 0 24 20" version="1.1" xmlns="http://www.w3.org/2000/svg" xmlns:xlink="http://www.w3.org/1999/xlink">
    <title>viewToolbar_record_idle</title>
    <g id="Symbol" stroke="none" stroke-width="1" fill="none" fill-rule="evenodd">
        <g id="ic/viewToolbar/record/idle">
            <rect id="bg" x="0" y="0" width="24" height="20"></rect>
            <path d="M15.941244,5.05426966 C16.4935287,5.05426966 16.941244,5.50198491 16.941244,6.05426966 L16.9404496,7.12726966 L19.6118118,5.73832501 C19.6593272,5.71360353 19.7103477,5.6967582 19.7628871,5.68827481 L19.8425872,5.68188191 C20.1187295,5.68188191 20.3425872,5.90573954 20.3425872,6.18188191 L20.3425872,13.9582486 C20.3425872,14.0385913 20.3232263,14.1177509 20.2861441,14.189024 C20.1586903,14.4339937 19.8567815,14.5292593 19.6118118,14.4018055 L16.9404496,13.0122697 L16.941244,13.9457303 C16.941244,14.4585662 16.5552038,14.8812375 16.0578651,14.9390026 L15.941244,14.9457303 L6.0114496,14.9457303 C5.45916485,14.9457303 5.0114496,14.4980151 5.0114496,13.9457303 L5.0114496,6.05426966 C5.0114496,5.50198491 5.45916485,5.05426966 6.0114496,5.05426966 Z M15.5170043,6.53168683 L6.46173296,6.53168683 L6.46173296,13.5428325 L15.5170043,13.5428325 L15.5170043,6.53168683 Z M19.0218588,7.5998166 L16.941244,8.64802963 L16.941244,11.4083214 L19.0218588,12.4149526 L19.0218588,7.5998166 Z M8.73086229,7.86426966 C9.23311706,7.86426966 9.64027499,8.27142759 9.64027499,8.77368235 C9.64027499,9.27593712 9.23311706,9.68309505 8.73086229,9.68309505 C8.22860753,9.68309505 7.8214496,9.27593712 7.8214496,8.77368235 C7.8214496,8.27142759 8.22860753,7.86426966 8.73086229,7.86426966 Z" id="Combined-Shape" fill="#69727B" fill-rule="nonzero"></path>
        </g>
    </g>
</svg>