<?xml version="1.0" encoding="UTF-8"?>
<svg width="20px" height="20px" viewBox="0 0 20 20" version="1.1" xmlns="http://www.w3.org/2000/svg" xmlns:xlink="http://www.w3.org/1999/xlink">
    <title>viewToolbar_wireframe_idle</title>
    <g id="Symbol" stroke="none" stroke-width="1" fill="none" fill-rule="evenodd">
        <g id="ic/viewToolbar/wireframe/idle" fill="#69727B" fill-rule="nonzero">
            <path d="M10,3 C13.8659932,3 17,6.13400675 17,10 C17,13.8659932 13.8659932,17 10,17 C6.13400675,17 3,13.8659932 3,10 C3,6.13400675 6.13400675,3 10,3 Z M14.983672,11.655434 L14.7489921,11.7826677 C13.3141794,12.5288804 11.5166632,12.9724901 9.56561632,12.9724901 L9.44996895,12.9706092 C9.72956106,13.8325889 10.1253975,14.5937672 10.602272,15.2158598 C12.6570281,14.9810242 14.3512096,13.5604155 14.983672,11.655434 Z M5.21586994,12.1655292 L5.24580495,12.2300654 C5.91181143,13.647441 7.19299698,14.7184735 8.74533396,15.0991352 C8.37036468,14.4228968 8.06917665,13.6680845 7.85618906,12.8562805 C6.90903991,12.7259146 6.01954603,12.4892076 5.21586994,12.1655292 Z M10.6025948,4.78420694 L10.4851347,4.94256217 C9.57896016,6.20414606 8.99443323,7.98537895 8.99443323,10 C8.99443323,10.5034774 9.03094035,10.9923783 9.09984419,11.4622329 C9.25347584,11.4692799 9.40882222,11.4724901 9.56561632,11.4724901 C11.9410023,11.4724901 13.9841184,10.7356968 15.2396322,9.67447918 C15.084119,7.12715863 13.1121245,5.07098158 10.6025948,4.78420694 Z M8.74488627,4.89935884 C6.44823991,5.46750379 4.75,7.5354293 4.75,10 C4.75,10.0945046 4.75249702,10.1884259 4.75742868,10.2817017 C5.53916573,10.7384817 6.49460927,11.0923795 7.56722717,11.2917198 C7.51895247,10.8708893 7.49443323,10.4393371 7.49443323,10 C7.49443323,8.08618205 7.95971127,6.32009157 8.74488627,4.89935884 Z" id="Combined-Shape"></path>
        </g>
    </g>
</svg>