<?xml version="1.0" encoding="UTF-8"?>
<svg width="24px" height="24px" viewBox="0 0 24 24" version="1.1" xmlns="http://www.w3.org/2000/svg" xmlns:xlink="http://www.w3.org/1999/xlink">
    <title>welcome_github</title>
    <g id="Symbol" stroke="none" stroke-width="1" fill="none" fill-rule="evenodd">
        <g id="ic/welcome/github" fill-rule="nonzero">
            <g id="github" transform="translate(2.999719, 3.000000)">
                <rect id="Rectangle" fill="#000000" opacity="0" x="0" y="0" width="18" height="18"></rect>
                <path d="M1.125,9.20031149 C1.125,10.9025708 1.6145472,12.432898 2.5936416,13.791293 C3.57273601,15.1496881 4.84155573,16.1007287 6.40010078,16.6444148 C6.46178635,16.6545864 6.51313631,16.6596721 6.55415065,16.6596721 C6.59516499,16.6596721 6.62846864,16.6519614 6.65406159,16.63654 C6.67965454,16.6211187 6.70016171,16.6056973 6.71558311,16.5902759 C6.7310045,16.5748545 6.74134011,16.5492615 6.74658995,16.513497 C6.75183979,16.4777325 6.7544647,16.4521396 6.7544647,16.4367182 L6.7544647,14.8908055 C6.37516406,14.9318199 6.0367137,14.929195 5.73911362,14.8829308 C5.44151355,14.8366666 5.20822396,14.7648095 5.03924487,14.6673594 C4.87026577,14.5699093 4.72162979,14.4494912 4.59333693,14.3061051 C4.46504406,14.1627189 4.3779296,14.0319652 4.33199353,13.9138439 C4.28605747,13.7957226 4.23995735,13.6726795 4.19369317,13.5447148 C4.14742899,13.41675 4.11921112,13.342432 4.10903956,13.3217608 C4.01683932,13.167875 3.87837489,13.0269497 3.69364629,12.898985 C3.50891769,12.7710202 3.37045327,12.6684844 3.27825302,12.5913774 C3.18605278,12.5142704 3.17571717,12.4399524 3.24724618,12.3684234 C3.76008953,12.1016661 4.33937611,12.4401165 4.98510593,13.3837745 C5.33389191,13.9067894 5.94402128,14.0606752 6.81549405,13.845432 C6.91819396,13.425117 7.12326568,13.0661594 7.4307092,12.7685594 C6.24129324,12.5533161 5.35948486,12.1123299 4.78528405,11.4456007 C4.21108325,10.7788715 3.92398284,9.96875623 3.92398284,9.01525477 C3.92398284,8.12311078 4.20599747,7.34892403 4.77002672,6.69269454 C4.54428377,6.02629349 4.57512656,5.32396388 4.86255508,4.5857057 C5.15982704,4.56503447 5.49302756,4.62393106 5.86215665,4.76239549 C6.23128574,4.90085991 6.49016828,5.01881716 6.63880426,5.11626724 C6.78744024,5.21371732 6.91819396,5.3034567 7.03106544,5.38548539 C7.6154378,5.22142802 8.27429221,5.13939933 9.00762867,5.13939933 C9.74096513,5.13939933 10.4049053,5.22142802 10.9994492,5.38548539 C11.1326638,5.29328515 11.2812998,5.19583507 11.4453572,5.09313515 C11.6094145,4.99043524 11.8605864,4.88018868 12.1988727,4.76239549 C12.537159,4.64460229 12.8498523,4.59587725 13.1369528,4.61622037 C13.4138816,5.34430699 13.4498102,6.03646505 13.2447384,6.69269454 C13.8189393,7.34892403 14.1060397,8.12311078 14.1060397,9.01525477 C14.1060397,9.96875623 13.8138535,10.7813324 13.2294811,11.4529833 C12.6451087,12.1246342 11.7633004,12.5629955 10.584056,12.7680672 C11.0250422,13.2090534 11.2455353,13.7422399 11.2455353,14.3676266 L11.2455353,16.3515724 C11.2455353,16.3617439 11.2506211,16.3771653 11.2607926,16.3978366 C11.2607926,16.4595221 11.2634175,16.5056223 11.2686674,16.5361369 C11.2739172,16.5666516 11.2970493,16.5974944 11.3380637,16.6286653 C11.379078,16.6598362 11.4405995,16.6752576 11.5226282,16.6749346 C13.0913448,16.141743 14.3755859,15.1907024 15.3753516,13.8218077 C16.3751172,12.452913 16.875,10.9122502 16.875,9.19981932 C16.875,8.13344639 16.6673034,7.11317359 16.2519101,6.13900091 C15.8365168,5.16482822 15.2777374,4.3266591 14.5755719,3.62449355 C13.8734063,2.92232799 13.0352372,2.36354858 12.0610645,1.94815531 C11.0868918,1.53276204 10.066619,1.3250654 9.00024609,1.3250654 C7.93387316,1.3250654 6.91360036,1.53276204 5.93942767,1.94815531 C4.96525499,2.36354858 4.12708587,2.92232799 3.42492031,3.62449355 C2.72275476,4.3266591 2.16397534,5.16482822 1.74858208,6.13900091 C1.33318881,7.11317359 1.12549217,8.13344639 1.12549217,9.19981932 L1.125,9.20031149 Z" id="Path" fill="#737B85"></path>
            </g>
        </g>
    </g>
</svg>