<?xml version="1.0" encoding="UTF-8"?>
<svg width="24px" height="24px" viewBox="0 0 24 24" version="1.1" xmlns="http://www.w3.org/2000/svg" xmlns:xlink="http://www.w3.org/1999/xlink">
    <title>welcome_document</title>
    <g id="Symbol" stroke="none" stroke-width="1" fill="none" fill-rule="evenodd">
        <g id="ic/welcome/document" fill-rule="nonzero">
            <g id="22资料、手册" transform="translate(3.000000, 3.000000)">
                <rect id="Rectangle" fill="#000000" opacity="0" x="0" y="0" width="18" height="18"></rect>
                <path d="M15.75,3.375 L15.75,15.75 L4.5140625,15.75 C3.2625,15.75 2.25,14.7375 2.25,13.4859375 L2.25,4.5140625 C2.25,3.2625 3.2625,2.25 4.5140625,2.25 L13.5,2.25 L13.5,11.25 L4.528125,11.25 C3.8953125,11.25 3.375,11.7703125 3.375,12.403125 L3.375,13.471875 C3.375,14.1046875 3.8953125,14.625 4.528125,14.625 L14.625,14.625 L14.625,3.375 L15.75,3.375 Z M13.5,12.375 L4.5,12.375 L4.5,13.5 L13.5,13.5 L13.5,12.375 Z" id="Shape" fill="#737B85"></path>
            </g>
        </g>
    </g>
</svg>