# WaveFront *.obj file (generated by Cinema 4D)

v -0.000244 0.176758 0.000000
v 0.013987 0.176108 0.000000
v 0.025691 0.174473 0.000000
v 0.036696 0.171842 0.000000
v 0.045573 0.168795 0.000000
v 0.053937 0.165017 0.000000
v 0.061787 0.160508 0.000000
v 0.067937 0.156191 0.000000
v 0.073730 0.151367 0.000000
v 0.080064 0.145048 0.000000
v 0.085590 0.138280 0.000000
v 0.089577 0.132295 0.000000
v 0.093002 0.125998 0.000000
v 0.095866 0.119389 0.000000
v 0.098561 0.111045 0.000000
v 0.100448 0.102252 0.000000
v 0.101402 0.094580 0.000000
v 0.101807 0.084961 0.000000
v 0.101256 0.073905 0.000000
v 0.099909 0.064893 0.000000
v 0.097752 0.056311 0.000000
v 0.094788 0.048157 0.000000
v 0.091699 0.041689 0.000000
v 0.088049 0.035520 0.000000
v 0.082928 0.028510 0.000000
v 0.079065 0.024075 0.000000
v 0.073730 0.018799 0.000000
v 0.066736 0.013016 0.000000
v 0.059227 0.007971 0.000000
v 0.051206 0.003664 0.000000
v 0.042671 0.000096 0.000000
v 0.033623 -0.002734 0.000000
v 0.022418 -0.005103 0.000000
v 0.012258 -0.006333 0.000000
v -0.000244 -0.006836 0.000000
v -0.014194 -0.006180 0.000000
v -0.025703 -0.004529 0.000000
v -0.036561 -0.001873 0.000000
v -0.045350 0.001203 0.000000
v -0.053661 0.005018 0.000000
v -0.061494 0.009570 0.000000
v -0.067656 0.013928 0.000000
v -0.073486 0.018799 0.000000
v -0.079875 0.025166 0.000000
v -0.085449 0.031961 0.000000
v -0.089470 0.037952 0.000000
v -0.092925 0.044241 0.000000
v -0.095814 0.050827 0.000000
v -0.098533 0.059124 0.000000
v -0.100436 0.067850 0.000000
v -0.101399 0.075449 0.000000
v -0.101807 0.084961 0.000000
v -0.101399 0.094473 0.000000
v -0.100175 0.103556 0.000000
v -0.098136 0.112211 0.000000
v -0.095282 0.120436 0.000000
v -0.092280 0.126963 0.000000
v -0.088711 0.133192 0.000000
v -0.084577 0.139123 0.000000
v -0.079875 0.144756 0.000000
v -0.073486 0.151123 0.000000
v -0.066450 0.156906 0.000000
v -0.058936 0.161951 0.000000
v -0.050944 0.166258 0.000000
v -0.042474 0.169826 0.000000
v -0.033525 0.172656 0.000000
v -0.022481 0.175025 0.000000
v -0.012497 0.176255 0.000000
v -0.000244 0.176758 -0.400000
v 0.013987 0.176108 -0.400000
v 0.025691 0.174473 -0.400000
v 0.036696 0.171842 -0.400000
v 0.045573 0.168795 -0.400000
v 0.053937 0.165017 -0.400000
v 0.061787 0.160508 -0.400000
v 0.067937 0.156191 -0.400000
v 0.073730 0.151367 -0.400000
v 0.080064 0.145048 -0.400000
v 0.085590 0.138280 -0.400000
v 0.089577 0.132295 -0.400000
v 0.093002 0.125998 -0.400000
v 0.095866 0.119389 -0.400000
v 0.098561 0.111045 -0.400000
v 0.100448 0.102252 -0.400000
v 0.101402 0.094580 -0.400000
v 0.101807 0.084961 -0.400000
v 0.101256 0.073905 -0.400000
v 0.099909 0.064893 -0.400000
v 0.097752 0.056311 -0.400000
v 0.094788 0.048157 -0.400000
v 0.091699 0.041689 -0.400000
v 0.088049 0.035520 -0.400000
v 0.082928 0.028510 -0.400000
v 0.079065 0.024075 -0.400000
v 0.073730 0.018799 -0.400000
v 0.066736 0.013016 -0.400000
v 0.059227 0.007971 -0.400000
v 0.051206 0.003664 -0.400000
v 0.042671 0.000096 -0.400000
v 0.033623 -0.002734 -0.400000
v 0.022418 -0.005103 -0.400000
v 0.012258 -0.006333 -0.400000
v -0.000244 -0.006836 -0.400000
v -0.014194 -0.006180 -0.400000
v -0.025703 -0.004529 -0.400000
v -0.036561 -0.001873 -0.400000
v -0.045350 0.001203 -0.400000
v -0.053661 0.005018 -0.400000
v -0.061494 0.009570 -0.400000
v -0.067656 0.013928 -0.400000
v -0.073486 0.018799 -0.400000
v -0.079875 0.025166 -0.400000
v -0.085449 0.031961 -0.400000
v -0.089470 0.037952 -0.400000
v -0.092925 0.044241 -0.400000
v -0.095814 0.050827 -0.400000
v -0.098533 0.059124 -0.400000
v -0.100436 0.067850 -0.400000
v -0.101399 0.075449 -0.400000
v -0.101807 0.084961 -0.400000
v -0.101399 0.094473 -0.400000
v -0.100175 0.103556 -0.400000
v -0.098136 0.112211 -0.400000
v -0.095282 0.120436 -0.400000
v -0.092280 0.126963 -0.400000
v -0.088711 0.133192 -0.400000
v -0.084577 0.139123 -0.400000
v -0.079875 0.144756 -0.400000
v -0.073486 0.151123 -0.400000
v -0.066450 0.156906 -0.400000
v -0.058936 0.161951 -0.400000
v -0.050944 0.166258 -0.400000
v -0.042474 0.169826 -0.400000
v -0.033525 0.172656 -0.400000
v -0.022481 0.175025 -0.400000
v -0.012497 0.176255 -0.400000
# 136 vertices

vn 0.000000 0.000000 1.000000
vn 0.000000 0.000000 1.000000
vn 0.000000 0.000000 -1.000000
vn 0.016775 0.999859 0.000000
vn -0.012116 0.999927 0.000000
vn 0.076614 0.997061 0.000000
vn 0.107557 0.994199 0.000000
vn 0.169909 0.985460 0.000000
vn 0.201309 0.979528 0.000000
vn 0.263466 0.964669 0.000000
vn 0.294221 0.955738 0.000000
vn 0.353999 0.935246 0.000000
vn 0.383038 0.923732 0.000000
vn 0.440942 0.897535 0.000000
vn 0.469777 0.882785 0.000000
vn 0.524033 0.851698 0.000000
vn 0.549522 0.835479 0.000000
vn 0.596740 0.802434 0.000000
vn 0.618561 0.785737 0.000000
vn 0.662611 0.748964 0.000000
vn 0.684750 0.728778 0.000000
vn 0.729903 0.683551 0.000000
vn 0.752733 0.658325 0.000000
vn 0.794684 0.607024 0.000000
vn 0.813890 0.581018 0.000000
vn 0.848388 0.529375 0.000000
vn 0.863807 0.503823 0.000000
vn 0.892277 0.451488 0.000000
vn 0.905331 0.424707 0.000000
vn 0.929868 0.367893 0.000000
vn 0.941217 0.337802 0.000000
vn 0.961396 0.275167 0.000000
vn 0.970128 0.242592 0.000000
vn 0.983453 0.181165 0.000000
vn 0.988323 0.152373 0.000000
vn 0.995344 0.096387 0.000000
vn 0.997602 0.069207 0.000000
vn 0.999935 0.011437 0.000000
vn 0.999816 -0.019161 0.000000
vn 0.996589 -0.082531 0.000000
vn 0.993331 -0.115296 0.000000
vn 0.983665 -0.180010 0.000000
vn 0.977278 -0.211963 0.000000
vn 0.960965 -0.276669 0.000000
vn 0.950933 -0.309395 0.000000
vn 0.928296 -0.371843 0.000000
vn 0.915812 -0.401608 0.000000
vn 0.889257 -0.457409 0.000000
vn 0.875336 -0.483516 0.000000
vn 0.843813 -0.536638 0.000000
vn 0.826069 -0.563569 0.000000
vn 0.790317 -0.612698 0.000000
vn 0.772490 -0.635027 0.000000
vn 0.737548 -0.675295 0.000000
vn 0.720585 -0.693366 0.000000
vn 0.681793 -0.731546 0.000000
vn 0.659774 -0.751464 0.000000
vn 0.611371 -0.791345 0.000000
vn 0.584849 -0.811142 0.000000
vn 0.530062 -0.847959 0.000000
vn 0.501801 -0.864983 0.000000
vn 0.444391 -0.895833 0.000000
vn 0.415266 -0.909700 0.000000
vn 0.357009 -0.934101 0.000000
vn 0.327908 -0.944709 0.000000
vn 0.268224 -0.963357 0.000000
vn 0.237628 -0.971356 0.000000
vn 0.178113 -0.984010 0.000000
vn 0.149222 -0.988804 0.000000
vn 0.093605 -0.995609 0.000000
vn 0.066895 -0.997760 0.000000
vn 0.011116 -0.999938 0.000000
vn -0.017957 -0.999839 0.000000
vn -0.078737 -0.996895 0.000000
vn -0.110435 -0.993883 0.000000
vn -0.174037 -0.984739 0.000000
vn -0.205935 -0.978566 0.000000
vn -0.268785 -0.963200 0.000000
vn -0.299740 -0.954021 0.000000
vn -0.359627 -0.933096 0.000000
vn -0.388583 -0.921414 0.000000
vn -0.446053 -0.895007 0.000000
vn -0.474545 -0.880231 0.000000
vn -0.527947 -0.849277 0.000000
vn -0.552931 -0.833227 0.000000
vn -0.599079 -0.800690 0.000000
vn -0.620336 -0.784336 0.000000
vn -0.663279 -0.748373 0.000000
vn -0.684877 -0.728659 0.000000
vn -0.729133 -0.684372 0.000000
vn -0.751605 -0.659613 0.000000
vn -0.793042 -0.609167 0.000000
vn -0.812082 -0.583543 0.000000
vn -0.846402 -0.532544 0.000000
vn -0.861800 -0.507248 0.000000
vn -0.890336 -0.455304 0.000000
vn -0.903469 -0.428653 0.000000
vn -0.928253 -0.371949 0.000000
vn -0.939761 -0.341832 0.000000
vn -0.960306 -0.278947 0.000000
vn -0.969233 -0.246144 0.000000
vn -0.982903 -0.184126 0.000000
vn -0.987919 -0.154971 0.000000
vn -0.995171 -0.098157 0.000000
vn -0.997511 -0.070512 0.000000
vn -0.999898 -0.014290 0.000000
vn -0.999898 0.014290 0.000000
vn -0.997323 0.073119 0.000000
vn -0.994644 0.103364 0.000000
vn -0.986191 0.165610 0.000000
vn -0.980284 0.197593 0.000000
vn -0.964936 0.262487 0.000000
vn -0.955382 0.295372 0.000000
vn -0.933628 0.358243 0.000000
vn -0.921546 0.388270 0.000000
vn -0.895701 0.444657 0.000000
vn -0.882087 0.471087 0.000000
vn -0.852660 0.522466 0.000000
vn -0.836857 0.547422 0.000000
vn -0.803484 0.595326 0.000000
vn -0.785947 0.618294 0.000000
vn -0.747834 0.663885 0.000000
vn -0.727183 0.686444 0.000000
vn -0.682936 0.730478 0.000000
vn -0.659281 0.751896 0.000000
vn -0.609759 0.792587 0.000000
vn -0.583878 0.811842 0.000000
vn -0.530289 0.847817 0.000000
vn -0.502578 0.864532 0.000000
vn -0.446110 0.894978 0.000000
vn -0.417368 0.908737 0.000000
vn -0.359678 0.933076 0.000000
vn -0.330754 0.943717 0.000000
vn -0.271203 0.962522 0.000000
vn -0.240558 0.970635 0.000000
vn -0.180731 0.983533 0.000000
vn -0.151576 0.988446 0.000000
vn -0.095271 0.995451 0.000000
vn -0.068137 0.997676 0.000000
vn 0.000000 0.000000 1.000000
vn 0.000000 0.000000 0.999994
vn 0.000000 0.000000 1.000000
vn 0.000000 0.000000 0.999998
vn 0.000000 0.000000 1.000000
vn 0.000000 0.000000 0.999998
vn 0.000000 0.000000 0.999999
vn 0.000000 0.000000 0.999999
vn 0.000000 0.000000 0.999998
vn 0.000000 0.000000 -0.999998
vn 0.000000 0.000000 -1.000000
vn 0.000000 0.000000 -0.999997
vn 0.000000 0.000000 -0.999999
vn 0.000000 0.000000 -0.999999
vn 0.000000 0.000000 -0.999998
vn 0.000000 0.000000 -1.000000
vn 0.000000 0.000000 -0.999998
vn 0.000000 0.000000 -1.000000
vn 0.000000 0.000000 -0.999994
vn 0.000000 0.000000 -1.000000
vn 0.000000 0.000000 0.999998
vn 0.000000 0.000000 1.000000
vn 0.000000 0.000000 0.999998
vn 0.000000 0.000000 0.999999
vn 0.000000 0.000000 0.999994
vn 0.000000 0.000000 0.999999
vn 0.000000 0.000000 0.999999
vn 0.000000 0.000000 0.999999
vn 0.000000 0.000000 0.999999
vn 0.000000 0.000000 0.999999
vn 0.000000 0.000000 -0.999999
vn 0.000000 0.000000 -0.999999
vn 0.000000 0.000000 -0.999999
vn 0.000000 0.000000 -0.999999
vn 0.000000 0.000000 -0.999994
vn 0.000000 0.000000 -0.999999
vn 0.000000 0.000000 -0.999998
vn 0.000000 0.000000 -1.000000
vn 0.000000 0.000000 -1.000000
# 178 normals

o comma
usemtl default
f 3//1 2//2 1//1
f 136//3 69//3 134//3
f 70//6 69//5 1//4
f 71//8 70//6 2//7
f 72//10 71//8 3//9
f 73//12 72//10 4//11
f 74//14 73//12 5//13
f 75//16 74//14 6//15
f 76//18 75//16 7//17
f 77//20 76//18 8//19
f 78//22 77//20 9//21
f 79//24 78//22 10//23
f 80//26 79//24 11//25
f 81//28 80//26 12//27
f 82//30 81//28 13//29
f 83//32 82//30 14//31
f 84//34 83//32 15//33
f 85//36 84//34 16//35
f 86//38 85//36 17//37
f 87//40 86//38 18//39
f 88//42 87//40 19//41
f 89//44 88//42 20//43
f 90//46 89//44 21//45
f 91//48 90//46 22//47
f 92//50 91//48 23//49
f 93//52 92//50 24//51
f 94//54 93//52 25//53
f 95//56 94//54 26//55
f 96//58 95//56 27//57
f 97//60 96//58 28//59
f 98//62 97//60 29//61
f 99//64 98//62 30//63
f 100//66 99//64 31//65
f 101//68 100//66 32//67
f 102//70 101//68 33//69
f 103//72 102//70 34//71
f 104//74 103//72 35//73
f 105//76 104//74 36//75
f 106//78 105//76 37//77
f 107//80 106//78 38//79
f 108//82 107//80 39//81
f 109//84 108//82 40//83
f 110//86 109//84 41//85
f 111//88 110//86 42//87
f 112//90 111//88 43//89
f 113//92 112//90 44//91
f 114//94 113//92 45//93
f 115//96 114//94 46//95
f 116//98 115//96 47//97
f 117//100 116//98 48//99
f 118//102 117//100 49//101
f 119//104 118//102 50//103
f 120//106 119//104 51//105
f 121//108 120//106 52//107
f 122//110 121//108 53//109
f 123//112 122//110 54//111
f 124//114 123//112 55//113
f 125//116 124//114 56//115
f 126//118 125//116 57//117
f 127//120 126//118 58//119
f 128//122 127//120 59//121
f 129//124 128//122 60//123
f 130//126 129//124 61//125
f 131//128 130//126 62//127
f 132//130 131//128 63//129
f 133//132 132//130 64//131
f 134//134 133//132 65//133
f 135//136 134//134 66//135
f 136//138 135//136 67//137
f 69//5 136//138 68//139
f 2//7 70//6 1//4
f 3//9 71//8 2//7
f 4//11 72//10 3//9
f 5//13 73//12 4//11
f 6//15 74//14 5//13
f 7//17 75//16 6//15
f 8//19 76//18 7//17
f 9//21 77//20 8//19
f 10//23 78//22 9//21
f 11//25 79//24 10//23
f 12//27 80//26 11//25
f 13//29 81//28 12//27
f 14//31 82//30 13//29
f 15//33 83//32 14//31
f 16//35 84//34 15//33
f 17//37 85//36 16//35
f 18//39 86//38 17//37
f 19//41 87//40 18//39
f 20//43 88//42 19//41
f 21//45 89//44 20//43
f 22//47 90//46 21//45
f 23//49 91//48 22//47
f 24//51 92//50 23//49
f 25//53 93//52 24//51
f 26//55 94//54 25//53
f 27//57 95//56 26//55
f 28//59 96//58 27//57
f 29//61 97//60 28//59
f 30//63 98//62 29//61
f 31//65 99//64 30//63
f 32//67 100//66 31//65
f 33//69 101//68 32//67
f 34//71 102//70 33//69
f 35//73 103//72 34//71
f 36//75 104//74 35//73
f 37//77 105//76 36//75
f 38//79 106//78 37//77
f 39//81 107//80 38//79
f 40//83 108//82 39//81
f 41//85 109//84 40//83
f 42//87 110//86 41//85
f 43//89 111//88 42//87
f 44//91 112//90 43//89
f 45//93 113//92 44//91
f 46//95 114//94 45//93
f 47//97 115//96 46//95
f 48//99 116//98 47//97
f 49//101 117//100 48//99
f 50//103 118//102 49//101
f 51//105 119//104 50//103
f 52//107 120//106 51//105
f 53//109 121//108 52//107
f 54//111 122//110 53//109
f 55//113 123//112 54//111
f 56//115 124//114 55//113
f 57//117 125//116 56//115
f 58//119 126//118 57//117
f 59//121 127//120 58//119
f 60//123 128//122 59//121
f 61//125 129//124 60//123
f 62//127 130//126 61//125
f 63//129 131//128 62//127
f 64//131 132//130 63//129
f 65//133 133//132 64//131
f 66//135 134//134 65//133
f 67//137 135//136 66//135
f 68//139 136//138 67//137
f 1//4 69//5 68//139
f 3//1 7//1 5//1
f 7//1 6//1 5//1
f 9//140 8//1 7//1
f 9//140 7//1 11//1
f 13//1 12//141 11//1
f 13//1 11//1 15//1
f 15//1 18//1 17//1
f 18//1 15//1 20//140
f 22//140 21//142 20//140
f 24//1 23//1 22//140
f 25//1 24//1 27//1
f 29//1 28//143 27//1
f 29//1 27//1 31//1
f 33//1 32//1 31//1
f 33//1 31//1 35//1
f 37//1 36//144 35//1
f 37//1 41//140 39//1
f 41//140 40//145 39//1
f 41//140 44//140 43//1
f 44//140 49//140 46//1
f 46//1 49//140 48//1
f 49//140 52//1 51//1
f 52//1 56//1 54//1
f 56//1 55//146 54//1
f 58//140 57//147 56//1
f 58//140 56//1 60//1
f 62//140 61//148 60//1
f 62//140 60//1 64//140
f 66//1 65//148 64//140
f 66//1 1//1 68//1
f 1//1 66//1 37//1
f 3//1 1//1 35//1
f 3//1 31//1 27//1
f 60//1 49//140 44//140
f 60//1 56//1 52//1
f 64//140 41//140 37//1
f 7//1 27//1 20//140
f 20//140 27//1 24//1
f 15//1 11//1 7//1
f 44//140 41//140 64//140
f 132//150 133//149 134//3
f 132//150 128//3 130//3
f 128//3 129//151 130//3
f 128//3 124//3 126//150
f 124//3 125//152 126//150
f 122//3 123//153 124//3
f 122//3 124//3 120//150
f 119//3 120//150 117//150
f 116//3 117//150 114//3
f 114//3 117//150 112//3
f 111//3 112//3 109//150
f 107//150 108//154 109//150
f 107//150 109//150 105//150
f 103//3 104//155 105//150
f 103//3 99//3 101//150
f 99//3 100//3 101//150
f 99//3 95//3 97//3
f 95//3 96//156 97//3
f 95//3 92//3 93//3
f 90//150 91//3 92//3
f 88//150 89//157 90//150
f 88//150 83//3 86//3
f 85//3 86//3 83//3
f 83//3 79//150 81//3
f 79//150 80//158 81//3
f 79//150 75//3 77//150
f 75//3 76//3 77//150
f 73//3 74//3 75//3
f 73//3 75//3 71//3
f 69//3 70//159 71//3
f 105//150 134//3 69//3
f 103//3 69//3 71//3
f 95//3 99//3 71//3
f 112//3 117//150 128//3
f 120//150 124//3 128//3
f 105//150 109//150 132//150
f 88//150 95//3 75//3
f 92//3 95//3 88//150
f 75//3 79//150 83//3
f 132//150 109//150 112//3
f 4//146 3//1 5//1
f 10//160 9//140 11//1
f 14//161 13//1 15//1
f 16//161 15//1 17//1
f 19//1 18//1 20//140
f 26//1 25//1 27//1
f 30//162 29//1 31//1
f 34//1 33//1 35//1
f 38//163 37//1 39//1
f 42//164 41//140 43//1
f 45//165 44//140 46//1
f 47//166 46//1 48//1
f 50//167 49//140 51//1
f 53//163 52//1 54//1
f 59//168 58//140 60//1
f 63//145 62//140 64//140
f 67//169 66//1 68//1
f 35//1 1//1 37//1
f 31//1 3//1 35//1
f 7//1 3//1 27//1
f 64//140 60//1 44//140
f 49//140 60//1 52//1
f 66//1 64//140 37//1
f 15//1 7//1 20//140
f 22//140 20//140 24//1
f 131//154 132//150 130//3
f 127//170 128//3 126//150
f 121//171 122//3 120//150
f 118//172 119//3 117//150
f 115//152 116//3 114//3
f 113//173 114//3 112//3
f 110//174 111//3 109//150
f 106//175 107//150 105//150
f 102//150 103//3 101//150
f 98//176 99//3 97//3
f 94//177 95//3 93//3
f 87//3 88//150 86//3
f 84//178 85//3 83//3
f 82//178 83//3 81//3
f 78//149 79//150 77//150
f 72//153 73//3 71//3
f 103//3 105//150 69//3
f 99//3 103//3 71//3
f 75//3 95//3 71//3
f 132//150 112//3 128//3
f 117//150 120//150 128//3
f 134//3 105//150 132//150
f 83//3 88//150 75//3
f 90//150 92//3 88//150
f 135//175 136//3 134//3

