# WaveFront *.obj file (generated by Cinema 4D)

v 0.098145 0.308105 0.000000
v -0.220215 0.458984 0.000000
v -0.235252 0.467134 0.000000
v -0.244529 0.473280 0.000000
v -0.250949 0.478422 0.000000
v -0.254229 0.481517 0.000000
v -0.257080 0.484619 0.000000
v -0.259941 0.488333 0.000000
v -0.262371 0.492229 0.000000
v -0.264111 0.495713 0.000000
v -0.265535 0.499330 0.000000
v -0.266796 0.503720 0.000000
v -0.267627 0.508291 0.000000
v -0.267957 0.511667 0.000000
v -0.268066 0.515137 0.000000
v -0.267827 0.520726 0.000000
v -0.267109 0.526009 0.000000
v -0.266113 0.530293 0.000000
v -0.264766 0.534352 0.000000
v -0.263066 0.538187 0.000000
v -0.261016 0.541796 0.000000
v -0.258613 0.545180 0.000000
v -0.255859 0.548340 0.000000
v -0.252810 0.551204 0.000000
v -0.250087 0.553311 0.000000
v -0.247197 0.555165 0.000000
v -0.244141 0.556764 0.000000
v -0.240255 0.558349 0.000000
v -0.236130 0.559568 0.000000
v -0.231766 0.560421 0.000000
v -0.227947 0.560852 0.000000
v -0.223145 0.561035 0.000000
v -0.218933 0.560837 0.000000
v -0.213705 0.560116 0.000000
v -0.209620 0.559253 0.000000
v -0.205322 0.558105 0.000000
v -0.193176 0.553833 0.000000
v -0.176758 0.546875 0.000000
v 0.209961 0.366211 0.000000
v 0.213867 0.363770 0.000000
v 0.229823 0.355601 0.000000
v 0.241509 0.348125 0.000000
v 0.248555 0.342598 0.000000
v 0.254517 0.336914 0.000000
v 0.258506 0.332255 0.000000
v 0.261801 0.327495 0.000000
v 0.263817 0.323860 0.000000
v 0.265443 0.320169 0.000000
v 0.266679 0.316421 0.000000
v 0.267524 0.312617 0.000000
v 0.267871 0.310050 0.000000
v 0.268066 0.306152 0.000000
v 0.267878 0.302260 0.000000
v 0.267314 0.298434 0.000000
v 0.266374 0.294676 0.000000
v 0.265057 0.290984 0.000000
v 0.263364 0.287358 0.000000
v 0.260522 0.282629 0.000000
v 0.257011 0.278018 0.000000
v 0.252831 0.273526 0.000000
v 0.246666 0.268077 0.000000
v 0.237889 0.261784 0.000000
v 0.227607 0.255759 0.000000
v 0.215820 0.250000 0.000000
v 0.210964 0.247331 0.000000
v 0.209391 0.246618 0.000000
v 0.208008 0.246094 0.000000
v -0.178223 0.068848 0.000000
v -0.191833 0.062988 0.000000
v -0.203369 0.059082 0.000000
v -0.210770 0.057352 0.000000
v -0.217082 0.056452 0.000000
v -0.220145 0.056227 0.000000
v -0.223145 0.056152 0.000000
v -0.228724 0.056396 0.000000
v -0.233978 0.057129 0.000000
v -0.238223 0.058145 0.000000
v -0.242228 0.059519 0.000000
v -0.245995 0.061252 0.000000
v -0.248951 0.062971 0.000000
v -0.251741 0.064938 0.000000
v -0.253853 0.066691 0.000000
v -0.255859 0.068604 0.000000
v -0.258613 0.071715 0.000000
v -0.261016 0.075072 0.000000
v -0.263066 0.078676 0.000000
v -0.264766 0.082525 0.000000
v -0.266113 0.086621 0.000000
v -0.267109 0.090963 0.000000
v -0.267827 0.096339 0.000000
v -0.268066 0.102051 0.000000
v -0.267798 0.107545 0.000000
v -0.267122 0.112136 0.000000
v -0.266034 0.116527 0.000000
v -0.264774 0.120130 0.000000
v -0.263212 0.123586 0.000000
v -0.261348 0.126895 0.000000
v -0.259563 0.129539 0.000000
v -0.257568 0.132080 0.000000
v -0.254308 0.135571 0.000000
v -0.249797 0.139573 0.000000
v -0.242981 0.144592 0.000000
v -0.233074 0.150642 0.000000
v -0.220215 0.157227 0.000000
v 0.098145 0.308105 -0.400000
v -0.220215 0.458984 -0.400000
v -0.235252 0.467134 -0.400000
v -0.244529 0.473280 -0.400000
v -0.250949 0.478422 -0.400000
v -0.254229 0.481517 -0.400000
v -0.257080 0.484619 -0.400000
v -0.259941 0.488333 -0.400000
v -0.262371 0.492229 -0.400000
v -0.264111 0.495713 -0.400000
v -0.265535 0.499330 -0.400000
v -0.266796 0.503720 -0.400000
v -0.267627 0.508291 -0.400000
v -0.267957 0.511667 -0.400000
v -0.268066 0.515137 -0.400000
v -0.267827 0.520726 -0.400000
v -0.267109 0.526009 -0.400000
v -0.266113 0.530293 -0.400000
v -0.264766 0.534352 -0.400000
v -0.263066 0.538187 -0.400000
v -0.261016 0.541796 -0.400000
v -0.258613 0.545180 -0.400000
v -0.255859 0.548340 -0.400000
v -0.252810 0.551204 -0.400000
v -0.250087 0.553311 -0.400000
v -0.247197 0.555165 -0.400000
v -0.244141 0.556764 -0.400000
v -0.240255 0.558349 -0.400000
v -0.236130 0.559568 -0.400000
v -0.231766 0.560421 -0.400000
v -0.227947 0.560852 -0.400000
v -0.223145 0.561035 -0.400000
v -0.218933 0.560837 -0.400000
v -0.213705 0.560116 -0.400000
v -0.209620 0.559253 -0.400000
v -0.205322 0.558105 -0.400000
v -0.193176 0.553833 -0.400000
v -0.176758 0.546875 -0.400000
v 0.209961 0.366211 -0.400000
v 0.213867 0.363770 -0.400000
v 0.229823 0.355601 -0.400000
v 0.241509 0.348125 -0.400000
v 0.248555 0.342598 -0.400000
v 0.254517 0.336914 -0.400000
v 0.258506 0.332255 -0.400000
v 0.261801 0.327495 -0.400000
v 0.263817 0.323860 -0.400000
v 0.265443 0.320169 -0.400000
v 0.266679 0.316421 -0.400000
v 0.267524 0.312617 -0.400000
v 0.267871 0.310050 -0.400000
v 0.268066 0.306152 -0.400000
v 0.267878 0.302260 -0.400000
v 0.267314 0.298434 -0.400000
v 0.266374 0.294676 -0.400000
v 0.265057 0.290984 -0.400000
v 0.263364 0.287358 -0.400000
v 0.260522 0.282629 -0.400000
v 0.257011 0.278018 -0.400000
v 0.252831 0.273526 -0.400000
v 0.246666 0.268077 -0.400000
v 0.237889 0.261784 -0.400000
v 0.227607 0.255759 -0.400000
v 0.215820 0.250000 -0.400000
v 0.210964 0.247331 -0.400000
v 0.209391 0.246618 -0.400000
v 0.208008 0.246094 -0.400000
v -0.178223 0.068848 -0.400000
v -0.191833 0.062988 -0.400000
v -0.203369 0.059082 -0.400000
v -0.210770 0.057352 -0.400000
v -0.217082 0.056452 -0.400000
v -0.220145 0.056227 -0.400000
v -0.223145 0.056152 -0.400000
v -0.228724 0.056396 -0.400000
v -0.233978 0.057129 -0.400000
v -0.238223 0.058145 -0.400000
v -0.242228 0.059519 -0.400000
v -0.245995 0.061252 -0.400000
v -0.248951 0.062971 -0.400000
v -0.251741 0.064938 -0.400000
v -0.253853 0.066691 -0.400000
v -0.255859 0.068604 -0.400000
v -0.258613 0.071715 -0.400000
v -0.261016 0.075072 -0.400000
v -0.263066 0.078676 -0.400000
v -0.264766 0.082525 -0.400000
v -0.266113 0.086621 -0.400000
v -0.267109 0.090963 -0.400000
v -0.267827 0.096339 -0.400000
v -0.268066 0.102051 -0.400000
v -0.267798 0.107545 -0.400000
v -0.267122 0.112136 -0.400000
v -0.266034 0.116527 -0.400000
v -0.264774 0.120130 -0.400000
v -0.263212 0.123586 -0.400000
v -0.261348 0.126895 -0.400000
v -0.259563 0.129539 -0.400000
v -0.257568 0.132080 -0.400000
v -0.254308 0.135571 -0.400000
v -0.249797 0.139573 -0.400000
v -0.242981 0.144592 -0.400000
v -0.233074 0.150642 -0.400000
v -0.220215 0.157227 -0.400000
# 208 vertices

vn 0.000000 0.000000 1.000000
vn 0.000000 0.000000 -1.000000
vn 0.000000 0.000000 -1.000000
vn -0.428265 -0.903653 0.000000
vn -0.428265 -0.903653 0.000000
vn -0.476495 -0.879177 0.000000
vn -0.476495 -0.879176 0.000000
vn -0.502189 -0.864758 0.000000
vn -0.527468 -0.849575 0.000000
vn -0.577096 -0.816676 0.000000
vn -0.601425 -0.798929 0.000000
vn -0.646022 -0.763319 0.000000
vn -0.666401 -0.745593 0.000000
vn -0.703329 -0.710864 0.000000
vn -0.719993 -0.693982 0.000000
vn -0.755535 -0.655109 0.000000
vn -0.774209 -0.632931 0.000000
vn -0.811841 -0.583878 0.000000
vn -0.830608 -0.556857 0.000000
vn -0.864698 -0.502292 0.000000
vn -0.880096 -0.474795 0.000000
vn -0.907364 -0.420346 0.000000
vn -0.919347 -0.393449 0.000000
vn -0.941666 -0.336550 0.000000
vn -0.951872 -0.306497 0.000000
vn -0.969783 -0.243971 0.000000
vn -0.977385 -0.211469 0.000000
vn -0.988430 -0.151679 0.000000
vn -0.992225 -0.124455 0.000000
vn -0.997157 -0.075358 0.000000
vn -0.998567 -0.053511 0.000000
vn -0.999977 -0.006847 0.000000
vn -0.999838 0.017974 0.000000
vn -0.997298 0.073460 0.000000
vn -0.994566 0.104111 0.000000
vn -0.986226 0.165401 0.000000
vn -0.980597 0.196036 0.000000
vn -0.966614 0.256235 0.000000
vn -0.958288 0.285805 0.000000
vn -0.938433 0.345461 0.000000
vn -0.926816 0.375517 0.000000
vn -0.900309 0.435251 0.000000
vn -0.885361 0.464904 0.000000
vn -0.852410 0.522874 0.000000
vn -0.834387 0.551179 0.000000
vn -0.795783 0.605582 0.000000
vn -0.775220 0.631691 0.000000
vn -0.731568 0.681768 0.000000
vn -0.708478 0.705733 0.000000
vn -0.661077 0.750318 0.000000
vn -0.636829 0.771005 0.000000
vn -0.588448 0.808535 0.000000
vn -0.564407 0.825497 0.000000
vn -0.514971 0.857208 0.000000
vn -0.489578 0.871960 0.000000
vn -0.435478 0.900199 0.000000
vn -0.406705 0.913559 0.000000
vn -0.346533 0.938038 0.000000
vn -0.315095 0.949060 0.000000
vn -0.253097 0.967441 0.000000
vn -0.222571 0.974916 0.000000
vn -0.165458 0.986217 0.000000
vn -0.138922 0.990303 0.000000
vn -0.087603 0.996155 0.000000
vn -0.062833 0.998024 0.000000
vn -0.009706 0.999953 0.000000
vn 0.018657 0.999826 0.000000
vn 0.076911 0.997038 0.000000
vn 0.106796 0.994281 0.000000
vn 0.160076 0.987105 0.000000
vn 0.183516 0.983017 0.000000
vn 0.223930 0.974605 0.000000
vn 0.240957 0.970536 0.000000
vn 0.282734 0.959198 0.000000
vn 0.307391 0.951583 0.000000
vn 0.351438 0.936211 0.000000
vn 0.370903 0.928672 0.000000
vn 0.390198 0.920731 0.000000
vn 0.423261 0.906008 0.000000
vn 0.423261 0.906008 0.000000
vn 0.529999 0.847998 0.000000
vn 0.529998 0.847997 0.000000
vn 0.455701 0.890133 0.000000
vn 0.455701 0.890133 0.000000
vn 0.483932 0.875106 0.000000
vn 0.511696 0.859167 0.000000
vn 0.565591 0.824686 0.000000
vn 0.591722 0.806142 0.000000
vn 0.642145 0.766584 0.000000
vn 0.666434 0.745564 0.000000
vn 0.714032 0.700113 0.000000
vn 0.737266 0.675603 0.000000
vn 0.781388 0.624045 0.000000
vn 0.802256 0.596980 0.000000
vn 0.840526 0.541771 0.000000
vn 0.857989 0.513669 0.000000
vn 0.888874 0.458151 0.000000
vn 0.902440 0.430816 0.000000
vn 0.927628 0.373505 0.000000
vn 0.939157 0.343488 0.000000
vn 0.959590 0.281403 0.000000
vn 0.968423 0.249312 0.000000
vn 0.981893 0.189438 0.000000
vn 0.986836 0.161722 0.000000
vn 0.994364 0.106016 0.000000
vn 0.996951 0.078026 0.000000
vn 0.999851 0.017262 0.000000
vn 0.999879 -0.015527 0.000000
vn 0.996722 -0.080901 0.000000
vn 0.993540 -0.113486 0.000000
vn 0.983963 -0.178375 0.000000
vn 0.977556 -0.210677 0.000000
vn 0.961712 -0.274064 0.000000
vn 0.952303 -0.305155 0.000000
vn 0.930882 -0.365320 0.000000
vn 0.918932 -0.394417 0.000000
vn 0.890847 -0.454304 0.000000
vn 0.874513 -0.485003 0.000000
vn 0.837753 -0.546050 0.000000
vn 0.817215 -0.576333 0.000000
vn 0.775283 -0.631614 0.000000
vn 0.754093 -0.656768 0.000000
vn 0.709560 -0.704645 0.000000
vn 0.686232 -0.727383 0.000000
vn 0.636425 -0.771339 0.000000
vn 0.609885 -0.792490 0.000000
vn 0.557513 -0.830169 0.000000
vn 0.531803 -0.846868 0.000000
vn 0.483712 -0.875227 0.000000
vn 0.461483 -0.887149 0.000000
vn 0.453306 -0.891355 0.000000
vn 0.467523 -0.883981 0.000000
vn 0.459060 -0.888405 0.000000
vn 0.436188 -0.899855 0.000000
vn 0.393644 -0.919263 0.000000
vn 0.374056 -0.927406 0.000000
vn 0.354308 -0.935129 0.000000
vn 0.417090 -0.908865 0.000000
vn 0.417089 -0.908864 0.000000
vn 0.395410 -0.918505 0.000000
vn 0.395409 -0.918503 0.000000
vn 0.370782 -0.928720 0.000000
vn 0.345872 -0.938282 0.000000
vn 0.289990 -0.957030 0.000000
vn 0.258911 -0.965901 0.000000
vn 0.198950 -0.980010 0.000000
vn 0.170109 -0.985425 0.000000
vn 0.118583 -0.992944 0.000000
vn 0.095947 -0.995387 0.000000
vn 0.057194 -0.998363 0.000000
vn 0.041096 -0.999155 0.000000
vn 0.002097 -0.999998 0.000000
vn -0.020812 -0.999783 0.000000
vn -0.075210 -0.997168 0.000000
vn -0.106679 -0.994294 0.000000
vn -0.169781 -0.985482 0.000000
vn -0.201408 -0.979508 0.000000
vn -0.263664 -0.964615 0.000000
vn -0.294298 -0.955714 0.000000
vn -0.356147 -0.934430 0.000000
vn -0.387326 -0.921943 0.000000
vn -0.446654 -0.894707 0.000000
vn -0.474850 -0.880067 0.000000
vn -0.527563 -0.849516 0.000000
vn -0.552157 -0.833740 0.000000
vn -0.597456 -0.801901 0.000000
vn -0.618257 -0.785976 0.000000
vn -0.656088 -0.754684 0.000000
vn -0.673221 -0.739442 0.000000
vn -0.710163 -0.704037 0.000000
vn -0.729784 -0.683678 0.000000
vn -0.771207 -0.636585 0.000000
vn -0.792715 -0.609593 0.000000
vn -0.832868 -0.553472 0.000000
vn -0.851509 -0.524340 0.000000
vn -0.885372 -0.464882 0.000000
vn -0.900634 -0.434579 0.000000
vn -0.927514 -0.373790 0.000000
vn -0.939211 -0.343340 0.000000
vn -0.959068 -0.283176 0.000000
vn -0.967336 -0.253498 0.000000
vn -0.981126 -0.193367 0.000000
vn -0.986640 -0.162913 0.000000
vn -0.994757 -0.102266 0.000000
vn -0.997399 -0.072079 0.000000
vn -0.999932 -0.011626 0.000000
vn -0.999826 0.018641 0.000000
vn -0.996697 0.081216 0.000000
vn -0.993536 0.113518 0.000000
vn -0.984131 0.177441 0.000000
vn -0.977902 0.209065 0.000000
vn -0.962704 0.270556 0.000000
vn -0.953801 0.300440 0.000000
vn -0.933871 0.357610 0.000000
vn -0.922945 0.384931 0.000000
vn -0.898663 0.438640 0.000000
vn -0.885297 0.465025 0.000000
vn -0.857685 0.514176 0.000000
vn -0.843571 0.537017 0.000000
vn -0.815258 0.579098 0.000000
vn -0.801182 0.598421 0.000000
vn -0.768693 0.639618 0.000000
vn -0.750086 0.661340 0.000000
vn -0.709152 0.705056 0.000000
vn -0.686705 0.726937 0.000000
vn -0.640646 0.767836 0.000000
vn -0.617077 0.786903 0.000000
vn -0.569493 0.821996 0.000000
vn -0.545529 0.838092 0.000000
vn -0.499667 0.866218 0.000000
vn -0.477878 0.878426 0.000000
vn -0.455805 0.890080 0.000000
vn -0.428265 0.903653 0.000000
vn -0.428265 0.903653 0.000000
vn 0.390197 0.920729 0.000000
vn 0.423261 0.906008 0.000000
vn 0.529998 0.847997 0.000000
vn 0.354307 -0.935128 0.000000
vn -0.455805 0.890080 0.000000
vn 0.000000 0.000000 0.999999
vn 0.000000 0.000000 1.000000
vn 0.000000 0.000000 1.000000
vn 0.000000 0.000000 1.000000
vn 0.000000 0.000000 -1.000000
vn 0.000000 0.000000 0.999995
vn 0.000000 0.000000 -0.999995
# 226 normals

o >
usemtl default
f 38//1 2//1 1//1
f 207//3 208//2 172//2
f 106//4 105//5 1//4
f 107//8 106//7 2//6
f 108//10 107//8 3//9
f 109//12 108//10 4//11
f 110//14 109//12 5//13
f 111//16 110//14 6//15
f 112//18 111//16 7//17
f 113//20 112//18 8//19
f 114//22 113//20 9//21
f 115//24 114//22 10//23
f 116//26 115//24 11//25
f 117//28 116//26 12//27
f 118//30 117//28 13//29
f 119//32 118//30 14//31
f 120//34 119//32 15//33
f 121//36 120//34 16//35
f 122//38 121//36 17//37
f 123//40 122//38 18//39
f 124//42 123//40 19//41
f 125//44 124//42 20//43
f 126//46 125//44 21//45
f 127//48 126//46 22//47
f 128//50 127//48 23//49
f 129//52 128//50 24//51
f 130//54 129//52 25//53
f 131//56 130//54 26//55
f 132//58 131//56 27//57
f 133//60 132//58 28//59
f 134//62 133//60 29//61
f 135//64 134//62 30//63
f 136//66 135//64 31//65
f 137//68 136//66 32//67
f 138//70 137//68 33//69
f 139//72 138//70 34//71
f 140//74 139//72 35//73
f 141//76 140//74 36//75
f 142//78 141//76 37//77
f 143//79 142//80 38//79
f 144//81 143//82 39//81
f 145//85 144//84 40//83
f 146//87 145//85 41//86
f 147//89 146//87 42//88
f 148//91 147//89 43//90
f 149//93 148//91 44//92
f 150//95 149//93 45//94
f 151//97 150//95 46//96
f 152//99 151//97 47//98
f 153//101 152//99 48//100
f 154//103 153//101 49//102
f 155//105 154//103 50//104
f 156//107 155//105 51//106
f 157//109 156//107 52//108
f 158//111 157//109 53//110
f 159//113 158//111 54//112
f 160//115 159//113 55//114
f 161//117 160//115 56//116
f 162//119 161//117 57//118
f 163//121 162//119 58//120
f 164//123 163//121 59//122
f 165//125 164//123 60//124
f 166//127 165//125 61//126
f 167//129 166//127 62//128
f 168//131 167//129 63//130
f 169//133 168//131 64//132
f 170//135 169//133 65//134
f 171//137 170//135 66//136
f 172//138 171//139 67//138
f 173//142 172//141 68//140
f 174//144 173//142 69//143
f 175//146 174//144 70//145
f 176//148 175//146 71//147
f 177//150 176//148 72//149
f 178//152 177//150 73//151
f 179//154 178//152 74//153
f 180//156 179//154 75//155
f 181//158 180//156 76//157
f 182//160 181//158 77//159
f 183//162 182//160 78//161
f 184//164 183//162 79//163
f 185//166 184//164 80//165
f 186//168 185//166 81//167
f 187//170 186//168 82//169
f 188//172 187//170 83//171
f 189//174 188//172 84//173
f 190//176 189//174 85//175
f 191//178 190//176 86//177
f 192//180 191//178 87//179
f 193//182 192//180 88//181
f 194//184 193//182 89//183
f 195//186 194//184 90//185
f 196//188 195//186 91//187
f 197//190 196//188 92//189
f 198//192 197//190 93//191
f 199//194 198//192 94//193
f 200//196 199//194 95//195
f 201//198 200//196 96//197
f 202//200 201//198 97//199
f 203//202 202//200 98//201
f 204//204 203//202 99//203
f 205//206 204//204 100//205
f 206//208 205//206 101//207
f 207//210 206//208 102//209
f 208//212 207//210 103//211
f 105//213 208//214 104//213
f 2//5 106//4 1//4
f 3//9 107//8 2//6
f 4//11 108//10 3//9
f 5//13 109//12 4//11
f 6//15 110//14 5//13
f 7//17 111//16 6//15
f 8//19 112//18 7//17
f 9//21 113//20 8//19
f 10//23 114//22 9//21
f 11//25 115//24 10//23
f 12//27 116//26 11//25
f 13//29 117//28 12//27
f 14//31 118//30 13//29
f 15//33 119//32 14//31
f 16//35 120//34 15//33
f 17//37 121//36 16//35
f 18//39 122//38 17//37
f 19//41 123//40 18//39
f 20//43 124//42 19//41
f 21//45 125//44 20//43
f 22//47 126//46 21//45
f 23//49 127//48 22//47
f 24//51 128//50 23//49
f 25//53 129//52 24//51
f 26//55 130//54 25//53
f 27//57 131//56 26//55
f 28//59 132//58 27//57
f 29//61 133//60 28//59
f 30//63 134//62 29//61
f 31//65 135//64 30//63
f 32//67 136//66 31//65
f 33//69 137//68 32//67
f 34//71 138//70 33//69
f 35//73 139//72 34//71
f 36//75 140//74 35//73
f 37//77 141//76 36//75
f 38//215 142//78 37//77
f 39//216 143//79 38//79
f 40//217 144//81 39//81
f 41//86 145//85 40//83
f 42//88 146//87 41//86
f 43//90 147//89 42//88
f 44//92 148//91 43//90
f 45//94 149//93 44//92
f 46//96 150//95 45//94
f 47//98 151//97 46//96
f 48//100 152//99 47//98
f 49//102 153//101 48//100
f 50//104 154//103 49//102
f 51//106 155//105 50//104
f 52//108 156//107 51//106
f 53//110 157//109 52//108
f 54//112 158//111 53//110
f 55//114 159//113 54//112
f 56//116 160//115 55//114
f 57//118 161//117 56//116
f 58//120 162//119 57//118
f 59//122 163//121 58//120
f 60//124 164//123 59//122
f 61//126 165//125 60//124
f 62//128 166//127 61//126
f 63//130 167//129 62//128
f 64//132 168//131 63//130
f 65//134 169//133 64//132
f 66//136 170//135 65//134
f 67//218 171//137 66//136
f 68//139 172//138 67//138
f 69//143 173//142 68//140
f 70//145 174//144 69//143
f 71//147 175//146 70//145
f 72//149 176//148 71//147
f 73//151 177//150 72//149
f 74//153 178//152 73//151
f 75//155 179//154 74//153
f 76//157 180//156 75//155
f 77//159 181//158 76//157
f 78//161 182//160 77//159
f 79//163 183//162 78//161
f 80//165 184//164 79//163
f 81//167 185//166 80//165
f 82//169 186//168 81//167
f 83//171 187//170 82//169
f 84//173 188//172 83//171
f 85//175 189//174 84//173
f 86//177 190//176 85//175
f 87//179 191//178 86//177
f 88//181 192//180 87//179
f 89//183 193//182 88//181
f 90//185 194//184 89//183
f 91//187 195//186 90//185
f 92//189 196//188 91//187
f 93//191 197//190 92//189
f 94//193 198//192 93//191
f 95//195 199//194 94//193
f 96//197 200//196 95//195
f 97//199 201//198 96//197
f 98//201 202//200 97//199
f 99//203 203//202 98//201
f 100//205 204//204 99//203
f 101//207 205//206 100//205
f 102//209 206//208 101//207
f 103//211 207//210 102//209
f 104//219 208//212 103//211
f 1//214 105//213 104//213
f 37//1 3//1 2//1
f 14//1 4//1 3//1
f 14//1 6//1 5//1
f 7//1 6//1 14//1
f 14//1 9//1 8//1
f 14//1 11//1 10//1
f 14//1 13//220 12//1
f 3//1 16//1 15//1
f 3//1 17//1 16//1
f 3//1 18//1 17//1
f 3//1 19//1 18//1
f 3//1 20//1 19//1
f 3//1 21//1 20//1
f 3//1 22//1 21//1
f 3//1 23//1 22//1
f 3//1 24//1 23//1
f 3//1 25//1 24//1
f 3//1 26//1 25//1
f 3//1 27//1 26//1
f 3//1 28//1 27//1
f 3//1 29//1 28//1
f 3//1 30//1 29//1
f 3//1 31//221 30//1
f 3//1 32//221 31//221
f 3//1 33//221 32//221
f 3//1 34//221 33//221
f 3//1 35//221 34//221
f 3//1 36//221 35//221
f 3//1 37//1 36//221
f 1//1 40//221 39//1
f 1//1 41//221 40//221
f 1//1 42//221 41//221
f 1//1 43//221 42//221
f 1//1 44//221 43//221
f 1//1 45//221 44//221
f 1//1 46//221 45//221
f 1//1 47//221 46//221
f 1//1 48//221 47//221
f 1//1 49//221 48//221
f 1//1 50//221 49//221
f 1//1 51//221 50//221
f 1//1 52//1 51//221
f 1//1 53//222 52//1
f 1//1 54//222 53//222
f 1//1 55//222 54//222
f 1//1 56//222 55//222
f 1//1 57//222 56//222
f 1//1 58//222 57//222
f 1//1 59//222 58//222
f 1//1 60//222 59//222
f 1//1 61//222 60//222
f 1//1 62//222 61//222
f 1//1 63//222 62//222
f 1//1 64//222 63//222
f 1//1 65//222 64//222
f 1//1 66//222 65//222
f 1//1 67//1 66//222
f 68//1 67//1 1//1
f 68//1 104//1 103//223
f 69//223 103//223 102//1
f 71//1 70//1 102//1
f 71//1 93//1 92//1
f 73//1 72//1 92//1
f 91//1 74//1 73//1
f 74//1 91//1 90//223
f 75//223 90//223 89//1
f 77//1 76//1 88//1
f 77//1 82//1 81//1
f 79//1 78//1 81//1
f 83//1 82//1 77//1
f 77//1 85//1 84//1
f 77//1 87//1 86//1
f 89//1 88//1 76//1
f 94//1 93//1 71//1
f 95//1 94//1 71//1
f 96//1 95//1 71//1
f 97//1 96//1 71//1
f 98//1 97//1 71//1
f 99//1 98//1 71//1
f 100//1 99//1 71//1
f 101//1 100//1 71//1
f 206//2 207//3 173//3
f 206//2 174//2 175//2
f 175//2 204//2 205//2
f 175//2 203//2 204//2
f 175//2 202//2 203//2
f 175//2 201//2 202//2
f 175//2 200//2 201//2
f 175//2 199//2 200//2
f 175//2 198//2 199//2
f 175//2 197//2 198//2
f 196//2 197//2 175//2
f 196//2 176//2 177//2
f 194//3 195//2 178//2
f 193//2 194//3 179//3
f 180//2 192//2 193//2
f 192//2 180//2 181//2
f 190//2 191//2 181//2
f 188//2 189//2 181//2
f 181//2 186//2 187//2
f 185//2 186//2 181//2
f 185//2 182//2 183//2
f 177//2 178//2 195//2
f 105//2 171//2 172//2
f 170//2 171//2 105//2
f 169//2 170//2 105//2
f 168//2 169//2 105//2
f 167//2 168//2 105//2
f 166//2 167//2 105//2
f 165//2 166//2 105//2
f 164//2 165//2 105//2
f 163//2 164//2 105//2
f 162//2 163//2 105//2
f 161//2 162//2 105//2
f 160//2 161//2 105//2
f 159//2 160//2 105//2
f 158//2 159//2 105//2
f 157//2 158//2 105//2
f 156//2 157//2 105//2
f 155//2 156//2 105//2
f 154//2 155//2 105//2
f 153//2 154//2 105//2
f 152//2 153//2 105//2
f 151//2 152//2 105//2
f 150//2 151//2 105//2
f 149//2 150//2 105//2
f 148//2 149//2 105//2
f 147//2 148//2 105//2
f 146//2 147//2 105//2
f 145//2 146//2 105//2
f 144//2 145//2 105//2
f 143//2 144//2 105//2
f 105//2 106//2 142//2
f 106//2 107//2 141//2
f 140//2 141//2 107//2
f 139//2 140//2 107//2
f 138//2 139//2 107//2
f 137//2 138//2 107//2
f 136//2 137//2 107//2
f 135//2 136//2 107//2
f 134//2 135//2 107//2
f 133//2 134//2 107//2
f 132//2 133//2 107//2
f 131//2 132//2 107//2
f 130//2 131//2 107//2
f 129//2 130//2 107//2
f 128//2 129//2 107//2
f 127//2 128//2 107//2
f 126//2 127//2 107//2
f 125//2 126//2 107//2
f 124//2 125//2 107//2
f 123//2 124//2 107//2
f 122//2 123//2 107//2
f 121//2 122//2 107//2
f 120//2 121//2 107//2
f 119//2 120//2 107//2
f 107//2 108//2 118//2
f 116//2 117//224 118//2
f 114//2 115//2 118//2
f 112//2 113//2 118//2
f 118//2 110//2 111//2
f 109//2 110//2 118//2
f 38//1 37//1 2//1
f 15//1 14//1 3//1
f 4//1 14//1 5//1
f 7//1 14//1 8//1
f 9//1 14//1 10//1
f 11//1 14//1 12//1
f 104//1 68//1 1//1
f 69//223 68//1 103//223
f 70//1 69//223 102//1
f 101//1 71//1 102//1
f 72//1 71//1 92//1
f 91//1 73//1 92//1
f 75//223 74//1 90//223
f 76//1 75//223 89//1
f 87//1 77//1 88//1
f 78//1 77//1 81//1
f 80//225 79//1 81//1
f 83//1 77//1 84//1
f 85//1 77//1 86//1
f 174//2 206//2 173//3
f 205//2 206//2 175//2
f 176//2 196//2 175//2
f 195//2 196//2 177//2
f 179//3 194//3 178//2
f 180//2 193//2 179//3
f 191//2 192//2 181//2
f 189//2 190//2 181//2
f 187//2 188//2 181//2
f 182//2 185//2 181//2
f 184//226 185//2 183//2
f 208//2 105//2 172//2
f 143//2 105//2 142//2
f 142//2 106//2 141//2
f 119//2 107//2 118//2
f 115//2 116//2 118//2
f 113//2 114//2 118//2
f 111//2 112//2 118//2
f 108//2 109//2 118//2
f 39//1 38//1 1//1
f 173//3 207//3 172//2

