# WaveFront *.obj file (generated by Cinema 4D)

v 0.003906 0.627930 0.000000
v 0.003906 0.020996 0.000000
v 0.077148 0.020996 0.000000
v 0.081394 0.020790 0.000000
v 0.084828 0.020286 0.000000
v 0.088072 0.019480 0.000000
v 0.090630 0.018577 0.000000
v 0.093056 0.017465 0.000000
v 0.095350 0.016142 0.000000
v 0.097513 0.014609 0.000000
v 0.099544 0.012866 0.000000
v 0.100699 0.011720 0.000000
v 0.101807 0.010498 0.000000
v 0.103845 0.007870 0.000000
v 0.105622 0.005023 0.000000
v 0.107140 0.001959 0.000000
v 0.108397 -0.001324 0.000000
v 0.109535 -0.005429 0.000000
v 0.110320 -0.009830 0.000000
v 0.110710 -0.013839 0.000000
v 0.110840 -0.018066 0.000000
v 0.110555 -0.024157 0.000000
v 0.109824 -0.029173 0.000000
v 0.108815 -0.033254 0.000000
v 0.107676 -0.036523 0.000000
v 0.106284 -0.039582 0.000000
v 0.104638 -0.042430 0.000000
v 0.103401 -0.044211 0.000000
v 0.102051 -0.045898 0.000000
v 0.099850 -0.048212 0.000000
v 0.097876 -0.049914 0.000000
v 0.095776 -0.051411 0.000000
v 0.093548 -0.052703 0.000000
v 0.091194 -0.053790 0.000000
v 0.088712 -0.054672 0.000000
v 0.085567 -0.055459 0.000000
v 0.082239 -0.055951 0.000000
v 0.078125 -0.056152 0.000000
v -0.071777 -0.056152 0.000000
v -0.077227 -0.055921 0.000000
v -0.082327 -0.055227 0.000000
v -0.086503 -0.054241 0.000000
v -0.090410 -0.052900 0.000000
v -0.093546 -0.051470 0.000000
v -0.096485 -0.049779 0.000000
v -0.098335 -0.048507 0.000000
v -0.100098 -0.047119 0.000000
v -0.102521 -0.044877 0.000000
v -0.104635 -0.042488 0.000000
v -0.106161 -0.040384 0.000000
v -0.107471 -0.038177 0.000000
v -0.108567 -0.035868 0.000000
v -0.109448 -0.033457 0.000000
v -0.110114 -0.030942 0.000000
v -0.110629 -0.027790 0.000000
v -0.110771 -0.026159 0.000000
v -0.110840 -0.023926 0.000000
v -0.110840 0.671875 0.000000
v -0.110685 0.675200 0.000000
v -0.110221 0.678377 0.000000
v -0.109598 0.680911 0.000000
v -0.108760 0.683343 0.000000
v -0.107707 0.685673 0.000000
v -0.106440 0.687900 0.000000
v -0.104957 0.690025 0.000000
v -0.102895 0.692439 0.000000
v -0.101748 0.693590 0.000000
v -0.100098 0.695068 0.000000
v -0.097421 0.697106 0.000000
v -0.094548 0.698884 0.000000
v -0.091477 0.700402 0.000000
v -0.088210 0.701659 0.000000
v -0.084150 0.702797 0.000000
v -0.079821 0.703581 0.000000
v -0.075898 0.703971 0.000000
v -0.071777 0.704102 0.000000
v 0.078125 0.704102 0.000000
v 0.082239 0.703901 0.000000
v 0.085567 0.703408 0.000000
v 0.088712 0.702621 0.000000
v 0.091194 0.701739 0.000000
v 0.093548 0.700652 0.000000
v 0.095776 0.699360 0.000000
v 0.097876 0.697863 0.000000
v 0.099850 0.696161 0.000000
v 0.100973 0.695041 0.000000
v 0.102051 0.693848 0.000000
v 0.104034 0.691281 0.000000
v 0.105763 0.688504 0.000000
v 0.107240 0.685516 0.000000
v 0.108463 0.682316 0.000000
v 0.109571 0.678317 0.000000
v 0.110334 0.674031 0.000000
v 0.110713 0.670129 0.000000
v 0.110840 0.666016 0.000000
v 0.110547 0.659773 0.000000
v 0.109796 0.654662 0.000000
v 0.108759 0.650528 0.000000
v 0.107588 0.647236 0.000000
v 0.106157 0.644177 0.000000
v 0.104466 0.641349 0.000000
v 0.103194 0.639593 0.000000
v 0.101807 0.637939 0.000000
v 0.099934 0.636038 0.000000
v 0.097930 0.634336 0.000000
v 0.095793 0.632834 0.000000
v 0.093525 0.631533 0.000000
v 0.091125 0.630432 0.000000
v 0.088072 0.629375 0.000000
v 0.084828 0.628606 0.000000
v 0.081394 0.628126 0.000000
v 0.077148 0.627930 0.000000
v 0.003906 0.627930 -0.400000
v 0.003906 0.020996 -0.400000
v 0.077148 0.020996 -0.400000
v 0.081394 0.020790 -0.400000
v 0.084828 0.020286 -0.400000
v 0.088072 0.019480 -0.400000
v 0.090630 0.018577 -0.400000
v 0.093056 0.017465 -0.400000
v 0.095350 0.016142 -0.400000
v 0.097513 0.014609 -0.400000
v 0.099544 0.012866 -0.400000
v 0.100699 0.011720 -0.400000
v 0.101807 0.010498 -0.400000
v 0.103845 0.007870 -0.400000
v 0.105622 0.005023 -0.400000
v 0.107140 0.001959 -0.400000
v 0.108397 -0.001324 -0.400000
v 0.109535 -0.005429 -0.400000
v 0.110320 -0.009830 -0.400000
v 0.110710 -0.013839 -0.400000
v 0.110840 -0.018066 -0.400000
v 0.110555 -0.024157 -0.400000
v 0.109824 -0.029173 -0.400000
v 0.108815 -0.033254 -0.400000
v 0.107676 -0.036523 -0.400000
v 0.106284 -0.039582 -0.400000
v 0.104638 -0.042430 -0.400000
v 0.103401 -0.044211 -0.400000
v 0.102051 -0.045898 -0.400000
v 0.099850 -0.048212 -0.400000
v 0.097876 -0.049914 -0.400000
v 0.095776 -0.051411 -0.400000
v 0.093548 -0.052703 -0.400000
v 0.091194 -0.053790 -0.400000
v 0.088712 -0.054672 -0.400000
v 0.085567 -0.055459 -0.400000
v 0.082239 -0.055951 -0.400000
v 0.078125 -0.056152 -0.400000
v -0.071777 -0.056152 -0.400000
v -0.077227 -0.055921 -0.400000
v -0.082327 -0.055227 -0.400000
v -0.086503 -0.054241 -0.400000
v -0.090410 -0.052900 -0.400000
v -0.093546 -0.051470 -0.400000
v -0.096485 -0.049779 -0.400000
v -0.098335 -0.048507 -0.400000
v -0.100098 -0.047119 -0.400000
v -0.102521 -0.044877 -0.400000
v -0.104635 -0.042488 -0.400000
v -0.106161 -0.040384 -0.400000
v -0.107471 -0.038177 -0.400000
v -0.108567 -0.035868 -0.400000
v -0.109448 -0.033457 -0.400000
v -0.110114 -0.030942 -0.400000
v -0.110629 -0.027790 -0.400000
v -0.110771 -0.026159 -0.400000
v -0.110840 -0.023926 -0.400000
v -0.110840 0.671875 -0.400000
v -0.110685 0.675200 -0.400000
v -0.110221 0.678377 -0.400000
v -0.109598 0.680911 -0.400000
v -0.108760 0.683343 -0.400000
v -0.107707 0.685673 -0.400000
v -0.106440 0.687900 -0.400000
v -0.104957 0.690025 -0.400000
v -0.102895 0.692439 -0.400000
v -0.101748 0.693590 -0.400000
v -0.100098 0.695068 -0.400000
v -0.097421 0.697106 -0.400000
v -0.094548 0.698884 -0.400000
v -0.091477 0.700402 -0.400000
v -0.088210 0.701659 -0.400000
v -0.084150 0.702797 -0.400000
v -0.079821 0.703581 -0.400000
v -0.075898 0.703971 -0.400000
v -0.071777 0.704102 -0.400000
v 0.078125 0.704102 -0.400000
v 0.082239 0.703901 -0.400000
v 0.085567 0.703408 -0.400000
v 0.088712 0.702621 -0.400000
v 0.091194 0.701739 -0.400000
v 0.093548 0.700652 -0.400000
v 0.095776 0.699360 -0.400000
v 0.097876 0.697863 -0.400000
v 0.099850 0.696161 -0.400000
v 0.100973 0.695041 -0.400000
v 0.102051 0.693848 -0.400000
v 0.104034 0.691281 -0.400000
v 0.105763 0.688504 -0.400000
v 0.107240 0.685516 -0.400000
v 0.108463 0.682316 -0.400000
v 0.109571 0.678317 -0.400000
v 0.110334 0.674031 -0.400000
v 0.110713 0.670129 -0.400000
v 0.110840 0.666016 -0.400000
v 0.110547 0.659773 -0.400000
v 0.109796 0.654662 -0.400000
v 0.108759 0.650528 -0.400000
v 0.107588 0.647236 -0.400000
v 0.106157 0.644177 -0.400000
v 0.104466 0.641349 -0.400000
v 0.103194 0.639593 -0.400000
v 0.101807 0.637939 -0.400000
v 0.099934 0.636038 -0.400000
v 0.097930 0.634336 -0.400000
v 0.095793 0.632834 -0.400000
v 0.093525 0.631533 -0.400000
v 0.091125 0.630432 -0.400000
v 0.088072 0.629375 -0.400000
v 0.084828 0.628606 -0.400000
v 0.081394 0.628126 -0.400000
v 0.077148 0.627930 -0.400000
# 224 vertices

vn 0.000000 0.000000 1.000000
vn 0.000000 0.000000 1.000000
vn 0.000000 0.000000 -1.000000
vn 0.000000 0.000000 -1.000000
vn 1.000000 0.000000 0.000000
vn 0.999994 0.000000 0.000000
vn 0.000000 1.000000 0.000000
vn 0.000000 1.000000 0.000000
vn 0.048405 0.998828 0.000000
vn 0.048405 0.998828 0.000000
vn 0.080756 0.996734 0.000000
vn 0.113056 0.993589 0.000000
vn 0.177396 0.984140 0.000000
vn 0.209434 0.977823 0.000000
vn 0.272024 0.962291 0.000000
vn 0.302587 0.953122 0.000000
vn 0.361167 0.932501 0.000000
vn 0.389218 0.921145 0.000000
vn 0.444836 0.895612 0.000000
vn 0.472383 0.881393 0.000000
vn 0.526225 0.850345 0.000000
vn 0.552513 0.833505 0.000000
vn 0.603142 0.797634 0.000000
vn 0.627495 0.778620 0.000000
vn 0.669342 0.742955 0.000000
vn 0.687077 0.726585 0.000000
vn 0.716789 0.697291 0.000000
vn 0.728957 0.684559 0.000000
vn 0.757862 0.652415 0.000000
vn 0.774341 0.632769 0.000000
vn 0.810514 0.585719 0.000000
vn 0.829827 0.558020 0.000000
vn 0.865093 0.501612 0.000000
vn 0.881097 0.472936 0.000000
vn 0.909591 0.415505 0.000000
vn 0.922167 0.386793 0.000000
vn 0.944719 0.327880 0.000000
vn 0.954669 0.297669 0.000000
vn 0.971554 0.236816 0.000000
vn 0.978514 0.206181 0.000000
vn 0.988790 0.149313 0.000000
vn 0.992390 0.123131 0.000000
vn 0.997193 0.074877 0.000000
vn 0.998604 0.052826 0.000000
vn 0.999988 0.004942 0.000000
vn 0.999782 -0.020896 0.000000
vn 0.996850 -0.079309 0.000000
vn 0.993723 -0.111866 0.000000
vn 0.984324 -0.176369 0.000000
vn 0.978061 -0.208317 0.000000
vn 0.962880 -0.269930 0.000000
vn 0.954059 -0.299619 0.000000
vn 0.933815 -0.357756 0.000000
vn 0.922410 -0.386211 0.000000
vn 0.896321 -0.443405 0.000000
vn 0.881544 -0.472102 0.000000
vn 0.851652 -0.524108 0.000000
vn 0.836771 -0.547552 0.000000
vn 0.808205 -0.588902 0.000000
vn 0.794735 -0.606957 0.000000
vn 0.762704 -0.646748 0.000000
vn 0.743900 -0.668291 0.000000
vn 0.701462 -0.712707 0.000000
vn 0.677636 -0.735397 0.000000
vn 0.629460 -0.777033 0.000000
vn 0.605194 -0.796078 0.000000
vn 0.554700 -0.832051 0.000000
vn 0.528457 -0.848960 0.000000
vn 0.474650 -0.880175 0.000000
vn 0.447092 -0.894488 0.000000
vn 0.391398 -0.920221 0.000000
vn 0.363281 -0.931679 0.000000
vn 0.304508 -0.952510 0.000000
vn 0.273817 -0.961782 0.000000
vn 0.210910 -0.977505 0.000000
vn 0.178682 -0.983907 0.000000
vn 0.113918 -0.993490 0.000000
vn 0.081382 -0.996683 0.000000
vn 0.048795 -0.998809 0.000000
vn 0.000000 -1.000000 0.000000
vn 0.000000 -1.000000 0.000000
vn -0.042393 -0.999101 0.000000
vn -0.042393 -0.999099 0.000000
vn -0.073262 -0.997313 0.000000
vn -0.104089 -0.994568 0.000000
vn -0.166671 -0.986012 0.000000
vn -0.198414 -0.980118 0.000000
vn -0.261730 -0.965141 0.000000
vn -0.293293 -0.956023 0.000000
vn -0.355083 -0.934835 0.000000
vn -0.385316 -0.922785 0.000000
vn -0.443410 -0.896319 0.000000
vn -0.471302 -0.881972 0.000000
vn -0.521685 -0.853138 0.000000
vn -0.544310 -0.838884 0.000000
vn -0.584143 -0.811650 0.000000
vn -0.601495 -0.798877 0.000000
vn -0.639176 -0.769060 0.000000
vn -0.659358 -0.751829 0.000000
vn -0.703138 -0.711054 0.000000
vn -0.726459 -0.687210 0.000000
vn -0.769974 -0.638075 0.000000
vn -0.790217 -0.612827 0.000000
vn -0.827103 -0.562050 0.000000
vn -0.843842 -0.536591 0.000000
vn -0.875177 -0.483804 0.000000
vn -0.889745 -0.456459 0.000000
vn -0.916276 -0.400548 0.000000
vn -0.928240 -0.371982 0.000000
vn -0.949300 -0.314373 0.000000
vn -0.958426 -0.285341 0.000000
vn -0.974415 -0.224757 0.000000
vn -0.981164 -0.193175 0.000000
vn -0.990631 -0.136564 0.000000
vn -0.993753 -0.111602 0.000000
vn -0.997685 -0.068005 0.000000
vn -0.998779 -0.049395 0.000000
vn -0.999526 -0.030775 0.000000
vn -1.000000 0.000000 0.000000
vn -0.999996 0.000000 0.000000
vn -0.998919 0.046478 0.000000
vn -0.998918 0.046478 0.000000
vn -0.996855 0.079250 0.000000
vn -0.993711 0.111972 0.000000
vn -0.984371 0.176106 0.000000
vn -0.978229 0.207527 0.000000
vn -0.963431 0.267955 0.000000
vn -0.954881 0.296989 0.000000
vn -0.934959 0.354756 0.000000
vn -0.923551 0.383476 0.000000
vn -0.898074 0.439844 0.000000
vn -0.883999 0.467488 0.000000
vn -0.853554 0.521005 0.000000
vn -0.837205 0.546890 0.000000
vn -0.801010 0.598651 0.000000
vn -0.781061 0.624454 0.000000
vn -0.743500 0.668736 0.000000
vn -0.726203 0.687481 0.000000
vn -0.694962 0.719046 0.000000
vn -0.681226 0.732073 0.000000
vn -0.647218 0.762305 0.000000
vn -0.626713 0.779250 0.000000
vn -0.579834 0.814735 0.000000
vn -0.553258 0.833010 0.000000
vn -0.498954 0.866628 0.000000
vn -0.471246 0.882002 0.000000
vn -0.415509 0.909589 0.000000
vn -0.387513 0.921864 0.000000
vn -0.329747 0.944069 0.000000
vn -0.299959 0.953952 0.000000
vn -0.239588 0.970874 0.000000
vn -0.209005 0.977915 0.000000
vn -0.151930 0.988391 0.000000
vn -0.125487 0.992095 0.000000
vn -0.076537 0.997067 0.000000
vn -0.054051 0.998538 0.000000
vn -0.031549 0.999502 0.000000
vn 0.000000 1.000000 0.000000
vn 0.048798 0.998809 0.000000
vn 0.048798 0.998806 0.000000
vn 0.081381 0.996683 0.000000
vn 0.113912 0.993491 0.000000
vn 0.178676 0.983908 0.000000
vn 0.210906 0.977506 0.000000
vn 0.273818 0.961782 0.000000
vn 0.304511 0.952509 0.000000
vn 0.363289 0.931677 0.000000
vn 0.391408 0.920217 0.000000
vn 0.447099 0.894485 0.000000
vn 0.474653 0.880173 0.000000
vn 0.528452 0.848963 0.000000
vn 0.554693 0.832055 0.000000
vn 0.605191 0.796080 0.000000
vn 0.629463 0.777031 0.000000
vn 0.671123 0.741346 0.000000
vn 0.688756 0.724993 0.000000
vn 0.718298 0.695736 0.000000
vn 0.730397 0.683023 0.000000
vn 0.759116 0.650955 0.000000
vn 0.775481 0.631370 0.000000
vn 0.811418 0.584467 0.000000
vn 0.830610 0.556855 0.000000
vn 0.865662 0.500629 0.000000
vn 0.881574 0.472046 0.000000
vn 0.909915 0.414795 0.000000
vn 0.922429 0.386167 0.000000
vn 0.944881 0.327415 0.000000
vn 0.954790 0.297281 0.000000
vn 0.971616 0.236563 0.000000
vn 0.978555 0.205986 0.000000
vn 0.988806 0.149208 0.000000
vn 0.992400 0.123058 0.000000
vn 0.997195 0.074848 0.000000
vn 0.998605 0.052809 0.000000
vn 0.999988 0.004897 0.000000
vn 0.999780 -0.020982 0.000000
vn 0.996811 -0.079802 0.000000
vn 0.993626 -0.112723 0.000000
vn 0.983977 -0.178297 0.000000
vn 0.977497 -0.210948 0.000000
vn 0.961675 -0.274194 0.000000
vn 0.952413 -0.304810 0.000000
vn 0.931023 -0.364961 0.000000
vn 0.918897 -0.394497 0.000000
vn 0.891000 -0.454003 0.000000
vn 0.875113 -0.483918 0.000000
vn 0.842856 -0.538138 0.000000
vn 0.826735 -0.562592 0.000000
vn 0.795719 -0.605666 0.000000
vn 0.781059 -0.624458 0.000000
vn 0.748691 -0.662919 0.000000
vn 0.730883 -0.682503 0.000000
vn 0.691392 -0.722480 0.000000
vn 0.669577 -0.742743 0.000000
vn 0.623711 -0.781655 0.000000
vn 0.599634 -0.800275 0.000000
vn 0.549747 -0.835331 0.000000
vn 0.523932 -0.851760 0.000000
vn 0.471201 -0.882026 0.000000
vn 0.444294 -0.895881 0.000000
vn 0.387437 -0.921896 0.000000
vn 0.357432 -0.933939 0.000000
vn 0.295260 -0.955417 0.000000
vn 0.263067 -0.964778 0.000000
vn 0.200127 -0.979770 0.000000
vn 0.169414 -0.985545 0.000000
vn 0.107869 -0.994165 0.000000
vn 0.077039 -0.997028 0.000000
vn 0.046165 -0.998934 0.000000
vn 0.000000 -1.000000 0.000000
vn 0.999994 0.000000 0.000000
vn 0.048795 -0.998806 0.000000
vn -0.999526 -0.030775 0.000000
vn -0.031549 0.999502 0.000000
vn 0.046165 -0.998934 0.000000
vn 0.000000 0.000000 1.000000
vn 0.000000 0.000000 -1.000000
vn 0.000000 0.000000 -1.000000
vn 0.000000 0.000000 1.000000
vn 0.000000 0.000000 -1.000000
# 240 normals

o [
usemtl default
f 58//2 57//1 2//1
f 188//3 223//4 224//3
f 114//5 113//6 1//5
f 115//7 114//8 2//7
f 116//11 115//10 3//9
f 117//13 116//11 4//12
f 118//15 117//13 5//14
f 119//17 118//15 6//16
f 120//19 119//17 7//18
f 121//21 120//19 8//20
f 122//23 121//21 9//22
f 123//25 122//23 10//24
f 124//27 123//25 11//26
f 125//29 124//27 12//28
f 126//31 125//29 13//30
f 127//33 126//31 14//32
f 128//35 127//33 15//34
f 129//37 128//35 16//36
f 130//39 129//37 17//38
f 131//41 130//39 18//40
f 132//43 131//41 19//42
f 133//45 132//43 20//44
f 134//47 133//45 21//46
f 135//49 134//47 22//48
f 136//51 135//49 23//50
f 137//53 136//51 24//52
f 138//55 137//53 25//54
f 139//57 138//55 26//56
f 140//59 139//57 27//58
f 141//61 140//59 28//60
f 142//63 141//61 29//62
f 143//65 142//63 30//64
f 144//67 143//65 31//66
f 145//69 144//67 32//68
f 146//71 145//69 33//70
f 147//73 146//71 34//72
f 148//75 147//73 35//74
f 149//77 148//75 36//76
f 150//79 149//77 37//78
f 151//80 150//81 38//80
f 152//84 151//83 39//82
f 153//86 152//84 40//85
f 154//88 153//86 41//87
f 155//90 154//88 42//89
f 156//92 155//90 43//91
f 157//94 156//92 44//93
f 158//96 157//94 45//95
f 159//98 158//96 46//97
f 160//100 159//98 47//99
f 161//102 160//100 48//101
f 162//104 161//102 49//103
f 163//106 162//104 50//105
f 164//108 163//106 51//107
f 165//110 164//108 52//109
f 166//112 165//110 53//111
f 167//114 166//112 54//113
f 168//116 167//114 55//115
f 169//118 168//116 56//117
f 170//119 169//120 57//119
f 171//123 170//122 58//121
f 172//125 171//123 59//124
f 173//127 172//125 60//126
f 174//129 173//127 61//128
f 175//131 174//129 62//130
f 176//133 175//131 63//132
f 177//135 176//133 64//134
f 178//137 177//135 65//136
f 179//139 178//137 66//138
f 180//141 179//139 67//140
f 181//143 180//141 68//142
f 182//145 181//143 69//144
f 183//147 182//145 70//146
f 184//149 183//147 71//148
f 185//151 184//149 72//150
f 186//153 185//151 73//152
f 187//155 186//153 74//154
f 188//157 187//155 75//156
f 189//7 188//158 76//7
f 190//161 189//160 77//159
f 191//163 190//161 78//162
f 192//165 191//163 79//164
f 193//167 192//165 80//166
f 194//169 193//167 81//168
f 195//171 194//169 82//170
f 196//173 195//171 83//172
f 197//175 196//173 84//174
f 198//177 197//175 85//176
f 199//179 198//177 86//178
f 200//181 199//179 87//180
f 201//183 200//181 88//182
f 202//185 201//183 89//184
f 203//187 202//185 90//186
f 204//189 203//187 91//188
f 205//191 204//189 92//190
f 206//193 205//191 93//192
f 207//195 206//193 94//194
f 208//197 207//195 95//196
f 209//199 208//197 96//198
f 210//201 209//199 97//200
f 211//203 210//201 98//202
f 212//205 211//203 99//204
f 213//207 212//205 100//206
f 214//209 213//207 101//208
f 215//211 214//209 102//210
f 216//213 215//211 103//212
f 217//215 216//213 104//214
f 218//217 217//215 105//216
f 219//219 218//217 106//218
f 220//221 219//219 107//220
f 221//223 220//221 108//222
f 222//225 221//223 109//224
f 223//227 222//225 110//226
f 224//229 223//227 111//228
f 113//80 224//230 112//80
f 2//231 114//5 1//5
f 3//8 115//7 2//7
f 4//12 116//11 3//9
f 5//14 117//13 4//12
f 6//16 118//15 5//14
f 7//18 119//17 6//16
f 8//20 120//19 7//18
f 9//22 121//21 8//20
f 10//24 122//23 9//22
f 11//26 123//25 10//24
f 12//28 124//27 11//26
f 13//30 125//29 12//28
f 14//32 126//31 13//30
f 15//34 127//33 14//32
f 16//36 128//35 15//34
f 17//38 129//37 16//36
f 18//40 130//39 17//38
f 19//42 131//41 18//40
f 20//44 132//43 19//42
f 21//46 133//45 20//44
f 22//48 134//47 21//46
f 23//50 135//49 22//48
f 24//52 136//51 23//50
f 25//54 137//53 24//52
f 26//56 138//55 25//54
f 27//58 139//57 26//56
f 28//60 140//59 27//58
f 29//62 141//61 28//60
f 30//64 142//63 29//62
f 31//66 143//65 30//64
f 32//68 144//67 31//66
f 33//70 145//69 32//68
f 34//72 146//71 33//70
f 35//74 147//73 34//72
f 36//76 148//75 35//74
f 37//78 149//77 36//76
f 38//232 150//79 37//78
f 39//81 151//80 38//80
f 40//85 152//84 39//82
f 41//87 153//86 40//85
f 42//89 154//88 41//87
f 43//91 155//90 42//89
f 44//93 156//92 43//91
f 45//95 157//94 44//93
f 46//97 158//96 45//95
f 47//99 159//98 46//97
f 48//101 160//100 47//99
f 49//103 161//102 48//101
f 50//105 162//104 49//103
f 51//107 163//106 50//105
f 52//109 164//108 51//107
f 53//111 165//110 52//109
f 54//113 166//112 53//111
f 55//115 167//114 54//113
f 56//117 168//116 55//115
f 57//233 169//118 56//117
f 58//120 170//119 57//119
f 59//124 171//123 58//121
f 60//126 172//125 59//124
f 61//128 173//127 60//126
f 62//130 174//129 61//128
f 63//132 175//131 62//130
f 64//134 176//133 63//132
f 65//136 177//135 64//134
f 66//138 178//137 65//136
f 67//140 179//139 66//138
f 68//142 180//141 67//140
f 69//144 181//143 68//142
f 70//146 182//145 69//144
f 71//148 183//147 70//146
f 72//150 184//149 71//148
f 73//152 185//151 72//150
f 74//154 186//153 73//152
f 75//156 187//155 74//154
f 76//234 188//157 75//156
f 77//158 189//7 76//7
f 78//162 190//161 77//159
f 79//164 191//163 78//162
f 80//166 192//165 79//164
f 81//168 193//167 80//166
f 82//170 194//169 81//168
f 83//172 195//171 82//170
f 84//174 196//173 83//172
f 85//176 197//175 84//174
f 86//178 198//177 85//176
f 87//180 199//179 86//178
f 88//182 200//181 87//180
f 89//184 201//183 88//182
f 90//186 202//185 89//184
f 91//188 203//187 90//186
f 92//190 204//189 91//188
f 93//192 205//191 92//190
f 94//194 206//193 93//192
f 95//196 207//195 94//194
f 96//198 208//197 95//196
f 97//200 209//199 96//198
f 98//202 210//201 97//200
f 99//204 211//203 98//202
f 100//206 212//205 99//204
f 101//208 213//207 100//206
f 102//210 214//209 101//208
f 103//212 215//211 102//210
f 104//214 216//213 103//212
f 105//216 217//215 104//214
f 106//218 218//217 105//216
f 107//220 219//219 106//218
f 108//222 220//221 107//220
f 109//224 221//223 108//222
f 110//226 222//225 109//224
f 111//228 223//227 110//226
f 112//235 224//229 111//228
f 1//230 113//80 112//80
f 38//1 3//1 2//1
f 38//1 37//1 4//1
f 36//1 35//2 5//1
f 6//1 5//1 35//2
f 34//1 7//1 6//1
f 34//1 33//2 8//2
f 33//2 32//1 9//1
f 32//1 31//1 10//1
f 30//1 11//1 10//1
f 12//1 11//1 30//1
f 13//1 12//1 30//1
f 14//1 13//1 30//1
f 15//1 14//1 30//1
f 16//1 15//1 30//1
f 17//1 16//1 30//1
f 18//1 17//1 30//1
f 30//1 20//1 19//1
f 30//1 29//1 21//1
f 27//1 22//1 21//1
f 27//1 24//1 23//1
f 27//1 26//236 25//1
f 21//1 29//1 28//1
f 4//1 37//1 36//1
f 2//1 40//1 39//1
f 2//1 41//1 40//1
f 2//1 42//1 41//1
f 2//1 43//1 42//1
f 2//1 44//1 43//1
f 2//1 45//1 44//1
f 2//1 46//1 45//1
f 2//1 47//1 46//1
f 2//1 48//1 47//1
f 2//1 49//1 48//1
f 2//1 50//1 49//1
f 2//1 51//1 50//1
f 2//1 52//1 51//1
f 2//1 53//1 52//1
f 2//1 54//1 53//1
f 2//1 55//1 54//1
f 2//1 56//1 55//1
f 2//1 57//1 56//1
f 1//1 59//1 58//2
f 1//1 60//1 59//1
f 1//1 61//1 60//1
f 1//1 62//1 61//1
f 1//1 63//1 62//1
f 1//1 64//1 63//1
f 1//1 65//1 64//1
f 1//1 66//1 65//1
f 1//1 67//1 66//1
f 1//1 68//1 67//1
f 1//1 69//1 68//1
f 1//1 70//1 69//1
f 1//1 71//1 70//1
f 1//1 72//1 71//1
f 1//1 73//1 72//1
f 1//1 74//1 73//1
f 1//1 75//1 74//1
f 76//1 75//1 1//1
f 76//1 97//1 96//2
f 77//1 92//1 91//1
f 79//1 78//1 91//1
f 91//1 81//1 80//1
f 82//1 81//1 91//1
f 84//1 83//1 91//1
f 91//1 86//1 85//1
f 87//1 86//1 91//1
f 87//1 90//1 89//1
f 93//1 92//1 77//1
f 94//1 93//1 77//1
f 95//1 94//1 77//1
f 96//2 95//1 77//1
f 98//1 97//1 76//1
f 99//1 98//1 76//1
f 100//1 99//1 76//1
f 101//1 100//1 76//1
f 102//1 101//1 76//1
f 103//1 102//1 76//1
f 104//1 103//1 76//1
f 105//1 104//1 76//1
f 106//1 105//1 76//1
f 107//1 106//1 76//1
f 108//1 107//1 76//1
f 109//1 108//1 76//1
f 110//1 109//1 76//1
f 111//1 110//1 76//1
f 112//1 111//1 76//1
f 188//3 222//4 223//4
f 188//3 221//4 222//4
f 188//3 220//4 221//4
f 188//3 219//4 220//4
f 188//3 218//4 219//4
f 188//3 217//4 218//4
f 188//3 216//4 217//4
f 188//3 215//4 216//4
f 188//3 214//4 215//4
f 188//3 213//4 214//4
f 188//3 212//4 213//4
f 188//3 211//4 212//4
f 188//3 210//4 211//4
f 188//3 209//3 210//4
f 208//237 209//3 188//3
f 189//3 207//3 208//237
f 189//3 206//3 207//3
f 189//3 205//3 206//3
f 189//3 204//3 205//3
f 203//3 204//3 189//3
f 203//3 198//3 199//3
f 201//3 202//3 199//3
f 197//3 198//3 203//3
f 203//3 195//3 196//3
f 203//3 193//3 194//3
f 192//3 193//3 203//3
f 203//3 190//3 191//3
f 113//3 187//3 188//3
f 186//3 187//3 113//3
f 185//3 186//3 113//3
f 184//3 185//3 113//3
f 183//3 184//3 113//3
f 182//3 183//3 113//3
f 181//3 182//3 113//3
f 180//3 181//3 113//3
f 179//3 180//3 113//3
f 178//3 179//3 113//3
f 177//3 178//3 113//3
f 176//3 177//3 113//3
f 175//3 176//3 113//3
f 174//3 175//3 113//3
f 173//3 174//3 113//3
f 172//3 173//3 113//3
f 171//3 172//3 113//3
f 170//3 171//3 113//3
f 114//3 169//3 170//3
f 168//3 169//3 114//3
f 167//3 168//3 114//3
f 166//3 167//3 114//3
f 165//3 166//3 114//3
f 164//3 165//3 114//3
f 163//3 164//3 114//3
f 162//3 163//3 114//3
f 161//3 162//3 114//3
f 160//3 161//3 114//3
f 159//3 160//3 114//3
f 158//3 159//3 114//3
f 157//3 158//3 114//3
f 156//3 157//3 114//3
f 155//3 156//3 114//3
f 154//3 155//3 114//3
f 153//3 154//3 114//3
f 152//3 153//3 114//3
f 151//3 152//3 114//3
f 150//3 151//3 114//3
f 115//3 149//3 150//3
f 115//3 116//3 148//3
f 117//3 147//237 148//3
f 118//3 119//3 146//3
f 120//237 145//237 146//3
f 121//3 144//3 145//237
f 122//3 143//3 144//3
f 122//3 123//3 142//237
f 133//3 141//3 142//237
f 140//3 141//3 133//3
f 133//3 134//3 139//3
f 137//3 138//238 139//3
f 135//3 136//3 139//3
f 131//3 132//3 142//237
f 142//237 129//3 130//3
f 142//237 128//3 129//3
f 142//237 127//3 128//3
f 142//237 126//3 127//3
f 142//237 125//3 126//3
f 142//237 124//3 125//3
f 142//237 123//3 124//3
f 147//237 117//3 118//3
f 39//1 38//1 2//1
f 3//1 38//1 4//1
f 4//1 36//1 5//1
f 35//2 34//1 6//1
f 7//1 34//1 8//2
f 8//2 33//2 9//1
f 9//1 32//1 10//1
f 31//1 30//1 10//1
f 18//1 30//1 19//1
f 20//1 30//1 21//1
f 28//1 27//1 21//1
f 22//1 27//1 23//1
f 24//1 27//1 25//1
f 112//1 76//1 1//1
f 77//1 76//1 96//2
f 78//1 77//1 91//1
f 80//1 79//1 91//1
f 83//1 82//1 91//1
f 85//1 84//1 91//1
f 90//1 87//1 91//1
f 88//239 87//1 89//1
f 189//3 208//237 188//3
f 190//3 203//3 189//3
f 202//3 203//3 199//3
f 200//240 201//3 199//3
f 197//3 203//3 196//3
f 195//3 203//3 194//3
f 192//3 203//3 191//3
f 224//3 113//3 188//3
f 113//3 114//3 170//3
f 114//3 115//3 150//3
f 149//3 115//3 148//3
f 116//3 117//3 148//3
f 147//237 118//3 146//3
f 119//3 120//237 146//3
f 120//237 121//3 145//237
f 121//3 122//3 144//3
f 143//3 122//3 142//237
f 132//3 133//3 142//237
f 140//3 133//3 139//3
f 136//3 137//3 139//3
f 134//3 135//3 139//3
f 130//3 131//3 142//237
f 1//1 58//2 2//1

