# WaveFront *.obj file (generated by Cinema 4D)

v -0.189941 0.606934 0.000000
v -0.196899 0.622559 0.000000
v -0.201172 0.634277 0.000000
v -0.202825 0.640805 0.000000
v -0.203722 0.646377 0.000000
v -0.204007 0.649636 0.000000
v -0.204102 0.652832 0.000000
v -0.203852 0.657773 0.000000
v -0.203263 0.661739 0.000000
v -0.202327 0.665570 0.000000
v -0.201044 0.669263 0.000000
v -0.199414 0.672820 0.000000
v -0.197438 0.676239 0.000000
v -0.195116 0.679523 0.000000
v -0.191871 0.683282 0.000000
v -0.189430 0.685679 0.000000
v -0.186768 0.687988 0.000000
v -0.181814 0.691676 0.000000
v -0.176659 0.694808 0.000000
v -0.171303 0.697385 0.000000
v -0.165746 0.699407 0.000000
v -0.159988 0.700874 0.000000
v -0.154029 0.701786 0.000000
v -0.150534 0.702058 0.000000
v -0.146973 0.702148 0.000000
v -0.143503 0.701987 0.000000
v -0.140124 0.701502 0.000000
v -0.136837 0.700693 0.000000
v -0.133641 0.699561 0.000000
v -0.130537 0.698105 0.000000
v -0.127524 0.696327 0.000000
v -0.124603 0.694224 0.000000
v -0.122706 0.692643 0.000000
v -0.120850 0.690918 0.000000
v -0.117603 0.687410 0.000000
v -0.113331 0.681830 0.000000
v -0.107462 0.672521 0.000000
v -0.101909 0.662110 0.000000
v -0.096191 0.649902 0.000000
v 0.189941 0.038086 0.000000
v 0.196899 0.022400 0.000000
v 0.201172 0.010498 0.000000
v 0.202902 0.003513 0.000000
v 0.203802 -0.002325 0.000000
v 0.204027 -0.005112 0.000000
v 0.204102 -0.007812 0.000000
v 0.203921 -0.011853 0.000000
v 0.203379 -0.015771 0.000000
v 0.202476 -0.019568 0.000000
v 0.201211 -0.023242 0.000000
v 0.199585 -0.026794 0.000000
v 0.197598 -0.030225 0.000000
v 0.195249 -0.033533 0.000000
v 0.191954 -0.037341 0.000000
v 0.189468 -0.039783 0.000000
v 0.186035 -0.042725 0.000000
v 0.180154 -0.046965 0.000000
v 0.174844 -0.050071 0.000000
v 0.169380 -0.052612 0.000000
v 0.163764 -0.054588 0.000000
v 0.157995 -0.056000 0.000000
v 0.152072 -0.056847 0.000000
v 0.145996 -0.057129 0.000000
v 0.142533 -0.056974 0.000000
v 0.139176 -0.056510 0.000000
v 0.135924 -0.055737 0.000000
v 0.132777 -0.054654 0.000000
v 0.129736 -0.053262 0.000000
v 0.126801 -0.051560 0.000000
v 0.123971 -0.049549 0.000000
v 0.122143 -0.048037 0.000000
v 0.120361 -0.046387 0.000000
v 0.117233 -0.043006 0.000000
v 0.113055 -0.037562 0.000000
v 0.106714 -0.027520 0.000000
v 0.101589 -0.018043 0.000000
v 0.095703 -0.005859 0.000000
v -0.189941 0.606934 -0.400000
v -0.196899 0.622559 -0.400000
v -0.201172 0.634277 -0.400000
v -0.202825 0.640805 -0.400000
v -0.203722 0.646377 -0.400000
v -0.204007 0.649636 -0.400000
v -0.204102 0.652832 -0.400000
v -0.203852 0.657773 -0.400000
v -0.203263 0.661739 -0.400000
v -0.202327 0.665570 -0.400000
v -0.201044 0.669263 -0.400000
v -0.199414 0.672820 -0.400000
v -0.197438 0.676239 -0.400000
v -0.195116 0.679523 -0.400000
v -0.191871 0.683282 -0.400000
v -0.189430 0.685679 -0.400000
v -0.186768 0.687988 -0.400000
v -0.181814 0.691676 -0.400000
v -0.176659 0.694808 -0.400000
v -0.171303 0.697385 -0.400000
v -0.165746 0.699407 -0.400000
v -0.159988 0.700874 -0.400000
v -0.154029 0.701786 -0.400000
v -0.150534 0.702058 -0.400000
v -0.146973 0.702148 -0.400000
v -0.143503 0.701987 -0.400000
v -0.140124 0.701502 -0.400000
v -0.136837 0.700693 -0.400000
v -0.133641 0.699561 -0.400000
v -0.130537 0.698105 -0.400000
v -0.127524 0.696327 -0.400000
v -0.124603 0.694224 -0.400000
v -0.122706 0.692643 -0.400000
v -0.120850 0.690918 -0.400000
v -0.117603 0.687410 -0.400000
v -0.113331 0.681830 -0.400000
v -0.107462 0.672521 -0.400000
v -0.101909 0.662110 -0.400000
v -0.096191 0.649902 -0.400000
v 0.189941 0.038086 -0.400000
v 0.196899 0.022400 -0.400000
v 0.201172 0.010498 -0.400000
v 0.202902 0.003513 -0.400000
v 0.203802 -0.002325 -0.400000
v 0.204027 -0.005112 -0.400000
v 0.204102 -0.007812 -0.400000
v 0.203921 -0.011853 -0.400000
v 0.203379 -0.015771 -0.400000
v 0.202476 -0.019568 -0.400000
v 0.201211 -0.023242 -0.400000
v 0.199585 -0.026794 -0.400000
v 0.197598 -0.030225 -0.400000
v 0.195249 -0.033533 -0.400000
v 0.191954 -0.037341 -0.400000
v 0.189468 -0.039783 -0.400000
v 0.186035 -0.042725 -0.400000
v 0.180154 -0.046965 -0.400000
v 0.174844 -0.050071 -0.400000
v 0.169380 -0.052612 -0.400000
v 0.163764 -0.054588 -0.400000
v 0.157995 -0.056000 -0.400000
v 0.152072 -0.056847 -0.400000
v 0.145996 -0.057129 -0.400000
v 0.142533 -0.056974 -0.400000
v 0.139176 -0.056510 -0.400000
v 0.135924 -0.055737 -0.400000
v 0.132777 -0.054654 -0.400000
v 0.129736 -0.053262 -0.400000
v 0.126801 -0.051560 -0.400000
v 0.123971 -0.049549 -0.400000
v 0.122143 -0.048037 -0.400000
v 0.120361 -0.046387 -0.400000
v 0.117233 -0.043006 -0.400000
v 0.113055 -0.037562 -0.400000
v 0.106714 -0.027520 -0.400000
v 0.101589 -0.018043 -0.400000
v 0.095703 -0.005859 -0.400000
# 154 vertices

vn 0.000000 0.000000 1.000000
vn 0.000000 0.000000 -1.000000
vn -0.913517 -0.406801 0.000000
vn -0.913516 -0.406800 0.000000
vn -0.922673 -0.385583 0.000000
vn -0.931341 -0.364147 0.000000
vn -0.950554 -0.310559 0.000000
vn -0.960524 -0.278196 0.000000
vn -0.976208 -0.216838 0.000000
vn -0.982186 -0.187908 0.000000
vn -0.990847 -0.134987 0.000000
vn -0.993816 -0.111042 0.000000
vn -0.997689 -0.067951 0.000000
vn -0.998807 -0.048826 0.000000
vn -0.999996 -0.002976 0.000000
vn -0.999718 0.023759 0.000000
vn -0.996574 0.082711 0.000000
vn -0.993376 0.114912 0.000000
vn -0.984162 0.177274 0.000000
vn -0.978245 0.207451 0.000000
vn -0.963448 0.267896 0.000000
vn -0.954518 0.298152 0.000000
vn -0.933754 0.357916 0.000000
vn -0.921905 0.387417 0.000000
vn -0.895593 0.444874 0.000000
vn -0.881150 0.472837 0.000000
vn -0.850148 0.526544 0.000000
vn -0.833636 0.552315 0.000000
vn -0.797397 0.603456 0.000000
vn -0.777591 0.628770 0.000000
vn -0.738787 0.673939 0.000000
vn -0.719999 0.693975 0.000000
vn -0.685826 0.727766 0.000000
vn -0.670670 0.741756 0.000000
vn -0.636243 0.771489 0.000000
vn -0.616844 0.787086 0.000000
vn -0.571700 0.820463 0.000000
vn -0.545740 0.837955 0.000000
vn -0.491229 0.871030 0.000000
vn -0.462637 0.886548 0.000000
vn -0.403485 0.914986 0.000000
vn -0.372906 0.927869 0.000000
vn -0.310605 0.950539 0.000000
vn -0.278884 0.960325 0.000000
vn -0.215245 0.976560 0.000000
vn -0.183337 0.983050 0.000000
vn -0.126777 0.991931 0.000000
vn -0.102192 0.994765 0.000000
vn -0.060203 0.998186 0.000000
vn -0.042822 0.999083 0.000000
vn -0.001440 0.999999 0.000000
vn 0.022570 0.999745 0.000000
vn 0.078498 0.996914 0.000000
vn 0.110397 0.993888 0.000000
vn 0.174578 0.984643 0.000000
vn 0.206853 0.978372 0.000000
vn 0.270842 0.962624 0.000000
vn 0.302554 0.953132 0.000000
vn 0.364494 0.931206 0.000000
vn 0.394732 0.918796 0.000000
vn 0.452939 0.891542 0.000000
vn 0.480935 0.876756 0.000000
vn 0.534132 0.845401 0.000000
vn 0.559379 0.828912 0.000000
vn 0.603172 0.797611 0.000000
vn 0.621921 0.783080 0.000000
vn 0.653997 0.756497 0.000000
vn 0.667477 0.744630 0.000000
vn 0.698921 0.715199 0.000000
vn 0.716675 0.697408 0.000000
vn 0.754689 0.656083 0.000000
vn 0.774706 0.632322 0.000000
vn 0.812029 0.583617 0.000000
vn 0.829371 0.558698 0.000000
vn 0.858576 0.512686 0.000000
vn 0.870724 0.491773 0.000000
vn 0.890363 0.455252 0.000000
vn 0.898106 0.439779 0.000000
vn 0.905578 0.424180 0.000000
vn 0.905832 0.423637 0.000000
vn 0.905832 0.423637 0.000000
vn 0.914105 0.405478 0.000000
vn 0.914100 0.405476 0.000000
vn 0.923679 0.383166 0.000000
vn 0.932715 0.360615 0.000000
vn 0.952124 0.305713 0.000000
vn 0.961966 0.273170 0.000000
vn 0.977440 0.211214 0.000000
vn 0.983324 0.181863 0.000000
vn 0.991712 0.128478 0.000000
vn 0.994526 0.104492 0.000000
vn 0.998019 0.062914 0.000000
vn 0.998971 0.045344 0.000000
vn 0.999993 0.003624 0.000000
vn 0.999789 -0.020535 0.000000
vn 0.997144 -0.075522 0.000000
vn 0.994330 -0.106334 0.000000
vn 0.985672 -0.168676 0.000000
vn 0.979756 -0.200195 0.000000
vn 0.964774 -0.263082 0.000000
vn 0.955670 -0.294440 0.000000
vn 0.934456 -0.356080 0.000000
vn 0.922347 -0.386362 0.000000
vn 0.895519 -0.445023 0.000000
vn 0.880837 -0.473419 0.000000
vn 0.849450 -0.527669 0.000000
vn 0.832810 -0.553559 0.000000
vn 0.796487 -0.604656 0.000000
vn 0.776743 -0.629818 0.000000
vn 0.738254 -0.674523 0.000000
vn 0.719728 -0.694257 0.000000
vn 0.684391 -0.729115 0.000000
vn 0.667735 -0.744399 0.000000
vn 0.629277 -0.777181 0.000000
vn 0.607297 -0.794475 0.000000
vn 0.558753 -0.829334 0.000000
vn 0.532051 -0.846712 0.000000
vn 0.477596 -0.878579 0.000000
vn 0.449861 -0.893099 0.000000
vn 0.392193 -0.919883 0.000000
vn 0.362233 -0.932088 0.000000
vn 0.300826 -0.953679 0.000000
vn 0.269370 -0.963037 0.000000
vn 0.205847 -0.978584 0.000000
vn 0.173781 -0.984784 0.000000
vn 0.109961 -0.993936 0.000000
vn 0.078213 -0.996937 0.000000
vn 0.016084 -0.999871 0.000000
vn -0.014291 -0.999898 0.000000
vn -0.075462 -0.997149 0.000000
vn -0.106255 -0.994339 0.000000
vn -0.168579 -0.985688 0.000000
vn -0.200100 -0.979775 0.000000
vn -0.263004 -0.964795 0.000000
vn -0.294378 -0.955689 0.000000
vn -0.356068 -0.934460 0.000000
vn -0.386384 -0.922338 0.000000
vn -0.445121 -0.895470 0.000000
vn -0.473560 -0.880762 0.000000
vn -0.527899 -0.849307 0.000000
vn -0.553838 -0.832625 0.000000
vn -0.598995 -0.800753 0.000000
vn -0.618418 -0.785849 0.000000
vn -0.651720 -0.758459 0.000000
vn -0.665760 -0.746166 0.000000
vn -0.698153 -0.715949 0.000000
vn -0.716296 -0.697797 0.000000
vn -0.754463 -0.656343 0.000000
vn -0.774277 -0.632847 0.000000
vn -0.811489 -0.584368 0.000000
vn -0.828899 -0.559398 0.000000
vn -0.857321 -0.514782 0.000000
vn -0.868687 -0.495361 0.000000
vn -0.886759 -0.462233 0.000000
vn -0.893705 -0.448656 0.000000
vn -0.900441 -0.434978 0.000000
vn -0.906368 -0.422490 0.000000
vn -0.906366 -0.422489 0.000000
vn 0.905832 0.423637 0.000000
vn -0.900440 -0.434977 0.000000
vn 0.000000 0.000000 1.000000
vn 0.000000 0.000000 0.999999
vn 0.000000 0.000000 0.999997
vn 0.000000 0.000000 1.000000
vn 0.000000 0.000000 -1.000000
vn 0.000000 0.000000 -0.999997
vn 0.000000 0.000000 -0.999999
# 167 normals

o \
usemtl default
f 1//1 39//1 38//1
f 118//2 153//2 154//2
f 79//5 78//4 1//3
f 80//7 79//5 2//6
f 81//9 80//7 3//8
f 82//11 81//9 4//10
f 83//13 82//11 5//12
f 84//15 83//13 6//14
f 85//17 84//15 7//16
f 86//19 85//17 8//18
f 87//21 86//19 9//20
f 88//23 87//21 10//22
f 89//25 88//23 11//24
f 90//27 89//25 12//26
f 91//29 90//27 13//28
f 92//31 91//29 14//30
f 93//33 92//31 15//32
f 94//35 93//33 16//34
f 95//37 94//35 17//36
f 96//39 95//37 18//38
f 97//41 96//39 19//40
f 98//43 97//41 20//42
f 99//45 98//43 21//44
f 100//47 99//45 22//46
f 101//49 100//47 23//48
f 102//51 101//49 24//50
f 103//53 102//51 25//52
f 104//55 103//53 26//54
f 105//57 104//55 27//56
f 106//59 105//57 28//58
f 107//61 106//59 29//60
f 108//63 107//61 30//62
f 109//65 108//63 31//64
f 110//67 109//65 32//66
f 111//69 110//67 33//68
f 112//71 111//69 34//70
f 113//73 112//71 35//72
f 114//75 113//73 36//74
f 115//77 114//75 37//76
f 116//79 115//77 38//78
f 117//80 116//81 39//80
f 118//84 117//83 40//82
f 119//86 118//84 41//85
f 120//88 119//86 42//87
f 121//90 120//88 43//89
f 122//92 121//90 44//91
f 123//94 122//92 45//93
f 124//96 123//94 46//95
f 125//98 124//96 47//97
f 126//100 125//98 48//99
f 127//102 126//100 49//101
f 128//104 127//102 50//103
f 129//106 128//104 51//105
f 130//108 129//106 52//107
f 131//110 130//108 53//109
f 132//112 131//110 54//111
f 133//114 132//112 55//113
f 134//116 133//114 56//115
f 135//118 134//116 57//117
f 136//120 135//118 58//119
f 137//122 136//120 59//121
f 138//124 137//122 60//123
f 139//126 138//124 61//125
f 140//128 139//126 62//127
f 141//130 140//128 63//129
f 142//132 141//130 64//131
f 143//134 142//132 65//133
f 144//136 143//134 66//135
f 145//138 144//136 67//137
f 146//140 145//138 68//139
f 147//142 146//140 69//141
f 148//144 147//142 70//143
f 149//146 148//144 71//145
f 150//148 149//146 72//147
f 151//150 150//148 73//149
f 152//152 151//150 74//151
f 153//154 152//152 75//153
f 154//156 153//154 76//155
f 78//157 154//158 77//157
f 2//6 79//5 1//3
f 3//8 80//7 2//6
f 4//10 81//9 3//8
f 5//12 82//11 4//10
f 6//14 83//13 5//12
f 7//16 84//15 6//14
f 8//18 85//17 7//16
f 9//20 86//19 8//18
f 10//22 87//21 9//20
f 11//24 88//23 10//22
f 12//26 89//25 11//24
f 13//28 90//27 12//26
f 14//30 91//29 13//28
f 15//32 92//31 14//30
f 16//34 93//33 15//32
f 17//36 94//35 16//34
f 18//38 95//37 17//36
f 19//40 96//39 18//38
f 20//42 97//41 19//40
f 21//44 98//43 20//42
f 22//46 99//45 21//44
f 23//48 100//47 22//46
f 24//50 101//49 23//48
f 25//52 102//51 24//50
f 26//54 103//53 25//52
f 27//56 104//55 26//54
f 28//58 105//57 27//56
f 29//60 106//59 28//58
f 30//62 107//61 29//60
f 31//64 108//63 30//62
f 32//66 109//65 31//64
f 33//68 110//67 32//66
f 34//70 111//69 33//68
f 35//72 112//71 34//70
f 36//74 113//73 35//72
f 37//76 114//75 36//74
f 38//78 115//77 37//76
f 39//79 116//79 38//78
f 40//159 117//80 39//80
f 41//85 118//84 40//82
f 42//87 119//86 41//85
f 43//89 120//88 42//87
f 44//91 121//90 43//89
f 45//93 122//92 44//91
f 46//95 123//94 45//93
f 47//97 124//96 46//95
f 48//99 125//98 47//97
f 49//101 126//100 48//99
f 50//103 127//102 49//101
f 51//105 128//104 50//103
f 52//107 129//106 51//105
f 53//109 130//108 52//107
f 54//111 131//110 53//109
f 55//113 132//112 54//111
f 56//115 133//114 55//113
f 57//117 134//116 56//115
f 58//119 135//118 57//117
f 59//121 136//120 58//119
f 60//123 137//122 59//121
f 61//125 138//124 60//123
f 62//127 139//126 61//125
f 63//129 140//128 62//127
f 64//131 141//130 63//129
f 65//133 142//132 64//131
f 66//135 143//134 65//133
f 67//137 144//136 66//135
f 68//139 145//138 67//137
f 69//141 146//140 68//139
f 70//143 147//142 69//141
f 71//145 148//144 70//143
f 72//147 149//146 71//145
f 73//149 150//148 72//147
f 74//151 151//150 73//149
f 75//153 152//152 74//151
f 76//155 153//154 75//153
f 77//160 154//156 76//155
f 1//158 78//157 77//157
f 2//1 38//1 37//1
f 37//1 4//1 3//1
f 37//1 5//1 4//1
f 37//1 6//1 5//1
f 37//1 7//1 6//1
f 37//1 8//1 7//1
f 37//1 9//1 8//1
f 37//1 10//1 9//1
f 37//1 11//1 10//1
f 37//1 12//1 11//1
f 37//1 13//1 12//1
f 37//1 14//1 13//1
f 37//1 15//1 14//1
f 37//1 16//1 15//1
f 37//1 17//1 16//1
f 37//1 18//1 17//1
f 37//1 19//1 18//1
f 37//1 20//1 19//1
f 21//161 20//1 37//1
f 36//1 22//1 21//161
f 23//1 22//1 36//1
f 24//1 23//1 35//1
f 25//1 24//1 32//1
f 25//1 31//1 30//1
f 26//1 30//1 29//1
f 29//1 28//162 27//1
f 33//1 32//1 24//1
f 34//1 33//1 24//1
f 77//1 40//1 39//1
f 77//1 76//1 41//1
f 75//1 42//1 41//1
f 71//1 43//1 42//1
f 44//1 43//1 71//1
f 45//1 44//1 71//1
f 71//1 70//1 46//1
f 52//1 47//1 46//1
f 51//1 48//1 47//1
f 50//1 49//163 48//1
f 54//1 53//1 46//1
f 56//1 55//1 46//1
f 58//1 57//1 46//1
f 46//1 60//164 59//1
f 46//1 61//164 60//164
f 46//1 62//164 61//164
f 46//1 63//1 62//164
f 46//1 64//1 63//1
f 46//1 65//1 64//1
f 46//1 66//1 65//1
f 46//1 67//1 66//1
f 46//1 68//1 67//1
f 46//1 69//1 68//1
f 46//1 70//1 69//1
f 42//1 73//1 72//1
f 42//1 74//1 73//1
f 42//1 75//1 74//1
f 118//2 119//165 152//2
f 151//2 152//2 119//165
f 150//2 151//2 119//165
f 149//2 150//2 119//165
f 119//165 120//2 148//2
f 123//2 147//2 148//2
f 146//2 147//2 123//2
f 145//2 146//2 123//2
f 144//2 145//2 123//2
f 143//2 144//2 123//2
f 142//2 143//2 123//2
f 141//2 142//2 123//2
f 140//2 141//2 123//2
f 139//2 140//2 123//2
f 138//2 139//2 123//2
f 137//2 138//2 123//2
f 136//2 137//2 123//2
f 123//2 134//2 135//2
f 123//2 132//2 133//2
f 123//2 130//2 131//2
f 123//2 124//2 129//2
f 124//2 125//2 128//2
f 125//2 126//166 127//2
f 148//2 121//2 122//2
f 148//2 120//2 121//2
f 116//2 117//2 154//2
f 115//2 116//2 78//2
f 114//2 115//2 79//2
f 114//2 97//2 98//165
f 113//2 99//2 100//2
f 112//2 100//2 101//2
f 101//2 110//2 111//2
f 101//2 109//2 110//2
f 109//2 101//2 102//2
f 107//2 108//2 102//2
f 106//2 107//2 103//2
f 104//2 105//167 106//2
f 98//165 99//2 113//2
f 96//2 97//2 114//2
f 95//2 96//2 114//2
f 94//2 95//2 114//2
f 93//2 94//2 114//2
f 92//2 93//2 114//2
f 91//2 92//2 114//2
f 90//2 91//2 114//2
f 89//2 90//2 114//2
f 88//2 89//2 114//2
f 87//2 88//2 114//2
f 86//2 87//2 114//2
f 85//2 86//2 114//2
f 84//2 85//2 114//2
f 83//2 84//2 114//2
f 82//2 83//2 114//2
f 81//2 82//2 114//2
f 80//2 81//2 114//2
f 3//1 2//1 37//1
f 36//1 21//161 37//1
f 35//1 23//1 36//1
f 34//1 24//1 35//1
f 31//1 25//1 32//1
f 26//1 25//1 30//1
f 27//1 26//1 29//1
f 1//1 77//1 39//1
f 40//1 77//1 41//1
f 76//1 75//1 41//1
f 72//1 71//1 42//1
f 45//1 71//1 46//1
f 53//1 52//1 46//1
f 52//1 51//1 47//1
f 51//1 50//1 48//1
f 55//1 54//1 46//1
f 57//1 56//1 46//1
f 59//1 58//1 46//1
f 153//2 118//2 152//2
f 149//2 119//165 148//2
f 122//2 123//2 148//2
f 136//2 123//2 135//2
f 134//2 123//2 133//2
f 132//2 123//2 131//2
f 130//2 123//2 129//2
f 129//2 124//2 128//2
f 128//2 125//2 127//2
f 78//2 116//2 154//2
f 79//2 115//2 78//2
f 80//2 114//2 79//2
f 113//2 114//2 98//165
f 112//2 113//2 100//2
f 111//2 112//2 101//2
f 108//2 109//2 102//2
f 103//2 107//2 102//2
f 104//2 106//2 103//2
f 2//1 1//1 38//1
f 117//2 118//2 154//2

