# WaveFront *.obj file (generated by Cinema 4D)

v -0.000244 0.555176 0.000000
v -0.150146 0.431152 0.000000
v -0.152092 0.429596 0.000000
v -0.154358 0.428101 0.000000
v -0.156596 0.426896 0.000000
v -0.159180 0.425781 0.000000
v -0.162032 0.424841 0.000000
v -0.164646 0.424241 0.000000
v -0.166832 0.423941 0.000000
v -0.169189 0.423828 0.000000
v -0.172399 0.423976 0.000000
v -0.175465 0.424421 0.000000
v -0.177979 0.425039 0.000000
v -0.180387 0.425875 0.000000
v -0.182689 0.426928 0.000000
v -0.184887 0.428200 0.000000
v -0.186979 0.429689 0.000000
v -0.188965 0.431396 0.000000
v -0.190782 0.433266 0.000000
v -0.192368 0.435240 0.000000
v -0.193721 0.437320 0.000000
v -0.194843 0.439506 0.000000
v -0.195732 0.441797 0.000000
v -0.196390 0.444193 0.000000
v -0.196815 0.446695 0.000000
v -0.196970 0.448422 0.000000
v -0.197021 0.450195 0.000000
v -0.196911 0.452528 0.000000
v -0.196528 0.455231 0.000000
v -0.195791 0.458340 0.000000
v -0.194834 0.461289 0.000000
v -0.193604 0.464355 0.000000
v -0.191628 0.468352 0.000000
v -0.189257 0.472216 0.000000
v -0.186716 0.475666 0.000000
v -0.183838 0.479004 0.000000
v -0.033936 0.654785 0.000000
v -0.032123 0.657041 0.000000
v -0.030123 0.659123 0.000000
v -0.027936 0.661029 0.000000
v -0.025250 0.662964 0.000000
v -0.022665 0.664499 0.000000
v -0.019531 0.666016 0.000000
v -0.015498 0.667545 0.000000
v -0.011346 0.668697 0.000000
v -0.007076 0.669470 0.000000
v -0.003896 0.669795 0.000000
v -0.000244 0.669922 0.000000
v 0.004800 0.669697 0.000000
v 0.009225 0.669095 0.000000
v 0.013462 0.668116 0.000000
v 0.016425 0.667166 0.000000
v 0.019287 0.666016 0.000000
v 0.022686 0.664316 0.000000
v 0.025850 0.662344 0.000000
v 0.028497 0.660335 0.000000
v 0.030954 0.658104 0.000000
v 0.032487 0.656494 0.000000
v 0.033936 0.654785 0.000000
v 0.184814 0.479004 0.000000
v 0.187472 0.475859 0.000000
v 0.189821 0.472516 0.000000
v 0.191860 0.468977 0.000000
v 0.192906 0.466822 0.000000
v 0.193848 0.464600 0.000000
v 0.195376 0.460145 0.000000
v 0.196290 0.456419 0.000000
v 0.196839 0.452777 0.000000
v 0.196976 0.450987 0.000000
v 0.197021 0.449219 0.000000
v 0.196905 0.446576 0.000000
v 0.196557 0.444039 0.000000
v 0.195977 0.441607 0.000000
v 0.195165 0.439281 0.000000
v 0.194121 0.437061 0.000000
v 0.192845 0.434945 0.000000
v 0.191337 0.432936 0.000000
v 0.190202 0.431654 0.000000
v 0.188965 0.430420 0.000000
v 0.186656 0.428449 0.000000
v 0.184594 0.426996 0.000000
v 0.182454 0.425761 0.000000
v 0.180237 0.424744 0.000000
v 0.177942 0.423944 0.000000
v 0.175570 0.423363 0.000000
v 0.173121 0.423000 0.000000
v 0.171868 0.422900 0.000000
v 0.170166 0.422852 0.000000
v 0.167595 0.422961 0.000000
v 0.165315 0.423262 0.000000
v 0.163756 0.423594 0.000000
v 0.162109 0.424072 0.000000
v 0.160510 0.424692 0.000000
v 0.158934 0.425477 0.000000
v 0.157242 0.426523 0.000000
v 0.156129 0.427329 0.000000
v 0.155029 0.428223 0.000000
v -0.000244 0.555176 -0.400000
v -0.150146 0.431152 -0.400000
v -0.152092 0.429596 -0.400000
v -0.154358 0.428101 -0.400000
v -0.156596 0.426896 -0.400000
v -0.159180 0.425781 -0.400000
v -0.162032 0.424841 -0.400000
v -0.164646 0.424241 -0.400000
v -0.166832 0.423941 -0.400000
v -0.169189 0.423828 -0.400000
v -0.172399 0.423976 -0.400000
v -0.175465 0.424421 -0.400000
v -0.177979 0.425039 -0.400000
v -0.180387 0.425875 -0.400000
v -0.182689 0.426928 -0.400000
v -0.184887 0.428200 -0.400000
v -0.186979 0.429689 -0.400000
v -0.188965 0.431396 -0.400000
v -0.190782 0.433266 -0.400000
v -0.192368 0.435240 -0.400000
v -0.193721 0.437320 -0.400000
v -0.194843 0.439506 -0.400000
v -0.195732 0.441797 -0.400000
v -0.196390 0.444193 -0.400000
v -0.196815 0.446695 -0.400000
v -0.196970 0.448422 -0.400000
v -0.197021 0.450195 -0.400000
v -0.196911 0.452528 -0.400000
v -0.196528 0.455231 -0.400000
v -0.195791 0.458340 -0.400000
v -0.194834 0.461289 -0.400000
v -0.193604 0.464355 -0.400000
v -0.191628 0.468352 -0.400000
v -0.189257 0.472216 -0.400000
v -0.186716 0.475666 -0.400000
v -0.183838 0.479004 -0.400000
v -0.033936 0.654785 -0.400000
v -0.032123 0.657041 -0.400000
v -0.030123 0.659123 -0.400000
v -0.027936 0.661029 -0.400000
v -0.025250 0.662964 -0.400000
v -0.022665 0.664499 -0.400000
v -0.019531 0.666016 -0.400000
v -0.015498 0.667545 -0.400000
v -0.011346 0.668697 -0.400000
v -0.007076 0.669470 -0.400000
v -0.003896 0.669795 -0.400000
v -0.000244 0.669922 -0.400000
v 0.004800 0.669697 -0.400000
v 0.009225 0.669095 -0.400000
v 0.013462 0.668116 -0.400000
v 0.016425 0.667166 -0.400000
v 0.019287 0.666016 -0.400000
v 0.022686 0.664316 -0.400000
v 0.025850 0.662344 -0.400000
v 0.028497 0.660335 -0.400000
v 0.030954 0.658104 -0.400000
v 0.032487 0.656494 -0.400000
v 0.033936 0.654785 -0.400000
v 0.184814 0.479004 -0.400000
v 0.187472 0.475859 -0.400000
v 0.189821 0.472516 -0.400000
v 0.191860 0.468977 -0.400000
v 0.192906 0.466822 -0.400000
v 0.193848 0.464600 -0.400000
v 0.195376 0.460145 -0.400000
v 0.196290 0.456419 -0.400000
v 0.196839 0.452777 -0.400000
v 0.196976 0.450987 -0.400000
v 0.197021 0.449219 -0.400000
v 0.196905 0.446576 -0.400000
v 0.196557 0.444039 -0.400000
v 0.195977 0.441607 -0.400000
v 0.195165 0.439281 -0.400000
v 0.194121 0.437061 -0.400000
v 0.192845 0.434945 -0.400000
v 0.191337 0.432936 -0.400000
v 0.190202 0.431654 -0.400000
v 0.188965 0.430420 -0.400000
v 0.186656 0.428449 -0.400000
v 0.184594 0.426996 -0.400000
v 0.182454 0.425761 -0.400000
v 0.180237 0.424744 -0.400000
v 0.177942 0.423944 -0.400000
v 0.175570 0.423363 -0.400000
v 0.173121 0.423000 -0.400000
v 0.171868 0.422900 -0.400000
v 0.170166 0.422852 -0.400000
v 0.167595 0.422961 -0.400000
v 0.165315 0.423262 -0.400000
v 0.163756 0.423594 -0.400000
v 0.162109 0.424072 -0.400000
v 0.160510 0.424692 -0.400000
v 0.158934 0.425477 -0.400000
v 0.157242 0.426523 -0.400000
v 0.156129 0.427329 -0.400000
v 0.155029 0.428223 -0.400000
# 194 vertices

vn 0.000000 0.000000 1.000000
vn 0.000000 0.000000 1.000000
vn 0.000000 0.000000 -1.000000
vn 0.637465 -0.770479 0.000000
vn 0.637462 -0.770476 0.000000
vn 0.624694 -0.780870 0.000000
vn 0.624692 -0.780868 0.000000
vn 0.600623 -0.799532 0.000000
vn 0.575973 -0.817469 0.000000
vn 0.525655 -0.850698 0.000000
vn 0.500008 -0.866021 0.000000
vn 0.448380 -0.893843 0.000000
vn 0.422428 -0.906396 0.000000
vn 0.368828 -0.929497 0.000000
vn 0.341162 -0.940005 0.000000
vn 0.283570 -0.958952 0.000000
vn 0.253616 -0.967305 0.000000
vn 0.194568 -0.980889 0.000000
vn 0.165494 -0.986211 0.000000
vn 0.106849 -0.994275 0.000000
vn 0.077276 -0.997010 0.000000
vn 0.016402 -0.999865 0.000000
vn -0.014905 -0.999889 0.000000
vn -0.078745 -0.996895 0.000000
vn -0.111275 -0.993790 0.000000
vn -0.175479 -0.984483 0.000000
vn -0.207157 -0.978308 0.000000
vn -0.268581 -0.963257 0.000000
vn -0.298347 -0.954458 0.000000
vn -0.357567 -0.933887 0.000000
vn -0.387009 -0.922076 0.000000
vn -0.444757 -0.895651 0.000000
vn -0.473060 -0.881030 0.000000
vn -0.527764 -0.849391 0.000000
vn -0.554180 -0.832397 0.000000
vn -0.604529 -0.796583 0.000000
vn -0.628498 -0.777811 0.000000
vn -0.674148 -0.738596 0.000000
vn -0.695855 -0.718183 0.000000
vn -0.738602 -0.674142 0.000000
vn -0.759561 -0.650436 0.000000
vn -0.800101 -0.599865 0.000000
vn -0.819601 -0.572935 0.000000
vn -0.856355 -0.516388 0.000000
vn -0.873551 -0.486732 0.000000
vn -0.904955 -0.425508 0.000000
vn -0.919141 -0.393928 0.000000
vn -0.944035 -0.329847 0.000000
vn -0.954767 -0.297355 0.000000
vn -0.972597 -0.232498 0.000000
vn -0.979765 -0.200152 0.000000
vn -0.989925 -0.141592 0.000000
vn -0.993314 -0.115445 0.000000
vn -0.997602 -0.069205 0.000000
vn -0.998792 -0.049138 0.000000
vn -0.999994 -0.003568 0.000000
vn -0.999759 0.021943 0.000000
vn -0.996919 0.078431 0.000000
vn -0.993999 0.109393 0.000000
vn -0.985354 0.170523 0.000000
vn -0.979654 0.200694 0.000000
vn -0.966454 0.256840 0.000000
vn -0.959160 0.282864 0.000000
vn -0.943953 0.330079 0.000000
vn -0.936249 0.351338 0.000000
vn -0.918148 0.396238 0.000000
vn -0.907607 0.419820 0.000000
vn -0.882567 0.470186 0.000000
vn -0.867834 0.496854 0.000000
vn -0.837275 0.546781 0.000000
vn -0.821567 0.570112 0.000000
vn -0.789767 0.613407 0.000000
vn -0.773783 0.633451 0.000000
vn -0.757301 0.653066 0.000000
vn -0.760895 0.648875 0.000000
vn -0.760895 0.648874 0.000000
vn -0.779607 0.626270 0.000000
vn -0.760748 0.649047 0.000000
vn -0.741207 0.671276 0.000000
vn -0.700294 0.713855 0.000000
vn -0.678925 0.734208 0.000000
vn -0.633497 0.773745 0.000000
vn -0.609388 0.792872 0.000000
vn -0.560404 0.828219 0.000000
vn -0.535566 0.844493 0.000000
vn -0.485828 0.874055 0.000000
vn -0.460971 0.887415 0.000000
vn -0.409062 0.912506 0.000000
vn -0.381979 0.924171 0.000000
vn -0.325788 0.945443 0.000000
vn -0.296655 0.954985 0.000000
vn -0.237811 0.971311 0.000000
vn -0.208103 0.978107 0.000000
vn -0.152818 0.988254 0.000000
vn -0.127287 0.991866 0.000000
vn -0.079376 0.996845 0.000000
vn -0.057012 0.998373 0.000000
vn -0.008237 0.999966 0.000000
vn 0.018180 0.999835 0.000000
vn 0.074671 0.997208 0.000000
vn 0.104735 0.994500 0.000000
vn 0.165040 0.986287 0.000000
vn 0.195276 0.980748 0.000000
vn 0.252177 0.967681 0.000000
vn 0.278882 0.960325 0.000000
vn 0.328019 0.944671 0.000000
vn 0.350512 0.936558 0.000000
vn 0.397892 0.917432 0.000000
vn 0.422718 0.906261 0.000000
vn 0.474959 0.880008 0.000000
vn 0.502269 0.864711 0.000000
vn 0.554744 0.832021 0.000000
vn 0.579932 0.814665 0.000000
vn 0.627617 0.778522 0.000000
vn 0.650160 0.759798 0.000000
vn 0.689921 0.723885 0.000000
vn 0.707319 0.706894 0.000000
vn 0.737393 0.675464 0.000000
vn 0.750230 0.661177 0.000000
vn 0.762786 0.646651 0.000000
vn 0.758810 0.651312 0.000000
vn 0.758809 0.651311 0.000000
vn 0.763817 0.645433 0.000000
vn 0.763815 0.645431 0.000000
vn 0.782636 0.622479 0.000000
vn 0.800782 0.598956 0.000000
vn 0.835043 0.550184 0.000000
vn 0.851147 0.524927 0.000000
vn 0.877989 0.478681 0.000000
vn 0.889023 0.457862 0.000000
vn 0.906907 0.421330 0.000000
vn 0.913992 0.405731 0.000000
vn 0.929665 0.368406 0.000000
vn 0.938020 0.346580 0.000000
vn 0.955170 0.296059 0.000000
vn 0.963628 0.267248 0.000000
vn 0.977992 0.208640 0.000000
vn 0.983878 0.178839 0.000000
vn 0.992181 0.124805 0.000000
vn 0.994925 0.100623 0.000000
vn 0.998225 0.059559 0.000000
vn 0.999088 0.042701 0.000000
vn 0.999997 0.002604 0.000000
vn 0.999787 -0.020641 0.000000
vn 0.997212 -0.074616 0.000000
vn 0.994438 -0.105327 0.000000
vn 0.985765 -0.168132 0.000000
vn 0.979753 -0.200209 0.000000
vn 0.964285 -0.264868 0.000000
vn 0.954744 -0.297429 0.000000
vn 0.932176 -0.362004 0.000000
vn 0.919109 -0.394004 0.000000
vn 0.889774 -0.456401 0.000000
vn 0.873513 -0.486801 0.000000
vn 0.838382 -0.545082 0.000000
vn 0.819561 -0.572992 0.000000
vn 0.783362 -0.621565 0.000000
vn 0.766309 -0.642472 0.000000
vn 0.734860 -0.678219 0.000000
vn 0.720688 -0.693259 0.000000
vn 0.687698 -0.725997 0.000000
vn 0.668709 -0.743525 0.000000
vn 0.625442 -0.780271 0.000000
vn 0.600975 -0.799268 0.000000
vn 0.551108 -0.834434 0.000000
vn 0.525738 -0.850646 0.000000
vn 0.472730 -0.881208 0.000000
vn 0.445059 -0.895501 0.000000
vn 0.388021 -0.921651 0.000000
vn 0.358640 -0.933476 0.000000
vn 0.298926 -0.954276 0.000000
vn 0.268593 -0.963254 0.000000
vn 0.207789 -0.978174 0.000000
vn 0.177327 -0.984152 0.000000
vn 0.124358 -0.992238 0.000000
vn 0.101917 -0.994793 0.000000
vn 0.062459 -0.998048 0.000000
vn 0.045459 -0.998966 0.000000
vn 0.004739 -0.999989 0.000000
vn -0.018988 -0.999820 0.000000
vn -0.072113 -0.997396 0.000000
vn -0.101498 -0.994836 0.000000
vn -0.156738 -0.987640 0.000000
vn -0.182618 -0.983184 0.000000
vn -0.231963 -0.972724 0.000000
vn -0.255451 -0.966822 0.000000
vn -0.306552 -0.951854 0.000000
vn -0.334095 -0.942540 0.000000
vn -0.389924 -0.920847 0.000000
vn -0.418172 -0.908368 0.000000
vn -0.472943 -0.881093 0.000000
vn -0.499480 -0.866325 0.000000
vn -0.546296 -0.837592 0.000000
vn -0.566742 -0.823895 0.000000
vn -0.601621 -0.798782 0.000000
vn -0.616211 -0.787581 0.000000
vn -0.630588 -0.776118 0.000000
vn -0.632973 -0.774174 0.000000
vn -0.632973 -0.774174 0.000000
vn -0.757297 0.653063 0.000000
vn 0.762786 0.646651 0.000000
vn 0.758809 0.651311 0.000000
vn -0.630588 -0.776118 0.000000
vn 0.000000 0.000000 0.999997
vn 0.000000 0.000000 0.999995
vn 0.000000 0.000000 1.000000
vn 0.000000 0.000000 1.000000
vn 0.000000 0.000000 -1.000000
vn 0.000000 0.000000 -1.000000
vn 0.000000 0.000000 -0.999995
vn 0.000000 0.000000 -0.999996
vn 0.000000 0.000000 1.000000
vn 0.000000 0.000000 0.999995
vn 0.000000 0.000000 -0.999995
vn 0.000000 0.000000 -1.000000
# 215 normals

o ^
usemtl default
f 36//2 2//2 1//1
f 194//3 162//3 163//3
f 99//4 98//5 1//4
f 100//8 99//7 2//6
f 101//10 100//8 3//9
f 102//12 101//10 4//11
f 103//14 102//12 5//13
f 104//16 103//14 6//15
f 105//18 104//16 7//17
f 106//20 105//18 8//19
f 107//22 106//20 9//21
f 108//24 107//22 10//23
f 109//26 108//24 11//25
f 110//28 109//26 12//27
f 111//30 110//28 13//29
f 112//32 111//30 14//31
f 113//34 112//32 15//33
f 114//36 113//34 16//35
f 115//38 114//36 17//37
f 116//40 115//38 18//39
f 117//42 116//40 19//41
f 118//44 117//42 20//43
f 119//46 118//44 21//45
f 120//48 119//46 22//47
f 121//50 120//48 23//49
f 122//52 121//50 24//51
f 123//54 122//52 25//53
f 124//56 123//54 26//55
f 125//58 124//56 27//57
f 126//60 125//58 28//59
f 127//62 126//60 29//61
f 128//64 127//62 30//63
f 129//66 128//64 31//65
f 130//68 129//66 32//67
f 131//70 130//68 33//69
f 132//72 131//70 34//71
f 133//74 132//72 35//73
f 134//75 133//76 36//75
f 135//78 134//77 37//77
f 136//80 135//78 38//79
f 137//82 136//80 39//81
f 138//84 137//82 40//83
f 139//86 138//84 41//85
f 140//88 139//86 42//87
f 141//90 140//88 43//89
f 142//92 141//90 44//91
f 143//94 142//92 45//93
f 144//96 143//94 46//95
f 145//98 144//96 47//97
f 146//100 145//98 48//99
f 147//102 146//100 49//101
f 148//104 147//102 50//103
f 149//106 148//104 51//105
f 150//108 149//106 52//107
f 151//110 150//108 53//109
f 152//112 151//110 54//111
f 153//114 152//112 55//113
f 154//116 153//114 56//115
f 155//118 154//116 57//117
f 156//120 155//118 58//119
f 157//121 156//122 59//121
f 158//125 157//124 60//123
f 159//127 158//125 61//126
f 160//129 159//127 62//128
f 161//131 160//129 63//130
f 162//133 161//131 64//132
f 163//135 162//133 65//134
f 164//137 163//135 66//136
f 165//139 164//137 67//138
f 166//141 165//139 68//140
f 167//143 166//141 69//142
f 168//145 167//143 70//144
f 169//147 168//145 71//146
f 170//149 169//147 72//148
f 171//151 170//149 73//150
f 172//153 171//151 74//152
f 173//155 172//153 75//154
f 174//157 173//155 76//156
f 175//159 174//157 77//158
f 176//161 175//159 78//160
f 177//163 176//161 79//162
f 178//165 177//163 80//164
f 179//167 178//165 81//166
f 180//169 179//167 82//168
f 181//171 180//169 83//170
f 182//173 181//171 84//172
f 183//175 182//173 85//174
f 184//177 183//175 86//176
f 185//179 184//177 87//178
f 186//181 185//179 88//180
f 187//183 186//181 89//182
f 188//185 187//183 90//184
f 189//187 188//185 91//186
f 190//189 189//187 92//188
f 191//191 190//189 93//190
f 192//193 191//191 94//192
f 193//195 192//193 95//194
f 194//197 193//195 96//196
f 98//198 194//199 97//198
f 2//5 99//4 1//4
f 3//9 100//8 2//6
f 4//11 101//10 3//9
f 5//13 102//12 4//11
f 6//15 103//14 5//13
f 7//17 104//16 6//15
f 8//19 105//18 7//17
f 9//21 106//20 8//19
f 10//23 107//22 9//21
f 11//25 108//24 10//23
f 12//27 109//26 11//25
f 13//29 110//28 12//27
f 14//31 111//30 13//29
f 15//33 112//32 14//31
f 16//35 113//34 15//33
f 17//37 114//36 16//35
f 18//39 115//38 17//37
f 19//41 116//40 18//39
f 20//43 117//42 19//41
f 21//45 118//44 20//43
f 22//47 119//46 21//45
f 23//49 120//48 22//47
f 24//51 121//50 23//49
f 25//53 122//52 24//51
f 26//55 123//54 25//53
f 27//57 124//56 26//55
f 28//59 125//58 27//57
f 29//61 126//60 28//59
f 30//63 127//62 29//61
f 31//65 128//64 30//63
f 32//67 129//66 31//65
f 33//69 130//68 32//67
f 34//71 131//70 33//69
f 35//73 132//72 34//71
f 36//200 133//74 35//73
f 37//76 134//75 36//75
f 38//79 135//78 37//77
f 39//81 136//80 38//79
f 40//83 137//82 39//81
f 41//85 138//84 40//83
f 42//87 139//86 41//85
f 43//89 140//88 42//87
f 44//91 141//90 43//89
f 45//93 142//92 44//91
f 46//95 143//94 45//93
f 47//97 144//96 46//95
f 48//99 145//98 47//97
f 49//101 146//100 48//99
f 50//103 147//102 49//101
f 51//105 148//104 50//103
f 52//107 149//106 51//105
f 53//109 150//108 52//107
f 54//111 151//110 53//109
f 55//113 152//112 54//111
f 56//115 153//114 55//113
f 57//117 154//116 56//115
f 58//119 155//118 57//117
f 59//201 156//120 58//119
f 60//202 157//121 59//121
f 61//126 158//125 60//123
f 62//128 159//127 61//126
f 63//130 160//129 62//128
f 64//132 161//131 63//130
f 65//134 162//133 64//132
f 66//136 163//135 65//134
f 67//138 164//137 66//136
f 68//140 165//139 67//138
f 69//142 166//141 68//140
f 70//144 167//143 69//142
f 71//146 168//145 70//144
f 72//148 169//147 71//146
f 73//150 170//149 72//148
f 74//152 171//151 73//150
f 75//154 172//153 74//152
f 76//156 173//155 75//154
f 77//158 174//157 76//156
f 78//160 175//159 77//158
f 79//162 176//161 78//160
f 80//164 177//163 79//162
f 81//166 178//165 80//164
f 82//168 179//167 81//166
f 83//170 180//169 82//168
f 84//172 181//171 83//170
f 85//174 182//173 84//172
f 86//176 183//175 85//174
f 87//178 184//177 86//176
f 88//180 185//179 87//178
f 89//182 186//181 88//180
f 90//184 187//183 89//182
f 91//186 188//185 90//184
f 92//188 189//187 91//186
f 93//190 190//189 92//188
f 94//192 191//191 93//190
f 95//194 192//193 94//192
f 96//196 193//195 95//194
f 97//203 194//197 96//196
f 1//199 98//198 97//198
f 35//1 3//2 2//2
f 4//2 3//2 35//1
f 5//2 4//2 35//1
f 6//2 5//2 35//1
f 35//1 34//2 7//2
f 32//2 8//2 7//2
f 32//2 31//2 9//2
f 31//2 30//2 10//2
f 24//2 11//2 10//2
f 23//2 12//2 11//2
f 22//2 13//2 12//2
f 21//2 14//2 13//2
f 21//2 20//2 15//2
f 20//2 17//2 16//2
f 20//2 19//204 18//2
f 10//2 26//2 25//2
f 10//2 27//2 26//2
f 10//2 28//2 27//2
f 10//2 29//2 28//2
f 10//2 30//2 29//2
f 7//2 34//2 33//2
f 1//1 38//2 37//2
f 1//1 39//2 38//2
f 1//1 40//2 39//2
f 1//1 41//2 40//2
f 1//1 42//2 41//2
f 44//2 43//205 42//2
f 1//1 45//2 44//2
f 1//1 46//2 45//2
f 1//1 47//2 46//2
f 1//1 48//2 47//2
f 1//1 49//2 48//2
f 1//1 50//1 49//2
f 52//1 51//2 50//1
f 1//1 53//206 52//1
f 1//1 54//2 53//206
f 54//2 57//206 56//2
f 1//1 58//206 57//206
f 1//1 59//206 58//206
f 1//1 60//206 59//206
f 1//1 61//207 60//206
f 1//1 62//2 61//207
f 63//2 62//2 1//1
f 97//2 64//206 63//2
f 97//2 65//2 64//206
f 66//2 65//2 97//2
f 66//2 69//2 68//2
f 66//2 71//2 70//2
f 66//2 73//2 72//2
f 66//2 75//2 74//2
f 66//2 77//2 76//2
f 78//2 77//2 66//2
f 79//2 78//2 66//2
f 80//2 79//2 66//2
f 81//2 80//2 66//2
f 82//2 81//2 66//2
f 83//2 82//2 66//2
f 84//2 83//2 66//2
f 85//2 84//2 66//2
f 86//2 85//2 66//2
f 87//2 86//2 66//2
f 88//2 87//2 66//2
f 89//2 88//2 66//2
f 90//2 89//2 66//2
f 91//2 90//2 66//2
f 92//2 91//2 66//2
f 93//2 92//2 66//2
f 94//2 93//2 66//2
f 95//2 94//2 66//2
f 96//2 95//2 66//2
f 1//1 57//206 54//2
f 1//1 52//1 50//1
f 1//1 44//2 42//2
f 163//3 192//208 193//3
f 163//3 191//208 192//208
f 163//3 190//208 191//208
f 163//3 189//208 190//208
f 163//3 188//208 189//208
f 163//3 187//208 188//208
f 163//3 186//208 187//208
f 163//3 185//3 186//208
f 163//3 184//3 185//3
f 163//3 183//3 184//3
f 163//3 182//3 183//3
f 163//3 181//3 182//3
f 163//3 180//3 181//3
f 163//3 179//3 180//3
f 163//3 178//3 179//3
f 163//3 177//3 178//3
f 163//3 176//3 177//3
f 163//3 175//3 176//3
f 163//3 174//3 175//3
f 173//3 174//3 163//3
f 171//3 172//3 163//3
f 169//3 170//3 163//3
f 167//3 168//3 163//3
f 165//3 166//3 163//3
f 161//3 162//3 194//3
f 160//3 161//3 194//3
f 98//3 159//3 160//3
f 158//3 159//3 98//3
f 157//3 158//3 98//3
f 156//3 157//3 98//3
f 155//3 156//3 98//3
f 154//3 155//3 98//3
f 153//3 154//3 151//3
f 150//3 151//3 98//3
f 149//209 150//3 98//3
f 147//3 148//209 149//209
f 146//3 147//3 98//3
f 145//3 146//3 98//3
f 144//3 145//3 98//3
f 143//3 144//3 98//3
f 142//3 143//3 98//3
f 141//3 142//3 98//3
f 139//3 140//210 141//3
f 138//3 139//3 98//3
f 137//3 138//3 98//3
f 136//3 137//3 98//3
f 135//3 136//3 98//3
f 134//3 135//3 98//3
f 98//3 99//3 133//3
f 99//3 100//3 132//3
f 101//3 131//3 132//3
f 130//3 131//3 101//3
f 129//3 130//3 101//3
f 128//3 129//3 101//3
f 102//3 127//3 128//3
f 103//3 126//3 127//3
f 125//3 126//3 103//3
f 124//3 125//3 103//3
f 123//3 124//3 103//3
f 122//3 123//3 103//3
f 104//3 121//3 122//3
f 120//3 121//3 104//3
f 119//3 120//3 104//3
f 118//3 119//3 104//3
f 117//3 118//3 104//3
f 116//3 117//3 104//3
f 115//3 116//3 104//3
f 104//3 113//3 114//3
f 104//3 105//3 112//3
f 105//3 110//3 111//3
f 105//3 108//3 109//3
f 105//3 106//211 107//3
f 151//3 154//3 98//3
f 147//3 149//209 98//3
f 139//3 141//3 98//3
f 36//2 35//1 2//2
f 6//2 35//1 7//2
f 33//2 32//2 7//2
f 8//2 32//2 9//2
f 9//2 31//2 10//2
f 25//2 24//2 10//2
f 24//2 23//2 11//2
f 23//2 22//2 12//2
f 22//2 21//2 13//2
f 14//2 21//2 15//2
f 15//2 20//2 16//2
f 17//2 20//2 18//2
f 55//212 54//2 56//2
f 97//2 63//2 1//1
f 96//2 66//2 97//2
f 67//213 66//2 68//2
f 69//2 66//2 70//2
f 71//2 66//2 72//2
f 73//2 66//2 74//2
f 75//2 66//2 76//2
f 172//3 173//3 163//3
f 170//3 171//3 163//3
f 168//3 169//3 163//3
f 166//3 167//3 163//3
f 164//214 165//3 163//3
f 194//3 98//3 160//3
f 152//215 153//3 151//3
f 134//3 98//3 133//3
f 133//3 99//3 132//3
f 100//3 101//3 132//3
f 101//3 102//3 128//3
f 102//3 103//3 127//3
f 103//3 104//3 122//3
f 115//3 104//3 114//3
f 113//3 104//3 112//3
f 112//3 105//3 111//3
f 110//3 105//3 109//3
f 108//3 105//3 107//3
f 37//2 36//2 1//1
f 193//3 194//3 163//3

