# WaveFront *.obj file (generated by Cinema 4D)

v 0.142334 0.530762 0.000000
v 0.125732 0.493164 0.000000
v -0.129639 0.583984 0.000000
v -0.131451 0.584841 0.000000
v -0.133139 0.585847 0.000000
v -0.134513 0.586850 0.000000
v -0.135791 0.587969 0.000000
v -0.137135 0.589387 0.000000
v -0.138061 0.590550 0.000000
v -0.138916 0.591797 0.000000
v -0.139922 0.593553 0.000000
v -0.140754 0.595384 0.000000
v -0.141410 0.597291 0.000000
v -0.141891 0.599272 0.000000
v -0.142197 0.601328 0.000000
v -0.142300 0.602651 0.000000
v -0.142334 0.604004 0.000000
v -0.142278 0.605232 0.000000
v -0.142049 0.606925 0.000000
v -0.141770 0.608279 0.000000
v -0.141357 0.609863 0.000000
v -0.141006 0.610791 0.000000
v -0.140771 0.611270 0.000000
v -0.140596 0.611554 0.000000
v -0.140498 0.611685 0.000000
v -0.140381 0.611816 0.000000
v -0.120361 0.653809 0.000000
v -0.118896 0.656602 0.000000
v -0.117411 0.658881 0.000000
v -0.115958 0.660722 0.000000
v -0.114380 0.662388 0.000000
v -0.112896 0.663702 0.000000
v -0.111084 0.665039 0.000000
v -0.109184 0.666189 0.000000
v -0.107234 0.667139 0.000000
v -0.105234 0.667889 0.000000
v -0.103184 0.668439 0.000000
v -0.101084 0.668789 0.000000
v -0.099746 0.668906 0.000000
v -0.098389 0.668945 0.000000
v -0.096982 0.668882 0.000000
v -0.095732 0.668720 0.000000
v -0.094482 0.668457 0.000000
v -0.092920 0.667988 0.000000
v -0.091748 0.667534 0.000000
v -0.090576 0.666992 0.000000
v 0.142334 0.530762 -0.400000
v 0.125732 0.493164 -0.400000
v -0.129639 0.583984 -0.400000
v -0.131451 0.584841 -0.400000
v -0.133139 0.585847 -0.400000
v -0.134513 0.586850 -0.400000
v -0.135791 0.587969 -0.400000
v -0.137135 0.589387 -0.400000
v -0.138061 0.590550 -0.400000
v -0.138916 0.591797 -0.400000
v -0.139922 0.593553 -0.400000
v -0.140754 0.595384 -0.400000
v -0.141410 0.597291 -0.400000
v -0.141891 0.599272 -0.400000
v -0.142197 0.601328 -0.400000
v -0.142300 0.602651 -0.400000
v -0.142334 0.604004 -0.400000
v -0.142278 0.605232 -0.400000
v -0.142049 0.606925 -0.400000
v -0.141770 0.608279 -0.400000
v -0.141357 0.609863 -0.400000
v -0.141006 0.610791 -0.400000
v -0.140771 0.611270 -0.400000
v -0.140596 0.611554 -0.400000
v -0.140498 0.611685 -0.400000
v -0.140381 0.611816 -0.400000
v -0.120361 0.653809 -0.400000
v -0.118896 0.656602 -0.400000
v -0.117411 0.658881 -0.400000
v -0.115958 0.660722 -0.400000
v -0.114380 0.662388 -0.400000
v -0.112896 0.663702 -0.400000
v -0.111084 0.665039 -0.400000
v -0.109184 0.666189 -0.400000
v -0.107234 0.667139 -0.400000
v -0.105234 0.667889 -0.400000
v -0.103184 0.668439 -0.400000
v -0.101084 0.668789 -0.400000
v -0.099746 0.668906 -0.400000
v -0.098389 0.668945 -0.400000
v -0.096982 0.668882 -0.400000
v -0.095732 0.668720 -0.400000
v -0.094482 0.668457 -0.400000
v -0.092920 0.667988 -0.400000
v -0.091748 0.667534 -0.400000
v -0.090576 0.666992 -0.400000
# 92 vertices

vn 0.000000 0.000000 1.000000
vn 0.000000 0.000000 1.000000
vn 0.000000 0.000000 -1.000000
vn 0.000000 0.000000 -1.000000
vn 0.914789 -0.403933 0.000000
vn 0.914787 -0.403932 0.000000
vn -0.335081 -0.942189 0.000000
vn -0.335081 -0.942189 0.000000
vn -0.427135 -0.904188 0.000000
vn -0.427135 -0.904187 0.000000
vn -0.455953 -0.890004 0.000000
vn -0.484329 -0.874886 0.000000
vn -0.538566 -0.842583 0.000000
vn -0.564463 -0.825459 0.000000
vn -0.613203 -0.789925 0.000000
vn -0.636108 -0.771600 0.000000
vn -0.681640 -0.731688 0.000000
vn -0.704190 -0.710012 0.000000
vn -0.745382 -0.666638 0.000000
vn -0.764141 -0.645050 0.000000
vn -0.796815 -0.604223 0.000000
vn -0.810930 -0.585143 0.000000
vn -0.839558 -0.543270 0.000000
vn -0.853932 -0.520384 0.000000
vn -0.882844 -0.469666 0.000000
vn -0.897159 -0.441708 0.000000
vn -0.923147 -0.384446 0.000000
vn -0.934814 -0.355139 0.000000
vn -0.955197 -0.295970 0.000000
vn -0.963941 -0.266118 0.000000
vn -0.978415 -0.206649 0.000000
vn -0.984202 -0.177047 0.000000
vn -0.992279 -0.124028 0.000000
vn -0.994920 -0.100664 0.000000
vn -0.998202 -0.059945 0.000000
vn -0.999092 -0.042609 0.000000
vn -0.999999 -0.001593 0.000000
vn -0.999756 0.022093 0.000000
vn -0.997172 0.075147 0.000000
vn -0.994525 0.104499 0.000000
vn -0.987661 0.156605 0.000000
vn -0.983776 0.179403 0.000000
vn -0.975775 0.218777 0.000000
vn -0.971898 0.235403 0.000000
vn -0.958106 0.286416 0.000000
vn -0.947231 0.320552 0.000000
vn -0.923646 0.383246 0.000000
vn -0.911224 0.411912 0.000000
vn -0.883199 0.468998 0.000000
vn -0.867530 0.497385 0.000000
vn -0.835153 0.550018 0.000000
vn -0.818601 0.574362 0.000000
vn -0.783555 0.621322 0.000000
vn -0.765071 0.643946 0.000000
vn -0.745950 0.666002 0.000000
vn -0.902667 0.430341 0.000000
vn -0.902666 0.430341 0.000000
vn -0.885588 0.464472 0.000000
vn -0.885586 0.464470 0.000000
vn -0.870542 0.492093 0.000000
vn -0.854620 0.519255 0.000000
vn -0.820959 0.570987 0.000000
vn -0.803283 0.595597 0.000000
vn -0.765920 0.642936 0.000000
vn -0.746243 0.665673 0.000000
vn -0.705552 0.708658 0.000000
vn -0.684576 0.728942 0.000000
vn -0.640514 0.767947 0.000000
vn -0.617406 0.786645 0.000000
vn -0.568980 0.822351 0.000000
vn -0.543634 0.839322 0.000000
vn -0.491643 0.870797 0.000000
vn -0.465004 0.885308 0.000000
vn -0.409423 0.912345 0.000000
vn -0.380449 0.924802 0.000000
vn -0.320797 0.947148 0.000000
vn -0.290105 0.956995 0.000000
vn -0.227799 0.973708 0.000000
vn -0.196185 0.980567 0.000000
vn -0.138777 0.990324 0.000000
vn -0.113044 0.993590 0.000000
vn -0.067778 0.997700 0.000000
vn -0.048269 0.998834 0.000000
vn -0.004179 0.999991 0.000000
vn 0.020408 0.999792 0.000000
vn 0.073003 0.997332 0.000000
vn 0.101003 0.994886 0.000000
vn 0.154544 0.987986 0.000000
vn 0.180099 0.983648 0.000000
vn 0.232975 0.972483 0.000000
vn 0.260270 0.965536 0.000000
vn 0.312217 0.950011 0.000000
vn 0.336900 0.941540 0.000000
vn 0.380987 0.924580 0.000000
vn 0.400475 0.916308 0.000000
vn 0.419774 0.907629 0.000000
vn 0.504883 0.863188 0.000000
vn 0.504882 0.863185 0.000000
vn -0.745950 0.666002 0.000000
vn 0.419772 0.907625 0.000000
vn 0.504882 0.863185 0.000000
vn 0.000000 0.000000 1.000000
vn 0.000000 0.000000 -0.999999
vn 0.000000 0.000000 -1.000000
vn 0.000000 0.000000 0.999999
# 105 normals

o `
usemtl default
f 1//2 46//1 3//1
f 60//4 91//3 92//3
f 48//5 47//6 1//5
f 49//7 48//8 2//7
f 50//11 49//10 3//9
f 51//13 50//11 4//12
f 52//15 51//13 5//14
f 53//17 52//15 6//16
f 54//19 53//17 7//18
f 55//21 54//19 8//20
f 56//23 55//21 9//22
f 57//25 56//23 10//24
f 58//27 57//25 11//26
f 59//29 58//27 12//28
f 60//31 59//29 13//30
f 61//33 60//31 14//32
f 62//35 61//33 15//34
f 63//37 62//35 16//36
f 64//39 63//37 17//38
f 65//41 64//39 18//40
f 66//43 65//41 19//42
f 67//45 66//43 20//44
f 68//47 67//45 21//46
f 69//49 68//47 22//48
f 70//51 69//49 23//50
f 71//53 70//51 24//52
f 72//55 71//53 25//54
f 73//56 72//57 26//56
f 74//60 73//59 27//58
f 75//62 74//60 28//61
f 76//64 75//62 29//63
f 77//66 76//64 30//65
f 78//68 77//66 31//67
f 79//70 78//68 32//69
f 80//72 79//70 33//71
f 81//74 80//72 34//73
f 82//76 81//74 35//75
f 83//78 82//76 36//77
f 84//80 83//78 37//79
f 85//82 84//80 38//81
f 86//84 85//82 39//83
f 87//86 86//84 40//85
f 88//88 87//86 41//87
f 89//90 88//88 42//89
f 90//92 89//90 43//91
f 91//94 90//92 44//93
f 92//96 91//94 45//95
f 47//97 92//98 46//97
f 2//6 48//5 1//5
f 3//8 49//7 2//7
f 4//12 50//11 3//9
f 5//14 51//13 4//12
f 6//16 52//15 5//14
f 7//18 53//17 6//16
f 8//20 54//19 7//18
f 9//22 55//21 8//20
f 10//24 56//23 9//22
f 11//26 57//25 10//24
f 12//28 58//27 11//26
f 13//30 59//29 12//28
f 14//32 60//31 13//30
f 15//34 61//33 14//32
f 16//36 62//35 15//34
f 17//38 63//37 16//36
f 18//40 64//39 17//38
f 19//42 65//41 18//40
f 20//44 66//43 19//42
f 21//46 67//45 20//44
f 22//48 68//47 21//46
f 23//50 69//49 22//48
f 24//52 70//51 23//50
f 25//54 71//53 24//52
f 26//99 72//55 25//54
f 27//57 73//56 26//56
f 28//61 74//60 27//58
f 29//63 75//62 28//61
f 30//65 76//64 29//63
f 31//67 77//66 30//65
f 32//69 78//68 31//67
f 33//71 79//70 32//69
f 34//73 80//72 33//71
f 35//75 81//74 34//73
f 36//77 82//76 35//75
f 37//79 83//78 36//77
f 38//81 84//80 37//79
f 39//83 85//82 38//81
f 40//85 86//84 39//83
f 41//87 87//86 40//85
f 42//89 88//88 41//87
f 43//91 89//90 42//89
f 44//93 90//92 43//91
f 45//95 91//94 44//93
f 46//100 92//96 45//95
f 1//101 47//97 46//97
f 4//2 3//1 46//1
f 5//2 4//2 46//1
f 6//2 5//2 46//1
f 7//2 6//2 46//1
f 8//2 7//2 46//1
f 9//2 8//2 46//1
f 10//2 9//2 46//1
f 11//2 10//2 46//1
f 12//2 11//2 46//1
f 13//2 12//2 46//1
f 46//1 45//2 14//2
f 34//2 15//2 14//2
f 31//2 16//2 15//2
f 31//2 30//2 17//1
f 18//2 17//1 30//2
f 30//2 29//2 19//2
f 26//2 21//2 20//2
f 21//2 24//2 23//2
f 21//2 26//2 25//2
f 27//2 26//2 19//2
f 19//2 29//2 28//2
f 15//2 33//102 32//2
f 15//2 34//2 33//102
f 14//2 36//102 35//2
f 14//2 37//102 36//102
f 14//2 38//102 37//102
f 14//2 39//102 38//102
f 14//2 40//102 39//102
f 14//2 41//102 40//102
f 14//2 42//102 41//102
f 14//2 43//102 42//102
f 14//2 44//102 43//102
f 14//2 45//2 44//102
f 90//3 91//3 60//4
f 89//3 90//3 60//4
f 88//3 89//3 60//4
f 87//3 88//3 60//4
f 86//3 87//3 60//4
f 85//3 86//3 60//4
f 84//3 85//3 60//4
f 83//3 84//3 60//4
f 82//3 83//3 60//4
f 81//3 82//3 60//4
f 60//4 61//4 80//3
f 79//3 80//3 61//4
f 78//3 79//3 61//4
f 61//4 62//3 77//3
f 63//4 76//3 77//3
f 65//3 75//3 76//3
f 74//3 75//3 65//3
f 65//3 72//3 73//3
f 67//3 70//3 71//3
f 67//3 68//103 69//3
f 66//3 67//3 72//3
f 76//3 63//4 64//3
f 92//3 58//104 59//3
f 92//3 57//104 58//104
f 92//3 56//104 57//104
f 92//3 55//104 56//104
f 92//3 54//104 55//104
f 92//3 53//104 54//104
f 92//3 52//104 53//104
f 92//3 51//104 52//104
f 92//3 50//104 51//104
f 92//3 49//4 50//104
f 49//4 92//3 47//3
f 13//2 46//1 14//2
f 35//2 34//2 14//2
f 32//2 31//2 15//2
f 16//2 31//2 17//1
f 18//2 30//2 19//2
f 19//2 26//2 20//2
f 22//105 21//2 23//2
f 24//2 21//2 25//2
f 28//2 27//2 19//2
f 81//3 60//4 80//3
f 78//3 61//4 77//3
f 62//3 63//4 77//3
f 64//3 65//3 76//3
f 74//3 65//3 73//3
f 72//3 67//3 71//3
f 70//3 67//3 69//3
f 65//3 66//3 72//3
f 48//3 49//4 47//3
f 2//2 1//2 3//1
f 59//3 60//4 92//3

