# WaveFront *.obj file (generated by Cinema 4D)

v -0.250000 0.286133 0.000000
v -0.249708 0.291500 0.000000
v -0.248831 0.296820 0.000000
v -0.247370 0.302094 0.000000
v -0.245325 0.307320 0.000000
v -0.242695 0.312500 0.000000
v -0.238586 0.318909 0.000000
v -0.233564 0.325244 0.000000
v -0.226333 0.332750 0.000000
v -0.216234 0.341374 0.000000
v -0.204346 0.349854 0.000000
v -0.189443 0.358694 0.000000
v -0.173952 0.365997 0.000000
v -0.157874 0.371763 0.000000
v -0.141208 0.375991 0.000000
v -0.123955 0.378682 0.000000
v -0.112874 0.379583 0.000000
v -0.101562 0.379883 0.000000
v -0.087175 0.379203 0.000000
v -0.062762 0.375818 0.000000
v -0.031672 0.368998 0.000000
v 0.004395 0.358887 0.000000
v 0.065170 0.342728 0.000000
v 0.088926 0.338730 0.000000
v 0.095889 0.338101 0.000000
v 0.102051 0.337891 0.000000
v 0.111832 0.338341 0.000000
v 0.123060 0.339923 0.000000
v 0.134525 0.342644 0.000000
v 0.147543 0.347003 0.000000
v 0.156830 0.350891 0.000000
v 0.166260 0.355469 0.000000
v 0.190933 0.367134 0.000000
v 0.201590 0.371015 0.000000
v 0.207304 0.372477 0.000000
v 0.209744 0.372871 0.000000
v 0.212402 0.373047 0.000000
v 0.217054 0.372822 0.000000
v 0.220827 0.372271 0.000000
v 0.224404 0.371390 0.000000
v 0.227234 0.370403 0.000000
v 0.229927 0.369187 0.000000
v 0.232484 0.367741 0.000000
v 0.234904 0.366066 0.000000
v 0.237187 0.364161 0.000000
v 0.239746 0.361572 0.000000
v 0.242059 0.358709 0.000000
v 0.244077 0.355629 0.000000
v 0.245800 0.352330 0.000000
v 0.247227 0.348813 0.000000
v 0.248359 0.345078 0.000000
v 0.249307 0.340445 0.000000
v 0.249799 0.336238 0.000000
v 0.250000 0.331055 0.000000
v 0.249709 0.325539 0.000000
v 0.248837 0.320086 0.000000
v 0.247384 0.314695 0.000000
v 0.245350 0.309367 0.000000
v 0.242734 0.304102 0.000000
v 0.238647 0.297607 0.000000
v 0.233652 0.291211 0.000000
v 0.226459 0.283664 0.000000
v 0.216415 0.275037 0.000000
v 0.204590 0.266602 0.000000
v 0.189784 0.257833 0.000000
v 0.174427 0.250589 0.000000
v 0.158521 0.244870 0.000000
v 0.142065 0.240677 0.000000
v 0.125059 0.238008 0.000000
v 0.114150 0.237114 0.000000
v 0.103027 0.236816 0.000000
v 0.086377 0.237656 0.000000
v 0.061082 0.241259 0.000000
v 0.031660 0.247701 0.000000
v -0.004639 0.257812 0.000000
v -0.067226 0.274366 0.000000
v -0.088779 0.277969 0.000000
v -0.095583 0.278599 0.000000
v -0.101562 0.278809 0.000000
v -0.111350 0.278352 0.000000
v -0.122600 0.276748 0.000000
v -0.134103 0.273989 0.000000
v -0.147181 0.269570 0.000000
v -0.156522 0.265627 0.000000
v -0.166016 0.260986 0.000000
v -0.191745 0.248753 0.000000
v -0.202114 0.244989 0.000000
v -0.206968 0.243742 0.000000
v -0.209346 0.243342 0.000000
v -0.211914 0.243164 0.000000
v -0.216692 0.243389 0.000000
v -0.220560 0.243940 0.000000
v -0.224216 0.244821 0.000000
v -0.227661 0.246033 0.000000
v -0.230371 0.247295 0.000000
v -0.232935 0.248787 0.000000
v -0.235352 0.250508 0.000000
v -0.237622 0.252458 0.000000
v -0.239746 0.254639 0.000000
v -0.242059 0.257516 0.000000
v -0.244077 0.260639 0.000000
v -0.245800 0.264008 0.000000
v -0.247227 0.267623 0.000000
v -0.248359 0.271484 0.000000
v -0.249307 0.276300 0.000000
v -0.249799 0.280695 0.000000
v -0.250000 0.286133 -0.400000
v -0.249708 0.291500 -0.400000
v -0.248831 0.296820 -0.400000
v -0.247370 0.302094 -0.400000
v -0.245325 0.307320 -0.400000
v -0.242695 0.312500 -0.400000
v -0.238586 0.318909 -0.400000
v -0.233564 0.325244 -0.400000
v -0.226333 0.332750 -0.400000
v -0.216234 0.341374 -0.400000
v -0.204346 0.349854 -0.400000
v -0.189443 0.358694 -0.400000
v -0.173952 0.365997 -0.400000
v -0.157874 0.371763 -0.400000
v -0.141208 0.375991 -0.400000
v -0.123955 0.378682 -0.400000
v -0.112874 0.379583 -0.400000
v -0.101562 0.379883 -0.400000
v -0.087175 0.379203 -0.400000
v -0.062762 0.375818 -0.400000
v -0.031672 0.368998 -0.400000
v 0.004395 0.358887 -0.400000
v 0.065170 0.342728 -0.400000
v 0.088926 0.338730 -0.400000
v 0.095889 0.338101 -0.400000
v 0.102051 0.337891 -0.400000
v 0.111832 0.338341 -0.400000
v 0.123060 0.339923 -0.400000
v 0.134525 0.342644 -0.400000
v 0.147543 0.347003 -0.400000
v 0.156830 0.350891 -0.400000
v 0.166260 0.355469 -0.400000
v 0.190933 0.367134 -0.400000
v 0.201590 0.371015 -0.400000
v 0.207304 0.372477 -0.400000
v 0.209744 0.372871 -0.400000
v 0.212402 0.373047 -0.400000
v 0.217054 0.372822 -0.400000
v 0.220827 0.372271 -0.400000
v 0.224404 0.371390 -0.400000
v 0.227234 0.370403 -0.400000
v 0.229927 0.369187 -0.400000
v 0.232484 0.367741 -0.400000
v 0.234904 0.366066 -0.400000
v 0.237187 0.364161 -0.400000
v 0.239746 0.361572 -0.400000
v 0.242059 0.358709 -0.400000
v 0.244077 0.355629 -0.400000
v 0.245800 0.352330 -0.400000
v 0.247227 0.348813 -0.400000
v 0.248359 0.345078 -0.400000
v 0.249307 0.340445 -0.400000
v 0.249799 0.336238 -0.400000
v 0.250000 0.331055 -0.400000
v 0.249709 0.325539 -0.400000
v 0.248837 0.320086 -0.400000
v 0.247384 0.314695 -0.400000
v 0.245350 0.309367 -0.400000
v 0.242734 0.304102 -0.400000
v 0.238647 0.297607 -0.400000
v 0.233652 0.291211 -0.400000
v 0.226459 0.283664 -0.400000
v 0.216415 0.275037 -0.400000
v 0.204590 0.266602 -0.400000
v 0.189784 0.257833 -0.400000
v 0.174427 0.250589 -0.400000
v 0.158521 0.244870 -0.400000
v 0.142065 0.240677 -0.400000
v 0.125059 0.238008 -0.400000
v 0.114150 0.237114 -0.400000
v 0.103027 0.236816 -0.400000
v 0.086377 0.237656 -0.400000
v 0.061082 0.241259 -0.400000
v 0.031660 0.247701 -0.400000
v -0.004639 0.257812 -0.400000
v -0.067226 0.274366 -0.400000
v -0.088779 0.277969 -0.400000
v -0.095583 0.278599 -0.400000
v -0.101562 0.278809 -0.400000
v -0.111350 0.278352 -0.400000
v -0.122600 0.276748 -0.400000
v -0.134103 0.273989 -0.400000
v -0.147181 0.269570 -0.400000
v -0.156522 0.265627 -0.400000
v -0.166016 0.260986 -0.400000
v -0.191745 0.248753 -0.400000
v -0.202114 0.244989 -0.400000
v -0.206968 0.243742 -0.400000
v -0.209346 0.243342 -0.400000
v -0.211914 0.243164 -0.400000
v -0.216692 0.243389 -0.400000
v -0.220560 0.243940 -0.400000
v -0.224216 0.244821 -0.400000
v -0.227661 0.246033 -0.400000
v -0.230371 0.247295 -0.400000
v -0.232935 0.248787 -0.400000
v -0.235352 0.250508 -0.400000
v -0.237622 0.252458 -0.400000
v -0.239746 0.254639 -0.400000
v -0.242059 0.257516 -0.400000
v -0.244077 0.260639 -0.400000
v -0.245800 0.264008 -0.400000
v -0.247227 0.267623 -0.400000
v -0.248359 0.271484 -0.400000
v -0.249307 0.276300 -0.400000
v -0.249799 0.280695 -0.400000
# 212 vertices

vn 0.000000 0.000000 1.000000
vn 0.000000 0.000000 -1.000000
vn -0.999713 0.023950 0.000000
vn -0.999979 -0.006508 0.000000
vn -0.995892 0.090547 0.000000
vn -0.991946 0.126663 0.000000
vn -0.980278 0.197622 0.000000
vn -0.972603 0.232472 0.000000
vn -0.953998 0.299813 0.000000
vn -0.943163 0.332330 0.000000
vn -0.919001 0.394254 0.000000
vn -0.905798 0.423709 0.000000
vn -0.876036 0.482247 0.000000
vn -0.859406 0.511294 0.000000
vn -0.823360 0.567520 0.000000
vn -0.803946 0.594702 0.000000
vn -0.763276 0.646072 0.000000
vn -0.742081 0.670310 0.000000
vn -0.697285 0.716794 0.000000
vn -0.673673 0.739029 0.000000
vn -0.627017 0.779005 0.000000
vn -0.604107 0.796903 0.000000
vn -0.557641 0.830082 0.000000
vn -0.534118 0.845410 0.000000
vn -0.482757 0.875754 0.000000
vn -0.454811 0.890588 0.000000
vn -0.397219 0.917724 0.000000
vn -0.367560 0.930000 0.000000
vn -0.307320 0.951606 0.000000
vn -0.276742 0.960944 0.000000
vn -0.215514 0.976501 0.000000
vn -0.184876 0.982762 0.000000
vn -0.129812 0.991539 0.000000
vn -0.105445 0.994425 0.000000
vn -0.062887 0.998021 0.000000
vn -0.044717 0.999000 0.000000
vn -0.001951 0.999998 0.000000
vn 0.022653 0.999743 0.000000
vn 0.077331 0.997006 0.000000
vn 0.107390 0.994217 0.000000
vn 0.163079 0.986613 0.000000
vn 0.188740 0.982027 0.000000
vn 0.232907 0.972499 0.000000
vn 0.251480 0.967862 0.000000
vn 0.265625 0.964076 0.000000
vn 0.261289 0.965261 0.000000
vn 0.226833 0.973934 0.000000
vn 0.196470 0.980510 0.000000
vn 0.140753 0.990045 0.000000
vn 0.115453 0.993313 0.000000
vn 0.071438 0.997445 0.000000
vn 0.052751 0.998608 0.000000
vn 0.007388 0.999973 0.000000
vn -0.019300 0.999814 0.000000
vn -0.077221 0.997014 0.000000
vn -0.108441 0.994103 0.000000
vn -0.170152 0.985418 0.000000
vn -0.200645 0.979664 0.000000
vn -0.260029 0.965601 0.000000
vn -0.288934 0.957349 0.000000
vn -0.340642 0.940193 0.000000
vn -0.363542 0.931578 0.000000
vn -0.403168 0.915126 0.000000
vn -0.419993 0.907527 0.000000
vn -0.433591 0.901110 0.000000
vn -0.430507 0.902587 0.000000
vn -0.399392 0.916780 0.000000
vn -0.370962 0.928648 0.000000
vn -0.311128 0.950368 0.000000
vn -0.279677 0.960094 0.000000
vn -0.218612 0.975812 0.000000
vn -0.189039 0.981970 0.000000
vn -0.128330 0.991732 0.000000
vn -0.097182 0.995267 0.000000
vn -0.027922 0.999610 0.000000
vn 0.010221 0.999948 0.000000
vn 0.080426 0.996761 0.000000
vn 0.112507 0.993651 0.000000
vn 0.176220 0.984351 0.000000
vn 0.207851 0.978160 0.000000
vn 0.269506 0.962999 0.000000
vn 0.299542 0.954083 0.000000
vn 0.357005 0.934102 0.000000
vn 0.384466 0.923139 0.000000
vn 0.438861 0.898555 0.000000
vn 0.465779 0.884901 0.000000
vn 0.518377 0.855152 0.000000
vn 0.544052 0.839051 0.000000
vn 0.593536 0.804807 0.000000
vn 0.617357 0.786683 0.000000
vn 0.664787 0.747033 0.000000
vn 0.688315 0.725412 0.000000
vn 0.734167 0.678969 0.000000
vn 0.756425 0.654081 0.000000
vn 0.798268 0.602302 0.000000
vn 0.817860 0.575418 0.000000
vn 0.854079 0.520144 0.000000
vn 0.870726 0.491768 0.000000
vn 0.900724 0.434392 0.000000
vn 0.914130 0.405421 0.000000
vn 0.937597 0.347725 0.000000
vn 0.947743 0.319035 0.000000
vn 0.965495 0.260422 0.000000
vn 0.973075 0.230490 0.000000
vn 0.985018 0.172451 0.000000
vn 0.989524 0.144372 0.000000
vn 0.995902 0.090440 0.000000
vn 0.997911 0.064604 0.000000
vn 0.999966 0.008295 0.000000
vn 0.999754 -0.022187 0.000000
vn 0.996137 -0.087815 0.000000
vn 0.992413 -0.122946 0.000000
vn 0.981347 -0.192245 0.000000
vn 0.974030 -0.226419 0.000000
vn 0.956189 -0.292751 0.000000
vn 0.945738 -0.324930 0.000000
vn 0.922294 -0.386490 0.000000
vn 0.909405 -0.415912 0.000000
vn 0.880169 -0.474660 0.000000
vn 0.863736 -0.503944 0.000000
vn 0.827894 -0.560885 0.000000
vn 0.808472 -0.588535 0.000000
vn 0.767552 -0.640987 0.000000
vn 0.746104 -0.665829 0.000000
vn 0.700539 -0.713614 0.000000
vn 0.676400 -0.736535 0.000000
vn 0.628507 -0.777804 0.000000
vn 0.604889 -0.796310 0.000000
vn 0.557470 -0.830197 0.000000
vn 0.533726 -0.845657 0.000000
vn 0.482398 -0.875952 0.000000
vn 0.454723 -0.890633 0.000000
vn 0.397600 -0.917559 0.000000
vn 0.368136 -0.929772 0.000000
vn 0.308181 -0.951328 0.000000
vn 0.277690 -0.960671 0.000000
vn 0.216521 -0.976278 0.000000
vn 0.185852 -0.982578 0.000000
vn 0.130647 -0.991429 0.000000
vn 0.106170 -0.994348 0.000000
vn 0.063373 -0.997990 0.000000
vn 0.045075 -0.998984 0.000000
vn 0.001054 -0.999999 0.000000
vn -0.024678 -0.999695 0.000000
vn -0.080662 -0.996742 0.000000
vn -0.110901 -0.993831 0.000000
vn -0.165400 -0.986227 0.000000
vn -0.189704 -0.981842 0.000000
vn -0.232116 -0.972688 0.000000
vn -0.250281 -0.968173 0.000000
vn -0.264136 -0.964485 0.000000
vn -0.259915 -0.965631 0.000000
vn -0.225636 -0.974212 0.000000
vn -0.195338 -0.980736 0.000000
vn -0.140730 -0.990048 0.000000
vn -0.116481 -0.993193 0.000000
vn -0.073176 -0.997319 0.000000
vn -0.054141 -0.998533 0.000000
vn -0.007881 -0.999969 0.000000
vn 0.019359 -0.999813 0.000000
vn 0.078172 -0.996940 0.000000
vn 0.109733 -0.993961 0.000000
vn 0.172011 -0.985095 0.000000
vn 0.202732 -0.979234 0.000000
vn 0.262445 -0.964947 0.000000
vn 0.291454 -0.956585 0.000000
vn 0.343268 -0.939237 0.000000
vn 0.366174 -0.930547 0.000000
vn 0.405759 -0.913980 0.000000
vn 0.422541 -0.906344 0.000000
vn 0.435917 -0.899987 0.000000
vn 0.432656 -0.901559 0.000000
vn 0.400409 -0.916336 0.000000
vn 0.370994 -0.928635 0.000000
vn 0.310794 -0.950477 0.000000
vn 0.280002 -0.959999 0.000000
vn 0.221331 -0.975199 0.000000
vn 0.193510 -0.981098 0.000000
vn 0.133584 -0.991038 0.000000
vn 0.101440 -0.994842 0.000000
vn 0.030523 -0.999534 0.000000
vn -0.008282 -0.999966 0.000000
vn -0.078421 -0.996920 0.000000
vn -0.109781 -0.993956 0.000000
vn -0.172279 -0.985048 0.000000
vn -0.203415 -0.979092 0.000000
vn -0.267111 -0.963666 0.000000
vn -0.299636 -0.954054 0.000000
vn -0.362308 -0.932058 0.000000
vn -0.392485 -0.919758 0.000000
vn -0.449542 -0.893259 0.000000
vn -0.476479 -0.879186 0.000000
vn -0.529152 -0.848527 0.000000
vn -0.554880 -0.831930 0.000000
vn -0.604487 -0.796615 0.000000
vn -0.628375 -0.777910 0.000000
vn -0.673789 -0.738924 0.000000
vn -0.695344 -0.718677 0.000000
vn -0.738030 -0.674768 0.000000
vn -0.759066 -0.651013 0.000000
vn -0.800472 -0.599370 0.000000
vn -0.820695 -0.571366 0.000000
vn -0.857705 -0.514142 0.000000
vn -0.874539 -0.484955 0.000000
vn -0.904557 -0.426352 0.000000
vn -0.917827 -0.396980 0.000000
vn -0.940820 -0.338906 0.000000
vn -0.950656 -0.310248 0.000000
vn -0.967693 -0.252131 0.000000
vn -0.974893 -0.222672 0.000000
vn -0.986140 -0.165918 0.000000
vn -0.990341 -0.138653 0.000000
vn -0.996246 -0.086566 0.000000
vn -0.998091 -0.061761 0.000000
vn 0.000000 0.000000 1.000000
vn 0.000000 0.000000 0.999999
vn 0.000000 0.000000 1.000000
vn 0.000000 0.000000 -1.000000
vn 0.000000 0.000000 -0.999999
vn 0.000000 0.000000 0.999999
vn 0.000000 0.000000 -0.999999
# 221 normals

o ~
usemtl default
f 2//1 1//1 86//1
f 192//2 211//2 212//2
f 108//5 107//4 1//3
f 109//7 108//5 2//6
f 110//9 109//7 3//8
f 111//11 110//9 4//10
f 112//13 111//11 5//12
f 113//15 112//13 6//14
f 114//17 113//15 7//16
f 115//19 114//17 8//18
f 116//21 115//19 9//20
f 117//23 116//21 10//22
f 118//25 117//23 11//24
f 119//27 118//25 12//26
f 120//29 119//27 13//28
f 121//31 120//29 14//30
f 122//33 121//31 15//32
f 123//35 122//33 16//34
f 124//37 123//35 17//36
f 125//39 124//37 18//38
f 126//41 125//39 19//40
f 127//43 126//41 20//42
f 128//45 127//43 21//44
f 129//47 128//45 22//46
f 130//49 129//47 23//48
f 131//51 130//49 24//50
f 132//53 131//51 25//52
f 133//55 132//53 26//54
f 134//57 133//55 27//56
f 135//59 134//57 28//58
f 136//61 135//59 29//60
f 137//63 136//61 30//62
f 138//65 137//63 31//64
f 139//67 138//65 32//66
f 140//69 139//67 33//68
f 141//71 140//69 34//70
f 142//73 141//71 35//72
f 143//75 142//73 36//74
f 144//77 143//75 37//76
f 145//79 144//77 38//78
f 146//81 145//79 39//80
f 147//83 146//81 40//82
f 148//85 147//83 41//84
f 149//87 148//85 42//86
f 150//89 149//87 43//88
f 151//91 150//89 44//90
f 152//93 151//91 45//92
f 153//95 152//93 46//94
f 154//97 153//95 47//96
f 155//99 154//97 48//98
f 156//101 155//99 49//100
f 157//103 156//101 50//102
f 158//105 157//103 51//104
f 159//107 158//105 52//106
f 160//109 159//107 53//108
f 161//111 160//109 54//110
f 162//113 161//111 55//112
f 163//115 162//113 56//114
f 164//117 163//115 57//116
f 165//119 164//117 58//118
f 166//121 165//119 59//120
f 167//123 166//121 60//122
f 168//125 167//123 61//124
f 169//127 168//125 62//126
f 170//129 169//127 63//128
f 171//131 170//129 64//130
f 172//133 171//131 65//132
f 173//135 172//133 66//134
f 174//137 173//135 67//136
f 175//139 174//137 68//138
f 176//141 175//139 69//140
f 177//143 176//141 70//142
f 178//145 177//143 71//144
f 179//147 178//145 72//146
f 180//149 179//147 73//148
f 181//151 180//149 74//150
f 182//153 181//151 75//152
f 183//155 182//153 76//154
f 184//157 183//155 77//156
f 185//159 184//157 78//158
f 186//161 185//159 79//160
f 187//163 186//161 80//162
f 188//165 187//163 81//164
f 189//167 188//165 82//166
f 190//169 189//167 83//168
f 191//171 190//169 84//170
f 192//173 191//171 85//172
f 193//175 192//173 86//174
f 194//177 193//175 87//176
f 195//179 194//177 88//178
f 196//181 195//179 89//180
f 197//183 196//181 90//182
f 198//185 197//183 91//184
f 199//187 198//185 92//186
f 200//189 199//187 93//188
f 201//191 200//189 94//190
f 202//193 201//191 95//192
f 203//195 202//193 96//194
f 204//197 203//195 97//196
f 205//199 204//197 98//198
f 206//201 205//199 99//200
f 207//203 206//201 100//202
f 208//205 207//203 101//204
f 209//207 208//205 102//206
f 210//209 209//207 103//208
f 211//211 210//209 104//210
f 212//213 211//211 105//212
f 107//4 212//213 106//214
f 2//6 108//5 1//3
f 3//8 109//7 2//6
f 4//10 110//9 3//8
f 5//12 111//11 4//10
f 6//14 112//13 5//12
f 7//16 113//15 6//14
f 8//18 114//17 7//16
f 9//20 115//19 8//18
f 10//22 116//21 9//20
f 11//24 117//23 10//22
f 12//26 118//25 11//24
f 13//28 119//27 12//26
f 14//30 120//29 13//28
f 15//32 121//31 14//30
f 16//34 122//33 15//32
f 17//36 123//35 16//34
f 18//38 124//37 17//36
f 19//40 125//39 18//38
f 20//42 126//41 19//40
f 21//44 127//43 20//42
f 22//46 128//45 21//44
f 23//48 129//47 22//46
f 24//50 130//49 23//48
f 25//52 131//51 24//50
f 26//54 132//53 25//52
f 27//56 133//55 26//54
f 28//58 134//57 27//56
f 29//60 135//59 28//58
f 30//62 136//61 29//60
f 31//64 137//63 30//62
f 32//66 138//65 31//64
f 33//68 139//67 32//66
f 34//70 140//69 33//68
f 35//72 141//71 34//70
f 36//74 142//73 35//72
f 37//76 143//75 36//74
f 38//78 144//77 37//76
f 39//80 145//79 38//78
f 40//82 146//81 39//80
f 41//84 147//83 40//82
f 42//86 148//85 41//84
f 43//88 149//87 42//86
f 44//90 150//89 43//88
f 45//92 151//91 44//90
f 46//94 152//93 45//92
f 47//96 153//95 46//94
f 48//98 154//97 47//96
f 49//100 155//99 48//98
f 50//102 156//101 49//100
f 51//104 157//103 50//102
f 52//106 158//105 51//104
f 53//108 159//107 52//106
f 54//110 160//109 53//108
f 55//112 161//111 54//110
f 56//114 162//113 55//112
f 57//116 163//115 56//114
f 58//118 164//117 57//116
f 59//120 165//119 58//118
f 60//122 166//121 59//120
f 61//124 167//123 60//122
f 62//126 168//125 61//124
f 63//128 169//127 62//126
f 64//130 170//129 63//128
f 65//132 171//131 64//130
f 66//134 172//133 65//132
f 67//136 173//135 66//134
f 68//138 174//137 67//136
f 69//140 175//139 68//138
f 70//142 176//141 69//140
f 71//144 177//143 70//142
f 72//146 178//145 71//144
f 73//148 179//147 72//146
f 74//150 180//149 73//148
f 75//152 181//151 74//150
f 76//154 182//153 75//152
f 77//156 183//155 76//154
f 78//158 184//157 77//156
f 79//160 185//159 78//158
f 80//162 186//161 79//160
f 81//164 187//163 80//162
f 82//166 188//165 81//164
f 83//168 189//167 82//166
f 84//170 190//169 83//168
f 85//172 191//171 84//170
f 86//174 192//173 85//172
f 87//176 193//175 86//174
f 88//178 194//177 87//176
f 89//180 195//179 88//178
f 90//182 196//181 89//180
f 91//184 197//183 90//182
f 92//186 198//185 91//184
f 93//188 199//187 92//186
f 94//190 200//189 93//188
f 95//192 201//191 94//190
f 96//194 202//193 95//192
f 97//196 203//195 96//194
f 98//198 204//197 97//196
f 99//200 205//199 98//198
f 100//202 206//201 99//200
f 101//204 207//203 100//202
f 102//206 208//205 101//204
f 103//208 209//207 102//206
f 104//210 210//209 103//208
f 105//212 211//211 104//210
f 106//214 212//213 105//212
f 1//3 107//4 106//214
f 3//1 2//1 86//1
f 4//215 3//1 86//1
f 85//1 5//1 4//215
f 6//1 5//1 85//1
f 7//1 6//1 85//1
f 8//1 7//1 85//1
f 9//1 8//1 85//1
f 10//1 9//1 85//1
f 85//1 84//1 11//1
f 84//1 83//1 12//1
f 83//1 82//1 13//1
f 14//1 13//1 82//1
f 81//1 15//1 14//1
f 81//1 80//1 16//1
f 17//1 16//1 80//1
f 79//215 18//215 17//1
f 78//1 19//1 18//215
f 77//1 20//215 19//1
f 76//1 21//1 20//215
f 76//1 75//1 22//1
f 75//1 74//1 23//1
f 73//215 24//1 23//1
f 72//1 25//1 24//1
f 71//215 26//1 25//1
f 70//1 27//1 26//1
f 69//215 68//1 28//1
f 67//1 29//1 28//1
f 66//215 65//1 30//1
f 65//1 64//1 31//1
f 63//1 32//1 31//1
f 62//1 33//1 32//1
f 34//1 33//1 62//1
f 62//1 61//1 35//1
f 54//1 36//1 35//1
f 37//1 36//1 54//1
f 38//1 37//1 54//1
f 39//1 38//1 54//1
f 40//1 39//1 54//1
f 41//1 40//1 54//1
f 54//1 53//1 42//1
f 52//1 43//1 42//1
f 52//1 51//1 44//1
f 46//1 45//216 44//1
f 48//1 47//1 44//1
f 50//1 49//1 44//1
f 35//1 56//217 55//1
f 35//1 57//217 56//217
f 35//1 58//217 57//217
f 35//1 59//217 58//217
f 35//1 60//217 59//217
f 35//1 61//1 60//217
f 29//1 67//1 66//215
f 27//1 70//1 69//215
f 86//1 105//1 104//1
f 87//1 92//1 91//1
f 89//1 88//1 91//1
f 87//1 94//1 93//1
f 87//1 96//1 95//1
f 97//1 96//1 87//1
f 98//1 97//1 87//1
f 99//1 98//1 87//1
f 100//1 99//1 87//1
f 101//1 100//1 87//1
f 102//1 101//1 87//1
f 103//1 102//1 87//1
f 104//1 103//1 87//1
f 106//1 105//1 86//1
f 1//1 106//1 86//1
f 210//2 211//2 192//2
f 193//2 209//2 210//2
f 193//2 208//2 209//2
f 193//2 207//2 208//2
f 193//2 206//2 207//2
f 193//2 205//2 206//2
f 193//2 204//2 205//2
f 193//2 203//2 204//2
f 193//2 202//2 203//2
f 201//2 202//2 193//2
f 199//2 200//2 193//2
f 197//2 198//2 193//2
f 197//2 194//2 195//2
f 110//218 111//2 191//2
f 117//2 190//2 191//2
f 118//2 189//2 190//2
f 119//2 188//2 189//2
f 120//2 121//2 187//2
f 122//2 186//2 187//2
f 123//2 124//218 185//218
f 124//218 125//2 184//2
f 125//2 126//218 183//2
f 126//218 127//2 182//2
f 127//2 128//2 181//2
f 129//2 180//2 181//2
f 129//2 130//2 179//218
f 130//2 131//2 178//2
f 131//2 132//2 177//218
f 132//2 133//2 176//2
f 175//218 176//2 133//2
f 134//2 174//2 175//218
f 134//2 135//2 173//2
f 172//218 173//2 135//2
f 136//2 171//2 172//218
f 137//2 170//2 171//2
f 137//2 138//2 169//2
f 138//2 139//2 168//218
f 150//2 167//2 168//218
f 166//2 167//2 150//2
f 165//2 166//2 150//2
f 164//2 165//2 150//2
f 163//2 164//2 150//2
f 150//2 161//2 162//2
f 150//2 159//2 160//2
f 150//2 157//2 158//2
f 150//2 155//2 156//2
f 150//2 153//2 154//2
f 150//2 151//219 152//2
f 168//218 148//2 149//2
f 168//218 147//2 148//2
f 168//218 146//2 147//2
f 168//218 145//2 146//2
f 168//218 144//2 145//2
f 168//218 143//2 144//2
f 168//218 142//2 143//2
f 168//218 141//2 142//2
f 168//218 140//2 141//2
f 168//218 139//2 140//2
f 186//2 122//2 123//2
f 188//2 119//2 120//2
f 191//2 115//2 116//2
f 191//2 114//2 115//2
f 191//2 113//2 114//2
f 191//2 112//2 113//2
f 191//2 111//2 112//2
f 192//2 109//2 110//218
f 192//2 108//2 109//2
f 192//2 107//2 108//2
f 192//2 212//2 107//2
f 86//1 85//1 4//215
f 10//1 85//1 11//1
f 11//1 84//1 12//1
f 12//1 83//1 13//1
f 82//1 81//1 14//1
f 15//1 81//1 16//1
f 80//1 79//215 17//1
f 79//215 78//1 18//215
f 78//1 77//1 19//1
f 77//1 76//1 20//215
f 21//1 76//1 22//1
f 22//1 75//1 23//1
f 74//1 73//215 23//1
f 73//215 72//1 24//1
f 72//1 71//215 25//1
f 71//215 70//1 26//1
f 27//1 69//215 28//1
f 68//1 67//1 28//1
f 29//1 66//215 30//1
f 30//1 65//1 31//1
f 64//1 63//1 31//1
f 63//1 62//1 32//1
f 34//1 62//1 35//1
f 55//1 54//1 35//1
f 41//1 54//1 42//1
f 53//1 52//1 42//1
f 43//1 52//1 44//1
f 47//1 46//1 44//1
f 49//1 48//1 44//1
f 51//1 50//1 44//1
f 87//1 86//1 104//1
f 88//1 87//1 91//1
f 90//220 89//1 91//1
f 92//1 87//1 93//1
f 94//1 87//1 95//1
f 193//2 210//2 192//2
f 200//2 201//2 193//2
f 198//2 199//2 193//2
f 194//2 197//2 193//2
f 196//221 197//2 195//2
f 192//2 110//218 191//2
f 116//2 117//2 191//2
f 117//2 118//2 190//2
f 118//2 119//2 189//2
f 188//2 120//2 187//2
f 121//2 122//2 187//2
f 186//2 123//2 185//218
f 185//218 124//218 184//2
f 184//2 125//2 183//2
f 183//2 126//218 182//2
f 182//2 127//2 181//2
f 128//2 129//2 181//2
f 180//2 129//2 179//218
f 179//218 130//2 178//2
f 178//2 131//2 177//218
f 177//218 132//2 176//2
f 133//2 134//2 175//218
f 174//2 134//2 173//2
f 135//2 136//2 172//218
f 136//2 137//2 171//2
f 170//2 137//2 169//2
f 169//2 138//2 168//218
f 149//2 150//2 168//218
f 163//2 150//2 162//2
f 161//2 150//2 160//2
f 159//2 150//2 158//2
f 157//2 150//2 156//2
f 155//2 150//2 154//2
f 153//2 150//2 152//2

