<?xml version="1.0" encoding="UTF-8"?>
<svg width="45px" height="44px" viewBox="0 0 45 44" version="1.1" xmlns="http://www.w3.org/2000/svg" xmlns:xlink="http://www.w3.org/1999/xlink">
    <title>stop</title>
    <defs>
        <linearGradient x1="50%" y1="0%" x2="50%" y2="100%" id="linearGradient-1">
            <stop stop-color="#D2D2D2" offset="0%"></stop>
            <stop stop-color="#535353" offset="100%"></stop>
        </linearGradient>
        <path d="M20.3198242,0 C9.09751562,0 0,9.09751562 0,20.3198242 C0,31.5421328 9.09751562,40.6396484 20.3198242,40.6396484 C31.5421328,40.6396484 40.6396484,31.5421328 40.6396484,20.3198242 C40.6396484,9.09751562 31.5421328,0 20.3198242,0 Z" id="path-2"></path>
        <filter x="-4.9%" y="-2.5%" width="109.8%" height="109.8%" filterUnits="objectBoundingBox" id="filter-3">
            <feOffset dx="0" dy="1" in="SourceAlpha" result="shadowOffsetOuter1"></feOffset>
            <feGaussianBlur stdDeviation="0.5" in="shadowOffsetOuter1" result="shadowBlurOuter1"></feGaussianBlur>
            <feColorMatrix values="0 0 0 0 0   0 0 0 0 0   0 0 0 0 0  0 0 0 0.623934659 0" type="matrix" in="shadowBlurOuter1"></feColorMatrix>
        </filter>
        <filter x="-3.7%" y="-1.2%" width="107.4%" height="107.4%" filterUnits="objectBoundingBox" id="filter-4">
            <feOffset dx="0" dy="1" in="SourceAlpha" result="shadowOffsetInner1"></feOffset>
            <feComposite in="shadowOffsetInner1" in2="SourceAlpha" operator="arithmetic" k2="-1" k3="1" result="shadowInnerInner1"></feComposite>
            <feColorMatrix values="0 0 0 0 1   0 0 0 0 1   0 0 0 0 1  0 0 0 0.754124781 0" type="matrix" in="shadowInnerInner1"></feColorMatrix>
        </filter>
    </defs>
    <g id="stop" stroke="none" stroke-width="1" fill="none" fill-rule="evenodd">
        <g transform="translate(1.680176, 0.180176)" id="路径">
            <g fill-rule="nonzero">
                <use fill="black" fill-opacity="1" filter="url(#filter-3)" xlink:href="#path-2"></use>
                <use fill="url(#linearGradient-1)" xlink:href="#path-2"></use>
                <use fill="black" fill-opacity="1" filter="url(#filter-4)" xlink:href="#path-2"></use>
            </g>
            <path d="M20.3198242,36.8296914 C11.2017285,36.8296914 3.80995703,29.4379199 3.80995703,20.3198242 C3.80995703,11.2017285 11.2017285,3.80995703 20.3198242,3.80995703 C29.4379199,3.80995703 36.8296914,11.2017285 36.8296914,20.3198242 C36.8296914,29.4379199 29.4379199,36.8296914 20.3198242,36.8296914 Z" fill="#9B9B9B"></path>
            <polygon fill="#535353" fill-rule="nonzero" points="13.8198242 13.8198242 26.8198242 13.8198242 26.8198242 26.8001484 13.8198242 26.8198242"></polygon>
        </g>
    </g>
</svg>