<?xml version="1.0" encoding="UTF-8"?>
<svg width="24px" height="24px" viewBox="0 0 24 24" version="1.1" xmlns="http://www.w3.org/2000/svg" xmlns:xlink="http://www.w3.org/1999/xlink">
    <title>IC/OUT</title>
    <g id="IC/OUT" stroke="none" stroke-width="1" fill="none" fill-rule="evenodd">
        <g id="Out" transform="translate(0.000937, 0.000000)" fill-rule="nonzero">
            <rect id="矩形" fill="#000000" opacity="0" x="0" y="0" width="24" height="24"></rect>
            <path d="M12.7804687,14.8734375 L3.69375,14.8734375 C3.43125,14.8734375 3.26015625,14.7539062 3.21796875,14.5382812 C3.20859375,14.4960937 3.2109375,14.4492187 3.2109375,14.4070312 L3.2109375,9.67734375 C3.2109375,9.37734375 3.37265625,9.2203125 3.67734375,9.2203125 L12.7828125,9.2203125 L12.7828125,4.86796875 C12.7828125,4.67578125 12.8742187,4.52109375 13.03125,4.4625 C13.2117187,4.39453125 13.36875,4.425 13.5046875,4.56796875 C13.5820312,4.65 13.6664062,4.725 13.7460937,4.8046875 C14.7515625,5.8078125 15.7546875,6.80859375 16.7578125,7.81171875 C18.046875,9.0984375 19.3382812,10.3851562 20.6273437,11.671875 C20.8429687,11.8851562 20.8429687,12.1125 20.6320312,12.3234375 C18.7851562,14.165625 16.9382812,16.0078125 15.09375,17.85 C14.56875,18.3726562 14.0414062,18.8953125 13.5164062,19.4179687 C13.3804687,19.5539062 13.2304687,19.6125 13.0453125,19.5421875 C12.8648437,19.4742187 12.7804687,19.3335937 12.7804687,19.1109375 L12.7804687,14.8734375 Z" id="形状结合" fill="#FFFFFF"></path>
        </g>
    </g>
</svg>