<svg xmlns="http://www.w3.org/2000/svg" class="svg-icon icon eye-icon" viewBox="0 0 20 20"><path d="M9.56032 12.5C10.6579 12.5 11.5477 11.6046 11.5477 10.5C11.5477 9.39543 10.6579 8.5 9.56032 8.5C8.46273 8.5 7.57296 9.39543 7.57296 10.5C7.57296 11.6046 8.46273 12.5 9.56032 12.5Z" fill="#666666"></path><path fill-rule="evenodd" clip-rule="evenodd" d="M3 10.5L3.18602 10.7788L3.18713 10.7804L3.18923 10.7835L3.19633 10.794L3.22208 10.8314C3.24431 10.8634 3.2766 10.9092 3.31846 10.9669C3.40215 11.0821 3.52428 11.245 3.68087 11.4396C3.99344 11.8281 4.44646 12.3472 5.00815 12.8678C6.11377 13.8925 7.72279 15 9.56056 15C11.2745 15 12.7877 14.0367 13.8757 13.0819C14.9748 12.1172 15.7157 11.0942 15.8924 10.8409C16.0359 10.6353 16.0359 10.3647 15.8924 10.1591C15.7157 9.90577 14.9748 8.88281 13.8757 7.91813C12.7877 6.96329 11.2745 6 9.56056 6C7.72279 6 6.11377 7.10747 5.00815 8.13222C4.44646 8.65281 3.99344 9.17186 3.68087 9.56037C3.52428 9.75501 3.40215 9.91788 3.31846 10.0331C3.2766 10.0908 3.24431 10.1366 3.22208 10.1686L3.19633 10.206L3.18923 10.2165L3.18713 10.2196L3.18602 10.2212L3 10.5ZM4.45316 10.8104C4.35817 10.6923 4.27731 10.5874 4.21171 10.5C4.27731 10.4126 4.35817 10.3077 4.45316 10.1896C4.74398 9.82814 5.16408 9.34719 5.68132 8.86778C6.73355 7.89253 8.10557 7 9.56056 7C10.914 7 12.1976 7.77227 13.2226 8.67179C14.0201 9.37179 14.6161 10.1093 14.9094 10.5C14.6161 10.8907 14.0201 11.6282 13.2226 12.3282C12.1976 13.2277 10.914 14 9.56056 14C8.10557 14 6.73355 13.1075 5.68132 12.1322C5.16408 11.6528 4.74398 11.1719 4.45316 10.8104Z" fill="#666666"></path></svg>