# File exported by Houdini 18.5.499 (www.sidefx.com)
# 38 points
# 228 vertices
# 76 primitives
# Bounds: [-0.376620293, 0.00885534286, 0] to [0.434670925, 0.875730872, 0.199999988]
g 
v 0.167394638 0.364830256 0
v -0.126491547 0.364830256 0
v -0.126491547 0.364830256 0.199999988
v 0.167394638 0.364830256 0.199999988
v 0.0769228935 0.604906321 0
v 0.0769228935 0.604906321 0.199999988
v 0.0154256821 0.784667611 0
v 0.0295238495 0.739294171 0
v 0.044383049 0.694178939 0
v 0.0603499413 0.649439692 0
v 0.0603499413 0.649439692 0.199999988
v 0.044383049 0.694178939 0.199999988
v 0.0295238495 0.739294171 0.199999988
v 0.0154256821 0.784667611 0.199999988
v -0.0312891006 0.619097948 0
v -0.0173959732 0.659866333 0
v -0.00470495224 0.700973153 0
v 0.00597000122 0.742648602 0
v 0.00597000122 0.742648602 0.199999988
v -0.00470495224 0.700973153 0.199999988
v -0.0173959732 0.659866333 0.199999988
v -0.0312891006 0.619097948 0.199999988
v -0.0437064171 0.875730872 0
v -0.376620293 0.00885534286 0
v -0.376620293 0.00885534286 0.199999988
v -0.0437064171 0.875730872 0.199999988
v 0.0798792839 0.875730872 0
v 0.0798792839 0.875730872 0.199999988
v 0.434670925 0.00885534286 0
v 0.434670925 0.00885534286 0.199999988
v 0.30398941 0.00885534286 0
v 0.30398941 0.00885534286 0.199999988
v 0.202873707 0.271401405 0
v 0.202873707 0.271401405 0.199999988
v -0.159605503 0.271401405 0
v -0.159605503 0.271401405 0.199999988
v -0.254808426 0.00885534286 0
v -0.254808426 0.00885534286 0.199999988
vt 0 0 0
vt 0.734715998 0 0
vt -0 0.5 0
vt 0.734715998 0.5 0
vt 0.641394019 0 0
vt 0 0.5 0
vt 0.641394019 0.5 0
vt -0.474976987 0 0
vt -0.356233001 0 0
vt -0.474976987 0.5 0
vt -0.356233001 0.5 0
vt -0.237489 0 0
vt -0.237489 0.5 0
vt -0.118744001 0 0
vt -0.118744001 0.5 0
vt -0.43008399 0 0
vt -0.322562993 0 0
vt -0.43008399 0.5 0
vt -0.322562993 0.5 0
vt -0.215041995 0 0
vt -0.215041995 0.5 0
vt -0.107520998 0 0
vt -0.107520998 0.5 0
vt 0.678766012 0 0
vt 0.678766012 0.5 0
vt 2.32150888 0 0
vt 2.32150888 0.5 0
vt -0 0 0
vt 0.308964998 0 0
vt 0.308964998 0.5 0
vt 2.34167504 0 0
vt 2.34167504 0.5 0
vt 0.326705009 0 0
vt 0.326705009 0.5 0
vt 0.703361988 0 0
vt 0.703361988 0.5 0
vt 0.906198025 0 0
vt 0.906198025 0.5 0
vt 0.698185027 0 0
vt 0.698185027 0.5 0
vt 0.304529995 0 0
vt 0.304529995 0.5 0
vt -0.709583998 -1.08359504 0
vt -0.471578002 -0.427228987 0
vt -1.01411402 -1.08359504 0
vt -0.388792992 -0.193656996 0
vt -0.181831002 1.08359504 0
vt -0.150786996 0.442012012 0
vt -0.116054997 0.543932974 0
vt 0.345921993 -0.193656996 0
vt 0.434619993 -0.427228987 0
vt 1.01411402 -1.08359504 0
vt 0.687409997 -1.08359504 0
vt 0.127133995 1.08359504 0
vt 0.119741999 0.406533003 0
vt 0.0783109963 0.517867029 0
vt 0.0383940004 0.629714012 0
vt 0.00124500005 0.742501974 0
vt -0.0340010002 0.855935991 0
vt -0.0576400012 0.750889003 0
vt -0.084325999 0.646700025 0
vt 0.709583998 -1.08359504 0
vt 0.471578002 -0.427228987 0
vt 0.388792992 -0.193656996 0
vt -0.345921993 -0.193656996 0
vt 0.181831002 1.08359504 0
vt 0.150786996 0.442012012 0
vt 0.116054997 0.543932974 0
vt 0.084325999 0.646700025 0
vt 0.0576400012 0.750889003 0
vt 0.0340010002 0.855935991 0
vt -0.127133995 1.08359504 0
vt -0.00124500005 0.742501974 0
vt -0.0383940004 0.629714012 0
vt -0.0783109963 0.517867029 0
vt -0.119741999 0.406533003 0
vt -0.434619993 -0.427228987 0
vt -0.687409997 -1.08359504 0
vn 0 0.099999994 0
vn 0 0.099999994 0
vn 0 0.099999994 0
vn 0 0.099999994 0
vn 0 0.099999994 0
vn 0 0.099999994 0
vn -0.0935759991 -0.0352640003 0
vn -0.0935759991 -0.0352640003 0
vn -0.0935759991 -0.0352640003 0
vn -0.0935759991 -0.0352640003 0
vn -0.0935759991 -0.0352640003 0
vn -0.0935759991 -0.0352640003 0
vn -0.0955799967 -0.0294029992 0
vn -0.0953270048 -0.0302120019 0
vn -0.0955799967 -0.0294029992 0
vn -0.0955799967 -0.0294029992 0
vn -0.0953270048 -0.0302120019 0
vn -0.0953270048 -0.0302120019 0
vn -0.0953270048 -0.0302120019 0
vn -0.0953270048 -0.0302120019 0
vn -0.0945530012 -0.0325529985 0
vn -0.0953270048 -0.0302120019 0
vn -0.0945530012 -0.0325529985 0
vn -0.0945530012 -0.0325529985 0
vn -0.0945530012 -0.0325529985 0
vn -0.0945530012 -0.0325529985 0
vn -0.0938759893 -0.034455996 0
vn -0.0945530012 -0.0325529985 0
vn -0.0938759893 -0.034455996 0
vn -0.0938759893 -0.034455996 0
vn -0.0938759893 -0.034455996 0
vn -0.0938759893 -0.034455996 0
vn -0.0936420038 -0.0350870043 0
vn -0.0938759893 -0.034455996 0
vn -0.0936420038 -0.0350870043 0
vn -0.0936420038 -0.0350870043 0
vn 0.0944979936 -0.0327119976 0
vn 0.0949619934 -0.0313409977 0
vn 0.0944979936 -0.0327119976 0
vn 0.0944979936 -0.0327119976 0
vn 0.0949619934 -0.0313409977 0
vn 0.0949619934 -0.0313409977 0
vn 0.0949619934 -0.0313409977 0
vn 0.0949619934 -0.0313409977 0
vn 0.0962349996 -0.0271819998 0
vn 0.0949619934 -0.0313409977 0
vn 0.0962349996 -0.0271819998 0
vn 0.0962349996 -0.0271819998 0
vn 0.0962349996 -0.0271819998 0
vn 0.0962349996 -0.0271819998 0
vn 0.097341001 -0.0229080003 0
vn 0.0962349996 -0.0271819998 0
vn 0.097341001 -0.0229080003 0
vn 0.097341001 -0.0229080003 0
vn 0.097341001 -0.0229080003 0
vn 0.097341001 -0.0229080003 0
vn 0.0976670012 -0.0214760024 0
vn 0.097341001 -0.0229080003 0
vn 0.0976670012 -0.0214760024 0
vn 0.0976670012 -0.0214760024 0
vn 0.0936510041 -0.0350650027 0
vn 0.0936510041 -0.0350650027 0
vn 0.0936510041 -0.0350650027 0
vn 0.0936510041 -0.0350650027 0
vn 0.0936510041 -0.0350650027 0
vn 0.0936510041 -0.0350650027 0
vn -0.0933530033 0.0358510017 0
vn -0.0933530033 0.0358510017 0
vn -0.0933530033 0.0358510017 0
vn -0.0933530033 0.0358510017 0
vn -0.0933530033 0.0358510017 0
vn -0.0933530033 0.0358510017 0
vn 0 0.099999994 0
vn 0 0.099999994 0
vn 0 0.099999994 0
vn 0 0.099999994 0
vn 0 0.099999994 0
vn 0 0.099999994 0
vn 0.0925489962 0.0378779992 0
vn 0.0925489962 0.0378779992 0
vn 0.0925489962 0.0378779992 0
vn 0.0925489962 0.0378779992 0
vn 0.0925489962 0.0378779992 0
vn 0.0925489962 0.0378779992 0
vn 0 -0.099999994 0
vn 0 -0.099999994 0
vn 0 -0.099999994 0
vn 0 -0.099999994 0
vn 0 -0.099999994 0
vn 0 -0.099999994 0
vn -0.0933180004 -0.0359399989 0
vn -0.0933180004 -0.0359399989 0
vn -0.0933180004 -0.0359399989 0
vn -0.0933180004 -0.0359399989 0
vn -0.0933180004 -0.0359399989 0
vn -0.0933180004 -0.0359399989 0
vn 0 -0.099999994 0
vn 0 -0.099999994 0
vn 0 -0.099999994 0
vn 0 -0.099999994 0
vn 0 -0.099999994 0
vn 0 -0.099999994 0
vn 0.0940100104 -0.034088999 0
vn 0.0940100104 -0.034088999 0
vn 0.0940100104 -0.034088999 0
vn 0.0940100104 -0.034088999 0
vn 0.0940100104 -0.034088999 0
vn 0.0940100104 -0.034088999 0
vn 0 -0.099999994 0
vn 0 -0.099999994 0
vn 0 -0.099999994 0
vn 0 -0.099999994 0
vn 0 -0.099999994 0
vn 0 -0.099999994 0
vn 0 0 0.099999994
vn 0 0 0.099999994
vn 0 0 0.099999994
vn 0 0 0.099999994
vn 0 0 0.099999994
vn 0 0 0.099999994
vn 0 0 0.099999994
vn 0 0 0.099999994
vn 0 0 0.099999994
vn 0 0 0.099999994
vn 0 0 0.099999994
vn 0 0 0.099999994
vn 0 0 0.099999994
vn 0 0 0.099999994
vn 0 0 0.099999994
vn 0 0 0.099999994
vn 0 0 0.099999994
vn 0 0 0.099999994
vn 0 0 0.099999994
vn 0 0 0.099999994
vn 0 0 0.099999994
vn 0 0 0.099999994
vn 0 0 0.099999994
vn 0 0 0.099999994
vn 0 0 0.099999994
vn 0 0 0.099999994
vn 0 0 0.099999994
vn 0 0 0.099999994
vn 0 0 0.099999994
vn 0 0 0.099999994
vn 0 0 0.099999994
vn 0 0 0.099999994
vn 0 0 0.099999994
vn 0 0 0.099999994
vn 0 0 0.099999994
vn 0 0 0.099999994
vn 0 0 0.099999994
vn 0 0 0.099999994
vn 0 0 0.099999994
vn 0 0 0.099999994
vn 0 0 0.099999994
vn 0 0 0.099999994
vn 0 0 0.099999994
vn 0 0 0.099999994
vn 0 0 0.099999994
vn 0 0 0.099999994
vn 0 0 0.099999994
vn 0 0 0.099999994
vn 0 0 0.099999994
vn 0 0 0.099999994
vn 0 0 0.099999994
vn 0 0 0.099999994
vn 0 0 0.099999994
vn 0 0 0.099999994
vn 0 0 0.099999994
vn 0 0 0.099999994
vn 0 0 0.099999994
vn 0 -0 -0.099999994
vn 0 -0 -0.099999994
vn 0 -0 -0.099999994
vn 0 -0 -0.099999994
vn 0 -0 -0.099999994
vn 0 -0 -0.099999994
vn 0 -0 -0.099999994
vn 0 -0 -0.099999994
vn 0 -0 -0.099999994
vn 0 -0 -0.099999994
vn 0 -0 -0.099999994
vn 0 -0 -0.099999994
vn 0 -0 -0.099999994
vn 0 -0 -0.099999994
vn 0 -0 -0.099999994
vn 0 -0 -0.099999994
vn 0 -0 -0.099999994
vn 0 -0 -0.099999994
vn 0 -0 -0.099999994
vn 0 -0 -0.099999994
vn 0 -0 -0.099999994
vn 0 -0 -0.099999994
vn 0 -0 -0.099999994
vn 0 -0 -0.099999994
vn 0 -0 -0.099999994
vn 0 -0 -0.099999994
vn 0 -0 -0.099999994
vn 0 -0 -0.099999994
vn 0 -0 -0.099999994
vn 0 -0 -0.099999994
vn 0 -0 -0.099999994
vn 0 -0 -0.099999994
vn 0 -0 -0.099999994
vn 0 -0 -0.099999994
vn 0 -0 -0.099999994
vn 0 -0 -0.099999994
vn 0 -0 -0.099999994
vn 0 -0 -0.099999994
vn 0 -0 -0.099999994
vn 0 -0 -0.099999994
vn 0 -0 -0.099999994
vn 0 -0 -0.099999994
vn 0 -0 -0.099999994
vn 0 -0 -0.099999994
vn 0 -0 -0.099999994
vn 0 -0 -0.099999994
vn 0 -0 -0.099999994
vn 0 -0 -0.099999994
vn 0 -0 -0.099999994
vn 0 -0 -0.099999994
vn 0 -0 -0.099999994
vn 0 -0 -0.099999994
vn 0 -0 -0.099999994
vn 0 -0 -0.099999994
vn 0 -0 -0.099999994
vn 0 -0 -0.099999994
vn 0 -0 -0.099999994
g Body49
usemtl /mat/Aluminum_-_Anodized_Glossy_(Red)
f 1/1/1 2/2/2 4/3/3
f 4/3/4 2/2/5 3/4/6
f 5/1/7 1/5/8 6/6/9
f 6/6/10 1/5/11 4/7/12
f 7/8/13 8/9/14 14/10/15
f 14/10/16 8/9/17 13/11/18
f 13/11/19 8/9/20 9/12/21
f 13/11/22 9/12/23 12/13/24
f 12/13/25 9/12/26 10/14/27
f 12/13/28 10/14/29 11/15/30
f 11/15/31 10/14/32 5/1/33
f 11/15/34 5/1/35 6/6/36
f 15/16/37 16/17/38 22/18/39
f 22/18/40 16/17/41 21/19/42
f 21/19/43 16/17/44 17/20/45
f 21/19/46 17/20/47 20/21/48
f 20/21/49 17/20/50 18/22/51
f 20/21/52 18/22/53 19/23/54
f 19/23/55 18/22/56 7/1/57
f 19/23/58 7/1/59 14/6/60
f 2/1/61 15/24/62 3/6/63
f 3/6/64 15/24/65 22/25/66
f 23/1/67 24/26/68 26/6/69
f 26/6/70 24/26/71 25/27/72
f 27/28/73 23/29/74 28/3/75
f 28/3/76 23/29/77 26/30/78
f 29/28/79 27/31/80 30/3/81
f 30/3/82 27/31/83 28/32/84
f 31/1/85 29/33/86 32/6/87
f 32/6/88 29/33/89 30/34/90
f 33/1/91 31/35/92 34/6/93
f 34/6/94 31/35/95 32/36/96
f 35/1/97 33/37/98 36/6/99
f 36/6/100 33/37/101 34/38/102
f 37/1/103 35/39/104 38/6/105
f 38/6/106 35/39/107 36/40/108
f 24/1/109 37/41/110 25/6/111
f 25/6/112 37/41/113 38/42/114
g Body49
usemtl /mat/Bronze_-_Polished
f 38/43/115 36/44/116 25/45/117
f 25/45/118 36/44/119 3/46/120
f 25/45/121 3/46/122 26/47/123
f 26/47/124 3/46/125 22/48/126
f 26/47/127 22/48/128 21/49/129
f 3/46/130 36/44/131 4/50/132
f 4/50/133 36/44/134 34/51/135
f 4/50/136 34/51/137 30/52/138
f 30/52/139 34/51/140 32/53/141
f 30/52/142 28/54/143 4/50/144
f 4/50/145 28/54/146 6/55/147
f 6/55/148 28/54/149 11/56/150
f 11/56/151 28/54/152 12/57/153
f 12/57/154 28/54/155 13/58/156
f 13/58/157 28/54/158 14/59/159
f 14/59/160 28/54/161 26/47/162
f 14/59/163 26/47/164 19/60/165
f 19/60/166 26/47/167 20/61/168
f 20/61/169 26/47/170 21/49/171
f 37/62/172 24/52/173 35/63/174
f 35/63/175 24/52/176 2/64/177
f 35/63/178 2/64/179 1/65/180
f 24/52/181 23/66/182 2/64/183
f 2/64/184 23/66/185 15/67/186
f 15/67/187 23/66/188 16/68/189
f 16/68/190 23/66/191 17/69/192
f 17/69/193 23/66/194 18/70/195
f 18/70/196 23/66/197 7/71/198
f 7/71/199 23/66/200 27/72/201
f 7/71/202 27/72/203 8/73/204
f 8/73/205 27/72/206 9/74/207
f 9/74/208 27/72/209 10/75/210
f 10/75/211 27/72/212 5/76/213
f 5/76/214 27/72/215 1/65/216
f 1/65/217 27/72/218 29/45/219
f 1/65/220 29/45/221 33/77/222
f 33/77/223 29/45/224 31/78/225
f 33/77/226 35/63/227 1/65/228
