# File exported by Houdini 18.5.499 (www.sidefx.com)
# 24 points
# 132 vertices
# 44 primitives
# Bounds: [-0.31662035, 0.00885534286, 0] to [0.330284595, 0.875730872, 0.199999988]
g 
v -0.31662035 0.875730872 0
v -0.31662035 0.00885534286 0
v -0.31662035 0.00885534286 0.199999988
v -0.31662035 0.875730872 0.199999988
v 0.31017971 0.875730872 0
v 0.31017971 0.875730872 0.199999988
v 0.31017971 0.773432612 0
v 0.31017971 0.773432612 0.199999988
v -0.201904297 0.773432612 0
v -0.201904297 0.773432612 0.199999988
v -0.201904297 0.507929802 0
v -0.201904297 0.507929802 0.199999988
v 0.277657032 0.507929802 0
v 0.277657032 0.507929802 0.199999988
v 0.277657032 0.406222582 0
v 0.277657032 0.406222582 0.199999988
v -0.201904297 0.406222582 0
v -0.201904297 0.406222582 0.199999988
v -0.201904297 0.111153841 0
v -0.201904297 0.111153841 0.199999988
v 0.330284595 0.111153841 0
v 0.330284595 0.111153841 0.199999988
v 0.330284595 0.00885534286 0
v 0.330284595 0.00885534286 0.199999988
vt 0 0 0
vt 2.16718888 0 0
vt 0 0.5 0
vt 2.16718888 0.5 0
vt -0 0 0
vt 1.56699896 0 0
vt -0 0.5 0
vt 1.56699896 0.5 0
vt 0.255746007 0 0
vt 0.255746007 0.5 0
vt 1.28020895 0 0
vt 1.28020895 0.5 0
vt 0.663757026 0 0
vt 0.663757026 0.5 0
vt 1.19890201 0 0
vt 1.19890201 0.5 0
vt 0.254267991 0 0
vt 0.254267991 0.5 0
vt 0.737671971 0 0
vt 0.737671971 0.5 0
vt 1.33047104 0 0
vt 1.33047104 0.5 0
vt 1.61726105 0 0
vt 1.61726105 0.5 0
vt 1.08359504 0.808631003 0
vt 0.827848017 -0.521839976 0
vt 1.08359504 -0.808631003 0
vt 0.0901760012 -0.521839976 0
vt -1.08359504 -0.808631003 0
vt -0.164091006 -0.521839976 0
vt -0.827848971 -0.521839976 0
vt 0.827848017 0.808631003 0
vt 0.0901760012 0.677061975 0
vt -0.164091006 0.677061975 0
vt -0.827848971 0.758368015 0
vt -1.08359504 0.758368015 0
vt -0.808631003 -0.827848017 0
vt -0.808631003 -1.08359504 0
vt 0.521839976 -0.827848017 0
vt 0.808631003 -1.08359504 0
vt 0.521839976 -0.0901760012 0
vt 0.808631003 1.08359504 0
vt 0.521839976 0.164091006 0
vt 0.521839976 0.827848971 0
vt -0.758368015 1.08359504 0
vt -0.758368015 0.827848971 0
vt -0.677061975 0.164091006 0
vt -0.677061975 -0.0901760012 0
vn -0.099999994 0 0
vn -0.099999994 0 0
vn -0.099999994 0 0
vn -0.099999994 0 0
vn -0.099999994 0 0
vn -0.099999994 0 0
vn 0 0.099999994 0
vn 0 0.099999994 0
vn 0 0.099999994 0
vn 0 0.099999994 0
vn 0 0.099999994 0
vn 0 0.099999994 0
vn 0.099999994 0 0
vn 0.099999994 0 0
vn 0.099999994 0 0
vn 0.099999994 0 0
vn 0.099999994 0 0
vn 0.099999994 0 0
vn 0 -0.099999994 0
vn 0 -0.099999994 0
vn 0 -0.099999994 0
vn 0 -0.099999994 0
vn 0 -0.099999994 0
vn 0 -0.099999994 0
vn 0.099999994 0 0
vn 0.099999994 0 0
vn 0.099999994 0 0
vn 0.099999994 0 0
vn 0.099999994 0 0
vn 0.099999994 0 0
vn 0 0.099999994 0
vn 0 0.099999994 0
vn 0 0.099999994 0
vn 0 0.099999994 0
vn 0 0.099999994 0
vn 0 0.099999994 0
vn 0.099999994 0 0
vn 0.099999994 0 0
vn 0.099999994 0 0
vn 0.099999994 0 0
vn 0.099999994 0 0
vn 0.099999994 0 0
vn 0 -0.099999994 0
vn 0 -0.099999994 0
vn 0 -0.099999994 0
vn 0 -0.099999994 0
vn 0 -0.099999994 0
vn 0 -0.099999994 0
vn 0.099999994 0 0
vn 0.099999994 0 0
vn 0.099999994 0 0
vn 0.099999994 0 0
vn 0.099999994 0 0
vn 0.099999994 0 0
vn 0 0.099999994 0
vn 0 0.099999994 0
vn 0 0.099999994 0
vn 0 0.099999994 0
vn 0 0.099999994 0
vn 0 0.099999994 0
vn 0.099999994 0 0
vn 0.099999994 0 0
vn 0.099999994 0 0
vn 0.099999994 0 0
vn 0.099999994 0 0
vn 0.099999994 0 0
vn 0 -0.099999994 0
vn 0 -0.099999994 0
vn 0 -0.099999994 0
vn 0 -0.099999994 0
vn 0 -0.099999994 0
vn 0 -0.099999994 0
vn 0 0 0.099999994
vn 0 0 0.099999994
vn 0 0 0.099999994
vn 0 0 0.099999994
vn 0 0 0.099999994
vn 0 0 0.099999994
vn 0 0 0.099999994
vn 0 0 0.099999994
vn 0 0 0.099999994
vn 0 0 0.099999994
vn 0 0 0.099999994
vn 0 0 0.099999994
vn 0 0 0.099999994
vn 0 0 0.099999994
vn 0 0 0.099999994
vn 0 0 0.099999994
vn 0 0 0.099999994
vn 0 0 0.099999994
vn 0 0 0.099999994
vn 0 0 0.099999994
vn 0 0 0.099999994
vn 0 0 0.099999994
vn 0 0 0.099999994
vn 0 0 0.099999994
vn 0 0 0.099999994
vn 0 0 0.099999994
vn 0 0 0.099999994
vn 0 0 0.099999994
vn 0 0 0.099999994
vn 0 0 0.099999994
vn 0 -0 -0.099999994
vn 0 -0 -0.099999994
vn 0 -0 -0.099999994
vn 0 -0 -0.099999994
vn 0 -0 -0.099999994
vn 0 -0 -0.099999994
vn 0 -0 -0.099999994
vn 0 -0 -0.099999994
vn 0 -0 -0.099999994
vn 0 -0 -0.099999994
vn 0 -0 -0.099999994
vn 0 -0 -0.099999994
vn 0 -0 -0.099999994
vn 0 -0 -0.099999994
vn 0 -0 -0.099999994
vn 0 -0 -0.099999994
vn 0 -0 -0.099999994
vn 0 -0 -0.099999994
vn 0 -0 -0.099999994
vn 0 -0 -0.099999994
vn 0 -0 -0.099999994
vn 0 -0 -0.099999994
vn 0 -0 -0.099999994
vn 0 -0 -0.099999994
vn 0 -0 -0.099999994
vn 0 -0 -0.099999994
vn 0 -0 -0.099999994
vn 0 -0 -0.099999994
vn 0 -0 -0.099999994
vn 0 -0 -0.099999994
g Body49
usemtl /mat/Aluminum_-_Anodized_Glossy_(Red)
f 1/1/1 2/2/2 4/3/3
f 4/3/4 2/2/5 3/4/6
f 5/5/7 1/6/8 6/7/9
f 6/7/10 1/6/11 4/8/12
f 7/5/13 5/9/14 8/7/15
f 8/7/16 5/9/17 6/10/18
f 9/1/19 7/11/20 10/3/21
f 10/3/22 7/11/23 8/12/24
f 11/5/25 9/13/26 12/7/27
f 12/7/28 9/13/29 10/14/30
f 13/5/31 11/15/32 14/7/33
f 14/7/34 11/15/35 12/16/36
f 15/5/37 13/17/38 16/7/39
f 16/7/40 13/17/41 14/18/42
f 17/1/43 15/15/44 18/3/45
f 18/3/46 15/15/47 16/16/48
f 19/5/49 17/19/50 20/7/51
f 20/7/52 17/19/53 18/20/54
f 21/5/55 19/21/56 22/7/57
f 22/7/58 19/21/59 20/22/60
f 23/5/61 21/9/62 24/7/63
f 24/7/64 21/9/65 22/10/66
f 2/1/67 23/23/68 3/3/69
f 3/3/70 23/23/71 24/24/72
g Body49
usemtl /mat/Bronze_-_Polished
f 24/25/73 20/26/74 3/27/75
f 3/27/76 20/26/77 18/28/78
f 3/27/79 18/28/80 4/29/81
f 4/29/82 18/28/83 12/30/84
f 4/29/85 12/30/86 10/31/87
f 24/25/88 22/32/89 20/26/90
f 16/33/91 14/34/92 18/28/93
f 18/28/94 14/34/95 12/30/96
f 8/35/97 6/36/98 10/31/99
f 10/31/100 6/36/101 4/29/102
f 21/37/103 23/38/104 19/39/105
f 19/39/106 23/38/107 2/40/108
f 19/39/109 2/40/110 17/41/111
f 17/41/112 2/40/113 1/42/114
f 17/41/115 1/42/116 11/43/117
f 11/43/118 1/42/119 9/44/120
f 9/44/121 1/42/122 5/45/123
f 9/44/124 5/45/125 7/46/126
f 11/43/127 13/47/128 17/41/129
f 17/41/130 13/47/131 15/48/132
