# WaveFront *.obj file (generated by Autodesk ATF)

mtllib 210c3fb0-265e-486f-aefd-0faa2d266cf6.mtl

g Body49

v -160.415506 0.000000 41.856726
v -160.415506 0.000000 63.528617
v -160.415506 5.000000 63.528617
v -160.415506 5.000000 41.856726
v -145.795110 0.000000 41.856726
v -145.795110 5.000000 41.856726
v -145.795110 0.000000 44.414186
v -145.795110 5.000000 44.414186
v -157.547602 0.000000 44.414186
v -157.547602 5.000000 44.414186
v -157.547602 0.000000 51.125673
v -157.547602 5.000000 51.125673
v -147.376892 0.000000 51.125673
v -147.376892 5.000000 51.125673
v -147.376892 0.000000 53.683134
v -147.376892 5.000000 53.683134
v -157.547602 0.000000 53.683134
v -157.547602 5.000000 53.683134
v -157.547602 0.000000 63.528617
v -157.547602 5.000000 63.528617
vt 0.000000 0.000000 0.000000
vt 2.167189 0.000000 0.000000
vt 0.000000 0.500000 0.000000
vt 2.167189 0.500000 0.000000
vt -0.000000 0.000000 0.000000
vt 1.462040 0.000000 0.000000
vt -0.000000 0.500000 0.000000
vt 1.462040 0.500000 0.000000
vt -0.000000 0.000000 0.000000
vt 0.255746 0.000000 0.000000
vt -0.000000 0.500000 0.000000
vt 0.255746 0.500000 0.000000
vt 0.000000 0.000000 0.000000
vt 1.175249 0.000000 0.000000
vt 0.000000 0.500000 0.000000
vt 1.175249 0.500000 0.000000
vt -0.000000 0.000000 0.000000
vt 0.671149 0.000000 0.000000
vt -0.000000 0.500000 0.000000
vt 0.671149 0.500000 0.000000
vt -0.000000 0.000000 0.000000
vt 1.017071 0.000000 0.000000
vt -0.000000 0.500000 0.000000
vt 1.017071 0.500000 0.000000
vt -0.000000 0.000000 0.000000
vt 0.255746 0.000000 0.000000
vt -0.000000 0.500000 0.000000
vt 0.255746 0.500000 0.000000
vt 0.000000 0.000000 0.000000
vt 1.017071 0.000000 0.000000
vt 0.000000 0.500000 0.000000
vt 1.017071 0.500000 0.000000
vt -0.000000 0.000000 0.000000
vt 0.984548 0.000000 0.000000
vt -0.000000 0.500000 0.000000
vt 0.984548 0.500000 0.000000
vt 0.000000 0.000000 0.000000
vt 0.286790 0.000000 0.000000
vt 0.000000 0.500000 0.000000
vt 0.286790 0.500000 0.000000
vt 1.083595 -0.444229 0.000000
vt 0.099046 -0.444229 0.000000
vt 1.083595 -0.731020 0.000000
vt -1.083595 -0.731020 0.000000
vt -0.156700 -0.444229 0.000000
vt -0.827849 -0.444229 0.000000
vt 0.099046 0.572842 0.000000
vt -0.156700 0.572842 0.000000
vt -0.827849 0.731020 0.000000
vt -1.083595 0.731020 0.000000
vt 0.444229 -1.083595 0.000000
vt 0.731020 -1.083595 0.000000
vt 0.444229 -0.099046 0.000000
vt 0.731020 1.083595 0.000000
vt 0.444229 0.156700 0.000000
vt 0.444229 0.827849 0.000000
vt -0.731020 1.083595 0.000000
vt -0.731020 0.827849 0.000000
vt -0.572842 0.156700 0.000000
vt -0.572842 -0.099046 0.000000
vn -0.100000 0.000000 0.000000
vn -0.100000 0.000000 0.000000
vn -0.100000 0.000000 0.000000
vn -0.100000 0.000000 0.000000
vn 0.000000 0.000000 -0.100000
vn 0.000000 0.000000 -0.100000
vn 0.000000 0.000000 -0.100000
vn 0.000000 0.000000 -0.100000
vn 0.100000 0.000000 0.000000
vn 0.100000 0.000000 0.000000
vn 0.100000 0.000000 0.000000
vn 0.100000 0.000000 0.000000
vn 0.000000 -0.000000 0.100000
vn 0.000000 -0.000000 0.100000
vn 0.000000 -0.000000 0.100000
vn 0.000000 -0.000000 0.100000
vn 0.100000 0.000000 0.000000
vn 0.100000 0.000000 0.000000
vn 0.100000 0.000000 0.000000
vn 0.100000 0.000000 0.000000
vn 0.000000 0.000000 -0.100000
vn 0.000000 0.000000 -0.100000
vn 0.000000 0.000000 -0.100000
vn 0.000000 0.000000 -0.100000
vn 0.100000 0.000000 0.000000
vn 0.100000 0.000000 0.000000
vn 0.100000 0.000000 0.000000
vn 0.100000 0.000000 0.000000
vn 0.000000 -0.000000 0.100000
vn 0.000000 -0.000000 0.100000
vn 0.000000 -0.000000 0.100000
vn 0.000000 -0.000000 0.100000
vn 0.100000 0.000000 0.000000
vn 0.100000 0.000000 0.000000
vn 0.100000 0.000000 0.000000
vn 0.100000 0.000000 0.000000
vn 0.000000 -0.000000 0.100000
vn 0.000000 -0.000000 0.100000
vn 0.000000 -0.000000 0.100000
vn 0.000000 -0.000000 0.100000
vn 0.000000 0.100000 0.000000
vn 0.000000 0.100000 0.000000
vn 0.000000 0.100000 0.000000
vn 0.000000 0.100000 0.000000
vn 0.000000 0.100000 0.000000
vn 0.000000 0.100000 0.000000
vn 0.000000 0.100000 0.000000
vn 0.000000 0.100000 0.000000
vn 0.000000 0.100000 0.000000
vn 0.000000 0.100000 0.000000
vn 0.000000 -0.100000 0.000000
vn 0.000000 -0.100000 0.000000
vn 0.000000 -0.100000 0.000000
vn 0.000000 -0.100000 0.000000
vn 0.000000 -0.100000 0.000000
vn 0.000000 -0.100000 0.000000
vn 0.000000 -0.100000 0.000000
vn 0.000000 -0.100000 0.000000
vn 0.000000 -0.100000 0.000000
vn 0.000000 -0.100000 0.000000
usemtl Aluminum_-_Anodized_Glossy_(Red)
f 1/1/1 2/2/2 4/3/3
f 4/3/3 2/2/2 3/4/4
f 5/5/5 1/6/6 6/7/7
f 6/7/7 1/6/6 4/8/8
f 7/9/9 5/10/10 8/11/11
f 8/11/11 5/10/10 6/12/12
f 9/13/13 7/14/14 10/15/15
f 10/15/15 7/14/14 8/16/16
f 11/17/17 9/18/18 12/19/19
f 12/19/19 9/18/18 10/20/20
f 13/21/21 11/22/22 14/23/23
f 14/23/23 11/22/22 12/24/24
f 15/25/25 13/26/26 16/27/27
f 16/27/27 13/26/26 14/28/28
f 17/29/29 15/30/30 18/31/31
f 18/31/31 15/30/30 16/32/32
f 19/33/33 17/34/34 20/35/35
f 20/35/35 17/34/34 18/36/36
f 2/37/37 19/38/38 3/39/39
f 3/39/39 19/38/38 20/40/40
usemtl Bronze_-_Polished
f 20/41/41 18/42/42 3/43/43
f 3/43/43 18/42/42 4/44/44
f 4/44/44 18/42/42 12/45/45
f 4/44/44 12/45/45 10/46/46
f 16/47/47 14/48/48 18/42/42
f 18/42/42 14/48/48 12/45/45
f 8/49/49 6/50/50 10/46/46
f 10/46/46 6/50/50 4/44/44
f 19/51/51 2/52/52 17/53/53
f 17/53/53 2/52/52 1/54/54
f 17/53/53 1/54/54 11/55/55
f 11/55/55 1/54/54 9/56/56
f 9/56/56 1/54/54 5/57/57
f 9/56/56 5/57/57 7/58/58
f 11/55/55 13/59/59 17/53/53
f 17/53/53 13/59/59 15/60/60

# 20 vertices
# 60 texture params
# 60 normals
# 36 facets

# 1 groups
