# File exported by Houdini 18.5.499 (www.sidefx.com)
# 24 points
# 132 vertices
# 44 primitives
# Bounds: [-0.31662035, 0.00885534286, 0] to [0.363398552, 0.875730872, 0.199999988]
g 
v -0.31662035 0.875730872 0
v -0.31662035 0.00885534286 0
v -0.31662035 0.00885534286 0.199999988
v -0.31662035 0.875730872 0.199999988
v -0.201904297 0.875730872 0
v -0.201904297 0.875730872 0.199999988
v -0.201904297 0.519756079 0
v -0.201904297 0.519756079 0.199999988
v 0.248682499 0.519756079 0
v 0.248682499 0.519756079 0.199999988
v 0.248682499 0.875730872 0
v 0.248682499 0.875730872 0.199999988
v 0.363398552 0.875730872 0
v 0.363398552 0.875730872 0.199999988
v 0.363398552 0.00885534286 0
v 0.363398552 0.00885534286 0.199999988
v 0.248682499 0.00885534286 0
v 0.248682499 0.00885534286 0.199999988
v 0.248682499 0.417457819 0
v 0.248682499 0.417457819 0.199999988
v -0.201904297 0.417457819 0
v -0.201904297 0.417457819 0.199999988
v -0.201904297 0.00885534286 0
v -0.201904297 0.00885534286 0.199999988
vt 0 0 0
vt 2.16718888 0 0
vt 0 0.5 0
vt 2.16718888 0.5 0
vt -0 0 0
vt 0.286790013 0 0
vt -0 0.5 0
vt 0.286790013 0.5 0
vt 0.889936984 0 0
vt 0.889936984 0.5 0
vt 1.12646496 0 0
vt 1.12646496 0.5 0
vt 1.02150595 0 0
vt 1.02150595 0.5 0
vt 1.08359504 -0.563233018 0
vt 0.0620889999 -0.563233018 0
vt 1.08359504 -0.850022972 0
vt -1.08359504 -0.850022972 0
vt -0.193656996 -0.563233018 0
vt -1.08359504 -0.563233018 0
vt -0.193656996 0.563233018 0
vt 0.0620889999 0.563233018 0
vt -1.08359504 0.850022972 0
vt 1.08359504 0.850022972 0
vt 1.08359504 0.563233018 0
vt -1.08359504 0.563233018 0
vt 0.563233018 -1.08359504 0
vt 0.850022972 -1.08359504 0
vt 0.563233018 -0.0620889999 0
vt 0.850022972 1.08359504 0
vt 0.563233018 0.193656996 0
vt 0.563233018 1.08359504 0
vt -0.563233018 0.193656996 0
vt -0.563233018 -0.0620889999 0
vt -0.850022972 1.08359504 0
vt -0.850022972 -1.08359504 0
vt -0.563233018 1.08359504 0
vt -0.563233018 -1.08359504 0
vn -0.099999994 0 0
vn -0.099999994 0 0
vn -0.099999994 0 0
vn -0.099999994 0 0
vn -0.099999994 0 0
vn -0.099999994 0 0
vn 0 0.099999994 0
vn 0 0.099999994 0
vn 0 0.099999994 0
vn 0 0.099999994 0
vn 0 0.099999994 0
vn 0 0.099999994 0
vn 0.099999994 0 0
vn 0.099999994 0 0
vn 0.099999994 0 0
vn 0.099999994 0 0
vn 0.099999994 0 0
vn 0.099999994 0 0
vn 0 0.099999994 0
vn 0 0.099999994 0
vn 0 0.099999994 0
vn 0 0.099999994 0
vn 0 0.099999994 0
vn 0 0.099999994 0
vn -0.099999994 0 0
vn -0.099999994 0 0
vn -0.099999994 0 0
vn -0.099999994 0 0
vn -0.099999994 0 0
vn -0.099999994 0 0
vn 0 0.099999994 0
vn 0 0.099999994 0
vn 0 0.099999994 0
vn 0 0.099999994 0
vn 0 0.099999994 0
vn 0 0.099999994 0
vn 0.099999994 0 0
vn 0.099999994 0 0
vn 0.099999994 0 0
vn 0.099999994 0 0
vn 0.099999994 0 0
vn 0.099999994 0 0
vn 0 -0.099999994 0
vn 0 -0.099999994 0
vn 0 -0.099999994 0
vn 0 -0.099999994 0
vn 0 -0.099999994 0
vn 0 -0.099999994 0
vn -0.099999994 0 0
vn -0.099999994 0 0
vn -0.099999994 0 0
vn -0.099999994 0 0
vn -0.099999994 0 0
vn -0.099999994 0 0
vn 0 -0.099999994 0
vn 0 -0.099999994 0
vn 0 -0.099999994 0
vn 0 -0.099999994 0
vn 0 -0.099999994 0
vn 0 -0.099999994 0
vn 0.099999994 0 0
vn 0.099999994 0 0
vn 0.099999994 0 0
vn 0.099999994 0 0
vn 0.099999994 0 0
vn 0.099999994 0 0
vn 0 -0.099999994 0
vn 0 -0.099999994 0
vn 0 -0.099999994 0
vn 0 -0.099999994 0
vn 0 -0.099999994 0
vn 0 -0.099999994 0
vn 0 0 0.099999994
vn 0 0 0.099999994
vn 0 0 0.099999994
vn 0 0 0.099999994
vn 0 0 0.099999994
vn 0 0 0.099999994
vn 0 0 0.099999994
vn 0 0 0.099999994
vn 0 0 0.099999994
vn 0 0 0.099999994
vn 0 0 0.099999994
vn 0 0 0.099999994
vn 0 0 0.099999994
vn 0 0 0.099999994
vn 0 0 0.099999994
vn 0 0 0.099999994
vn 0 0 0.099999994
vn 0 0 0.099999994
vn 0 0 0.099999994
vn 0 0 0.099999994
vn 0 0 0.099999994
vn 0 0 0.099999994
vn 0 0 0.099999994
vn 0 0 0.099999994
vn 0 0 0.099999994
vn 0 0 0.099999994
vn 0 0 0.099999994
vn 0 0 0.099999994
vn 0 0 0.099999994
vn 0 0 0.099999994
vn 0 -0 -0.099999994
vn 0 -0 -0.099999994
vn 0 -0 -0.099999994
vn 0 -0 -0.099999994
vn 0 -0 -0.099999994
vn 0 -0 -0.099999994
vn 0 -0 -0.099999994
vn 0 -0 -0.099999994
vn 0 -0 -0.099999994
vn 0 -0 -0.099999994
vn 0 -0 -0.099999994
vn 0 -0 -0.099999994
vn 0 -0 -0.099999994
vn 0 -0 -0.099999994
vn 0 -0 -0.099999994
vn 0 -0 -0.099999994
vn 0 -0 -0.099999994
vn 0 -0 -0.099999994
vn 0 -0 -0.099999994
vn 0 -0 -0.099999994
vn 0 -0 -0.099999994
vn 0 -0 -0.099999994
vn 0 -0 -0.099999994
vn 0 -0 -0.099999994
vn 0 -0 -0.099999994
vn 0 -0 -0.099999994
vn 0 -0 -0.099999994
vn 0 -0 -0.099999994
vn 0 -0 -0.099999994
vn 0 -0 -0.099999994
g Body49
usemtl /mat/Aluminum_-_Anodized_Glossy_(Red)
f 1/1/1 2/2/2 4/3/3
f 4/3/4 2/2/5 3/4/6
f 5/5/7 1/6/8 6/7/9
f 6/7/10 1/6/11 4/8/12
f 7/5/13 5/9/14 8/7/15
f 8/7/16 5/9/17 6/10/18
f 9/5/19 7/11/20 10/7/21
f 10/7/22 7/11/23 8/12/24
f 11/1/25 9/9/26 12/3/27
f 12/3/28 9/9/29 10/10/30
f 13/5/31 11/6/32 14/7/33
f 14/7/34 11/6/35 12/8/36
f 15/5/37 13/2/38 16/7/39
f 16/7/40 13/2/41 14/4/42
f 17/1/43 15/6/44 18/3/45
f 18/3/46 15/6/47 16/8/48
f 19/1/49 17/13/50 20/3/51
f 20/3/52 17/13/53 18/14/54
f 21/1/55 19/11/56 22/3/57
f 22/3/58 19/11/59 20/12/60
f 23/5/61 21/13/62 24/7/63
f 24/7/64 21/13/65 22/14/66
f 2/1/67 23/6/68 3/3/69
f 3/3/70 23/6/71 24/8/72
g Body49
usemtl /mat/Bronze_-_Polished
f 24/15/73 22/16/74 3/17/75
f 3/17/76 22/16/77 4/18/78
f 4/18/79 22/16/80 8/19/81
f 4/18/82 8/19/83 6/20/84
f 8/19/85 22/16/86 10/21/87
f 10/21/88 22/16/89 20/22/90
f 10/21/91 20/22/92 14/23/93
f 14/23/94 20/22/95 16/24/96
f 16/24/97 20/22/98 18/25/99
f 14/23/100 12/26/101 10/21/102
f 23/27/103 2/28/104 21/29/105
f 21/29/106 2/28/107 1/30/108
f 21/29/109 1/30/110 7/31/111
f 7/31/112 1/30/113 5/32/114
f 7/31/115 9/33/116 21/29/117
f 21/29/118 9/33/119 19/34/120
f 19/34/121 9/33/122 13/35/123
f 19/34/124 13/35/125 15/36/126
f 9/33/127 11/37/128 13/35/129
f 15/36/130 17/38/131 19/34/132
