# WaveFront *.obj file (generated by Autodesk ATF)

mtllib 7581d02a-25d8-409c-bfc1-7b561710db7c.mtl

g Body49

v -160.415506 0.000000 41.856726
v -160.415506 0.000000 63.528617
v -160.415506 5.000000 63.528617
v -160.415506 5.000000 41.856726
v -157.547603 0.000000 41.856726
v -157.547603 5.000000 41.856726
v -157.547603 0.000000 63.528617
v -157.547603 5.000000 63.528617
vt 0.000000 0.000000 0.000000
vt 2.167189 0.000000 0.000000
vt 0.000000 0.500000 0.000000
vt 2.167189 0.500000 0.000000
vt -0.000000 0.000000 0.000000
vt 0.286790 0.000000 0.000000
vt -0.000000 0.500000 0.000000
vt 0.286790 0.500000 0.000000
vt -0.000000 0.000000 0.000000
vt 2.167189 0.000000 0.000000
vt -0.000000 0.500000 0.000000
vt 2.167189 0.500000 0.000000
vt 0.000000 0.000000 0.000000
vt 0.286790 0.000000 0.000000
vt 0.000000 0.500000 0.000000
vt 0.286790 0.500000 0.000000
vt 1.083595 0.143395 0.000000
vt -1.083595 0.143395 0.000000
vt 1.083595 -0.143395 0.000000
vt -1.083595 -0.143395 0.000000
vt -0.143395 -1.083595 0.000000
vt 0.143395 -1.083595 0.000000
vt -0.143395 1.083595 0.000000
vt 0.143395 1.083595 0.000000
vn -0.100000 0.000000 0.000000
vn -0.100000 0.000000 0.000000
vn -0.100000 0.000000 0.000000
vn -0.100000 0.000000 0.000000
vn 0.000000 0.000000 -0.100000
vn 0.000000 0.000000 -0.100000
vn 0.000000 0.000000 -0.100000
vn 0.000000 0.000000 -0.100000
vn 0.100000 0.000000 0.000000
vn 0.100000 0.000000 0.000000
vn 0.100000 0.000000 0.000000
vn 0.100000 0.000000 0.000000
vn 0.000000 -0.000000 0.100000
vn 0.000000 -0.000000 0.100000
vn 0.000000 -0.000000 0.100000
vn 0.000000 -0.000000 0.100000
vn 0.000000 0.100000 0.000000
vn 0.000000 0.100000 0.000000
vn 0.000000 0.100000 0.000000
vn 0.000000 0.100000 0.000000
vn 0.000000 -0.100000 0.000000
vn 0.000000 -0.100000 0.000000
vn 0.000000 -0.100000 0.000000
vn 0.000000 -0.100000 0.000000
usemtl Aluminum_-_Anodized_Glossy_(Red)
f 1/1/1 2/2/2 4/3/3
f 4/3/3 2/2/2 3/4/4
f 5/5/5 1/6/6 6/7/7
f 6/7/7 1/6/6 4/8/8
f 7/9/9 5/10/10 8/11/11
f 8/11/11 5/10/10 6/12/12
f 2/13/13 7/14/14 3/15/15
f 3/15/15 7/14/14 8/16/16
usemtl Bronze_-_Polished
f 8/17/17 6/18/18 3/19/19
f 3/19/19 6/18/18 4/20/20
f 7/21/21 2/22/22 5/23/23
f 5/23/23 2/22/22 1/24/24

# 8 vertices
# 24 texture params
# 24 normals
# 12 facets

# 1 groups
