# WaveFront *.obj file (generated by Autodesk ATF)

mtllib a1b6da7a-fab8-40b2-b237-fd7777cac630.mtl

g Body49

v -157.769348 0.000000 56.654518
v -160.356374 0.000000 57.009312
v -160.356374 5.000000 57.009312
v -157.769348 5.000000 56.654518
v -156.838018 0.000000 60.054611
v -157.268800 0.000000 59.265206
v -157.575053 0.000000 58.437667
v -157.715844 0.000000 57.559458
v -157.715844 5.000000 57.559458
v -157.575053 5.000000 58.437667
v -157.268800 5.000000 59.265206
v -156.838018 5.000000 60.054611
v -154.546651 0.000000 60.971156
v -155.189944 0.000000 60.912846
v -155.796082 0.000000 60.764445
v -156.337506 0.000000 60.459128
v -156.337506 5.000000 60.459128
v -155.796082 5.000000 60.764445
v -155.189944 5.000000 60.912846
v -154.546651 5.000000 60.971156
v -152.683992 0.000000 60.475927
v -153.124318 0.000000 60.692857
v -153.578889 0.000000 60.857436
v -154.056199 0.000000 60.938448
v -154.056199 5.000000 60.938448
v -153.578889 5.000000 60.857436
v -153.124318 5.000000 60.692857
v -152.683992 5.000000 60.475927
v -151.604833 0.000000 59.130672
v -151.793570 0.000000 59.531820
v -152.026777 0.000000 59.897395
v -152.333503 0.000000 60.204164
v -152.333503 5.000000 60.204164
v -152.026777 5.000000 59.897395
v -151.793570 5.000000 59.531820
v -151.604833 5.000000 59.130672
v -151.309173 0.000000 56.417991
v -151.315597 0.000000 57.104445
v -151.354958 0.000000 57.786856
v -151.456614 0.000000 58.461621
v -151.456614 5.000000 58.461621
v -151.354958 5.000000 57.786856
v -151.315597 5.000000 57.104445
v -151.309173 5.000000 56.417991
v -151.309173 0.000000 41.487151
v -151.309173 5.000000 41.487151
v -148.441269 0.000000 41.487151
v -148.441269 5.000000 41.487151
v -148.441269 0.000000 56.255377
v -148.441269 5.000000 56.255377
v -149.099112 0.000000 60.468534
v -148.785176 0.000000 59.440564
v -148.561356 0.000000 58.397330
v -148.466372 0.000000 57.332272
v -148.466372 5.000000 57.332272
v -148.561356 5.000000 58.397330
v -148.785176 5.000000 59.440564
v -149.099112 5.000000 60.468534
v -151.183516 0.000000 62.745119
v -150.529789 0.000000 62.297430
v -149.948439 0.000000 61.783460
v -149.487636 0.000000 61.159094
v -149.487636 5.000000 61.159094
v -149.948439 5.000000 61.783460
v -150.529789 5.000000 62.297430
v -151.183516 5.000000 62.745119
v -154.531868 0.000000 63.528617
v -153.660031 0.000000 63.477623
v -152.806579 0.000000 63.349974
v -151.985022 0.000000 63.089348
v -151.985022 5.000000 63.089348
v -152.806579 5.000000 63.349974
v -153.660031 5.000000 63.477623
v -154.531868 5.000000 63.528617
v -158.900248 0.000000 61.887704
v -157.937188 0.000000 62.626449
v -157.432457 0.000000 62.936751
v -156.899944 0.000000 63.176323
v -156.336206 0.000000 63.336397
v -155.748227 0.000000 63.434757
v -155.748227 5.000000 63.434757
v -156.336206 5.000000 63.336397
v -156.899944 5.000000 63.176323
v -157.432457 5.000000 62.936751
v -157.937188 5.000000 62.626449
v -158.900248 5.000000 61.887704
v -160.308139 0.000000 58.330068
v -160.233739 0.000000 58.974339
v -160.098998 0.000000 59.599282
v -159.885348 0.000000 60.198948
v -159.598133 0.000000 60.775049
v -159.598133 5.000000 60.775049
v -159.885348 5.000000 60.198948
v -160.098998 5.000000 59.599282
v -160.233739 5.000000 58.974339
v -160.308139 5.000000 58.330068
vt 0.000000 0.000000 0.000000
vt 0.261124 0.000000 0.000000
vt 0.000000 0.500000 0.000000
vt 0.261124 0.500000 0.000000
vt -0.352869 0.000000 0.000000
vt -0.264652 0.000000 0.000000
vt -0.352869 0.500000 0.000000
vt -0.264652 0.500000 0.000000
vt -0.176434 0.000000 0.000000
vt -0.176434 0.500000 0.000000
vt -0.088217 0.000000 0.000000
vt -0.088217 0.500000 0.000000
vt 0.000000 0.000000 0.000000
vt 0.000000 0.500000 0.000000
vt -0.246825 0.000000 0.000000
vt -0.185118 0.000000 0.000000
vt -0.246825 0.500000 0.000000
vt -0.185118 0.500000 0.000000
vt -0.123412 0.000000 0.000000
vt -0.123412 0.500000 0.000000
vt -0.061706 0.000000 0.000000
vt -0.061706 0.500000 0.000000
vt 0.000000 0.000000 0.000000
vt 0.000000 0.500000 0.000000
vt -0.192746 0.000000 0.000000
vt -0.144560 0.000000 0.000000
vt -0.192746 0.500000 0.000000
vt -0.144560 0.500000 0.000000
vt -0.096373 0.000000 0.000000
vt -0.096373 0.500000 0.000000
vt -0.048187 0.000000 0.000000
vt -0.048187 0.500000 0.000000
vt 0.000000 0.000000 0.000000
vt 0.000000 0.500000 0.000000
vt -0.172462 0.000000 0.000000
vt -0.129347 0.000000 0.000000
vt -0.172462 0.500000 0.000000
vt -0.129347 0.500000 0.000000
vt -0.086231 0.000000 0.000000
vt -0.086231 0.500000 0.000000
vt -0.043116 0.000000 0.000000
vt -0.043116 0.500000 0.000000
vt 0.000000 0.000000 0.000000
vt 0.000000 0.500000 0.000000
vt -0.272928 0.000000 0.000000
vt -0.204696 0.000000 0.000000
vt -0.272928 0.500000 0.000000
vt -0.204696 0.500000 0.000000
vt -0.136464 0.000000 0.000000
vt -0.136464 0.500000 0.000000
vt -0.068232 0.000000 0.000000
vt -0.068232 0.500000 0.000000
vt 0.000000 0.000000 0.000000
vt 0.000000 0.500000 0.000000
vt 0.000000 0.000000 0.000000
vt 1.493084 0.000000 0.000000
vt 0.000000 0.500000 0.000000
vt 1.493084 0.500000 0.000000
vt -0.000000 0.000000 0.000000
vt 0.286790 0.000000 0.000000
vt -0.000000 0.500000 0.000000
vt 0.286790 0.500000 0.000000
vt -0.000000 0.000000 0.000000
vt 1.476823 0.000000 0.000000
vt -0.000000 0.500000 0.000000
vt 1.476823 0.500000 0.000000
vt -0.426504 0.000000 0.000000
vt -0.319878 0.000000 0.000000
vt -0.426504 0.500000 0.000000
vt -0.319878 0.500000 0.000000
vt -0.213252 0.000000 0.000000
vt -0.213252 0.500000 0.000000
vt -0.106626 0.000000 0.000000
vt -0.106626 0.500000 0.000000
vt 0.000000 0.000000 0.000000
vt 0.000000 0.500000 0.000000
vt -0.308668 0.000000 0.000000
vt -0.231501 0.000000 0.000000
vt -0.308668 0.500000 0.000000
vt -0.231501 0.500000 0.000000
vt -0.154334 0.000000 0.000000
vt -0.154334 0.500000 0.000000
vt -0.077167 0.000000 0.000000
vt -0.077167 0.500000 0.000000
vt 0.000000 0.000000 0.000000
vt 0.000000 0.500000 0.000000
vt -0.343894 0.000000 0.000000
vt -0.257920 0.000000 0.000000
vt -0.343894 0.500000 0.000000
vt -0.257920 0.500000 0.000000
vt -0.171947 0.000000 0.000000
vt -0.171947 0.500000 0.000000
vt -0.085973 0.000000 0.000000
vt -0.085973 0.500000 0.000000
vt 0.000000 0.000000 0.000000
vt 0.000000 0.500000 0.000000
vt -0.466779 0.000000 0.000000
vt -0.350084 0.000000 0.000000
vt -0.466779 0.500000 0.000000
vt -0.350084 0.500000 0.000000
vt -0.291737 0.000000 0.000000
vt -0.291737 0.500000 0.000000
vt -0.233389 0.000000 0.000000
vt -0.233389 0.500000 0.000000
vt -0.175042 0.000000 0.000000
vt -0.175042 0.500000 0.000000
vt -0.116695 0.000000 0.000000
vt -0.116695 0.500000 0.000000
vt 0.000000 0.000000 0.000000
vt 0.000000 0.500000 0.000000
vt -0.509354 0.000000 0.000000
vt -0.382016 0.000000 0.000000
vt -0.509354 0.500000 0.000000
vt -0.382016 0.500000 0.000000
vt -0.318346 0.000000 0.000000
vt -0.318346 0.500000 0.000000
vt -0.254677 0.000000 0.000000
vt -0.254677 0.500000 0.000000
vt -0.191008 0.000000 0.000000
vt -0.191008 0.500000 0.000000
vt -0.127339 0.000000 0.000000
vt -0.127339 0.500000 0.000000
vt 0.000000 0.000000 0.000000
vt 0.000000 0.500000 0.000000
vt -0.337053 -0.414663 0.000000
vt -0.595755 -0.450143 0.000000
vt -0.331702 -0.505157 0.000000
vt -0.590932 -0.582218 0.000000
vt -0.583492 -0.646646 0.000000
vt -0.317623 -0.592978 0.000000
vt -0.570018 -0.709140 0.000000
vt -0.548653 -0.769106 0.000000
vt -0.519931 -0.826716 0.000000
vt -0.286998 -0.675732 0.000000
vt -0.450143 -0.937982 0.000000
vt -0.243920 -0.754673 0.000000
vt -0.353837 -1.011856 0.000000
vt -0.303364 -1.042887 0.000000
vt -0.193868 -0.795124 0.000000
vt -0.250112 -1.066844 0.000000
vt -0.139726 -0.825656 0.000000
vt -0.193738 -1.082851 0.000000
vt -0.134941 -1.092687 0.000000
vt -0.079112 -0.840496 0.000000
vt -0.013305 -1.102073 0.000000
vt -0.014783 -0.846327 0.000000
vt 0.034262 -0.843056 0.000000
vt 0.073879 -1.096974 0.000000
vt 0.081993 -0.834955 0.000000
vt 0.159224 -1.084209 0.000000
vt 0.127450 -0.818497 0.000000
vt 0.241380 -1.058146 0.000000
vt 0.171483 -0.796804 0.000000
vt 0.206532 -0.769628 0.000000
vt 0.321531 -1.023723 0.000000
vt 0.237204 -0.738951 0.000000
vt 0.386903 -0.978955 0.000000
vt 0.260525 -0.702394 0.000000
vt 0.445038 -0.927558 0.000000
vt 0.279399 -0.662279 0.000000
vt 0.491119 -0.865121 0.000000
vt 0.529971 -0.796065 0.000000
vt 0.294221 -0.595374 0.000000
vt 0.561365 -0.693268 0.000000
vt 0.304386 -0.527897 0.000000
vt 0.583747 -0.588945 0.000000
vt 0.593245 -0.482439 0.000000
vt 0.595755 -0.374749 0.000000
vt 0.308965 -0.391011 0.000000
vt 0.308322 -0.459656 0.000000
vt 0.595755 1.102073 0.000000
vt 0.308965 1.102073 0.000000
vt 0.519931 -0.826716 0.000000
vt 0.286998 -0.675732 0.000000
vt 0.450143 -0.937982 0.000000
vt 0.243920 -0.754673 0.000000
vt 0.353837 -1.011856 0.000000
vt 0.303364 -1.042887 0.000000
vt 0.193868 -0.795124 0.000000
vt 0.250112 -1.066844 0.000000
vt 0.139726 -0.825656 0.000000
vt 0.193738 -1.082851 0.000000
vt 0.134941 -1.092687 0.000000
vt 0.079112 -0.840496 0.000000
vt 0.013305 -1.102073 0.000000
vt 0.014783 -0.846327 0.000000
vt -0.034262 -0.843056 0.000000
vt 0.317623 -0.592978 0.000000
vt 0.548653 -0.769106 0.000000
vt 0.570018 -0.709140 0.000000
vt 0.583492 -0.646646 0.000000
vt 0.331702 -0.505157 0.000000
vt 0.590932 -0.582218 0.000000
vt 0.595755 -0.450143 0.000000
vt 0.337053 -0.414663 0.000000
vt -0.073879 -1.096974 0.000000
vt -0.081993 -0.834955 0.000000
vt -0.159224 -1.084209 0.000000
vt -0.127450 -0.818497 0.000000
vt -0.241380 -1.058146 0.000000
vt -0.171483 -0.796804 0.000000
vt -0.206532 -0.769628 0.000000
vt -0.321531 -1.023723 0.000000
vt -0.237204 -0.738951 0.000000
vt -0.386903 -0.978955 0.000000
vt -0.260525 -0.702394 0.000000
vt -0.445038 -0.927558 0.000000
vt -0.279399 -0.662279 0.000000
vt -0.491119 -0.865121 0.000000
vt -0.529971 -0.796065 0.000000
vt -0.294221 -0.595374 0.000000
vt -0.561365 -0.693268 0.000000
vt -0.304386 -0.527897 0.000000
vt -0.583747 -0.588945 0.000000
vt -0.593245 -0.482439 0.000000
vt -0.308322 -0.459656 0.000000
vt -0.308965 -0.391011 0.000000
vt -0.595755 -0.374749 0.000000
vt -0.308965 1.102073 0.000000
vt -0.595755 1.102073 0.000000
vn -0.013587 0.000000 -0.099073
vn -0.013587 0.000000 -0.099073
vn -0.013587 0.000000 -0.099073
vn -0.013587 0.000000 -0.099073
vn 0.086613 0.000000 -0.049982
vn 0.089994 0.000000 -0.043601
vn 0.086613 0.000000 -0.049982
vn 0.089994 0.000000 -0.043601
vn 0.097026 0.000000 -0.024205
vn 0.097026 0.000000 -0.024205
vn 0.099578 0.000000 -0.009179
vn 0.099578 0.000000 -0.009179
vn 0.099908 0.000000 -0.004280
vn 0.099908 0.000000 -0.004280
vn 0.006651 0.000000 -0.099779
vn 0.013867 0.000000 -0.099034
vn 0.006651 0.000000 -0.099779
vn 0.013867 0.000000 -0.099034
vn 0.036216 0.000000 -0.093211
vn 0.036216 0.000000 -0.093211
vn 0.058560 0.000000 -0.081060
vn 0.058560 0.000000 -0.081060
vn 0.064892 0.000000 -0.076086
vn 0.064892 0.000000 -0.076086
vn -0.045803 0.000000 -0.088894
vn -0.040899 0.000000 -0.091254
vn -0.045803 0.000000 -0.088894
vn -0.040899 0.000000 -0.091254
vn -0.025166 0.000000 -0.096782
vn -0.025166 0.000000 -0.096782
vn -0.009991 0.000000 -0.099500
vn -0.009991 0.000000 -0.099500
vn -0.004999 0.000000 -0.099875
vn -0.004999 0.000000 -0.099875
vn -0.091348 0.000000 -0.040689
vn -0.088616 0.000000 -0.046337
vn -0.091348 0.000000 -0.040689
vn -0.088616 0.000000 -0.046337
vn -0.077917 0.000000 -0.062682
vn -0.077917 0.000000 -0.062682
vn -0.064489 0.000000 -0.076427
vn -0.064489 0.000000 -0.076427
vn -0.059654 0.000000 -0.080259
vn -0.059654 0.000000 -0.080259
vn -0.100000 0.000000 -0.000136
vn -0.099968 0.000000 -0.002539
vn -0.100000 0.000000 -0.000136
vn -0.099968 0.000000 -0.002539
vn -0.099519 0.000000 -0.009791
vn -0.099519 0.000000 -0.009791
vn -0.098106 0.000000 -0.019373
vn -0.098106 0.000000 -0.019373
vn -0.097378 0.000000 -0.022750
vn -0.097378 0.000000 -0.022750
vn -0.100000 0.000000 0.000000
vn -0.100000 0.000000 0.000000
vn -0.100000 0.000000 0.000000
vn -0.100000 0.000000 0.000000
vn 0.000000 0.000000 -0.100000
vn 0.000000 0.000000 -0.100000
vn 0.000000 0.000000 -0.100000
vn 0.000000 0.000000 -0.100000
vn 0.100000 0.000000 0.000000
vn 0.100000 0.000000 0.000000
vn 0.100000 0.000000 0.000000
vn 0.100000 0.000000 0.000000
vn 0.095218 -0.000000 0.030553
vn 0.096429 -0.000000 0.026485
vn 0.095218 -0.000000 0.030553
vn 0.096429 -0.000000 0.026485
vn 0.098962 -0.000000 0.014370
vn 0.098962 -0.000000 0.014370
vn 0.099898 -0.000000 0.004506
vn 0.099898 -0.000000 0.004506
vn 0.099992 -0.000000 0.001247
vn 0.099992 -0.000000 0.001247
vn 0.054841 -0.000000 0.083621
vn 0.059803 -0.000000 0.080148
vn 0.054841 -0.000000 0.083621
vn 0.059803 -0.000000 0.080148
vn 0.073763 -0.000000 0.067521
vn 0.073763 -0.000000 0.067521
vn 0.085096 -0.000000 0.052524
vn 0.085096 -0.000000 0.052524
vn 0.088115 -0.000000 0.047283
vn 0.088115 -0.000000 0.047283
vn 0.004364 -0.000000 0.099905
vn 0.008808 -0.000000 0.099611
vn 0.004364 -0.000000 0.099905
vn 0.008808 -0.000000 0.099611
vn 0.022278 -0.000000 0.097487
vn 0.022278 -0.000000 0.097487
vn 0.036451 -0.000000 0.093120
vn 0.036451 -0.000000 0.093120
vn 0.040941 -0.000000 0.091235
vn 0.040941 -0.000000 0.091235
vn -0.062952 0.000000 0.077699
vn -0.056461 0.000000 0.082536
vn -0.062952 0.000000 0.077699
vn -0.056461 0.000000 0.082536
vn -0.047457 0.000000 0.088022
vn -0.047457 0.000000 0.088022
vn -0.033899 0.000000 0.094079
vn -0.033899 0.000000 0.094079
vn -0.021293 0.000000 0.097707
vn -0.021293 0.000000 0.097707
vn -0.012352 0.000000 0.099234
vn -0.012352 0.000000 0.099234
vn -0.005406 0.000000 0.099854
vn -0.005406 0.000000 0.099854
vn -0.099987 0.000000 0.001611
vn -0.099696 0.000000 0.007791
vn -0.099987 0.000000 0.001611
vn -0.099696 0.000000 0.007791
vn -0.098756 0.000000 0.015725
vn -0.098756 0.000000 0.015725
vn -0.096299 0.000000 0.026954
vn -0.096299 0.000000 0.026954
vn -0.091751 0.000000 0.039771
vn -0.091751 0.000000 0.039771
vn -0.087344 0.000000 0.048693
vn -0.087344 0.000000 0.048693
vn -0.083342 0.000000 0.055264
vn -0.083342 0.000000 0.055264
vn 0.000000 0.100000 0.000000
vn 0.000000 0.100000 0.000000
vn 0.000000 0.100000 0.000000
vn 0.000000 0.100000 0.000000
vn 0.000000 0.100000 0.000000
vn 0.000000 0.100000 0.000000
vn 0.000000 0.100000 0.000000
vn 0.000000 0.100000 0.000000
vn 0.000000 0.100000 0.000000
vn 0.000000 0.100000 0.000000
vn 0.000000 0.100000 0.000000
vn 0.000000 0.100000 0.000000
vn 0.000000 0.100000 0.000000
vn 0.000000 0.100000 0.000000
vn 0.000000 0.100000 0.000000
vn 0.000000 0.100000 0.000000
vn 0.000000 0.100000 0.000000
vn 0.000000 0.100000 0.000000
vn 0.000000 0.100000 0.000000
vn 0.000000 0.100000 0.000000
vn 0.000000 0.100000 0.000000
vn 0.000000 0.100000 0.000000
vn 0.000000 0.100000 0.000000
vn 0.000000 0.100000 0.000000
vn 0.000000 0.100000 0.000000
vn 0.000000 0.100000 0.000000
vn 0.000000 0.100000 0.000000
vn 0.000000 0.100000 0.000000
vn 0.000000 0.100000 0.000000
vn 0.000000 0.100000 0.000000
vn 0.000000 0.100000 0.000000
vn 0.000000 0.100000 0.000000
vn 0.000000 0.100000 0.000000
vn 0.000000 0.100000 0.000000
vn 0.000000 0.100000 0.000000
vn 0.000000 0.100000 0.000000
vn 0.000000 0.100000 0.000000
vn 0.000000 0.100000 0.000000
vn 0.000000 0.100000 0.000000
vn 0.000000 0.100000 0.000000
vn 0.000000 0.100000 0.000000
vn 0.000000 0.100000 0.000000
vn 0.000000 0.100000 0.000000
vn 0.000000 0.100000 0.000000
vn 0.000000 0.100000 0.000000
vn 0.000000 0.100000 0.000000
vn 0.000000 0.100000 0.000000
vn 0.000000 0.100000 0.000000
vn 0.000000 -0.100000 0.000000
vn 0.000000 -0.100000 0.000000
vn 0.000000 -0.100000 0.000000
vn 0.000000 -0.100000 0.000000
vn 0.000000 -0.100000 0.000000
vn 0.000000 -0.100000 0.000000
vn 0.000000 -0.100000 0.000000
vn 0.000000 -0.100000 0.000000
vn 0.000000 -0.100000 0.000000
vn 0.000000 -0.100000 0.000000
vn 0.000000 -0.100000 0.000000
vn 0.000000 -0.100000 0.000000
vn 0.000000 -0.100000 0.000000
vn 0.000000 -0.100000 0.000000
vn 0.000000 -0.100000 0.000000
vn 0.000000 -0.100000 0.000000
vn 0.000000 -0.100000 0.000000
vn 0.000000 -0.100000 0.000000
vn 0.000000 -0.100000 0.000000
vn 0.000000 -0.100000 0.000000
vn 0.000000 -0.100000 0.000000
vn 0.000000 -0.100000 0.000000
vn 0.000000 -0.100000 0.000000
vn 0.000000 -0.100000 0.000000
vn 0.000000 -0.100000 0.000000
vn 0.000000 -0.100000 0.000000
vn 0.000000 -0.100000 0.000000
vn 0.000000 -0.100000 0.000000
vn 0.000000 -0.100000 0.000000
vn 0.000000 -0.100000 0.000000
vn 0.000000 -0.100000 0.000000
vn 0.000000 -0.100000 0.000000
vn 0.000000 -0.100000 0.000000
vn 0.000000 -0.100000 0.000000
vn 0.000000 -0.100000 0.000000
vn 0.000000 -0.100000 0.000000
vn 0.000000 -0.100000 0.000000
vn 0.000000 -0.100000 0.000000
vn 0.000000 -0.100000 0.000000
vn 0.000000 -0.100000 0.000000
vn 0.000000 -0.100000 0.000000
vn 0.000000 -0.100000 0.000000
vn 0.000000 -0.100000 0.000000
vn 0.000000 -0.100000 0.000000
vn 0.000000 -0.100000 0.000000
vn 0.000000 -0.100000 0.000000
vn 0.000000 -0.100000 0.000000
vn 0.000000 -0.100000 0.000000
usemtl Aluminum_-_Anodized_Glossy_(Red)
f 1/1/1 2/2/2 4/3/3
f 4/3/3 2/2/2 3/4/4
f 5/5/5 6/6/6 12/7/7
f 12/7/7 6/6/6 11/8/8
f 11/8/8 6/6/6 7/9/9
f 11/8/8 7/9/9 10/10/10
f 10/10/10 7/9/9 8/11/11
f 10/10/10 8/11/11 9/12/12
f 9/12/12 8/11/11 1/13/13
f 9/12/12 1/13/13 4/14/14
f 13/15/15 14/16/16 20/17/17
f 20/17/17 14/16/16 19/18/18
f 19/18/18 14/16/16 15/19/19
f 19/18/18 15/19/19 18/20/20
f 18/20/20 15/19/19 16/21/21
f 18/20/20 16/21/21 17/22/22
f 17/22/22 16/21/21 5/23/23
f 17/22/22 5/23/23 12/24/24
f 21/25/25 22/26/26 28/27/27
f 28/27/27 22/26/26 27/28/28
f 27/28/28 22/26/26 23/29/29
f 27/28/28 23/29/29 26/30/30
f 26/30/30 23/29/29 24/31/31
f 26/30/30 24/31/31 25/32/32
f 25/32/32 24/31/31 13/33/33
f 25/32/32 13/33/33 20/34/34
f 29/35/35 30/36/36 36/37/37
f 36/37/37 30/36/36 35/38/38
f 35/38/38 30/36/36 31/39/39
f 35/38/38 31/39/39 34/40/40
f 34/40/40 31/39/39 32/41/41
f 34/40/40 32/41/41 33/42/42
f 33/42/42 32/41/41 21/43/43
f 33/42/42 21/43/43 28/44/44
f 37/45/45 38/46/46 44/47/47
f 44/47/47 38/46/46 43/48/48
f 43/48/48 38/46/46 39/49/49
f 43/48/48 39/49/49 42/50/50
f 42/50/50 39/49/49 40/51/51
f 42/50/50 40/51/51 41/52/52
f 41/52/52 40/51/51 29/53/53
f 41/52/52 29/53/53 36/54/54
f 45/55/55 37/56/56 46/57/57
f 46/57/57 37/56/56 44/58/58
f 47/59/59 45/60/60 48/61/61
f 48/61/61 45/60/60 46/62/62
f 49/63/63 47/64/64 50/65/65
f 50/65/65 47/64/64 48/66/66
f 51/67/67 52/68/68 58/69/69
f 58/69/69 52/68/68 57/70/70
f 57/70/70 52/68/68 53/71/71
f 57/70/70 53/71/71 56/72/72
f 56/72/72 53/71/71 54/73/73
f 56/72/72 54/73/73 55/74/74
f 55/74/74 54/73/73 49/75/75
f 55/74/74 49/75/75 50/76/76
f 59/77/77 60/78/78 66/79/79
f 66/79/79 60/78/78 65/80/80
f 65/80/80 60/78/78 61/81/81
f 65/80/80 61/81/81 64/82/82
f 64/82/82 61/81/81 62/83/83
f 64/82/82 62/83/83 63/84/84
f 63/84/84 62/83/83 51/85/85
f 63/84/84 51/85/85 58/86/86
f 67/87/87 68/88/88 74/89/89
f 74/89/89 68/88/88 73/90/90
f 73/90/90 68/88/88 69/91/91
f 73/90/90 69/91/91 72/92/92
f 72/92/92 69/91/91 70/93/93
f 72/92/92 70/93/93 71/94/94
f 71/94/94 70/93/93 59/95/95
f 71/94/94 59/95/95 66/96/96
f 75/97/97 76/98/98 86/99/99
f 86/99/99 76/98/98 85/100/100
f 85/100/100 76/98/98 77/101/101
f 85/100/100 77/101/101 84/102/102
f 84/102/102 77/101/101 78/103/103
f 84/102/102 78/103/103 83/104/104
f 83/104/104 78/103/103 79/105/105
f 83/104/104 79/105/105 82/106/106
f 82/106/106 79/105/105 80/107/107
f 82/106/106 80/107/107 81/108/108
f 81/108/108 80/107/107 67/109/109
f 81/108/108 67/109/109 74/110/110
f 2/111/111 87/112/112 3/113/113
f 3/113/113 87/112/112 96/114/114
f 96/114/114 87/112/112 88/115/115
f 96/114/114 88/115/115 95/116/116
f 95/116/116 88/115/115 89/117/117
f 95/116/116 89/117/117 94/118/118
f 94/118/118 89/117/117 90/119/119
f 94/118/118 90/119/119 93/120/120
f 93/120/120 90/119/119 91/121/121
f 93/120/120 91/121/121 92/122/122
f 92/122/122 91/121/121 75/123/123
f 92/122/122 75/123/123 86/124/124
usemtl Bronze_-_Polished
f 4/125/125 3/126/126 9/127/127
f 9/127/127 3/126/126 96/128/128
f 9/127/127 96/128/128 95/129/129
f 9/127/127 95/129/129 10/130/130
f 10/130/130 95/129/129 94/131/131
f 10/130/130 94/131/131 93/132/132
f 93/132/132 92/133/133 10/130/130
f 10/130/130 92/133/133 11/134/134
f 11/134/134 92/133/133 86/135/135
f 11/134/134 86/135/135 12/136/136
f 12/136/136 86/135/135 85/137/137
f 12/136/136 85/137/137 84/138/138
f 12/136/136 84/138/138 17/139/139
f 17/139/139 84/138/138 83/140/140
f 17/139/139 83/140/140 18/141/141
f 18/141/141 83/140/140 82/142/142
f 18/141/141 82/142/142 81/143/143
f 18/141/141 81/143/143 19/144/144
f 19/144/144 81/143/143 74/145/145
f 19/144/144 74/145/145 20/146/146
f 20/146/146 74/145/145 25/147/147
f 25/147/147 74/145/145 73/148/148
f 25/147/147 73/148/148 26/149/149
f 26/149/149 73/148/148 72/150/150
f 26/149/149 72/150/150 27/151/151
f 27/151/151 72/150/150 71/152/152
f 27/151/151 71/152/152 28/153/153
f 28/153/153 71/152/152 33/154/154
f 33/154/154 71/152/152 66/155/155
f 33/154/154 66/155/155 34/156/156
f 34/156/156 66/155/155 65/157/157
f 34/156/156 65/157/157 35/158/158
f 35/158/158 65/157/157 64/159/159
f 35/158/158 64/159/159 36/160/160
f 36/160/160 64/159/159 63/161/161
f 36/160/160 63/161/161 58/162/162
f 36/160/160 58/162/162 41/163/163
f 41/163/163 58/162/162 57/164/164
f 41/163/163 57/164/164 42/165/165
f 42/165/165 57/164/164 56/166/166
f 42/165/165 56/166/166 55/167/167
f 50/168/168 44/169/169 55/167/167
f 55/167/167 44/169/169 43/170/170
f 55/167/167 43/170/170 42/165/165
f 48/171/171 46/172/172 50/168/168
f 50/168/168 46/172/172 44/169/169
f 91/173/173 6/174/174 75/175/175
f 75/175/175 6/174/174 5/176/176
f 75/175/175 5/176/176 76/177/177
f 76/177/177 5/176/176 77/178/178
f 77/178/178 5/176/176 16/179/179
f 77/178/178 16/179/179 78/180/180
f 78/180/180 16/179/179 15/181/181
f 78/180/180 15/181/181 79/182/182
f 79/182/182 15/181/181 80/183/183
f 80/183/183 15/181/181 14/184/184
f 80/183/183 14/184/184 67/185/185
f 67/185/185 14/184/184 13/186/186
f 67/185/185 13/186/186 24/187/187
f 6/174/174 91/173/173 7/188/188
f 7/188/188 91/173/173 90/189/189
f 7/188/188 90/189/189 89/190/190
f 89/190/190 88/191/191 7/188/188
f 7/188/188 88/191/191 8/192/192
f 8/192/192 88/191/191 87/193/193
f 8/192/192 87/193/193 2/194/194
f 2/194/194 1/195/195 8/192/192
f 67/185/185 24/187/187 68/196/196
f 68/196/196 24/187/187 23/197/197
f 68/196/196 23/197/197 69/198/198
f 69/198/198 23/197/197 22/199/199
f 69/198/198 22/199/199 70/200/200
f 70/200/200 22/199/199 21/201/201
f 70/200/200 21/201/201 32/202/202
f 70/200/200 32/202/202 59/203/203
f 59/203/203 32/202/202 31/204/204
f 59/203/203 31/204/204 60/205/205
f 60/205/205 31/204/204 30/206/206
f 60/205/205 30/206/206 61/207/207
f 61/207/207 30/206/206 29/208/208
f 61/207/207 29/208/208 62/209/209
f 62/209/209 29/208/208 51/210/210
f 51/210/210 29/208/208 40/211/211
f 51/210/210 40/211/211 52/212/212
f 52/212/212 40/211/211 39/213/213
f 52/212/212 39/213/213 53/214/214
f 53/214/214 39/213/213 54/215/215
f 54/215/215 39/213/213 38/216/216
f 54/215/215 38/216/216 37/217/217
f 54/215/215 37/217/217 49/218/218
f 49/218/218 37/217/217 45/219/219
f 49/218/218 45/219/219 47/220/220

# 96 vertices
# 220 texture params
# 220 normals
# 188 facets

# 1 groups
