# WaveFront *.obj file (generated by Autodesk ATF)

mtllib e256670a-8cbd-46ae-a744-13fae2e0e863.mtl

g Body49

v -160.415506 0.000000 41.856726
v -160.415506 0.000000 63.528617
v -160.415506 5.000000 63.528617
v -160.415506 5.000000 41.856726
v -157.547602 0.000000 41.856726
v -157.547602 5.000000 41.856726
v -157.547602 0.000000 52.603974
v -157.547602 5.000000 52.603974
v -146.785571 0.000000 41.856726
v -146.785571 5.000000 41.856726
v -142.897640 0.000000 41.856726
v -142.897640 5.000000 41.856726
v -151.989192 0.000000 50.637834
v -151.989192 5.000000 50.637834
v -142.498499 0.000000 63.528617
v -142.498499 5.000000 63.528617
v -146.282949 0.000000 63.528617
v -146.282949 5.000000 63.528617
v -153.999680 0.000000 52.559625
v -153.999680 5.000000 52.559625
v -157.547602 0.000000 56.018849
v -157.547602 5.000000 56.018849
v -157.547602 0.000000 63.528617
v -157.547602 5.000000 63.528617
vt 0.000000 0.000000 0.000000
vt 2.167189 0.000000 0.000000
vt 0.000000 0.500000 0.000000
vt 2.167189 0.500000 0.000000
vt -0.000000 0.000000 0.000000
vt 0.286790 0.000000 0.000000
vt -0.000000 0.500000 0.000000
vt 0.286790 0.500000 0.000000
vt -0.000000 0.000000 0.000000
vt 1.074725 0.000000 0.000000
vt -0.000000 0.500000 0.000000
vt 1.074725 0.500000 0.000000
vt 0.000000 0.000000 0.000000
vt 1.520936 0.000000 0.000000
vt 0.000000 0.500000 0.000000
vt 1.520936 0.500000 0.000000
vt -0.000000 0.000000 0.000000
vt 0.388793 0.000000 0.000000
vt -0.000000 0.500000 0.000000
vt 0.388793 0.500000 0.000000
vt 0.000000 0.000000 0.000000
vt 1.263978 0.000000 0.000000
vt 0.000000 0.500000 0.000000
vt 1.263978 0.500000 0.000000
vt -0.000000 0.000000 0.000000
vt 1.600767 0.000000 0.000000
vt -0.000000 0.500000 0.000000
vt 1.600767 0.500000 0.000000
vt 0.000000 0.000000 0.000000
vt 0.378445 0.000000 0.000000
vt 0.000000 0.500000 0.000000
vt 0.378445 0.500000 0.000000
vt 0.000000 0.000000 0.000000
vt 1.341144 0.000000 0.000000
vt 0.000000 0.500000 0.000000
vt 1.341144 0.500000 0.000000
vt 0.000000 0.000000 0.000000
vt 0.495520 0.000000 0.000000
vt 0.000000 0.500000 0.000000
vt 0.495520 0.500000 0.000000
vt -0.000000 0.000000 0.000000
vt 0.750977 0.000000 0.000000
vt -0.000000 0.500000 0.000000
vt 0.750977 0.500000 0.000000
vt 0.000000 0.000000 0.000000
vt 0.286790 0.000000 0.000000
vt 0.000000 0.500000 0.000000
vt 0.286790 0.500000 0.000000
vt 1.083595 -0.609060 0.000000
vt 0.332618 -0.609060 0.000000
vt 1.083595 -0.895850 0.000000
vt -0.008870 -0.609060 0.000000
vt -1.083595 -0.895850 0.000000
vt -1.083595 -0.609060 0.000000
vt -0.013305 -0.254268 0.000000
vt -0.205484 -0.053219 0.000000
vt -1.083595 0.467143 0.000000
vt -1.083595 0.855936 0.000000
vt 1.083595 0.517405 0.000000
vt 1.083595 0.895850 0.000000
vt 0.609060 -1.083595 0.000000
vt 0.895850 -1.083595 0.000000
vt 0.609060 -0.332618 0.000000
vt 0.609060 0.008870 0.000000
vt 0.254268 0.013305 0.000000
vt 0.053219 0.205484 0.000000
vt -0.517405 -1.083595 0.000000
vt -0.895850 -1.083595 0.000000
vt 0.895850 1.083595 0.000000
vt 0.609060 1.083595 0.000000
vt -0.467143 1.083595 0.000000
vt -0.855936 1.083595 0.000000
vn -0.100000 0.000000 0.000000
vn -0.100000 0.000000 0.000000
vn -0.100000 0.000000 0.000000
vn -0.100000 0.000000 0.000000
vn 0.000000 0.000000 -0.100000
vn 0.000000 0.000000 -0.100000
vn 0.000000 0.000000 -0.100000
vn 0.000000 0.000000 -0.100000
vn 0.100000 0.000000 0.000000
vn 0.100000 0.000000 0.000000
vn 0.100000 0.000000 0.000000
vn 0.100000 0.000000 0.000000
vn -0.070662 0.000000 -0.070759
vn -0.070662 0.000000 -0.070759
vn -0.070662 0.000000 -0.070759
vn -0.070662 0.000000 -0.070759
vn 0.000000 0.000000 -0.100000
vn 0.000000 0.000000 -0.100000
vn 0.000000 0.000000 -0.100000
vn 0.000000 0.000000 -0.100000
vn 0.069472 -0.000000 0.071928
vn 0.069472 -0.000000 0.071928
vn 0.069472 -0.000000 0.071928
vn 0.069472 -0.000000 0.071928
vn 0.080529 0.000000 -0.059288
vn 0.080529 0.000000 -0.059288
vn 0.080529 0.000000 -0.059288
vn 0.080529 0.000000 -0.059288
vn 0.000000 -0.000000 0.100000
vn 0.000000 -0.000000 0.100000
vn 0.000000 -0.000000 0.100000
vn 0.000000 -0.000000 0.100000
vn -0.081788 0.000000 0.057538
vn -0.081788 0.000000 0.057538
vn -0.081788 0.000000 0.057538
vn -0.081788 0.000000 0.057538
vn 0.069810 -0.000000 0.071600
vn 0.069810 -0.000000 0.071600
vn 0.069810 -0.000000 0.071600
vn 0.069810 -0.000000 0.071600
vn 0.100000 0.000000 0.000000
vn 0.100000 0.000000 0.000000
vn 0.100000 0.000000 0.000000
vn 0.100000 0.000000 0.000000
vn 0.000000 -0.000000 0.100000
vn 0.000000 -0.000000 0.100000
vn 0.000000 -0.000000 0.100000
vn 0.000000 -0.000000 0.100000
vn 0.000000 0.100000 0.000000
vn 0.000000 0.100000 0.000000
vn 0.000000 0.100000 0.000000
vn 0.000000 0.100000 0.000000
vn 0.000000 0.100000 0.000000
vn 0.000000 0.100000 0.000000
vn 0.000000 0.100000 0.000000
vn 0.000000 0.100000 0.000000
vn 0.000000 0.100000 0.000000
vn 0.000000 0.100000 0.000000
vn 0.000000 0.100000 0.000000
vn 0.000000 0.100000 0.000000
vn 0.000000 -0.100000 0.000000
vn 0.000000 -0.100000 0.000000
vn 0.000000 -0.100000 0.000000
vn 0.000000 -0.100000 0.000000
vn 0.000000 -0.100000 0.000000
vn 0.000000 -0.100000 0.000000
vn 0.000000 -0.100000 0.000000
vn 0.000000 -0.100000 0.000000
vn 0.000000 -0.100000 0.000000
vn 0.000000 -0.100000 0.000000
vn 0.000000 -0.100000 0.000000
vn 0.000000 -0.100000 0.000000
usemtl Aluminum_-_Anodized_Glossy_(Red)
f 1/1/1 2/2/2 4/3/3
f 4/3/3 2/2/2 3/4/4
f 5/5/5 1/6/6 6/7/7
f 6/7/7 1/6/6 4/8/8
f 7/9/9 5/10/10 8/11/11
f 8/11/11 5/10/10 6/12/12
f 9/13/13 7/14/14 10/15/15
f 10/15/15 7/14/14 8/16/16
f 11/17/17 9/18/18 12/19/19
f 12/19/19 9/18/18 10/20/20
f 13/21/21 11/22/22 14/23/23
f 14/23/23 11/22/22 12/24/24
f 15/25/25 13/26/26 16/27/27
f 16/27/27 13/26/26 14/28/28
f 17/29/29 15/30/30 18/31/31
f 18/31/31 15/30/30 16/32/32
f 19/33/33 17/34/34 20/35/35
f 20/35/35 17/34/34 18/36/36
f 21/37/37 19/38/38 22/39/39
f 22/39/39 19/38/38 20/40/40
f 23/41/41 21/42/42 24/43/43
f 24/43/43 21/42/42 22/44/44
f 2/45/45 23/46/46 3/47/47
f 3/47/47 23/46/46 24/48/48
usemtl Bronze_-_Polished
f 24/49/49 22/50/50 3/51/51
f 3/51/51 22/50/50 8/52/52
f 3/51/51 8/52/52 4/53/53
f 4/53/53 8/52/52 6/54/54
f 22/50/50 20/55/55 8/52/52
f 8/52/52 20/55/55 14/56/56
f 8/52/52 14/56/56 10/57/57
f 10/57/57 14/56/56 12/58/58
f 20/55/55 18/59/59 14/56/56
f 14/56/56 18/59/59 16/60/60
f 23/61/61 2/62/62 21/63/63
f 21/63/63 2/62/62 7/64/64
f 21/63/63 7/64/64 19/65/65
f 19/65/65 7/64/64 13/66/66
f 19/65/65 13/66/66 17/67/67
f 17/67/67 13/66/66 15/68/68
f 2/62/62 1/69/69 7/64/64
f 7/64/64 1/69/69 5/70/70
f 7/64/64 9/71/71 13/66/66
f 13/66/66 9/71/71 11/72/72

# 24 vertices
# 72 texture params
# 72 normals
# 44 facets

# 1 groups
