# File exported by Houdini 18.5.499 (www.sidefx.com)
# 12 points
# 60 vertices
# 20 primitives
# Bounds: [-0.206620216, 0.00885534286, 0] to [0.335029602, 0.875730872, 0.199999988]
g 
v -0.206620216 0.875730872 0
v -0.206620216 0.00885534286 0
v -0.206620216 0.00885534286 0.199999988
v -0.206620216 0.875730872 0.199999988
v -0.0919041634 0.875730872 0
v -0.0919041634 0.875730872 0.199999988
v -0.0919041634 0.111153841 0
v -0.0919041634 0.111153841 0.199999988
v 0.335029602 0.111153841 0
v 0.335029602 0.111153841 0.199999988
v 0.335029602 0.00885534286 0
v 0.335029602 0.00885534286 0.199999988
vt 0 0 0
vt 2.16718888 0 0
vt 0 0.5 0
vt 2.16718888 0.5 0
vt -0 0 0
vt 0.286790013 0 0
vt -0 0.5 0
vt 0.286790013 0.5 0
vt 1.911443 0 0
vt 1.911443 0.5 0
vt 1.06733298 0 0
vt 1.06733298 0.5 0
vt 0.255746007 0 0
vt 0.255746007 0.5 0
vt 1.35412395 0 0
vt 1.35412395 0.5 0
vt -1.08359504 -0.677061975 0
vt 1.08359504 -0.677061975 0
vt 0.827848017 -0.390271008 0
vt 1.08359504 0.677061975 0
vt 0.827848017 0.677061975 0
vt -1.08359504 -0.390271008 0
vt -0.677061975 -0.827848017 0
vt -0.677061975 -1.08359504 0
vt 0.390271008 -0.827848017 0
vt 0.677061975 -1.08359504 0
vt 0.677061975 1.08359504 0
vt 0.390271008 1.08359504 0
vn -0.100000001 0 0
vn -0.100000001 0 0
vn -0.100000001 0 0
vn -0.100000001 0 0
vn -0.100000001 0 0
vn -0.100000001 0 0
vn 3.81469745e-09 0.099999994 0
vn 3.81469745e-09 0.099999994 0
vn 3.81469745e-09 0.099999994 0
vn 3.81469745e-09 0.099999994 0
vn 3.81469745e-09 0.099999994 0
vn 3.81469745e-09 0.099999994 0
vn 0.100000001 0 0
vn 0.100000001 0 0
vn 0.100000001 0 0
vn 0.100000001 0 0
vn 0.100000001 0 0
vn 0.100000001 0 0
vn 3.81469745e-09 0.099999994 0
vn 3.81469745e-09 0.099999994 0
vn 3.81469745e-09 0.099999994 0
vn 3.81469745e-09 0.099999994 0
vn 3.81469745e-09 0.099999994 0
vn 3.81469745e-09 0.099999994 0
vn 0.100000001 0 0
vn 0.100000001 0 0
vn 0.100000001 0 0
vn 0.100000001 0 0
vn 0.100000001 0 0
vn 0.100000001 0 0
vn -3.81469745e-09 -0.099999994 0
vn -3.81469745e-09 -0.099999994 0
vn -3.81469745e-09 -0.099999994 0
vn -3.81469745e-09 -0.099999994 0
vn -3.81469745e-09 -0.099999994 0
vn -3.81469745e-09 -0.099999994 0
vn 0 0 0.099999994
vn 0 0 0.099999994
vn 0 0 0.099999994
vn 0 0 0.099999994
vn 0 0 0.099999994
vn 0 0 0.099999994
vn 0 0 0.099999994
vn 0 0 0.099999994
vn 0 0 0.099999994
vn 0 0 0.099999994
vn 0 0 0.099999994
vn 0 0 0.099999994
vn 0 -0 -0.099999994
vn 0 -0 -0.099999994
vn 0 -0 -0.099999994
vn 0 -0 -0.099999994
vn 0 -0 -0.099999994
vn 0 -0 -0.099999994
vn 0 -0 -0.099999994
vn 0 -0 -0.099999994
vn 0 -0 -0.099999994
vn 0 -0 -0.099999994
vn 0 -0 -0.099999994
vn 0 -0 -0.099999994
g Body49
usemtl /mat/Aluminum_-_Anodized_Glossy_(Red)
f 1/1/1 2/2/2 4/3/3
f 4/3/4 2/2/5 3/4/6
f 5/5/7 1/6/8 6/7/9
f 6/7/10 1/6/11 4/8/12
f 7/5/13 5/9/14 8/7/15
f 8/7/16 5/9/17 6/10/18
f 9/5/19 7/11/20 10/7/21
f 10/7/22 7/11/23 8/12/24
f 11/5/25 9/13/26 12/7/27
f 12/7/28 9/13/29 10/14/30
f 2/1/31 11/15/32 3/3/33
f 3/3/34 11/15/35 12/16/36
g Body49
usemtl /mat/Bronze_-_Polished
f 4/17/37 3/18/38 8/19/39
f 8/19/40 3/18/41 12/20/42
f 8/19/43 12/20/44 10/21/45
f 8/19/46 6/22/47 4/17/48
f 9/23/49 11/24/50 7/25/51
f 7/25/52 11/24/53 2/26/54
f 7/25/55 2/26/56 1/27/57
f 1/27/58 5/28/59 7/25/60
