# WaveFront *.obj file (generated by Autodesk ATF)

mtllib 9a2f446c-3922-42af-8bec-73031d467753.mtl

g Body49

v -160.415506 0.000000 41.856726
v -160.415506 0.000000 63.528617
v -160.415506 5.000000 63.528617
v -160.415506 5.000000 41.856726
v -157.547602 0.000000 41.856726
v -157.547602 5.000000 41.856726
v -157.547602 0.000000 60.971156
v -157.547602 5.000000 60.971156
v -146.874270 0.000000 60.971156
v -146.874270 5.000000 60.971156
v -146.874270 0.000000 63.528617
v -146.874270 5.000000 63.528617
vt 0.000000 0.000000 0.000000
vt 2.167189 0.000000 0.000000
vt 0.000000 0.500000 0.000000
vt 2.167189 0.500000 0.000000
vt -0.000000 0.000000 0.000000
vt 0.286790 0.000000 0.000000
vt -0.000000 0.500000 0.000000
vt 0.286790 0.500000 0.000000
vt -0.000000 0.000000 0.000000
vt 1.911443 0.000000 0.000000
vt -0.000000 0.500000 0.000000
vt 1.911443 0.500000 0.000000
vt -0.000000 0.000000 0.000000
vt 1.067333 0.000000 0.000000
vt -0.000000 0.500000 0.000000
vt 1.067333 0.500000 0.000000
vt -0.000000 0.000000 0.000000
vt 0.255746 0.000000 0.000000
vt -0.000000 0.500000 0.000000
vt 0.255746 0.500000 0.000000
vt 0.000000 0.000000 0.000000
vt 1.354124 0.000000 0.000000
vt 0.000000 0.500000 0.000000
vt 1.354124 0.500000 0.000000
vt -1.083595 -0.677062 0.000000
vt 1.083595 -0.677062 0.000000
vt 0.827848 -0.390271 0.000000
vt 1.083595 0.677062 0.000000
vt 0.827848 0.677062 0.000000
vt -1.083595 -0.390271 0.000000
vt -0.677062 -0.827848 0.000000
vt -0.677062 -1.083595 0.000000
vt 0.390271 -0.827848 0.000000
vt 0.677062 -1.083595 0.000000
vt 0.677062 1.083595 0.000000
vt 0.390271 1.083595 0.000000
vn -0.100000 0.000000 0.000000
vn -0.100000 0.000000 0.000000
vn -0.100000 0.000000 0.000000
vn -0.100000 0.000000 0.000000
vn 0.000000 0.000000 -0.100000
vn 0.000000 0.000000 -0.100000
vn 0.000000 0.000000 -0.100000
vn 0.000000 0.000000 -0.100000
vn 0.100000 0.000000 0.000000
vn 0.100000 0.000000 0.000000
vn 0.100000 0.000000 0.000000
vn 0.100000 0.000000 0.000000
vn 0.000000 0.000000 -0.100000
vn 0.000000 0.000000 -0.100000
vn 0.000000 0.000000 -0.100000
vn 0.000000 0.000000 -0.100000
vn 0.100000 0.000000 0.000000
vn 0.100000 0.000000 0.000000
vn 0.100000 0.000000 0.000000
vn 0.100000 0.000000 0.000000
vn 0.000000 -0.000000 0.100000
vn 0.000000 -0.000000 0.100000
vn 0.000000 -0.000000 0.100000
vn 0.000000 -0.000000 0.100000
vn 0.000000 0.100000 0.000000
vn 0.000000 0.100000 0.000000
vn 0.000000 0.100000 0.000000
vn 0.000000 0.100000 0.000000
vn 0.000000 0.100000 0.000000
vn 0.000000 0.100000 0.000000
vn 0.000000 -0.100000 0.000000
vn 0.000000 -0.100000 0.000000
vn 0.000000 -0.100000 0.000000
vn 0.000000 -0.100000 0.000000
vn 0.000000 -0.100000 0.000000
vn 0.000000 -0.100000 0.000000
usemtl Aluminum_-_Anodized_Glossy_(Red)
f 1/1/1 2/2/2 4/3/3
f 4/3/3 2/2/2 3/4/4
f 5/5/5 1/6/6 6/7/7
f 6/7/7 1/6/6 4/8/8
f 7/9/9 5/10/10 8/11/11
f 8/11/11 5/10/10 6/12/12
f 9/13/13 7/14/14 10/15/15
f 10/15/15 7/14/14 8/16/16
f 11/17/17 9/18/18 12/19/19
f 12/19/19 9/18/18 10/20/20
f 2/21/21 11/22/22 3/23/23
f 3/23/23 11/22/22 12/24/24
usemtl Bronze_-_Polished
f 4/25/25 3/26/26 8/27/27
f 8/27/27 3/26/26 12/28/28
f 8/27/27 12/28/28 10/29/29
f 8/27/27 6/30/30 4/25/25
f 9/31/31 11/32/32 7/33/33
f 7/33/33 11/32/32 2/34/34
f 7/33/33 2/34/34 1/35/35
f 1/35/35 5/36/36 7/33/33

# 12 vertices
# 36 texture params
# 36 normals
# 20 facets

# 1 groups
