# WaveFront *.obj file (generated by Autodesk ATF)

mtllib a9e8165b-9859-4379-a310-bc110739428f.mtl

g Body49

v -160.415506 0.000000 41.856726
v -160.415506 0.000000 63.528617
v -160.415506 5.000000 63.528617
v -160.415506 5.000000 41.856726
v -156.098867 0.000000 41.856726
v -156.098867 5.000000 41.856726
v -150.969164 0.000000 57.201489
v -150.969164 5.000000 57.201489
v -149.934352 0.000000 60.409401
v -150.186993 0.000000 59.605474
v -150.443410 0.000000 58.802760
v -150.704932 0.000000 58.001689
v -150.704932 5.000000 58.001689
v -150.443410 5.000000 58.802760
v -150.186993 5.000000 59.605474
v -149.934352 5.000000 60.409401
v -148.781278 0.000000 56.935395
v -149.076512 0.000000 57.801592
v -149.368318 0.000000 58.668923
v -149.653687 0.000000 59.538384
v -149.653687 5.000000 59.538384
v -149.368318 5.000000 58.668923
v -149.076512 5.000000 57.801592
v -148.781278 5.000000 56.935395
v -143.592442 0.000000 41.856726
v -143.592442 5.000000 41.856726
v -139.734078 0.000000 41.856726
v -139.734078 5.000000 41.856726
v -139.734078 0.000000 63.528617
v -139.734078 5.000000 63.528617
v -142.498499 0.000000 63.528617
v -142.498499 5.000000 63.528617
v -142.498499 0.000000 45.389865
v -142.498499 5.000000 45.389865
v -148.796061 0.000000 63.528617
v -148.796061 5.000000 63.528617
v -151.383087 0.000000 63.528617
v -151.383087 5.000000 63.528617
v -157.651084 0.000000 45.079422
v -157.651084 5.000000 45.079422
v -157.651084 0.000000 63.528617
v -157.651084 5.000000 63.528617
vt 0.000000 0.000000 0.000000
vt 2.167189 0.000000 0.000000
vt 0.000000 0.500000 0.000000
vt 2.167189 0.500000 0.000000
vt -0.000000 0.000000 0.000000
vt 0.431664 0.000000 0.000000
vt -0.000000 0.500000 0.000000
vt 0.431664 0.500000 0.000000
vt -0.000000 0.000000 0.000000
vt 1.617948 0.000000 0.000000
vt -0.000000 0.500000 0.000000
vt 1.617948 0.500000 0.000000
vt -0.337069 0.000000 0.000000
vt -0.252802 0.000000 0.000000
vt -0.337069 0.500000 0.000000
vt -0.252802 0.500000 0.000000
vt -0.168535 0.000000 0.000000
vt -0.168535 0.500000 0.000000
vt -0.084267 0.000000 0.000000
vt -0.084267 0.500000 0.000000
vt 0.000000 0.000000 0.000000
vt 0.000000 0.500000 0.000000
vt -0.366037 0.000000 0.000000
vt -0.274528 0.000000 0.000000
vt -0.366037 0.500000 0.000000
vt -0.274528 0.500000 0.000000
vt -0.183019 0.000000 0.000000
vt -0.183019 0.500000 0.000000
vt -0.091509 0.000000 0.000000
vt -0.091509 0.500000 0.000000
vt 0.000000 0.000000 0.000000
vt 0.000000 0.500000 0.000000
vt 0.000000 0.000000 0.000000
vt 1.594648 0.000000 0.000000
vt 0.000000 0.500000 0.000000
vt 1.594648 0.500000 0.000000
vt -0.000000 0.000000 0.000000
vt 0.385836 0.000000 0.000000
vt -0.000000 0.500000 0.000000
vt 0.385836 0.500000 0.000000
vt -0.000000 0.000000 0.000000
vt 2.167189 0.000000 0.000000
vt -0.000000 0.500000 0.000000
vt 2.167189 0.500000 0.000000
vt 0.000000 0.000000 0.000000
vt 0.276442 0.000000 0.000000
vt 0.000000 0.500000 0.000000
vt 0.276442 0.500000 0.000000
vt 0.000000 0.000000 0.000000
vt 1.813875 0.000000 0.000000
vt 0.000000 0.500000 0.000000
vt 1.813875 0.500000 0.000000
vt 0.000000 0.000000 0.000000
vt 1.920088 0.000000 0.000000
vt 0.000000 0.500000 0.000000
vt 1.920088 0.500000 0.000000
vt 0.000000 0.000000 0.000000
vt 0.258703 0.000000 0.000000
vt 0.000000 0.500000 0.000000
vt 0.258703 0.500000 0.000000
vt 0.000000 0.000000 0.000000
vt 1.948488 0.000000 0.000000
vt 0.000000 0.500000 0.000000
vt 1.948488 0.500000 0.000000
vt -0.000000 0.000000 0.000000
vt 1.844920 0.000000 0.000000
vt -0.000000 0.500000 0.000000
vt 1.844920 0.500000 0.000000
vt 0.000000 0.000000 0.000000
vt 0.276442 0.000000 0.000000
vt 0.000000 0.500000 0.000000
vt 0.276442 0.500000 0.000000
vt -0.757629 -1.083595 0.000000
vt -0.757629 0.761325 0.000000
vt -1.034071 -1.083595 0.000000
vt -1.034071 1.083595 0.000000
vt -0.602408 1.083595 0.000000
vt -0.089437 -0.450882 0.000000
vt -0.130829 -1.083595 0.000000
vt -0.063014 -0.530902 0.000000
vt -0.036862 -0.611009 0.000000
vt -0.011220 -0.691280 0.000000
vt 0.014044 -0.771673 0.000000
vt 0.127873 -1.083595 0.000000
vt 0.042110 -0.684571 0.000000
vt 0.070647 -0.597625 0.000000
vt 0.099828 -0.510892 0.000000
vt 0.129351 -0.424272 0.000000
vt 0.757629 0.730281 0.000000
vt 0.648235 1.083595 0.000000
vt 1.034071 1.083595 0.000000
vt 1.034071 -1.083595 0.000000
vt 0.757629 -1.083595 0.000000
vt 0.757629 -1.083595 0.000000
vt 1.034071 -1.083595 0.000000
vt 0.757629 0.761325 0.000000
vt 1.034071 1.083595 0.000000
vt 0.602408 1.083595 0.000000
vt 0.089437 -0.450882 0.000000
vt 0.130829 -1.083595 0.000000
vt 0.063014 -0.530902 0.000000
vt 0.036862 -0.611009 0.000000
vt 0.011220 -0.691280 0.000000
vt -0.014044 -0.771673 0.000000
vt -0.127873 -1.083595 0.000000
vt -0.042110 -0.684571 0.000000
vt -0.070647 -0.597625 0.000000
vt -0.099828 -0.510892 0.000000
vt -0.129351 -0.424272 0.000000
vt -0.757629 0.730281 0.000000
vt -0.648235 1.083595 0.000000
vt -1.034071 1.083595 0.000000
vt -1.034071 -1.083595 0.000000
vt -0.757629 -1.083595 0.000000
vn -0.100000 0.000000 0.000000
vn -0.100000 0.000000 0.000000
vn -0.100000 0.000000 0.000000
vn -0.100000 0.000000 0.000000
vn 0.000000 0.000000 -0.100000
vn 0.000000 0.000000 -0.100000
vn 0.000000 0.000000 -0.100000
vn 0.000000 0.000000 -0.100000
vn 0.094841 0.000000 -0.031705
vn 0.094841 0.000000 -0.031705
vn 0.094841 0.000000 -0.031705
vn 0.094841 0.000000 -0.031705
vn 0.095424 0.000000 -0.029905
vn 0.095352 0.000000 -0.030132
vn 0.095424 0.000000 -0.029905
vn 0.095352 0.000000 -0.030132
vn 0.095149 0.000000 -0.030767
vn 0.095149 0.000000 -0.030767
vn 0.094992 0.000000 -0.031249
vn 0.094992 0.000000 -0.031249
vn 0.094939 0.000000 -0.031409
vn 0.094939 0.000000 -0.031409
vn -0.094632 0.000000 -0.032324
vn -0.094695 0.000000 -0.032137
vn -0.094632 0.000000 -0.032324
vn -0.094695 0.000000 -0.032137
vn -0.094884 0.000000 -0.031576
vn -0.094884 0.000000 -0.031576
vn -0.095125 0.000000 -0.030843
vn -0.095125 0.000000 -0.030843
vn -0.095209 0.000000 -0.030583
vn -0.095209 0.000000 -0.030583
vn -0.094558 0.000000 -0.032539
vn -0.094558 0.000000 -0.032539
vn -0.094558 0.000000 -0.032539
vn -0.094558 0.000000 -0.032539
vn 0.000000 0.000000 -0.100000
vn 0.000000 0.000000 -0.100000
vn 0.000000 0.000000 -0.100000
vn 0.000000 0.000000 -0.100000
vn 0.100000 0.000000 0.000000
vn 0.100000 0.000000 0.000000
vn 0.100000 0.000000 0.000000
vn 0.100000 0.000000 0.000000
vn 0.000000 -0.000000 0.100000
vn 0.000000 -0.000000 0.100000
vn 0.000000 -0.000000 0.100000
vn 0.000000 -0.000000 0.100000
vn -0.100000 0.000000 0.000000
vn -0.100000 0.000000 0.000000
vn -0.100000 0.000000 0.000000
vn -0.100000 0.000000 0.000000
vn 0.094468 -0.000000 0.032798
vn 0.094468 -0.000000 0.032798
vn 0.094468 -0.000000 0.032798
vn 0.094468 -0.000000 0.032798
vn 0.000000 -0.000000 0.100000
vn 0.000000 -0.000000 0.100000
vn 0.000000 -0.000000 0.100000
vn 0.000000 -0.000000 0.100000
vn -0.094685 0.000000 0.032169
vn -0.094685 0.000000 0.032169
vn -0.094685 0.000000 0.032169
vn -0.094685 0.000000 0.032169
vn 0.100000 0.000000 0.000000
vn 0.100000 0.000000 0.000000
vn 0.100000 0.000000 0.000000
vn 0.100000 0.000000 0.000000
vn 0.000000 -0.000000 0.100000
vn 0.000000 -0.000000 0.100000
vn 0.000000 -0.000000 0.100000
vn 0.000000 -0.000000 0.100000
vn 0.000000 0.100000 0.000000
vn 0.000000 0.100000 0.000000
vn 0.000000 0.100000 0.000000
vn 0.000000 0.100000 0.000000
vn 0.000000 0.100000 0.000000
vn 0.000000 0.100000 0.000000
vn 0.000000 0.100000 0.000000
vn 0.000000 0.100000 0.000000
vn 0.000000 0.100000 0.000000
vn 0.000000 0.100000 0.000000
vn 0.000000 0.100000 0.000000
vn 0.000000 0.100000 0.000000
vn 0.000000 0.100000 0.000000
vn 0.000000 0.100000 0.000000
vn 0.000000 0.100000 0.000000
vn 0.000000 0.100000 0.000000
vn 0.000000 0.100000 0.000000
vn 0.000000 0.100000 0.000000
vn 0.000000 0.100000 0.000000
vn 0.000000 0.100000 0.000000
vn 0.000000 0.100000 0.000000
vn 0.000000 -0.100000 0.000000
vn 0.000000 -0.100000 0.000000
vn 0.000000 -0.100000 0.000000
vn 0.000000 -0.100000 0.000000
vn 0.000000 -0.100000 0.000000
vn 0.000000 -0.100000 0.000000
vn 0.000000 -0.100000 0.000000
vn 0.000000 -0.100000 0.000000
vn 0.000000 -0.100000 0.000000
vn 0.000000 -0.100000 0.000000
vn 0.000000 -0.100000 0.000000
vn 0.000000 -0.100000 0.000000
vn 0.000000 -0.100000 0.000000
vn 0.000000 -0.100000 0.000000
vn 0.000000 -0.100000 0.000000
vn 0.000000 -0.100000 0.000000
vn 0.000000 -0.100000 0.000000
vn 0.000000 -0.100000 0.000000
vn 0.000000 -0.100000 0.000000
vn 0.000000 -0.100000 0.000000
vn 0.000000 -0.100000 0.000000
usemtl Aluminum_-_Anodized_Glossy_(Red)
f 1/1/1 2/2/2 4/3/3
f 4/3/3 2/2/2 3/4/4
f 5/5/5 1/6/6 6/7/7
f 6/7/7 1/6/6 4/8/8
f 7/9/9 5/10/10 8/11/11
f 8/11/11 5/10/10 6/12/12
f 9/13/13 10/14/14 16/15/15
f 16/15/15 10/14/14 15/16/16
f 15/16/16 10/14/14 11/17/17
f 15/16/16 11/17/17 14/18/18
f 14/18/18 11/17/17 12/19/19
f 14/18/18 12/19/19 13/20/20
f 13/20/20 12/19/19 7/21/21
f 13/20/20 7/21/21 8/22/22
f 17/23/23 18/24/24 24/25/25
f 24/25/25 18/24/24 23/26/26
f 23/26/26 18/24/24 19/27/27
f 23/26/26 19/27/27 22/28/28
f 22/28/28 19/27/27 20/29/29
f 22/28/28 20/29/29 21/30/30
f 21/30/30 20/29/29 9/31/31
f 21/30/30 9/31/31 16/32/32
f 25/33/33 17/34/34 26/35/35
f 26/35/35 17/34/34 24/36/36
f 27/37/37 25/38/38 28/39/39
f 28/39/39 25/38/38 26/40/40
f 29/41/41 27/42/42 30/43/43
f 30/43/43 27/42/42 28/44/44
f 31/45/45 29/46/46 32/47/47
f 32/47/47 29/46/46 30/48/48
f 33/49/49 31/50/50 34/51/51
f 34/51/51 31/50/50 32/52/52
f 35/53/53 33/54/54 36/55/55
f 36/55/55 33/54/54 34/56/56
f 37/57/57 35/58/58 38/59/59
f 38/59/59 35/58/58 36/60/60
f 39/61/61 37/62/62 40/63/63
f 40/63/63 37/62/62 38/64/64
f 41/65/65 39/66/66 42/67/67
f 42/67/67 39/66/66 40/68/68
f 2/69/69 41/70/70 3/71/71
f 3/71/71 41/70/70 42/72/72
usemtl Bronze_-_Polished
f 42/73/73 40/74/74 3/75/75
f 3/75/75 40/74/74 4/76/76
f 4/76/76 40/74/74 6/77/77
f 6/77/77 40/74/74 8/78/78
f 8/78/78 40/74/74 38/79/79
f 8/78/78 38/79/79 13/80/80
f 13/80/80 38/79/79 14/81/81
f 14/81/81 38/79/79 15/82/82
f 15/82/82 38/79/79 16/83/83
f 16/83/83 38/79/79 36/84/84
f 16/83/83 36/84/84 21/85/85
f 21/85/85 36/84/84 22/86/86
f 22/86/86 36/84/84 23/87/87
f 23/87/87 36/84/84 24/88/88
f 24/88/88 36/84/84 34/89/89
f 24/88/88 34/89/89 26/90/90
f 26/90/90 34/89/89 28/91/91
f 28/91/91 34/89/89 30/92/92
f 30/92/92 34/89/89 32/93/93
f 41/94/94 2/95/95 39/96/96
f 39/96/96 2/95/95 1/97/97
f 39/96/96 1/97/97 5/98/98
f 5/98/98 7/99/99 39/96/96
f 39/96/96 7/99/99 37/100/100
f 37/100/100 7/99/99 12/101/101
f 37/100/100 12/101/101 11/102/102
f 11/102/102 10/103/103 37/100/100
f 37/100/100 10/103/103 9/104/104
f 37/100/100 9/104/104 35/105/105
f 35/105/105 9/104/104 20/106/106
f 35/105/105 20/106/106 19/107/107
f 19/107/107 18/108/108 35/105/105
f 35/105/105 18/108/108 17/109/109
f 35/105/105 17/109/109 33/110/110
f 33/110/110 17/109/109 25/111/111
f 33/110/110 25/111/111 27/112/112
f 27/112/112 29/113/113 33/110/110
f 33/110/110 29/113/113 31/114/114

# 42 vertices
# 114 texture params
# 114 normals
# 80 facets

# 1 groups
