# WaveFront *.obj file (generated by Autodesk ATF)

mtllib 29124fea-c9fa-45e0-965f-4af10ff0c9fd.mtl

g Body49

v -160.415506 0.000000 41.856726
v -152.018757 0.000000 63.528617
v -152.018757 5.000000 63.528617
v -160.415506 5.000000 41.856726
v -157.311074 0.000000 41.856726
v -157.311074 5.000000 41.856726
v -151.678748 0.000000 57.600630
v -151.678748 5.000000 57.600630
v -150.540457 0.000000 61.148554
v -150.802018 0.000000 60.254209
v -151.076506 0.000000 59.364000
v -151.371652 0.000000 58.480403
v -151.371652 5.000000 58.480403
v -151.076506 5.000000 59.364000
v -150.802018 5.000000 60.254209
v -150.540457 5.000000 61.148554
v -149.372599 0.000000 57.600630
v -149.689736 0.000000 58.479329
v -149.993210 0.000000 59.362523
v -150.273759 0.000000 60.253260
v -150.273759 5.000000 60.253260
v -149.993210 5.000000 59.362523
v -149.689736 5.000000 58.479329
v -149.372599 5.000000 57.600630
v -143.518526 0.000000 41.856726
v -143.518526 5.000000 41.856726
v -140.591491 0.000000 41.856726
v -140.591491 5.000000 41.856726
v -149.076938 0.000000 63.528617
v -149.076938 5.000000 63.528617
vt 0.000000 0.000000 0.000000
vt 2.324169 0.000000 0.000000
vt 0.000000 0.500000 0.000000
vt 2.324169 0.500000 0.000000
vt -0.000000 0.000000 0.000000
vt 0.310443 0.000000 0.000000
vt -0.000000 0.500000 0.000000
vt 0.310443 0.500000 0.000000
vt -0.000000 0.000000 0.000000
vt 1.672105 0.000000 0.000000
vt -0.000000 0.500000 0.000000
vt 1.672105 0.500000 0.000000
vt -0.372606 0.000000 0.000000
vt -0.279454 0.000000 0.000000
vt -0.372606 0.500000 0.000000
vt -0.279454 0.500000 0.000000
vt -0.186303 0.000000 0.000000
vt -0.186303 0.500000 0.000000
vt -0.093151 0.000000 0.000000
vt -0.093151 0.500000 0.000000
vt 0.000000 0.000000 0.000000
vt 0.000000 0.500000 0.000000
vt -0.373519 0.000000 0.000000
vt -0.280139 0.000000 0.000000
vt -0.373519 0.500000 0.000000
vt -0.280139 0.500000 0.000000
vt -0.186760 0.000000 0.000000
vt -0.186760 0.500000 0.000000
vt -0.093380 0.000000 0.000000
vt -0.093380 0.500000 0.000000
vt 0.000000 0.000000 0.000000
vt 0.000000 0.500000 0.000000
vt 0.000000 0.000000 0.000000
vt 1.679704 0.000000 0.000000
vt 0.000000 0.500000 0.000000
vt 1.679704 0.500000 0.000000
vt -0.000000 0.000000 0.000000
vt 0.292704 0.000000 0.000000
vt -0.000000 0.500000 0.000000
vt 0.292704 0.500000 0.000000
vt 0.000000 0.000000 0.000000
vt 2.327388 0.000000 0.000000
vt 0.000000 0.500000 0.000000
vt 2.327388 0.500000 0.000000
vt 0.000000 0.000000 0.000000
vt 0.294182 0.000000 0.000000
vt 0.000000 0.500000 0.000000
vt 0.294182 0.500000 0.000000
vt 0.142656 -1.083595 0.000000
vt -0.003696 -0.845588 0.000000
vt -0.151526 -1.083595 0.000000
vt -0.029852 -0.756154 0.000000
vt -0.057301 -0.667133 0.000000
vt 0.991201 1.083595 0.000000
vt 0.113090 -0.490796 0.000000
vt 0.081376 -0.578666 0.000000
vt 0.051029 -0.666985 0.000000
vt 0.698497 1.083595 0.000000
vt 0.022974 -0.756059 0.000000
vt -0.086815 -0.578773 0.000000
vt -0.117525 -0.490796 0.000000
vt -0.991201 1.083595 0.000000
vt -0.680758 1.083595 0.000000
vt 0.151526 -1.083595 0.000000
vt 0.003696 -0.845588 0.000000
vt -0.142656 -1.083595 0.000000
vt -0.022974 -0.756059 0.000000
vt -0.051029 -0.666985 0.000000
vt 0.991201 1.083595 0.000000
vt 0.117525 -0.490796 0.000000
vt 0.086815 -0.578773 0.000000
vt 0.057301 -0.667133 0.000000
vt 0.680758 1.083595 0.000000
vt 0.029852 -0.756154 0.000000
vt -0.081376 -0.578666 0.000000
vt -0.113090 -0.490796 0.000000
vt -0.991201 1.083595 0.000000
vt -0.698497 1.083595 0.000000
vn -0.093246 0.000000 0.036128
vn -0.093246 0.000000 0.036128
vn -0.093246 0.000000 0.036128
vn -0.093246 0.000000 0.036128
vn 0.000000 0.000000 -0.100000
vn 0.000000 0.000000 -0.100000
vn 0.000000 0.000000 -0.100000
vn 0.000000 0.000000 -0.100000
vn 0.094156 0.000000 -0.033684
vn 0.094156 0.000000 -0.033684
vn 0.094156 0.000000 -0.033684
vn 0.094156 0.000000 -0.033684
vn 0.096047 0.000000 -0.027837
vn 0.095842 0.000000 -0.028536
vn 0.096047 0.000000 -0.027837
vn 0.095842 0.000000 -0.028536
vn 0.095198 0.000000 -0.030615
vn 0.095198 0.000000 -0.030615
vn 0.094560 0.000000 -0.032532
vn 0.094560 0.000000 -0.032532
vn 0.094339 0.000000 -0.033168
vn 0.094339 0.000000 -0.033168
vn -0.093974 0.000000 -0.034189
vn -0.094234 0.000000 -0.033465
vn -0.093974 0.000000 -0.034189
vn -0.094234 0.000000 -0.033465
vn -0.094982 0.000000 -0.031280
vn -0.094982 0.000000 -0.031280
vn -0.095688 0.000000 -0.029047
vn -0.095688 0.000000 -0.029047
vn -0.095912 0.000000 -0.028300
vn -0.095912 0.000000 -0.028300
vn -0.093730 0.000000 -0.034852
vn -0.093730 0.000000 -0.034852
vn -0.093730 0.000000 -0.034852
vn -0.093730 0.000000 -0.034852
vn 0.000000 0.000000 -0.100000
vn 0.000000 0.000000 -0.100000
vn 0.000000 0.000000 -0.100000
vn 0.000000 0.000000 -0.100000
vn 0.093117 -0.000000 0.036459
vn 0.093117 -0.000000 0.036459
vn 0.093117 -0.000000 0.036459
vn 0.093117 -0.000000 0.036459
vn 0.000000 -0.000000 0.100000
vn 0.000000 -0.000000 0.100000
vn 0.000000 -0.000000 0.100000
vn 0.000000 -0.000000 0.100000
vn 0.000000 0.100000 0.000000
vn 0.000000 0.100000 0.000000
vn 0.000000 0.100000 0.000000
vn 0.000000 0.100000 0.000000
vn 0.000000 0.100000 0.000000
vn 0.000000 0.100000 0.000000
vn 0.000000 0.100000 0.000000
vn 0.000000 0.100000 0.000000
vn 0.000000 0.100000 0.000000
vn 0.000000 0.100000 0.000000
vn 0.000000 0.100000 0.000000
vn 0.000000 0.100000 0.000000
vn 0.000000 0.100000 0.000000
vn 0.000000 0.100000 0.000000
vn 0.000000 0.100000 0.000000
vn 0.000000 -0.100000 0.000000
vn 0.000000 -0.100000 0.000000
vn 0.000000 -0.100000 0.000000
vn 0.000000 -0.100000 0.000000
vn 0.000000 -0.100000 0.000000
vn 0.000000 -0.100000 0.000000
vn 0.000000 -0.100000 0.000000
vn 0.000000 -0.100000 0.000000
vn 0.000000 -0.100000 0.000000
vn 0.000000 -0.100000 0.000000
vn 0.000000 -0.100000 0.000000
vn 0.000000 -0.100000 0.000000
vn 0.000000 -0.100000 0.000000
vn 0.000000 -0.100000 0.000000
vn 0.000000 -0.100000 0.000000
usemtl Aluminum_-_Anodized_Glossy_(Red)
f 1/1/1 2/2/2 4/3/3
f 4/3/3 2/2/2 3/4/4
f 5/5/5 1/6/6 6/7/7
f 6/7/7 1/6/6 4/8/8
f 7/9/9 5/10/10 8/11/11
f 8/11/11 5/10/10 6/12/12
f 9/13/13 10/14/14 16/15/15
f 16/15/15 10/14/14 15/16/16
f 15/16/16 10/14/14 11/17/17
f 15/16/16 11/17/17 14/18/18
f 14/18/18 11/17/17 12/19/19
f 14/18/18 12/19/19 13/20/20
f 13/20/20 12/19/19 7/21/21
f 13/20/20 7/21/21 8/22/22
f 17/23/23 18/24/24 24/25/25
f 24/25/25 18/24/24 23/26/26
f 23/26/26 18/24/24 19/27/27
f 23/26/26 19/27/27 22/28/28
f 22/28/28 19/27/27 20/29/29
f 22/28/28 20/29/29 21/30/30
f 21/30/30 20/29/29 9/31/31
f 21/30/30 9/31/31 16/32/32
f 25/33/33 17/34/34 26/35/35
f 26/35/35 17/34/34 24/36/36
f 27/37/37 25/38/38 28/39/39
f 28/39/39 25/38/38 26/40/40
f 29/41/41 27/42/42 30/43/43
f 30/43/43 27/42/42 28/44/44
f 2/45/45 29/46/46 3/47/47
f 3/47/47 29/46/46 30/48/48
usemtl Bronze_-_Polished
f 30/49/49 16/50/50 3/51/51
f 3/51/51 16/50/50 15/52/52
f 3/51/51 15/52/52 14/53/53
f 28/54/54 24/55/55 30/49/49
f 30/49/49 24/55/55 23/56/56
f 30/49/49 23/56/56 22/57/57
f 28/54/54 26/58/58 24/55/55
f 22/57/57 21/59/59 30/49/49
f 30/49/49 21/59/59 16/50/50
f 14/53/53 13/60/60 3/51/51
f 3/51/51 13/60/60 8/61/61
f 3/51/51 8/61/61 4/62/62
f 4/62/62 8/61/61 6/63/63
f 2/64/64 9/65/65 29/66/66
f 29/66/66 9/65/65 20/67/67
f 29/66/66 20/67/67 19/68/68
f 1/69/69 7/70/70 2/64/64
f 2/64/64 7/70/70 12/71/71
f 2/64/64 12/71/71 11/72/72
f 1/69/69 5/73/73 7/70/70
f 11/72/72 10/74/74 2/64/64
f 2/64/64 10/74/74 9/65/65
f 19/68/68 18/75/75 29/66/66
f 29/66/66 18/75/75 17/76/76
f 29/66/66 17/76/76 27/77/77
f 27/77/77 17/76/76 25/78/78

# 30 vertices
# 78 texture params
# 78 normals
# 56 facets

# 1 groups
