# File exported by Houdini 18.5.499 (www.sidefx.com)
# 30 points
# 168 vertices
# 56 primitives
# Bounds: [-0.386620045, 0.00885534286, 0] to [0.406340599, 0.875730872, 0.199999988]
g 
v -0.386620045 0.875730872 0
v -0.0507497787 0.00885534286 0
v -0.0507497787 0.00885534286 0.199999988
v -0.386620045 0.875730872 0.199999988
v -0.262443066 0.875730872 0
v -0.262443066 0.875730872 0.199999988
v -0.0371494293 0.245974779 0
v -0.0371494293 0.245974779 0.199999988
v 0.0083823204 0.104057789 0
v -0.00208044052 0.139831781 0
v -0.0130600929 0.175440073 0
v -0.0248661041 0.210783958 0
v -0.0248661041 0.210783958 0.199999988
v -0.0130600929 0.175440073 0.199999988
v -0.00208044052 0.139831781 0.199999988
v 0.0083823204 0.104057789 0.199999988
v 0.0550961494 0.245974779 0
v 0.0424108505 0.210826874 0
v 0.030272007 0.175499201 0
v 0.0190501213 0.139869452 0
v 0.0190501213 0.139869452 0.199999988
v 0.030272007 0.175499201 0.199999988
v 0.0424108505 0.210826874 0.199999988
v 0.0550961494 0.245974779 0.199999988
v 0.289259434 0.875730872 0
v 0.289259434 0.875730872 0.199999988
v 0.406340599 0.875730872 0
v 0.406340599 0.875730872 0.199999988
v 0.0669231415 0.00885534286 0
v 0.0669231415 0.00885534286 0.199999988
vt 0 0 0
vt 2.32416892 0 0
vt 0 0.5 0
vt 2.32416892 0.5 0
vt -0 0 0
vt 0.310443014 0 0
vt -0 0.5 0
vt 0.310443014 0.5 0
vt 1.67210495 0 0
vt 1.67210495 0.5 0
vt -0.372606009 0 0
vt -0.279453993 0 0
vt -0.372606009 0.5 0
vt -0.279453993 0.5 0
vt -0.186303005 0 0
vt -0.186303005 0.5 0
vt -0.0931510031 0 0
vt -0.0931510031 0.5 0
vt -0.373519003 0 0
vt -0.280138999 0 0
vt -0.373519003 0.5 0
vt -0.280138999 0.5 0
vt -0.186759993 0 0
vt -0.186759993 0.5 0
vt -0.0933799967 0 0
vt -0.0933799967 0.5 0
vt 1.67970395 0 0
vt 1.67970395 0.5 0
vt 0.292703986 0 0
vt 0.292703986 0.5 0
vt 2.32738805 0 0
vt 2.32738805 0.5 0
vt 0.294182003 0 0
vt 0.294182003 0.5 0
vt 0.142655998 -1.08359504 0
vt -0.00369599997 -0.845588028 0
vt -0.151526004 -1.08359504 0
vt -0.0298519991 -0.756154001 0
vt -0.0573009998 -0.667132974 0
vt 0.991200984 1.08359504 0
vt 0.113090001 -0.490796 0
vt 0.0813760012 -0.578665972 0
vt 0.0510290004 -0.666984975 0
vt 0.698496997 1.08359504 0
vt 0.0229739994 -0.756058991 0
vt -0.0868149996 -0.578773022 0
vt -0.117524996 -0.490796 0
vt -0.991200984 1.08359504 0
vt -0.680757999 1.08359504 0
vt 0.151526004 -1.08359504 0
vt 0.00369599997 -0.845588028 0
vt -0.142655998 -1.08359504 0
vt -0.0229739994 -0.756058991 0
vt -0.0510290004 -0.666984975 0
vt 0.117524996 -0.490796 0
vt 0.0868149996 -0.578773022 0
vt 0.0573009998 -0.667132974 0
vt 0.680757999 1.08359504 0
vt 0.0298519991 -0.756154001 0
vt -0.0813760012 -0.578665972 0
vt -0.113090001 -0.490796 0
vt -0.698496997 1.08359504 0
vn -0.0932459906 -0.0361279957 0
vn -0.0932459906 -0.0361279957 0
vn -0.0932459906 -0.0361279957 0
vn -0.0932459906 -0.0361279957 0
vn -0.0932459906 -0.0361279957 0
vn -0.0932459906 -0.0361279957 0
vn 0 0.099999994 0
vn 0 0.099999994 0
vn 0 0.099999994 0
vn 0 0.099999994 0
vn 0 0.099999994 0
vn 0 0.099999994 0
vn 0.094155997 0.0336840004 0
vn 0.094155997 0.0336840004 0
vn 0.094155997 0.0336840004 0
vn 0.094155997 0.0336840004 0
vn 0.094155997 0.0336840004 0
vn 0.094155997 0.0336840004 0
vn 0.0960469991 0.0278369989 0
vn 0.0958419964 0.0285359994 0
vn 0.0960469991 0.0278369989 0
vn 0.0960469991 0.0278369989 0
vn 0.0958419964 0.0285359994 0
vn 0.0958419964 0.0285359994 0
vn 0.0958419964 0.0285359994 0
vn 0.0958419964 0.0285359994 0
vn 0.0951980054 0.0306150038 0
vn 0.0958419964 0.0285359994 0
vn 0.0951980054 0.0306150038 0
vn 0.0951980054 0.0306150038 0
vn 0.0951980054 0.0306150038 0
vn 0.0951980054 0.0306150038 0
vn 0.0945599899 0.0325319991 0
vn 0.0951980054 0.0306150038 0
vn 0.0945599899 0.0325319991 0
vn 0.0945599899 0.0325319991 0
vn 0.0945599899 0.0325319991 0
vn 0.0945599899 0.0325319991 0
vn 0.0943390056 0.033168003 0
vn 0.0945599899 0.0325319991 0
vn 0.0943390056 0.033168003 0
vn 0.0943390056 0.033168003 0
vn -0.0939739943 0.0341890007 0
vn -0.0942339897 0.033464998 0
vn -0.0939739943 0.0341890007 0
vn -0.0939739943 0.0341890007 0
vn -0.0942339897 0.033464998 0
vn -0.0942339897 0.033464998 0
vn -0.0942339897 0.033464998 0
vn -0.0942339897 0.033464998 0
vn -0.0949819982 0.0312800035 0
vn -0.0942339897 0.033464998 0
vn -0.0949819982 0.0312800035 0
vn -0.0949819982 0.0312800035 0
vn -0.0949819982 0.0312800035 0
vn -0.0949819982 0.0312800035 0
vn -0.0956880003 0.0290469993 0
vn -0.0949819982 0.0312800035 0
vn -0.0956880003 0.0290469993 0
vn -0.0956880003 0.0290469993 0
vn -0.0956880003 0.0290469993 0
vn -0.0956880003 0.0290469993 0
vn -0.0959119946 0.0282999985 0
vn -0.0956880003 0.0290469993 0
vn -0.0959119946 0.0282999985 0
vn -0.0959119946 0.0282999985 0
vn -0.0937300026 0.0348520018 0
vn -0.0937300026 0.0348520018 0
vn -0.0937300026 0.0348520018 0
vn -0.0937300026 0.0348520018 0
vn -0.0937300026 0.0348520018 0
vn -0.0937300026 0.0348520018 0
vn 0 0.099999994 0
vn 0 0.099999994 0
vn 0 0.099999994 0
vn 0 0.099999994 0
vn 0 0.099999994 0
vn 0 0.099999994 0
vn 0.0931169987 -0.0364589952 0
vn 0.0931169987 -0.0364589952 0
vn 0.0931169987 -0.0364589952 0
vn 0.0931169987 -0.0364589952 0
vn 0.0931169987 -0.0364589952 0
vn 0.0931169987 -0.0364589952 0
vn 0 -0.099999994 0
vn 0 -0.099999994 0
vn 0 -0.099999994 0
vn 0 -0.099999994 0
vn 0 -0.099999994 0
vn 0 -0.099999994 0
vn 0 0 0.099999994
vn 0 0 0.099999994
vn 0 0 0.099999994
vn 0 0 0.099999994
vn 0 0 0.099999994
vn 0 0 0.099999994
vn 0 0 0.099999994
vn 0 0 0.099999994
vn 0 0 0.099999994
vn 0 0 0.099999994
vn 0 0 0.099999994
vn 0 0 0.099999994
vn 0 0 0.099999994
vn 0 0 0.099999994
vn 0 0 0.099999994
vn 0 0 0.099999994
vn 0 0 0.099999994
vn 0 0 0.099999994
vn 0 0 0.099999994
vn 0 0 0.099999994
vn 0 0 0.099999994
vn 0 0 0.099999994
vn 0 0 0.099999994
vn 0 0 0.099999994
vn 0 0 0.099999994
vn 0 0 0.099999994
vn 0 0 0.099999994
vn 0 0 0.099999994
vn 0 0 0.099999994
vn 0 0 0.099999994
vn 0 0 0.099999994
vn 0 0 0.099999994
vn 0 0 0.099999994
vn 0 0 0.099999994
vn 0 0 0.099999994
vn 0 0 0.099999994
vn 0 0 0.099999994
vn 0 0 0.099999994
vn 0 0 0.099999994
vn 0 -0 -0.099999994
vn 0 -0 -0.099999994
vn 0 -0 -0.099999994
vn 0 -0 -0.099999994
vn 0 -0 -0.099999994
vn 0 -0 -0.099999994
vn 0 -0 -0.099999994
vn 0 -0 -0.099999994
vn 0 -0 -0.099999994
vn 0 -0 -0.099999994
vn 0 -0 -0.099999994
vn 0 -0 -0.099999994
vn 0 -0 -0.099999994
vn 0 -0 -0.099999994
vn 0 -0 -0.099999994
vn 0 -0 -0.099999994
vn 0 -0 -0.099999994
vn 0 -0 -0.099999994
vn 0 -0 -0.099999994
vn 0 -0 -0.099999994
vn 0 -0 -0.099999994
vn 0 -0 -0.099999994
vn 0 -0 -0.099999994
vn 0 -0 -0.099999994
vn 0 -0 -0.099999994
vn 0 -0 -0.099999994
vn 0 -0 -0.099999994
vn 0 -0 -0.099999994
vn 0 -0 -0.099999994
vn 0 -0 -0.099999994
vn 0 -0 -0.099999994
vn 0 -0 -0.099999994
vn 0 -0 -0.099999994
vn 0 -0 -0.099999994
vn 0 -0 -0.099999994
vn 0 -0 -0.099999994
vn 0 -0 -0.099999994
vn 0 -0 -0.099999994
vn 0 -0 -0.099999994
g Body49
usemtl /mat/Aluminum_-_Anodized_Glossy_(Red)
f 1/1/1 2/2/2 4/3/3
f 4/3/4 2/2/5 3/4/6
f 5/5/7 1/6/8 6/7/9
f 6/7/10 1/6/11 4/8/12
f 7/5/13 5/9/14 8/7/15
f 8/7/16 5/9/17 6/10/18
f 9/11/19 10/12/20 16/13/21
f 16/13/22 10/12/23 15/14/24
f 15/14/25 10/12/26 11/15/27
f 15/14/28 11/15/29 14/16/30
f 14/16/31 11/15/32 12/17/33
f 14/16/34 12/17/35 13/18/36
f 13/18/37 12/17/38 7/1/39
f 13/18/40 7/1/41 8/3/42
f 17/19/43 18/20/44 24/21/45
f 24/21/46 18/20/47 23/22/48
f 23/22/49 18/20/50 19/23/51
f 23/22/52 19/23/53 22/24/54
f 22/24/55 19/23/56 20/25/57
f 22/24/58 20/25/59 21/26/60
f 21/26/61 20/25/62 9/1/63
f 21/26/64 9/1/65 16/3/66
f 25/1/67 17/27/68 26/3/69
f 26/3/70 17/27/71 24/28/72
f 27/5/73 25/29/74 28/7/75
f 28/7/76 25/29/77 26/30/78
f 29/1/79 27/31/80 30/3/81
f 30/3/82 27/31/83 28/32/84
f 2/1/85 29/33/86 3/3/87
f 3/3/88 29/33/89 30/34/90
g Body49
usemtl /mat/Bronze_-_Polished
f 30/35/91 16/36/92 3/37/93
f 3/37/94 16/36/95 15/38/96
f 3/37/97 15/38/98 14/39/99
f 28/40/100 24/41/101 30/35/102
f 30/35/103 24/41/104 23/42/105
f 30/35/106 23/42/107 22/43/108
f 28/40/109 26/44/110 24/41/111
f 22/43/112 21/45/113 30/35/114
f 30/35/115 21/45/116 16/36/117
f 14/39/118 13/46/119 3/37/120
f 3/37/121 13/46/122 8/47/123
f 3/37/124 8/47/125 4/48/126
f 4/48/127 8/47/128 6/49/129
f 2/50/130 9/51/131 29/52/132
f 29/52/133 9/51/134 20/53/135
f 29/52/136 20/53/137 19/54/138
f 1/40/139 7/55/140 2/50/141
f 2/50/142 7/55/143 12/56/144
f 2/50/145 12/56/146 11/57/147
f 1/40/148 5/58/149 7/55/150
f 11/57/151 10/59/152 2/50/153
f 2/50/154 10/59/155 9/51/156
f 19/54/157 18/60/158 29/52/159
f 29/52/160 18/60/161 17/61/162
f 29/52/163 17/61/164 27/48/165
f 27/48/166 17/61/167 25/62/168
