# WaveFront *.obj file (generated by Autodesk ATF)

mtllib bb764b5f-9415-49e4-9667-f15896309c1c.mtl

g Body49

v -152.033540 0.000000 52.234399
v -160.415506 0.000000 63.528617
v -160.415506 5.000000 63.528617
v -152.033540 5.000000 52.234399
v -159.425045 0.000000 41.856726
v -159.425045 5.000000 41.856726
v -156.010169 0.000000 41.856726
v -156.010169 5.000000 41.856726
v -152.077889 0.000000 47.415137
v -152.077889 5.000000 47.415137
v -150.333494 0.000000 50.076079
v -150.745528 0.000000 49.395211
v -151.172505 0.000000 48.724050
v -151.619796 0.000000 48.066085
v -151.619796 5.000000 48.066085
v -151.172505 5.000000 48.724050
v -150.745528 5.000000 49.395211
v -150.333494 5.000000 50.076079
v -148.618665 0.000000 47.607317
v -149.069695 0.000000 48.209036
v -149.508882 0.000000 48.818964
v -149.927594 0.000000 49.443081
v -149.927594 5.000000 49.443081
v -149.508882 5.000000 48.818964
v -149.069695 5.000000 48.209036
v -148.618665 5.000000 47.607317
v -144.257678 0.000000 41.856726
v -144.257678 5.000000 41.856726
v -141.138463 0.000000 41.856726
v -141.138463 5.000000 41.856726
v -148.751712 0.000000 52.071786
v -148.751712 5.000000 52.071786
v -140.547142 0.000000 63.528617
v -140.547142 5.000000 63.528617
v -144.095064 0.000000 63.528617
v -144.095064 5.000000 63.528617
v -149.549994 0.000000 55.797103
v -149.549994 5.000000 55.797103
v -150.496107 0.000000 54.348369
v -150.265274 0.000000 54.714275
v -150.031407 0.000000 55.078198
v -149.792322 0.000000 55.438710
v -149.792322 5.000000 55.438710
v -150.031407 5.000000 55.078198
v -150.265274 5.000000 54.714275
v -150.496107 5.000000 54.348369
v -151.530918 0.000000 55.974500
v -151.264581 0.000000 55.572856
v -151.003187 0.000000 55.168046
v -150.748028 0.000000 54.759245
v -150.748028 5.000000 54.759245
v -151.003187 5.000000 55.168046
v -151.264581 5.000000 55.572856
v -151.530918 5.000000 55.974500
v -156.971065 0.000000 63.528617
v -156.971065 5.000000 63.528617
vt 0.000000 0.000000 0.000000
vt 1.406473 0.000000 0.000000
vt 0.000000 0.500000 0.000000
vt 1.406473 0.500000 0.000000
vt 0.000000 0.000000 0.000000
vt 1.274090 0.000000 0.000000
vt 0.000000 0.500000 0.000000
vt 1.274090 0.500000 0.000000
vt -0.000000 0.000000 0.000000
vt 0.341488 0.000000 0.000000
vt -0.000000 0.500000 0.000000
vt 0.341488 0.500000 0.000000
vt -0.000000 0.000000 0.000000
vt 0.680873 0.000000 0.000000
vt -0.000000 0.500000 0.000000
vt 0.680873 0.500000 0.000000
vt -0.318181 0.000000 0.000000
vt -0.238636 0.000000 0.000000
vt -0.318181 0.500000 0.000000
vt -0.238636 0.500000 0.000000
vt -0.159091 0.000000 0.000000
vt -0.159091 0.500000 0.000000
vt -0.079545 0.000000 0.000000
vt -0.079545 0.500000 0.000000
vt 0.000000 0.000000 0.000000
vt 0.000000 0.500000 0.000000
vt -0.300590 0.000000 0.000000
vt -0.225443 0.000000 0.000000
vt -0.300590 0.500000 0.000000
vt -0.225443 0.500000 0.000000
vt -0.150295 0.000000 0.000000
vt -0.150295 0.500000 0.000000
vt -0.075148 0.000000 0.000000
vt -0.075148 0.500000 0.000000
vt 0.000000 0.000000 0.000000
vt 0.000000 0.500000 0.000000
vt 0.000000 0.000000 0.000000
vt 0.721717 0.000000 0.000000
vt 0.000000 0.500000 0.000000
vt 0.721717 0.500000 0.000000
vt -0.000000 0.000000 0.000000
vt 0.311921 0.000000 0.000000
vt -0.000000 0.500000 0.000000
vt 0.311921 0.500000 0.000000
vt 0.000000 0.000000 0.000000
vt 1.274005 0.000000 0.000000
vt 0.000000 0.500000 0.000000
vt 1.274005 0.500000 0.000000
vt -0.000000 0.000000 0.000000
vt 1.409163 0.000000 0.000000
vt -0.000000 0.500000 0.000000
vt 1.409163 0.500000 0.000000
vt 0.000000 0.000000 0.000000
vt 0.354792 0.000000 0.000000
vt 0.000000 0.500000 0.000000
vt 0.354792 0.500000 0.000000
vt 0.000000 0.000000 0.000000
vt 0.946217 0.000000 0.000000
vt 0.000000 0.500000 0.000000
vt 0.946217 0.500000 0.000000
vt -0.173031 0.000000 0.000000
vt -0.129773 0.000000 0.000000
vt -0.173031 0.500000 0.000000
vt -0.129773 0.500000 0.000000
vt -0.086515 0.000000 0.000000
vt -0.086515 0.500000 0.000000
vt -0.043258 0.000000 0.000000
vt -0.043258 0.500000 0.000000
vt 0.000000 0.000000 0.000000
vt 0.000000 0.500000 0.000000
vt -0.192748 0.000000 0.000000
vt -0.144561 0.000000 0.000000
vt -0.192748 0.500000 0.000000
vt -0.144561 0.500000 0.000000
vt -0.096374 0.000000 0.000000
vt -0.096374 0.500000 0.000000
vt -0.048187 0.000000 0.000000
vt -0.048187 0.500000 0.000000
vt 0.000000 0.000000 0.000000
vt 0.000000 0.500000 0.000000
vt 0.000000 0.000000 0.000000
vt 0.930913 0.000000 0.000000
vt 0.000000 0.500000 0.000000
vt 0.930913 0.500000 0.000000
vt 0.000000 0.000000 0.000000
vt 0.344444 0.000000 0.000000
vt 0.000000 0.500000 0.000000
vt 0.344444 0.500000 0.000000
vt -0.648974 -1.083595 0.000000
vt -0.104959 -0.328183 0.000000
vt -0.993418 -1.083595 0.000000
vt -0.155222 0.045827 0.000000
vt -0.078326 -0.288018 0.000000
vt -0.052186 -0.247537 0.000000
vt -0.026670 -0.206657 0.000000
vt -0.001478 -0.165570 0.000000
vt 0.172961 0.062089 0.000000
vt 0.021605 -0.202160 0.000000
vt 0.044992 -0.238553 0.000000
vt 0.068900 -0.274604 0.000000
vt 0.093133 -0.310443 0.000000
vt 0.993418 -1.083595 0.000000
vt 0.638626 -1.083595 0.000000
vt 0.934286 1.083595 0.000000
vt 0.186266 0.508536 0.000000
vt 0.141163 0.448364 0.000000
vt 0.097244 0.387371 0.000000
vt 0.622365 1.083595 0.000000
vt 0.055373 0.324959 0.000000
vt 0.014783 0.261659 0.000000
vt -0.026420 0.329746 0.000000
vt -0.069118 0.396862 0.000000
vt -0.113847 0.462659 0.000000
vt -0.159657 0.527753 0.000000
vt -0.894372 1.083595 0.000000
vt -0.552885 1.083595 0.000000
vt 0.648974 -1.083595 0.000000
vt 0.993418 -1.083595 0.000000
vt 0.104959 -0.328183 0.000000
vt 0.155222 0.045827 0.000000
vt 0.078326 -0.288018 0.000000
vt 0.052186 -0.247537 0.000000
vt 0.026670 -0.206657 0.000000
vt 0.001478 -0.165570 0.000000
vt -0.172961 0.062089 0.000000
vt -0.021605 -0.202160 0.000000
vt -0.044992 -0.238553 0.000000
vt -0.068900 -0.274604 0.000000
vt -0.093133 -0.310443 0.000000
vt -0.993418 -1.083595 0.000000
vt -0.638626 -1.083595 0.000000
vt 0.894372 1.083595 0.000000
vt 0.159657 0.527753 0.000000
vt 0.113847 0.462659 0.000000
vt 0.069118 0.396862 0.000000
vt 0.552885 1.083595 0.000000
vt 0.026420 0.329746 0.000000
vt -0.014783 0.261659 0.000000
vt -0.055373 0.324959 0.000000
vt -0.097244 0.387371 0.000000
vt -0.141163 0.448364 0.000000
vt -0.186266 0.508536 0.000000
vt -0.934286 1.083595 0.000000
vt -0.622365 1.083595 0.000000
vn -0.080302 0.000000 -0.059596
vn -0.080302 0.000000 -0.059596
vn -0.080302 0.000000 -0.059596
vn -0.080302 0.000000 -0.059596
vn -0.081452 0.000000 0.058014
vn -0.081452 0.000000 0.058014
vn -0.081452 0.000000 0.058014
vn -0.081452 0.000000 0.058014
vn 0.000000 0.000000 -0.100000
vn 0.000000 0.000000 -0.100000
vn 0.000000 0.000000 -0.100000
vn 0.000000 0.000000 -0.100000
vn 0.081637 0.000000 -0.057754
vn 0.081637 0.000000 -0.057754
vn 0.081637 0.000000 -0.057754
vn 0.081637 0.000000 -0.057754
vn 0.085748 0.000000 -0.051451
vn 0.085161 0.000000 -0.052417
vn 0.085748 0.000000 -0.051451
vn 0.085161 0.000000 -0.052417
vn 0.083451 0.000000 -0.055100
vn 0.083451 0.000000 -0.055100
vn 0.082089 0.000000 -0.057109
vn 0.082089 0.000000 -0.057109
vn 0.081624 0.000000 -0.057771
vn 0.081624 0.000000 -0.057771
vn -0.079825 0.000000 -0.060233
vn -0.080398 0.000000 -0.059466
vn -0.079825 0.000000 -0.060233
vn -0.080398 0.000000 -0.059466
vn -0.082074 0.000000 -0.057130
vn -0.082074 0.000000 -0.057130
vn -0.083805 0.000000 -0.054559
vn -0.083805 0.000000 -0.054559
vn -0.084366 0.000000 -0.053688
vn -0.084366 0.000000 -0.053688
vn -0.079679 0.000000 -0.060425
vn -0.079679 0.000000 -0.060425
vn -0.079679 0.000000 -0.060425
vn -0.079679 0.000000 -0.060425
vn 0.000000 0.000000 -0.100000
vn 0.000000 0.000000 -0.100000
vn 0.000000 0.000000 -0.100000
vn 0.000000 0.000000 -0.100000
vn 0.080181 -0.000000 0.059758
vn 0.080181 -0.000000 0.059758
vn 0.080181 -0.000000 0.059758
vn 0.080181 -0.000000 0.059758
vn 0.081302 0.000000 -0.058223
vn 0.081302 0.000000 -0.058223
vn 0.081302 0.000000 -0.058223
vn 0.081302 0.000000 -0.058223
vn 0.000000 -0.000000 0.100000
vn 0.000000 -0.000000 0.100000
vn 0.000000 -0.000000 0.100000
vn 0.000000 -0.000000 0.100000
vn -0.081710 0.000000 0.057650
vn -0.081710 0.000000 0.057650
vn -0.081710 0.000000 0.057650
vn -0.081710 0.000000 0.057650
vn -0.084651 0.000000 0.053237
vn -0.084427 0.000000 0.053591
vn -0.084651 0.000000 0.053237
vn -0.084427 0.000000 0.053591
vn -0.083747 0.000000 0.054648
vn -0.083747 0.000000 0.054648
vn -0.083007 0.000000 0.055765
vn -0.083007 0.000000 0.055765
vn -0.082757 0.000000 0.056136
vn -0.082757 0.000000 0.056136
vn 0.083226 -0.000000 0.055438
vn 0.083570 -0.000000 0.054918
vn 0.083226 -0.000000 0.055438
vn 0.083570 -0.000000 0.054918
vn 0.084478 -0.000000 0.053512
vn 0.084478 -0.000000 0.053512
vn 0.085112 -0.000000 0.052497
vn 0.085112 -0.000000 0.052497
vn 0.085321 -0.000000 0.052157
vn 0.085321 -0.000000 0.052157
vn 0.081147 -0.000000 0.058439
vn 0.081147 -0.000000 0.058439
vn 0.081147 -0.000000 0.058439
vn 0.081147 -0.000000 0.058439
vn 0.000000 -0.000000 0.100000
vn 0.000000 -0.000000 0.100000
vn 0.000000 -0.000000 0.100000
vn 0.000000 -0.000000 0.100000
vn 0.000000 0.100000 0.000000
vn 0.000000 0.100000 0.000000
vn 0.000000 0.100000 0.000000
vn 0.000000 0.100000 0.000000
vn 0.000000 0.100000 0.000000
vn 0.000000 0.100000 0.000000
vn 0.000000 0.100000 0.000000
vn 0.000000 0.100000 0.000000
vn 0.000000 0.100000 0.000000
vn 0.000000 0.100000 0.000000
vn 0.000000 0.100000 0.000000
vn 0.000000 0.100000 0.000000
vn 0.000000 0.100000 0.000000
vn 0.000000 0.100000 0.000000
vn 0.000000 0.100000 0.000000
vn 0.000000 0.100000 0.000000
vn 0.000000 0.100000 0.000000
vn 0.000000 0.100000 0.000000
vn 0.000000 0.100000 0.000000
vn 0.000000 0.100000 0.000000
vn 0.000000 0.100000 0.000000
vn 0.000000 0.100000 0.000000
vn 0.000000 0.100000 0.000000
vn 0.000000 0.100000 0.000000
vn 0.000000 0.100000 0.000000
vn 0.000000 0.100000 0.000000
vn 0.000000 0.100000 0.000000
vn 0.000000 0.100000 0.000000
vn 0.000000 -0.100000 0.000000
vn 0.000000 -0.100000 0.000000
vn 0.000000 -0.100000 0.000000
vn 0.000000 -0.100000 0.000000
vn 0.000000 -0.100000 0.000000
vn 0.000000 -0.100000 0.000000
vn 0.000000 -0.100000 0.000000
vn 0.000000 -0.100000 0.000000
vn 0.000000 -0.100000 0.000000
vn 0.000000 -0.100000 0.000000
vn 0.000000 -0.100000 0.000000
vn 0.000000 -0.100000 0.000000
vn 0.000000 -0.100000 0.000000
vn 0.000000 -0.100000 0.000000
vn 0.000000 -0.100000 0.000000
vn 0.000000 -0.100000 0.000000
vn 0.000000 -0.100000 0.000000
vn 0.000000 -0.100000 0.000000
vn 0.000000 -0.100000 0.000000
vn 0.000000 -0.100000 0.000000
vn 0.000000 -0.100000 0.000000
vn 0.000000 -0.100000 0.000000
vn 0.000000 -0.100000 0.000000
vn 0.000000 -0.100000 0.000000
vn 0.000000 -0.100000 0.000000
vn 0.000000 -0.100000 0.000000
vn 0.000000 -0.100000 0.000000
vn 0.000000 -0.100000 0.000000
usemtl Aluminum_-_Anodized_Glossy_(Red)
f 1/1/1 2/2/2 4/3/3
f 4/3/3 2/2/2 3/4/4
f 5/5/5 1/6/6 6/7/7
f 6/7/7 1/6/6 4/8/8
f 7/9/9 5/10/10 8/11/11
f 8/11/11 5/10/10 6/12/12
f 9/13/13 7/14/14 10/15/15
f 10/15/15 7/14/14 8/16/16
f 11/17/17 12/18/18 18/19/19
f 18/19/19 12/18/18 17/20/20
f 17/20/20 12/18/18 13/21/21
f 17/20/20 13/21/21 16/22/22
f 16/22/22 13/21/21 14/23/23
f 16/22/22 14/23/23 15/24/24
f 15/24/24 14/23/23 9/25/25
f 15/24/24 9/25/25 10/26/26
f 19/27/27 20/28/28 26/29/29
f 26/29/29 20/28/28 25/30/30
f 25/30/30 20/28/28 21/31/31
f 25/30/30 21/31/31 24/32/32
f 24/32/32 21/31/31 22/33/33
f 24/32/32 22/33/33 23/34/34
f 23/34/34 22/33/33 11/35/35
f 23/34/34 11/35/35 18/36/36
f 27/37/37 19/38/38 28/39/39
f 28/39/39 19/38/38 26/40/40
f 29/41/41 27/42/42 30/43/43
f 30/43/43 27/42/42 28/44/44
f 31/45/45 29/46/46 32/47/47
f 32/47/47 29/46/46 30/48/48
f 33/49/49 31/50/50 34/51/51
f 34/51/51 31/50/50 32/52/52
f 35/53/53 33/54/54 36/55/55
f 36/55/55 33/54/54 34/56/56
f 37/57/57 35/58/58 38/59/59
f 38/59/59 35/58/58 36/60/60
f 39/61/61 40/62/62 46/63/63
f 46/63/63 40/62/62 45/64/64
f 45/64/64 40/62/62 41/65/65
f 45/64/64 41/65/65 44/66/66
f 44/66/66 41/65/65 42/67/67
f 44/66/66 42/67/67 43/68/68
f 43/68/68 42/67/67 37/69/69
f 43/68/68 37/69/69 38/70/70
f 47/71/71 48/72/72 54/73/73
f 54/73/73 48/72/72 53/74/74
f 53/74/74 48/72/72 49/75/75
f 53/74/74 49/75/75 52/76/76
f 52/76/76 49/75/75 50/77/77
f 52/76/76 50/77/77 51/78/78
f 51/78/78 50/77/77 39/79/79
f 51/78/78 39/79/79 46/80/80
f 55/81/81 47/82/82 56/83/83
f 56/83/83 47/82/82 54/84/84
f 2/85/85 55/86/86 3/87/87
f 3/87/87 55/86/86 56/88/88
usemtl Bronze_-_Polished
f 56/89/89 54/90/90 3/91/91
f 3/91/91 54/90/90 4/92/92
f 4/92/92 54/90/90 53/93/93
f 4/92/92 53/93/93 52/94/94
f 52/94/94 51/95/95 4/92/92
f 4/92/92 51/95/95 46/96/96
f 4/92/92 46/96/96 32/97/97
f 32/97/97 46/96/96 45/98/98
f 32/97/97 45/98/98 44/99/99
f 44/99/99 43/100/100 32/97/97
f 32/97/97 43/100/100 38/101/101
f 32/97/97 38/101/101 34/102/102
f 34/102/102 38/101/101 36/103/103
f 30/104/104 26/105/105 32/97/97
f 32/97/97 26/105/105 25/106/106
f 32/97/97 25/106/106 24/107/107
f 30/104/104 28/108/108 26/105/105
f 24/107/107 23/109/109 32/97/97
f 32/97/97 23/109/109 18/110/110
f 32/97/97 18/110/110 4/92/92
f 4/92/92 18/110/110 17/111/111
f 4/92/92 17/111/111 16/112/112
f 16/112/112 15/113/113 4/92/92
f 4/92/92 15/113/113 10/114/114
f 4/92/92 10/114/114 6/115/115
f 6/115/115 10/114/114 8/116/116
f 55/117/117 2/118/118 47/119/119
f 47/119/119 2/118/118 1/120/120
f 47/119/119 1/120/120 48/121/121
f 48/121/121 1/120/120 49/122/122
f 49/122/122 1/120/120 50/123/123
f 50/123/123 1/120/120 39/124/124
f 39/124/124 1/120/120 31/125/125
f 39/124/124 31/125/125 40/126/126
f 40/126/126 31/125/125 41/127/127
f 41/127/127 31/125/125 42/128/128
f 42/128/128 31/125/125 37/129/129
f 37/129/129 31/125/125 33/130/130
f 37/129/129 33/130/130 35/131/131
f 5/132/132 9/133/133 1/120/120
f 1/120/120 9/133/133 14/134/134
f 1/120/120 14/134/134 13/135/135
f 5/132/132 7/136/136 9/133/133
f 13/135/135 12/137/137 1/120/120
f 1/120/120 12/137/137 11/138/138
f 1/120/120 11/138/138 31/125/125
f 31/125/125 11/138/138 22/139/139
f 31/125/125 22/139/139 21/140/140
f 21/140/140 20/141/141 31/125/125
f 31/125/125 20/141/141 19/142/142
f 31/125/125 19/142/142 29/143/143
f 29/143/143 19/142/142 27/144/144

# 56 vertices
# 144 texture params
# 144 normals
# 108 facets

# 1 groups
