# WaveFront *.obj file (generated by Autodesk ATF)

mtllib a9ab651b-c4c7-491e-9a00-ac77aa810ef4.mtl

g Body49

v -160.415506 0.000000 60.867675
v -160.415506 0.000000 63.528617
v -160.415506 5.000000 63.528617
v -160.415506 5.000000 60.867675
v -149.313467 0.000000 46.986430
v -149.313467 5.000000 46.986430
v -147.066449 0.000000 44.414186
v -147.649749 0.000000 45.038377
v -148.220810 0.000000 45.673287
v -148.772636 0.000000 46.325044
v -148.772636 5.000000 46.325044
v -148.220810 5.000000 45.673287
v -147.649749 5.000000 45.038377
v -147.066449 5.000000 44.414186
v -159.158950 0.000000 44.414186
v -159.158950 5.000000 44.414186
v -159.158950 0.000000 41.856726
v -159.158950 5.000000 41.856726
v -143.636792 0.000000 41.856726
v -143.636792 5.000000 41.856726
v -143.636792 0.000000 44.414186
v -143.636792 5.000000 44.414186
v -155.803207 0.000000 59.448508
v -155.803207 5.000000 59.448508
v -157.118895 0.000000 60.971156
v -157.118895 5.000000 60.971156
v -143.281999 0.000000 60.971156
v -143.281999 5.000000 60.971156
v -143.281999 0.000000 63.528617
v -143.281999 5.000000 63.528617
vt 0.000000 0.000000 0.000000
vt 0.266094 0.000000 0.000000
vt 0.000000 0.500000 0.000000
vt 0.266094 0.500000 0.000000
vt 0.000000 0.000000 0.000000
vt 1.777482 0.000000 0.000000
vt 0.000000 0.500000 0.000000
vt 1.777482 0.500000 0.000000
vt -0.341549 0.000000 0.000000
vt -0.256162 0.000000 0.000000
vt -0.341549 0.500000 0.000000
vt -0.256162 0.500000 0.000000
vt -0.170775 0.000000 0.000000
vt -0.170775 0.500000 0.000000
vt -0.085387 0.000000 0.000000
vt -0.085387 0.500000 0.000000
vt 0.000000 0.000000 0.000000
vt 0.000000 0.500000 0.000000
vt 0.000000 0.000000 0.000000
vt 1.209250 0.000000 0.000000
vt 0.000000 0.500000 0.000000
vt 1.209250 0.500000 0.000000
vt 0.000000 0.000000 0.000000
vt 0.255746 0.000000 0.000000
vt 0.000000 0.500000 0.000000
vt 0.255746 0.500000 0.000000
vt -0.000000 0.000000 0.000000
vt 1.552216 0.000000 0.000000
vt -0.000000 0.500000 0.000000
vt 1.552216 0.500000 0.000000
vt -0.000000 0.000000 0.000000
vt 0.255746 0.000000 0.000000
vt -0.000000 0.500000 0.000000
vt 0.255746 0.500000 0.000000
vt 0.000000 0.000000 0.000000
vt 1.934044 0.000000 0.000000
vt 0.000000 0.500000 0.000000
vt 1.934044 0.500000 0.000000
vt 0.000000 0.000000 0.000000
vt 0.201234 0.000000 0.000000
vt 0.000000 0.500000 0.000000
vt 0.201234 0.500000 0.000000
vt -0.000000 0.000000 0.000000
vt 1.383690 0.000000 0.000000
vt -0.000000 0.500000 0.000000
vt 1.383690 0.500000 0.000000
vt -0.000000 0.000000 0.000000
vt 0.255746 0.000000 0.000000
vt -0.000000 0.500000 0.000000
vt 0.255746 0.500000 0.000000
vt 0.000000 0.000000 0.000000
vt 1.713351 0.000000 0.000000
vt 0.000000 0.500000 0.000000
vt 1.713351 0.500000 0.000000
vt -0.856675 -0.817500 0.000000
vt -0.856675 -1.083595 0.000000
vt -0.527014 -0.827848 0.000000
vt 0.856675 -1.083595 0.000000
vt 0.856675 -0.827848 0.000000
vt -0.395445 -0.675584 0.000000
vt 0.253529 0.570624 0.000000
vt 0.821196 0.827849 0.000000
vt 0.307612 0.636763 0.000000
vt 0.362794 0.701938 0.000000
vt 0.419900 0.765429 0.000000
vt 0.478230 0.827849 0.000000
vt 0.821196 1.083595 0.000000
vt -0.731020 1.083595 0.000000
vt -0.731020 0.827849 0.000000
vt -0.856675 -0.827848 0.000000
vt -0.856675 -1.083595 0.000000
vt 0.527014 -0.827848 0.000000
vt 0.856675 -1.083595 0.000000
vt 0.856675 -0.817500 0.000000
vt 0.395445 -0.675584 0.000000
vt -0.253529 0.570624 0.000000
vt -0.821196 0.827849 0.000000
vt -0.307612 0.636763 0.000000
vt -0.362794 0.701938 0.000000
vt -0.419900 0.765429 0.000000
vt -0.478230 0.827849 0.000000
vt -0.821196 1.083595 0.000000
vt 0.731020 1.083595 0.000000
vt 0.731020 0.827849 0.000000
vn -0.100000 0.000000 0.000000
vn -0.100000 0.000000 0.000000
vn -0.100000 0.000000 0.000000
vn -0.100000 0.000000 0.000000
vn -0.078095 0.000000 -0.062459
vn -0.078095 0.000000 -0.062459
vn -0.078095 0.000000 -0.062459
vn -0.078095 0.000000 -0.062459
vn -0.072846 0.000000 -0.068508
vn -0.073495 0.000000 -0.067812
vn -0.072846 0.000000 -0.068508
vn -0.073495 0.000000 -0.067812
vn -0.075390 0.000000 -0.065699
vn -0.075390 0.000000 -0.065699
vn -0.077051 0.000000 -0.063743
vn -0.077051 0.000000 -0.063743
vn -0.077593 0.000000 -0.063082
vn -0.077593 0.000000 -0.063082
vn 0.000000 -0.000000 0.100000
vn 0.000000 -0.000000 0.100000
vn 0.000000 -0.000000 0.100000
vn 0.000000 -0.000000 0.100000
vn -0.100000 0.000000 0.000000
vn -0.100000 0.000000 0.000000
vn -0.100000 0.000000 0.000000
vn -0.100000 0.000000 0.000000
vn 0.000000 0.000000 -0.100000
vn 0.000000 0.000000 -0.100000
vn 0.000000 0.000000 -0.100000
vn 0.000000 0.000000 -0.100000
vn 0.100000 0.000000 0.000000
vn 0.100000 0.000000 0.000000
vn 0.100000 0.000000 0.000000
vn 0.100000 0.000000 0.000000
vn 0.077735 -0.000000 0.062907
vn 0.077735 -0.000000 0.062907
vn 0.077735 -0.000000 0.062907
vn 0.077735 -0.000000 0.062907
vn 0.075666 -0.000000 0.065381
vn 0.075666 -0.000000 0.065381
vn 0.075666 -0.000000 0.065381
vn 0.075666 -0.000000 0.065381
vn 0.000000 0.000000 -0.100000
vn 0.000000 0.000000 -0.100000
vn 0.000000 0.000000 -0.100000
vn 0.000000 0.000000 -0.100000
vn 0.100000 0.000000 0.000000
vn 0.100000 0.000000 0.000000
vn 0.100000 0.000000 0.000000
vn 0.100000 0.000000 0.000000
vn 0.000000 -0.000000 0.100000
vn 0.000000 -0.000000 0.100000
vn 0.000000 -0.000000 0.100000
vn 0.000000 -0.000000 0.100000
vn 0.000000 0.100000 0.000000
vn 0.000000 0.100000 0.000000
vn 0.000000 0.100000 0.000000
vn 0.000000 0.100000 0.000000
vn 0.000000 0.100000 0.000000
vn 0.000000 0.100000 0.000000
vn 0.000000 0.100000 0.000000
vn 0.000000 0.100000 0.000000
vn 0.000000 0.100000 0.000000
vn 0.000000 0.100000 0.000000
vn 0.000000 0.100000 0.000000
vn 0.000000 0.100000 0.000000
vn 0.000000 0.100000 0.000000
vn 0.000000 0.100000 0.000000
vn 0.000000 0.100000 0.000000
vn 0.000000 -0.100000 0.000000
vn 0.000000 -0.100000 0.000000
vn 0.000000 -0.100000 0.000000
vn 0.000000 -0.100000 0.000000
vn 0.000000 -0.100000 0.000000
vn 0.000000 -0.100000 0.000000
vn 0.000000 -0.100000 0.000000
vn 0.000000 -0.100000 0.000000
vn 0.000000 -0.100000 0.000000
vn 0.000000 -0.100000 0.000000
vn 0.000000 -0.100000 0.000000
vn 0.000000 -0.100000 0.000000
vn 0.000000 -0.100000 0.000000
vn 0.000000 -0.100000 0.000000
vn 0.000000 -0.100000 0.000000
usemtl Aluminum_-_Anodized_Glossy_(Red)
f 1/1/1 2/2/2 4/3/3
f 4/3/3 2/2/2 3/4/4
f 5/5/5 1/6/6 6/7/7
f 6/7/7 1/6/6 4/8/8
f 7/9/9 8/10/10 14/11/11
f 14/11/11 8/10/10 13/12/12
f 13/12/12 8/10/10 9/13/13
f 13/12/12 9/13/13 12/14/14
f 12/14/14 9/13/13 10/15/15
f 12/14/14 10/15/15 11/16/16
f 11/16/16 10/15/15 5/17/17
f 11/16/16 5/17/17 6/18/18
f 15/19/19 7/20/20 16/21/21
f 16/21/21 7/20/20 14/22/22
f 17/23/23 15/24/24 18/25/25
f 18/25/25 15/24/24 16/26/26
f 19/27/27 17/28/28 20/29/29
f 20/29/29 17/28/28 18/30/30
f 21/31/31 19/32/32 22/33/33
f 22/33/33 19/32/32 20/34/34
f 23/35/35 21/36/36 24/37/37
f 24/37/37 21/36/36 22/38/38
f 25/39/39 23/40/40 26/41/41
f 26/41/41 23/40/40 24/42/42
f 27/43/43 25/44/44 28/45/45
f 28/45/45 25/44/44 26/46/46
f 29/47/47 27/48/48 30/49/49
f 30/49/49 27/48/48 28/50/50
f 2/51/51 29/52/52 3/53/53
f 3/53/53 29/52/52 30/54/54
usemtl Bronze_-_Polished
f 4/55/55 3/56/56 26/57/57
f 26/57/57 3/56/56 30/58/58
f 26/57/57 30/58/58 28/59/59
f 26/57/57 24/60/60 4/55/55
f 4/55/55 24/60/60 6/61/61
f 6/61/61 24/60/60 22/62/62
f 6/61/61 22/62/62 11/63/63
f 11/63/63 22/62/62 12/64/64
f 12/64/64 22/62/62 13/65/65
f 13/65/65 22/62/62 14/66/66
f 14/66/66 22/62/62 20/67/67
f 14/66/66 20/67/67 18/68/68
f 18/68/68 16/69/69 14/66/66
f 27/70/70 29/71/71 25/72/72
f 25/72/72 29/71/71 2/73/73
f 25/72/72 2/73/73 1/74/74
f 25/72/72 1/74/74 23/75/75
f 23/75/75 1/74/74 5/76/76
f 23/75/75 5/76/76 21/77/77
f 21/77/77 5/76/76 10/78/78
f 21/77/77 10/78/78 9/79/79
f 9/79/79 8/80/80 21/77/77
f 21/77/77 8/80/80 7/81/81
f 21/77/77 7/81/81 19/82/82
f 19/82/82 7/81/81 17/83/83
f 17/83/83 7/81/81 15/84/84

# 30 vertices
# 84 texture params
# 84 normals
# 56 facets

# 1 groups
