<?xml version="1.0" encoding="UTF-8"?>
<svg width="52px" height="42px" viewBox="0 0 52 42" version="1.1" xmlns="http://www.w3.org/2000/svg" xmlns:xlink="http://www.w3.org/1999/xlink">
    <title>CACHE_dark</title>
    <g id="ZENO@2Prototype-NodeEditor" stroke="none" stroke-width="1" fill="none" fill-rule="evenodd">
        <g id="SimpleNode" transform="translate(-1387.000000, -72.000000)">
            <g id="Group" transform="translate(854.000000, 72.000000)">
                <g id="CACHE_dark" transform="translate(533.959860, 0.000000)">
                    <polygon id="Rectangle" fill="#000000" opacity="0.104422433" points="12.0802803 -1.51545443e-14 50.0802803 -3.20646287e-14 38 42 -1.7334319e-14 42"></polygon>
                    <path d="M39.15,38 L38,42 L0,42 L1.15,38 L39.15,38 Z" id="Combined-Shape" fill="#CFCFCF" opacity="0.17"></path>
                    <path d="m23.95666,24.764345a6.851667,7.317324 0 0 1 -2.575897,-5.724816a6.851667,7.317324 0 0 1 2.575897,-5.724816a5.492318,5.86559 0 1 0 0,11.449632zm1.543341,-12.446783a6.865398,7.331988 0 1 1 0,13.443933a6.865398,7.331988 0 1 1 0,-13.443933zm1.355229,8.637082l-2.261462,-2.245055l-0.933694,1.073403l3.230856,3.207011l5.959165,-6.364165l-0.970767,-1.038209l-5.024098,5.367015z" fill="#CFCFCF" id="Shape"></path>
                </g>
            </g>
        </g>
    </g>
</svg>