<?xml version="1.0" encoding="UTF-8"?>
<svg width="24px" height="24px" viewBox="0 0 24 24" version="1.1" xmlns="http://www.w3.org/2000/svg" xmlns:xlink="http://www.w3.org/1999/xlink">
    <title>file_zsgfile</title>
    <defs>
        <polygon id="path-1" points="0 8.38107832 13.3915914 8.38107832 13.3915914 14.913605 7.69317434e-16 14.913605"></polygon>
    </defs>
    <g id="Symbol" stroke="none" stroke-width="1" fill="none" fill-rule="evenodd">
        <g id="编组" transform="translate(5.304204, 4.543197)">
            <path d="M7.28765553,4.91975113 L12.2074067,4.91975113 L12.2074067,7.6876328 L1.18418479,7.6876328 L1.18418479,0 L7.28765553,0 L7.28765553,4.91975113 Z M8.27160575,0 L8.27160575,3.93580091 L12.2074067,3.93580091 L8.27160575,0 Z" id="形状" fill="#A3B1C0" fill-rule="nonzero"></path>
            <g id="矩形">
                <use fill="#805C91" xlink:href="#path-1"></use>
                <use fill="#4B9EF4" xlink:href="#path-1"></use>
            </g>
            <g id="zsg" transform="translate(1.474070, 9.240362)" fill="#FFFFFF" fill-rule="nonzero">
                <path d="M0,3.42722149 L0,2.86592318 L1.64097214,0.762705361 L0.0396210577,0.762705361 L0.0396210577,0.0726386058 L2.70413719,0.0726386058 L2.70413719,0.640540433 L1.09948435,2.71734421 L2.73055123,2.71734421 L2.73055123,3.42722149 L0,3.42722149 Z M6.44832714,2.4399968 C6.44832714,2.63149858 6.40595462,2.79493545 6.32120958,2.93030739 C6.23646454,3.06567934 6.12420488,3.17573783 5.98443059,3.26048288 C5.84465631,3.34522792 5.68617208,3.40686067 5.5089779,3.44538114 C5.33178373,3.48390162 5.1507375,3.50316185 4.96583923,3.50316185 C4.71930821,3.50316185 4.49699005,3.49160571 4.29888476,3.46849343 C4.10077947,3.44538114 3.91368003,3.4118133 3.73758645,3.36778991 L3.73758645,2.64140385 C3.94449641,2.72724947 4.15085609,2.78943252 4.35666547,2.82795299 C4.56247486,2.86647347 4.7567281,2.8857337 4.9394252,2.8857337 C5.1507375,2.8857337 5.30867144,2.85216586 5.41322701,2.78503018 C5.51778258,2.7178945 5.57006036,2.630398 5.57006036,2.52254067 C5.57006036,2.47191377 5.55905452,2.4256892 5.53704282,2.38386697 C5.51503112,2.34204475 5.47375918,2.3018734 5.41322701,2.26335292 C5.35269484,2.22483245 5.26739951,2.18521139 5.15734101,2.14448975 C5.04728252,2.10376811 4.90310589,2.05809383 4.72481113,2.00746692 C4.55972339,1.96124236 4.41499647,1.90896457 4.29063038,1.85063357 C4.16626428,1.79230257 4.06335959,1.72351601 3.9819163,1.6442739 C3.90047302,1.56503178 3.83939055,1.47313294 3.79866891,1.36857737 C3.75794727,1.2640218 3.73758645,1.14130658 3.73758645,1.00043171 C3.73758645,0.863959175 3.76840282,0.735190738 3.83003558,0.614126395 C3.89166834,0.493062052 3.98356718,0.386855605 4.10573211,0.295507056 C4.22789703,0.204158506 4.38032805,0.132070192 4.56302515,0.0792421154 C4.74572225,0.0264140385 4.95923572,0 5.20356558,0 C5.41487789,0 5.60197733,0.0110058494 5.7648639,0.0330175481 C5.92775047,0.0550292468 6.0719271,0.0792421154 6.19739378,0.105656154 L6.19739378,0.762705361 C6.005892,0.701072605 5.82594636,0.6575995 5.65755687,0.632286046 C5.48916737,0.606972593 5.32242875,0.594315866 5.15734101,0.594315866 C4.99225327,0.594315866 4.85963279,0.624031659 4.75947956,0.683463246 C4.65932633,0.742894832 4.60924971,0.825438703 4.60924971,0.931094856 C4.60924971,0.981721764 4.61915498,1.02684575 4.63896551,1.0664668 C4.65877604,1.10608786 4.6978468,1.14460833 4.7561778,1.18202822 C4.81450881,1.21944811 4.89595209,1.25851888 5.00050766,1.29924052 C5.10506323,1.33996216 5.24318664,1.38453585 5.41487789,1.43296159 C5.60858084,1.48799083 5.77146741,1.54687213 5.9035376,1.60960547 C6.03560779,1.67233881 6.14181424,1.74332654 6.22215694,1.82256866 C6.30249964,1.90181077 6.36028035,1.99205874 6.39549907,2.09331255 C6.43071779,2.19456636 6.44832714,2.31012778 6.44832714,2.4399968 Z M9.91516969,0.660350962 C9.97680245,0.737391908 10.0202756,0.8182849 10.045589,0.903029941 C10.0709025,0.987774981 10.0835592,1.0741709 10.0835592,1.16221769 C10.0835592,1.34931713 10.0510919,1.51440487 9.98615742,1.65748091 C9.92122291,1.80055696 9.82987436,1.92052071 9.71211177,2.01737219 C9.59434919,2.11422366 9.45347431,2.18741256 9.28948716,2.23693888 C9.1255,2.28646521 8.94445378,2.31122837 8.74634849,2.31122837 C8.62968649,2.31122837 8.52182917,2.29967223 8.42277652,2.27655994 C8.32372388,2.25344766 8.2488841,2.22648333 8.19825719,2.19566695 C8.16083731,2.23308684 8.12892034,2.27435877 8.1025063,2.31948275 C8.07609227,2.36460674 8.06288525,2.41578394 8.06288525,2.47301435 C8.06288525,2.50823307 8.07168993,2.54345179 8.08929928,2.57867051 C8.10690864,2.61388922 8.13277239,2.6452559 8.16689052,2.67277052 C8.20100866,2.70028514 8.2417303,2.72284713 8.28905545,2.74045649 C8.3363806,2.75806585 8.38975897,2.76797112 8.44919056,2.77017229 L9.24491347,2.79988808 C9.42320823,2.80429042 9.58444392,2.82685241 9.72862055,2.86757405 C9.87279717,2.9082957 9.99661298,2.9660764 10.100068,3.04091618 C10.2035229,3.11575596 10.2833154,3.20655421 10.3394452,3.31331095 C10.395575,3.42006769 10.4236399,3.54168233 10.4236399,3.67815486 C10.4236399,3.83443792 10.3884212,3.9819163 10.3179838,4.12059 C10.2475463,4.25926371 10.1413399,4.37977776 9.99936444,4.48213215 C9.85738899,4.58448655 9.6807451,4.66537955 9.4694328,4.72481113 C9.25812049,4.78424272 9.01269005,4.81395851 8.73314147,4.81395851 C8.46239758,4.81395851 8.22962386,4.79249711 8.03482033,4.74957429 C7.8400168,4.70665148 7.68043198,4.6466696 7.55606588,4.56962866 C7.43169979,4.49258771 7.33980094,4.40068887 7.28036936,4.29393213 C7.22093777,4.18717539 7.19122198,4.0699631 7.19122198,3.94229524 C7.19122198,3.8652543 7.20112724,3.79371628 7.22093777,3.72768118 C7.2407483,3.66164608 7.27046409,3.59836245 7.31008515,3.53783028 C7.34970621,3.47729811 7.39923253,3.41841681 7.45866412,3.3611864 C7.5180957,3.30395598 7.58853314,3.24672556 7.66997642,3.18949515 C7.5621191,3.12786239 7.48012552,3.04862027 7.42399569,2.9517688 C7.36786586,2.85491733 7.33980094,2.75146234 7.33980094,2.64140385 C7.33980094,2.56656407 7.34970621,2.49667693 7.36951674,2.43174242 C7.38932727,2.36680791 7.41519101,2.30462486 7.44710797,2.24519327 C7.47902494,2.18576168 7.51589453,2.12853127 7.55771676,2.07350202 C7.59953899,2.01847277 7.64356239,1.96454411 7.68978695,1.91171604 C7.60834367,1.83027275 7.54065769,1.7317704 7.48672903,1.61620898 C7.43280037,1.50064756 7.40583604,1.35592064 7.40583604,1.18202822 C7.40583604,0.994928783 7.43940388,0.828190165 7.50653956,0.681812368 C7.57367524,0.535434572 7.66667467,0.412169059 7.78553784,0.31201583 C7.90440102,0.2118626 8.04582618,0.13592224 8.20981334,0.0841947477 C8.37380049,0.0324672556 8.55264554,0.00660350962 8.74634849,0.00660350962 C8.84540114,0.00660350962 8.94060173,0.0115561418 9.03195028,0.0214614063 C9.12329883,0.0313666707 9.206393,0.0484257372 9.28123277,0.0726386058 L10.4434505,0.0726386058 L10.4434505,0.660350962 L9.91516969,0.660350962 Z M8.01666068,3.87295839 C8.01666068,4.00282741 8.08214548,4.0985783 8.21311509,4.16021106 C8.3440847,4.22184382 8.52843267,4.2526602 8.76615902,4.2526602 C8.91803974,4.2526602 9.04625789,4.23835259 9.15081346,4.20973738 C9.25536903,4.18112217 9.34066436,4.14370229 9.40669945,4.09747772 C9.47273455,4.05125315 9.5200597,3.99732449 9.54867491,3.93569173 C9.57729012,3.87405898 9.59159772,3.81022505 9.59159772,3.74418995 C9.59159772,3.68475837 9.57784041,3.63468175 9.55032579,3.59396011 C9.52281116,3.55323847 9.48429069,3.51912034 9.43476437,3.49160571 C9.38523805,3.46409109 9.32690705,3.44317997 9.25977137,3.42887237 C9.19263568,3.41456477 9.1183462,3.40520979 9.03690292,3.40080745 L8.32702563,3.38760044 C8.2631917,3.43162383 8.21091392,3.47344606 8.17019228,3.51306712 C8.12947064,3.55268818 8.09755367,3.59175894 8.07444139,3.63027941 C8.0513291,3.66879989 8.03592092,3.70787065 8.02821682,3.74749171 C8.02051273,3.78711277 8.01666068,3.82893499 8.01666068,3.87295839 Z M8.15203263,1.18202822 C8.15203263,1.36032298 8.20431041,1.50174815 8.30886598,1.60630372 C8.41342155,1.71085928 8.55924905,1.76313707 8.74634849,1.76313707 C8.84540114,1.76313707 8.93179705,1.74662829 9.00553624,1.71361075 C9.07927544,1.6805932 9.1403579,1.6365698 9.18878364,1.58154055 C9.23720937,1.52651131 9.27352868,1.46267738 9.29774155,1.39003878 C9.32195441,1.31740017 9.33406085,1.24145981 9.33406085,1.16221769 C9.33406085,0.975118254 9.28178306,0.82929075 9.17722749,0.724735181 C9.07267193,0.620179612 8.92684442,0.567901827 8.73974498,0.567901827 C8.64069234,0.567901827 8.55429642,0.584410601 8.48055723,0.617428149 C8.40681804,0.650445698 8.34573558,0.695019388 8.29730984,0.751149219 C8.2488841,0.807279051 8.2125648,0.872763855 8.18835193,0.947603631 C8.16413906,1.02244341 8.15203263,1.10058494 8.15203263,1.18202822 Z" id="Combined-Shape"></path>
            </g>
        </g>
    </g>
</svg>