<?xml version="1.0" encoding="UTF-8"?>
<svg width="20px" height="20px" viewBox="0 0 20 20" version="1.1" xmlns="http://www.w3.org/2000/svg" xmlns:xlink="http://www.w3.org/1999/xlink">
    <title>ic/toolbar/panelFix/idle</title>
    <g id="Symbol" stroke="none" stroke-width="1" fill="none" fill-rule="evenodd">
        <g id="ic/toolbar/panelFix/idle" fill-rule="nonzero">
            <g id="编组" transform="translate(3.000000, 3.000000)">
                <rect id="矩形" fill="#000000" opacity="0" x="0" y="0" width="14" height="14"></rect>
                <path d="M1.99530625,5.19746956 L2.6186577,4.57364939 C2.73207752,4.46022957 2.90222561,4.42542441 3.05101588,4.48533743 L5.23288575,5.3639058 L8.29877897,3.13976258 L7.66358236,2.50456597 C7.48977998,2.33123564 7.4704686,2.06183747 7.60546174,1.86697224 L7.66384789,1.79772492 L8.12211221,1.34014868 C8.31736388,1.14519018 8.63363635,1.14524796 8.82881678,1.34027779 L11.881029,4.38663758 L12.660889,5.1707196 C12.8552,5.36608253 12.8548331,5.68182689 12.6600687,5.87673776 L12.2020745,6.33507635 C12.0068713,6.53037898 11.6903071,6.53050853 11.4949441,6.33536573 L10.859904,5.70088758 L8.63488575,8.7676558 L9.51344667,10.9479341 C9.57336962,11.0966417 9.53871028,11.2667616 9.42538463,11.3801724 L8.80193143,12.0040947 C8.62845128,12.1777473 8.35903649,12.197136 8.1641179,12.0622135 L8.09484829,12.0043365 L5.61176075,9.5227808 L2.47410845,12.6596467 C2.27879483,12.8548228 1.9622022,12.8548472 1.76695736,12.6596024 L1.34006414,12.2327092 C1.14480199,12.037447 1.14480199,11.7208646 1.34006414,11.5256024 L4.47776075,8.3879058 L1.9953846,5.90476372 C1.80041322,5.70935722 1.80037817,5.39291925 1.99530625,5.19746956 Z" id="路径" fill="#69727B"></path>
            </g>
        </g>
    </g>
</svg>