<?xml version="1.0" encoding="UTF-8"?>
<svg width="25px" height="13px" viewBox="0 0 25 13" version="1.1" xmlns="http://www.w3.org/2000/svg" xmlns:xlink="http://www.w3.org/1999/xlink">
    <title>ic_handle_asymmetry</title>
    <defs>
        <path d="M10.5,1.6675446 C11.4315516,1.6675446 12.2143512,2.30442753 12.4367279,3.16652244 L16.779351,3.16675139 L16.7800626,2.75275139 L18.609649,2.75275139 L18.609649,4.58233781 L16.7800626,4.58233781 L16.779351,4.16675139 L13.3840705,4.16658649 C14.8523466,5.19337459 16.2961646,7.00749865 17.7287745,9.58977367 C17.8627391,9.83124439 17.7755881,10.1355948 17.5341174,10.2695594 C17.2926467,10.4035239 16.9882963,10.316373 16.8543317,10.0749023 C15.2791577,7.23565601 13.7362011,5.43446014 12.2471663,4.63988785 C11.906116,5.25311317 11.2514558,5.6675446 10.5,5.6675446 C9.95362204,5.6675446 9.45841642,5.44844977 9.0974464,5.09332337 C8.52176426,5.87052514 7.96834793,7.14860887 7.46161017,8.93987723 L7.28201164,9.6039538 L7.19378728,9.95252401 L7.19378728,9.95252401 C7.12741037,10.2205701 6.85630694,10.3840553 6.58826083,10.3176784 C6.32021472,10.2513015 6.15672954,9.98019805 6.22310645,9.71215194 L6.31303699,9.35663262 L6.49707944,8.67488721 C7.08908099,6.57716191 7.7673422,5.06886113 8.55850234,4.16691447 L7.21935096,4.16675139 L7.21993738,4.58233781 L5.39035096,4.58233781 L5.39035096,2.75275139 L7.21993738,2.75275139 L7.21935096,3.16675139 L8.56327212,3.16652244 C8.78564881,2.30442753 9.56844842,1.6675446 10.5,1.6675446 Z M10.5,2.6675446 C9.94771525,2.6675446 9.5,3.11525985 9.5,3.6675446 C9.5,4.21982935 9.94771525,4.6675446 10.5,4.6675446 C11.0522847,4.6675446 11.5,4.21982935 11.5,3.6675446 C11.5,3.11525985 11.0522847,2.6675446 10.5,2.6675446 Z" id="path-1"></path>
    </defs>
    <g id="ZENO@2Tools" stroke="none" stroke-width="1" fill="none" fill-rule="evenodd">
        <g id="曲线图" transform="translate(-471.000000, -526.000000)" fill-rule="nonzero">
            <g id="函数曲线工具" transform="translate(65.000000, 54.000000)">
                <g id="菜单文本" transform="translate(213.029034, 415.000000)">
                    <g id="节点手柄" transform="translate(0.000000, 53.000000)">
                        <g id="Asymmetry" transform="translate(189.000000, 1.500000)">
                            <g id="形状" transform="translate(4.000000, 3.000000)">
                                <use fill="#8C8C8C" xlink:href="#path-1"></use>
                            </g>
                        </g>
                    </g>
                </g>
            </g>
        </g>
    </g>
</svg>