<?xml version="1.0" encoding="UTF-8"?>
<svg width="25px" height="13px" viewBox="0 0 25 13" version="1.1" xmlns="http://www.w3.org/2000/svg" xmlns:xlink="http://www.w3.org/1999/xlink">
    <title>ic_handle_vector</title>
    <defs>
        <path d="M12.0019063,1.87499998 C13.1064758,1.87499998 14.0019063,2.77043048 14.0019063,3.87499998 C14.0019063,4.2492756 13.8990978,4.59953901 13.7201805,4.89909066 L18.0500485,9.26924656 C18.2444004,9.46541475 18.2429279,9.78199382 18.0467598,9.97634569 C17.872388,10.1491029 17.6028768,10.1671348 17.4086387,10.0312339 L17.3396606,9.97305696 L13.0093236,5.60312361 C12.7134802,5.77595943 12.3692593,5.87499998 12.0019063,5.87499998 C11.6338548,5.87499998 11.2890235,5.77558244 10.9928019,5.60213693 L6.66033938,9.97690518 C6.48758216,10.1512769 6.21825036,10.1718149 6.02275647,10.0377267 L5.95324024,9.98019392 C5.77886852,9.80743669 5.75833049,9.5381049 5.89241876,9.34261101 L5.94995151,9.27309478 L10.2830373,4.89809419 C10.1044869,4.59876234 10.0019063,4.24886066 10.0019063,3.87499998 C10.0019063,2.77043048 10.8973368,1.87499998 12.0019063,1.87499998 Z M12.0019063,2.87499998 C11.4496215,2.87499998 11.0019063,3.32271523 11.0019063,3.87499998 C11.0019063,4.42728473 11.4496215,4.87499998 12.0019063,4.87499998 C12.554191,4.87499998 13.0019063,4.42728473 13.0019063,3.87499998 C13.0019063,3.32271523 12.554191,2.87499998 12.0019063,2.87499998 Z" id="path-1"></path>
    </defs>
    <g id="ZENO@2Tools" stroke="none" stroke-width="1" fill="none" fill-rule="evenodd">
        <g id="曲线图" transform="translate(-357.000000, -526.000000)" fill-rule="nonzero">
            <g id="函数曲线工具" transform="translate(65.000000, 54.000000)">
                <g id="菜单文本" transform="translate(213.029034, 415.000000)">
                    <g id="节点手柄" transform="translate(0.000000, 53.000000)">
                        <g id="Vector" transform="translate(75.000000, 1.500000)">
                            <g id="形状" transform="translate(4.000000, 3.000000)">
                                <use fill="#8C8C8C" xlink:href="#path-1"></use>
                                <use fill="#FFFFFF" xlink:href="#path-1"></use>
                            </g>
                        </g>
                    </g>
                </g>
            </g>
        </g>
    </g>
</svg>