<?xml version="1.0" encoding="UTF-8"?>
<svg width="16px" height="16px" viewBox="0 0 16 16" version="1.1" xmlns="http://www.w3.org/2000/svg" xmlns:xlink="http://www.w3.org/1999/xlink">
    <title>ic_layout_container</title>
    <g id="ZENO@2NodeEditor" stroke="none" stroke-width="1" fill="none" fill-rule="evenodd">
        <g id="子图的右键菜单" transform="translate(-35.000000, -36.000000)" fill-rule="nonzero">
            <g id="Horizontal_bar" transform="translate(25.000000, 26.000000)">
                <g id="ic_layout_container" transform="translate(10.000000, 10.000000)">
                    <rect id="矩形" fill="#000000" opacity="0" x="0" y="0" width="16" height="16"></rect>
                    <path d="M13,2.32044803 L3,2.32044803 C2.7234375,2.32044803 2.5,2.54388553 2.5,2.82044803 L2.5,13.179552 C2.5,13.4561145 2.7234375,13.679552 3,13.679552 L13,13.679552 C13.2765625,13.679552 13.5,13.4561145 13.5,13.179552 L13.5,2.82044803 C13.5,2.54388553 13.2765625,2.32044803 13,2.32044803 Z M5.1546875,9.41392697 C5.3359375,9.92642697 5.6546875,10.3873645 6.078125,10.7373645 C6.6171875,11.182677 7.3,11.429552 8,11.429552 C8.7,11.429552 9.3828125,11.1842395 9.921875,10.7373645 C10.3453125,10.3873645 10.6640625,9.92642697 10.8453125,9.41392697 L12.375,9.41392697 L12.375,12.554552 L3.625,12.554552 L3.625,9.41392697 L5.1546875,9.41392697 Z M11,5.50767697 C11.06875,5.50767697 11.125,5.56392697 11.125,5.63267697 L11.125,5.63267697 L11.125,6.38267697 C11.125,6.45142697 11.06875,6.50767697 11,6.50767697 L11,6.50767697 L5,6.50767697 C4.93125,6.50767697 4.875,6.45142697 4.875,6.38267697 L4.875,6.38267697 L4.875,5.63267697 C4.875,5.56392697 4.93125,5.50767697 5,5.50767697 L5,5.50767697 Z" id="形状" fill="#9C9C9C"></path>
                </g>
            </g>
        </g>
    </g>
</svg>