<?xml version="1.0" encoding="UTF-8"?>
<svg width="18px" height="17px" viewBox="0 0 18 17" version="1.1" xmlns="http://www.w3.org/2000/svg" xmlns:xlink="http://www.w3.org/1999/xlink">
    <title>ic_tool_unlock</title>
    <g id="ZENO@2Tools" stroke="none" stroke-width="1" fill="none" fill-rule="evenodd">
        <g id="曲线图" transform="translate(-411.000000, -496.000000)" fill-rule="nonzero">
            <g id="函数曲线工具" transform="translate(65.000000, 54.000000)">
                <g id="菜单文本" transform="translate(213.029034, 415.000000)">
                    <g id="ic_tool_unlock" transform="translate(133.000000, 27.000000)">
                        <rect id="矩形" fill="#000000" opacity="0" x="0" y="0" width="17" height="17"></rect>
                        <g id="unlock" transform="translate(0.500000, 0.500000)">
                            <rect id="矩形" fill="#000000" opacity="0" x="0" y="0" width="16" height="16"></rect>
                            <path d="M8.00000001,4 C7.176,4 6.50000001,4.676 6.50000001,5.5 L6.50000001,7 L11,7 C11.5522847,7 12,7.44771525 12,8 L12,12 C12,12.2652165 11.8946432,12.5195704 11.7071068,12.7071068 C11.5195704,12.8946432 11.2652165,13 11,13 L5.00000001,13 C4.73478351,13 4.4804296,12.8946432 4.29289322,12.7071068 C4.10535684,12.5195704 4.00000001,12.2652165 4.00000001,12 L4.00000001,8 C4.00000001,7.44771525 4.44771526,7 5.00000001,7 L5.50000001,7 L5.50000001,5.5 C5.50000001,4.124 6.62400001,3 8.00000001,3 C9.37599999,3 10.5,4.124 10.5,5.5 C10.5000273,5.67865103 10.4047339,5.84374309 10.2500221,5.9330765 C10.0953103,6.02240991 9.90468967,6.02240991 9.7499779,5.9330765 C9.59526613,5.84374309 9.49997265,5.67865103 9.50000001,5.5 C9.50000001,4.676 8.824,4 8.00000001,4 Z M5,8 L5,12 L11,12 L11,8 L5,8 Z" id="形状" fill="#8C8C8C"></path>
                        </g>
                    </g>
                </g>
            </g>
        </g>
    </g>
</svg>