<?xml version="1.0" encoding="UTF-8"?>
<svg width="16px" height="16px" viewBox="0 0 16 16" version="1.1" xmlns="http://www.w3.org/2000/svg" xmlns:xlink="http://www.w3.org/1999/xlink">
    <title>ic/logger/warning/idle</title>
    <g id="Symbol" stroke="none" stroke-width="1" fill="none" fill-rule="evenodd">
        <g id="ic/logger/warning/idle">
            <path d="M5.1277704,-2.07168062e-16 L10.8722296,2.07168062e-16 C12.6552671,-1.2037061e-16 13.3018396,0.185651222 13.9536914,0.534265408 C14.6055433,0.882879593 15.1171204,1.39445674 15.4657346,2.04630859 C15.8143488,2.69816044 16,3.34473292 16,5.1277704 L16,10.8722296 C16,12.6552671 15.8143488,13.3018396 15.4657346,13.9536914 C15.1171204,14.6055433 14.6055433,15.1171204 13.9536914,15.4657346 C13.3018396,15.8143488 12.6552671,16 10.8722296,16 L5.1277704,16 C3.34473292,16 2.69816044,15.8143488 2.04630859,15.4657346 C1.39445674,15.1171204 0.882879593,14.6055433 0.534265408,13.9536914 C0.185651222,13.3018396 8.02470732e-17,12.6552671 -1.38112041e-16,10.8722296 L1.38112041e-16,5.1277704 C-8.02470732e-17,3.34473292 0.185651222,2.69816044 0.534265408,2.04630859 C0.882879593,1.39445674 1.39445674,0.882879593 2.04630859,0.534265408 C2.69816044,0.185651222 3.34473292,1.2037061e-16 5.1277704,-2.07168062e-16 Z" id="矩形" fill="#69727B"></path>
            <path d="M3.94505653,12.3043024 L12.0551093,12.3043024 C12.6073941,12.3043024 13.0551093,11.8565871 13.0551093,11.3043024 C13.0551093,11.1283598 13.0086892,10.9555314 12.9205356,10.8032661 L8.86550921,3.79912959 C8.58879452,3.32116785 7.97700839,3.15802488 7.49904665,3.43473957 C7.34783513,3.52228308 7.22220015,3.64791807 7.13465664,3.79912959 L3.07963024,10.8032661 C2.80291555,11.2812278 2.96605852,11.893014 3.44402026,12.1697287 C3.5962856,12.2578823 3.76911394,12.3043024 3.94505653,12.3043024 Z M8.52639872,10.4621971 L7.47376714,10.4621971 L7.47376714,9.40956553 L8.52639872,9.40956553 L8.52639872,10.4621971 Z M8.52639872,8.35693395 L7.47376714,8.35693395 L7.47376714,6.25167079 L8.52639872,6.25167079 L8.52639872,8.35693395 Z" id="形状" fill="#DFE2E5" fill-rule="nonzero"></path>
        </g>
    </g>
</svg>