<?xml version="1.0" encoding="UTF-8"?>
<svg width="16px" height="16px" viewBox="0 0 16 16" version="1.1" xmlns="http://www.w3.org/2000/svg" xmlns:xlink="http://www.w3.org/1999/xlink">
    <title>ic/logger/debug/on</title>
    <g id="Symbol" stroke="none" stroke-width="1" fill="none" fill-rule="evenodd">
        <g id="ic/logger/debug/on">
            <path d="M5.1277704,-2.07168062e-16 L10.8722296,2.07168062e-16 C12.6552671,-1.2037061e-16 13.3018396,0.185651222 13.9536914,0.534265408 C14.6055433,0.882879593 15.1171204,1.39445674 15.4657346,2.04630859 C15.8143488,2.69816044 16,3.34473292 16,5.1277704 L16,10.8722296 C16,12.6552671 15.8143488,13.3018396 15.4657346,13.9536914 C15.1171204,14.6055433 14.6055433,15.1171204 13.9536914,15.4657346 C13.3018396,15.8143488 12.6552671,16 10.8722296,16 L5.1277704,16 C3.34473292,16 2.69816044,15.8143488 2.04630859,15.4657346 C1.39445674,15.1171204 0.882879593,14.6055433 0.534265408,13.9536914 C0.185651222,13.3018396 8.02470732e-17,12.6552671 -1.38112041e-16,10.8722296 L1.38112041e-16,5.1277704 C-8.02470732e-17,3.34473292 0.185651222,2.69816044 0.534265408,2.04630859 C0.882879593,1.39445674 1.39445674,0.882879593 2.04630859,0.534265408 C2.69816044,0.185651222 3.34473292,1.2037061e-16 5.1277704,-2.07168062e-16 Z" id="矩形" fill="#A3B1C0"></path>
            <g id="bug" transform="translate(3.500000, 3.500000)" fill-rule="nonzero">
                <rect id="矩形" fill="#000000" opacity="0" x="0" y="0" width="9" height="9"></rect>
                <path d="M8.99978238,5.07831654 C8.99138005,5.38470303 8.73229626,5.62499583 8.42580429,5.62499583 L7.45311947,5.62499583 L7.45311947,5.90624561 C7.45311947,6.29057346 7.36730313,6.65479194 7.21405715,6.98105927 L8.27275167,8.0397538 C8.49240775,8.25942746 8.49240775,8.61557759 8.27275167,8.83525126 C8.05306043,9.05492492 7.6969103,9.05490734 7.47723664,8.83525126 L6.5150811,7.87309572 C6.08002283,8.22594116 5.52569707,8.43749374 4.92187134,8.43749374 L4.92187134,4.14843442 C4.92187134,4.03194428 4.82742415,3.93749708 4.710934,3.93749708 L4.28905932,3.93749708 C4.17256917,3.93749708 4.07812198,4.03194428 4.07812198,4.14843442 L4.07812198,8.43749374 C3.47429625,8.43749374 2.91997049,8.22594117 2.48491222,7.87309572 L1.52275668,8.83525126 C1.30306544,9.05492492 0.946915313,9.05490734 0.727241651,8.83525126 C0.507585568,8.61557759 0.507585568,8.25942747 0.727241651,8.0397538 L1.78593617,6.98105927 C1.63269019,6.65479194 1.54687385,6.29057346 1.54687385,5.90624561 L1.54687385,5.62499583 L0.574206609,5.62499583 C0.267714642,5.62499583 0.00863085059,5.38470303 0.000228515625,5.07831654 C-0.00850780371,4.76043397 0.246585753,4.49999666 0.562499587,4.49999666 L1.54687385,4.49999666 L1.54687385,3.46737047 L0.727241651,2.64773827 C0.507585568,2.4280646 0.507585568,2.07191448 0.727241651,1.85224082 C0.946932891,1.63256716 1.30306544,1.63256716 1.52275668,1.85224082 L2.4829962,2.81249792 L6.51697954,2.81249792 L7.47721906,1.85225839 C7.6969103,1.63258473 8.05304285,1.63258473 8.27273409,1.85225839 C8.49239017,2.07193206 8.49239017,2.42808218 8.27273409,2.64775584 L7.45311947,3.46737047 L7.45311947,4.49999666 L8.43749374,4.49999666 C8.75340757,4.49999666 9.00850113,4.76043397 8.99978238,5.07831654 Z M4.51757478,0 C3.43026308,0 2.54882624,0.88143685 2.54882624,1.96874854 L6.48632331,1.96874854 C6.48632331,0.88143685 5.60488647,0 4.51757478,0 Z" id="形状" fill="#FFFFFF"></path>
            </g>
        </g>
    </g>
</svg>