<?xml version="1.0" encoding="UTF-8"?>
<svg width="20px" height="20px" viewBox="0 0 20 20" version="1.1" xmlns="http://www.w3.org/2000/svg" xmlns:xlink="http://www.w3.org/1999/xlink">
    <title>ic/nodeColor/blue</title>
    <g id="Symbol" stroke="none" stroke-width="1" fill="none" fill-rule="evenodd">
        <g id="ic/nodeColor/blue" fill-rule="nonzero">
            <path d="M16.25,8.38652448 L16.25,14.9490245 C16.25,15.1948578 16.0734568,15.3987158 15.8399863,15.4409826 L15.75,15.4490245 L4.25,15.4490245 C4.00416667,15.4490245 3.80030864,15.2724813 3.75804184,15.0390108 L3.75,14.9490245 L3.75,8.38652448 L16.25,8.38652448 Z M15.05,9.586 L4.95,9.586 L4.95,14.249 L15.05,14.249 L15.05,9.586 Z" id="路径" fill="#69727B"></path>
            <path d="M15.75,4.55097552 L4.25,4.55097552 C3.9734375,4.55097552 3.75,4.77441302 3.75,5.05097552 L3.75,7.80097552 L16.25,7.80097552 L16.25,5.05097552 C16.25,4.77441302 16.0265625,4.55097552 15.75,4.55097552 Z" id="路径" fill="#3568AA"></path>
        </g>
    </g>
</svg>