<?xml version="1.0" encoding="UTF-8"?>
<svg width="24px" height="20px" viewBox="0 0 24 20" version="1.1" xmlns="http://www.w3.org/2000/svg" xmlns:xlink="http://www.w3.org/1999/xlink">
    <title>ic/nodeToolbar/nodeUnfold/unselected</title>
    <g id="Symbol" stroke="none" stroke-width="1" fill="none" fill-rule="evenodd">
        <g id="ic/nodeToolbar/nodeUnfold/unselected">
            <rect id="矩形" x="0" y="0" width="24" height="20"></rect>
            <path d="M12.0926756,8.76613217 L14.9063378,11.5801322 L13.0923378,11.5801322 L13.0923378,14.5712998 L11.0923378,14.5712998 L11.0923378,11.5801322 L9.27833781,11.5801322 L12.0926756,8.76613217 Z" id="形状结合" fill="#69727B" transform="translate(12.092338, 11.668716) scale(1, -1) translate(-12.092338, -11.668716) "></path>
            <path d="M18.322838,3.49027776 C19.1286858,3.49027776 19.7819545,4.14354646 19.7819545,4.94939423 L19.7819545,15.0506058 C19.7819545,15.8564535 19.1286858,16.5097222 18.322838,16.5097222 L5.67716198,16.5097222 C4.87131421,16.5097222 4.21804551,15.8564535 4.21804551,15.0506058 L4.21804551,4.94939423 C4.21804551,4.14354646 4.87131421,3.49027776 5.67716198,3.49027776 L18.322838,3.49027776 Z M5.67716198,7.2166877 L5.67716198,15.0506058 L18.322838,15.0506058 L18.322838,7.2166877 L5.67716198,7.2166877 Z" id="形状" fill="#69727B" fill-rule="nonzero"></path>
        </g>
    </g>
</svg>