<?xml version="1.0" encoding="UTF-8"?>
<svg width="24px" height="20px" viewBox="0 0 24 20" version="1.1" xmlns="http://www.w3.org/2000/svg" xmlns:xlink="http://www.w3.org/1999/xlink">
    <title>ic/nodeToolbar/grid/selected</title>
    <g id="Symbol" stroke="none" stroke-width="1" fill="none" fill-rule="evenodd">
        <g id="ic/nodeToolbar/grid/selected">
            <rect id="矩形" x="0" y="0" width="24" height="20"></rect>
            <path d="M19.7819545,15.0506058 C19.7819545,15.8564535 19.1286858,16.5097222 18.322838,16.5097222 L5.67716198,16.5097222 C4.87131421,16.5097222 4.21804551,15.8564535 4.21804551,15.0506058 L4.21804551,4.94939423 C4.21804551,4.14354646 4.87131421,3.49027776 5.67716198,3.49027776 L18.322838,3.49027776 C19.1286858,3.49027776 19.7819545,4.14354646 19.7819545,4.94939423 L19.7819545,15.0506058 Z M8.91504551,12.6682778 L5.67704551,12.6682778 L5.67716198,15.05 L8.91504551,15.0492778 L8.91504551,12.6682778 Z M18.3220455,12.6682778 L15.0780455,12.6682778 L15.0780455,15.0492778 L18.322838,15.05 L18.3220455,12.6682778 Z M13.6180455,12.6682778 L10.3750455,12.6682778 L10.3750455,15.0492778 L13.6180455,15.0492778 L13.6180455,12.6682778 Z M8.91504551,8.80927776 L5.67704551,8.80927776 L5.67704551,11.2082778 L8.91504551,11.2082778 L8.91504551,8.80927776 Z M13.6180455,8.80927776 L10.3750455,8.80927776 L10.3750455,11.2082778 L13.6180455,11.2082778 L13.6180455,8.80927776 Z M18.3220455,8.80927776 L15.0780455,8.80927776 L15.0780455,11.2082778 L18.3220455,11.2082778 L18.3220455,8.80927776 Z M8.91504551,4.94927776 L5.67716198,4.95 L5.67704551,7.34927776 L8.91504551,7.34927776 L8.91504551,4.94927776 Z M13.6180455,4.94927776 L10.3750455,4.94927776 L10.3750455,7.34927776 L13.6180455,7.34927776 L13.6180455,4.94927776 Z M18.322838,4.95 L15.0780455,4.94927776 L15.0780455,7.34927776 L18.3220455,7.34927776 L18.322838,4.95 Z" id="Combined-Shape" fill="#DFE2E5" fill-rule="nonzero"></path>
        </g>
    </g>
</svg>