<?xml version="1.0" encoding="UTF-8"?>
<svg width="20px" height="20px" viewBox="0 0 20 20" version="1.1" xmlns="http://www.w3.org/2000/svg" xmlns:xlink="http://www.w3.org/1999/xlink">
    <title>nodeEditor_nodePara_selected</title>
    <g id="Symbol" stroke="none" stroke-width="1" fill="none" fill-rule="evenodd">
        <g id="ic/nodeToolbar/node_para/selected">
            <rect id="Rectangle" x="2" y="2" width="16" height="16"></rect>
            <path d="M15.5571841,7.25653854 C15.9637245,7.251924 16.3551103,7.41065549 16.64359,7.69714426 L16.9237576,7.97852354 C17.5188555,8.57240976 17.5128159,9.55741118 16.9092739,10.144065 L11.1851862,15.7751924 L7.87002531,16.8164711 L8.84692117,13.4356967 L14.4768179,7.7116279 C14.7253952,7.45756753 15.0541952,7.30025762 15.4046443,7.26439881 L15.5571841,7.25653854 Z M14.389298,3.37259873 C15.1951457,3.37259873 15.8484144,4.02586743 15.8484144,4.8317152 L15.8495878,6.10678958 C15.2917872,5.95119351 14.5341853,6.14827528 13.9217802,6.62093625 L5.57848604,6.62093625 L5.57848604,14.8940305 L7.31736957,14.8935987 L6.92536957,16.3525987 L5.57848604,16.353147 C4.77263826,16.353147 4.11936957,15.6998783 4.11936957,14.8940305 L4.11936957,4.8317152 C4.11936957,4.02586743 4.77263826,3.37259873 5.57848604,3.37259873 L14.389298,3.37259873 Z M15.8483696,12.7125987 L15.8484144,14.8940305 C15.8484144,15.6998783 15.1951457,16.353147 14.389298,16.353147 L12.3123696,16.3525987 L13.7293696,14.8935987 L14.389298,14.8940305 L14.3883696,14.2155987 L15.8483696,12.7125987 Z M15.4096793,8.66368164 C15.3307081,8.66410117 15.2552781,8.69724593 15.2007088,8.75552337 L10.1535038,13.9067089 L9.6886162,14.9450295 L10.7102268,14.4922004 L15.8450483,9.43198771 C15.9033931,9.37755816 15.9371204,9.30095572 15.9382619,9.22030612 C15.9393789,9.1396563 15.9078097,9.06212531 15.851012,9.00605837 L15.6182149,8.75676476 C15.5593295,8.69583325 15.484639,8.6643358 15.4096793,8.66368164 Z M12.0802501,8.23773748 L12.0793696,8.28359873 L9.77536957,10.3625987 L7.2,10.3628729 L7.2,8.23773748 L12.0802501,8.23773748 Z" id="Combined-Shape" fill="#DFE2E5" fill-rule="nonzero"></path>
        </g>
    </g>
</svg>