<?xml version="1.0" encoding="UTF-8"?>
<svg width="24px" height="20px" viewBox="0 0 24 20" version="1.1" xmlns="http://www.w3.org/2000/svg" xmlns:xlink="http://www.w3.org/1999/xlink">
    <title>ic/nodeToolbar/snap/unselected</title>
    <g id="Symbol" stroke="none" stroke-width="1" fill="none" fill-rule="evenodd">
        <g id="ic/nodeToolbar/snap/unselected">
            <rect id="矩形" x="0" y="0" width="24" height="20"></rect>
            <path d="M17.4104354,4.59158682 C19.4831996,6.66435106 19.5314034,9.99501586 17.5550468,12.1262871 L17.4104354,12.2764478 L14.9639028,14.7229804 L12.7230875,12.4821651 L15.1696201,10.0356325 C16.0541677,9.15108487 16.0541677,7.71694976 15.1696201,6.83240211 C14.3204543,5.98323636 12.9647888,5.94926973 12.0751031,6.73050222 L11.9663897,6.83240211 L9.51985712,9.27893465 L7.27904183,7.03811937 L9.72557438,4.59158682 C11.8476901,2.46947106 15.2883196,2.46947106 17.4104354,4.59158682 Z M14.297824,15.3890591 L12.6868832,17 L10.4460679,14.7591847 L12.0570088,13.1482438 L14.297824,15.3890591 Z M8.85377835,9.94501342 L7.2387931,11.5599987 L4.99797782,9.31918338 L6.61296306,7.70419814 L8.85377835,9.94501342 Z" id="形状" fill="#69727B" fill-rule="nonzero"></path>
        </g>
    </g>
</svg>