<?xml version="1.0" encoding="UTF-8"?>
<svg width="16px" height="16px" viewBox="0 0 16 16" version="1.1" xmlns="http://www.w3.org/2000/svg" xmlns:xlink="http://www.w3.org/1999/xlink">
    <title>parameter_control_curve</title>
    <g id="Symbol" stroke="none" stroke-width="1" fill="none" fill-rule="evenodd">
        <g id="ic/parameter_control/curve">
            <rect id="矩形" x="1" y="1" width="14" height="14"></rect>
            <rect id="矩形" fill="#573E56" x="2.35" y="3.35" width="11.3" height="9.3" rx="2"></rect>
            <g id="Fx" transform="translate(4.298828, 5.199219)" fill="#CC91CA" fill-rule="nonzero">
                <polygon id="Path" points="3.23828125 1.02734375 1.26171875 1.02734375 1.26171875 2.40234375 3.078125 2.40234375 3.078125 3.42578125 1.26171875 3.42578125 1.26171875 5.6015625 0 5.6015625 0 0 3.23828125 0"></polygon>
                <path d="M7.40234375,1.96960559 L6.20351422,3.72883472 L7.39525008,5.6015625 L6.1042029,5.6015625 L5.57927163,4.62263661 C5.53670963,4.54460629 5.48587169,4.43465447 5.42675781,4.29278115 L5.41257048,4.29278115 C5.37710215,4.39209247 5.32862877,4.49849746 5.26715033,4.61199611 L4.73867223,5.6015625 L3.45117187,5.6015625 L4.67837607,3.79267771 L3.52565537,1.96960559 L4.82379622,1.96960559 L5.34163382,2.98754664 C5.41020593,3.12232629 5.45867931,3.23582494 5.48705397,3.3280426 L5.5012413,3.3280426 C5.53907419,3.2169085 5.58991213,3.10104529 5.65375512,2.98045297 L6.18223322,1.96960559 L7.40234375,1.96960559 Z" id="Path"></path>
            </g>
        </g>
    </g>
</svg>