<?xml version="1.0" encoding="UTF-8"?>
<svg width="16px" height="16px" viewBox="0 0 16 16" version="1.1" xmlns="http://www.w3.org/2000/svg" xmlns:xlink="http://www.w3.org/1999/xlink">
    <title>parameter_control_integerVector3</title>
    <g id="Symbol" stroke="none" stroke-width="1" fill="none" fill-rule="evenodd">
        <g id="ic/parameter_control/integer_vector3">
            <rect id="矩形" x="1" y="1" width="14" height="14"></rect>
            <rect id="矩形" fill="#3E5740" x="2.35" y="3.35" width="11.3" height="9.3" rx="2"></rect>
            <g id="13" transform="translate(4.252000, 5.364000)" fill="#91CC96" fill-rule="nonzero">
                <path d="M0,5.176 L0,4.224 L1.104,4.224 L1.104,1.288 L0.152,1.288 L0.152,0.56 C0.429333333,0.506666667 0.664,0.442666667 0.856,0.368 C1.048,0.293333333 1.23466667,0.202666667 1.416,0.096 L2.28,0.096 L2.28,4.224 L3.232,4.224 L3.232,5.176 L0,5.176 Z" id="路径"></path>
                <path d="M5.608,5.272 C5.192,5.272 4.84,5.20666667 4.552,5.076 C4.264,4.94533333 4.02666667,4.77066667 3.84,4.552 L4.384,3.808 C4.53866667,3.95733333 4.708,4.08 4.892,4.176 C5.076,4.272 5.27733333,4.32 5.496,4.32 C5.74666667,4.32 5.94666667,4.268 6.096,4.164 C6.24533333,4.06 6.32,3.912 6.32,3.72 C6.32,3.608 6.3,3.50666667 6.26,3.416 C6.22,3.32533333 6.14933333,3.24933333 6.048,3.188 C5.94666667,3.12666667 5.808,3.07866667 5.632,3.044 C5.456,3.00933333 5.22933333,2.992 4.952,2.992 L4.952,2.16 C5.18133333,2.16 5.372,2.144 5.524,2.112 C5.676,2.08 5.79866667,2.03333333 5.892,1.972 C5.98533333,1.91066667 6.052,1.83866667 6.092,1.756 C6.132,1.67333333 6.152,1.58133333 6.152,1.48 C6.152,1.304 6.09866667,1.16666667 5.992,1.068 C5.88533333,0.969333333 5.73066667,0.92 5.528,0.92 C5.34666667,0.92 5.18266667,0.96 5.036,1.04 C4.88933333,1.12 4.736,1.22933333 4.576,1.368 L3.984,0.648 C4.21866667,0.445333333 4.46533333,0.286666667 4.724,0.172 C4.98266667,0.0573333333 5.26933333,0 5.584,0 C5.84533333,0 6.084,0.0306666667 6.3,0.092 C6.516,0.153333333 6.7,0.244 6.852,0.364 C7.004,0.484 7.12266667,0.629333333 7.208,0.8 C7.29333333,0.970666667 7.336,1.168 7.336,1.392 C7.336,1.65866667 7.26266667,1.884 7.116,2.068 C6.96933333,2.252 6.76,2.40266667 6.488,2.52 L6.488,2.552 C6.78133333,2.63733333 7.02266667,2.78266667 7.212,2.988 C7.40133333,3.19333333 7.496,3.46133333 7.496,3.792 C7.496,4.02666667 7.44533333,4.236 7.344,4.42 C7.24266667,4.604 7.10666667,4.75866667 6.936,4.884 C6.76533333,5.00933333 6.56533333,5.10533333 6.336,5.172 C6.10666667,5.23866667 5.864,5.272 5.608,5.272 Z" id="路径"></path>
            </g>
        </g>
    </g>
</svg>