<?xml version="1.0" encoding="UTF-8"?>
<svg width="16px" height="16px" viewBox="0 0 16 16" version="1.1" xmlns="http://www.w3.org/2000/svg" xmlns:xlink="http://www.w3.org/1999/xlink">
    <title>parameter_control_floatVector4</title>
    <g id="Symbol" stroke="none" stroke-width="1" fill="none" fill-rule="evenodd">
        <g id="ic/parameter_control/float_vector4">
            <rect id="矩形" x="1" y="1" width="14" height="14"></rect>
            <rect id="矩形" fill="#57473E" x="2.35" y="3.35" width="11.3" height="9.3" rx="2"></rect>
            <g id=".4" transform="translate(5.028000, 5.412000)" fill="#CCA691" fill-rule="nonzero">
                <path d="M0.712,5.176 C0.509333333,5.176 0.34,5.10533333 0.204,4.964 C0.068,4.82266667 0,4.648 0,4.44 C0,4.22666667 0.068,4.04933333 0.204,3.908 C0.34,3.76666667 0.509333333,3.696 0.712,3.696 C0.914666667,3.696 1.084,3.76666667 1.22,3.908 C1.356,4.04933333 1.424,4.22666667 1.424,4.44 C1.424,4.648 1.356,4.82266667 1.22,4.964 C1.084,5.10533333 0.914666667,5.176 0.712,5.176 Z M4.264,5.08 L4.264,3.864 L2.064,3.864 L2.064,3.056 L3.92,0 L5.36,0 L5.36,2.968 L5.944,2.968 L5.944,3.864 L5.36,3.864 L5.36,5.08 L4.264,5.08 Z M3.192,2.968 L4.264,2.968 L4.264,2.144 C4.264,1.97866667 4.26933333,1.788 4.28,1.572 C4.29066667,1.356 4.30133333,1.168 4.312,1.008 L4.28,1.008 C4.216,1.14666667 4.14933333,1.288 4.08,1.432 C4.01066667,1.576 3.93866667,1.72 3.864,1.864 L3.192,2.968 Z" id="形状结合"></path>
            </g>
        </g>
    </g>
</svg>