<?xml version="1.0" encoding="UTF-8"?>
<svg width="16px" height="16px" viewBox="0 0 16 16" version="1.1" xmlns="http://www.w3.org/2000/svg" xmlns:xlink="http://www.w3.org/1999/xlink">
    <title>parameter_control_color</title>
    <g id="Symbol" stroke="none" stroke-width="1" fill="none" fill-rule="evenodd">
        <g id="ic/parameter_control/color">
            <rect id="矩形" x="1" y="1" width="14" height="14"></rect>
            <g id="Group" transform="translate(2.644639, 2.704825)" fill-rule="nonzero">
                <path d="M5.35536071,5.14698347 C6.77669909,5.14698347 7.92884642,3.99482408 7.92884642,2.57349776 C7.92884642,1.15217145 6.77669909,0 5.35536071,0 C3.93402234,0 2.78187501,1.15215939 2.78187501,2.57349776 C2.78187501,3.99483614 3.93402234,5.14698347 5.35536071,5.14698347 Z" id="Path" fill="#CC9191"></path>
                <path d="M2.5734857,10.0150023 C3.99482408,10.0150023 5.1469714,8.86284295 5.1469714,7.44151664 C5.1469714,6.02019033 3.99482408,4.86801888 2.5734857,4.86801888 C1.15214733,4.86801888 0,6.02017827 0,7.44151664 C0,8.86285502 1.15214733,10.0150023 2.5734857,10.0150023 Z" id="Path" fill="#91A4CC"></path>
                <path d="M8.13723573,10.0150023 C9.5585741,10.0150023 10.7107214,8.86284295 10.7107214,7.44151664 C10.7107214,6.02019033 9.5585741,4.86801888 8.13723573,4.86801888 C6.71589735,4.86801888 5.56375002,6.02017827 5.56375002,7.44151664 C5.56375002,8.86285502 6.71589735,10.0150023 8.13723573,10.0150023 Z" id="Path" fill="#91CC96"></path>
            </g>
        </g>
    </g>
</svg>