<?xml version="1.0" encoding="UTF-8"?>
<svg width="16px" height="16px" viewBox="0 0 16 16" version="1.1" xmlns="http://www.w3.org/2000/svg" xmlns:xlink="http://www.w3.org/1999/xlink">
    <title>parameter_control_floatVector3</title>
    <g id="Symbol" stroke="none" stroke-width="1" fill="none" fill-rule="evenodd">
        <g id="ic/parameter_control/float_vector3">
            <rect id="矩形" x="1" y="1" width="14" height="14"></rect>
            <rect id="矩形" fill="#57473E" x="2.35" y="3.35" width="11.3" height="9.3" rx="2"></rect>
            <g id=".3" transform="translate(5.128000, 5.364000)" fill="#CCA691" fill-rule="nonzero">
                <path d="M0.712,5.272 C0.509333333,5.272 0.34,5.20133333 0.204,5.06 C0.068,4.91866667 0,4.744 0,4.536 C0,4.32266667 0.068,4.14533333 0.204,4.004 C0.34,3.86266667 0.509333333,3.792 0.712,3.792 C0.914666667,3.792 1.084,3.86266667 1.22,4.004 C1.356,4.14533333 1.424,4.32266667 1.424,4.536 C1.424,4.744 1.356,4.91866667 1.22,5.06 C1.084,5.20133333 0.914666667,5.272 0.712,5.272 Z" id="路径"></path>
                <path d="M3.856,5.272 C3.44,5.272 3.088,5.20666667 2.8,5.076 C2.512,4.94533333 2.27466667,4.77066667 2.088,4.552 L2.632,3.808 C2.78666667,3.95733333 2.956,4.08 3.14,4.176 C3.324,4.272 3.52533333,4.32 3.744,4.32 C3.99466667,4.32 4.19466667,4.268 4.344,4.164 C4.49333333,4.06 4.568,3.912 4.568,3.72 C4.568,3.608 4.548,3.50666667 4.508,3.416 C4.468,3.32533333 4.39733333,3.24933333 4.296,3.188 C4.19466667,3.12666667 4.056,3.07866667 3.88,3.044 C3.704,3.00933333 3.47733333,2.992 3.2,2.992 L3.2,2.16 C3.42933333,2.16 3.62,2.144 3.772,2.112 C3.924,2.08 4.04666667,2.03333333 4.14,1.972 C4.23333333,1.91066667 4.3,1.83866667 4.34,1.756 C4.38,1.67333333 4.4,1.58133333 4.4,1.48 C4.4,1.304 4.34666667,1.16666667 4.24,1.068 C4.13333333,0.969333333 3.97866667,0.92 3.776,0.92 C3.59466667,0.92 3.43066667,0.96 3.284,1.04 C3.13733333,1.12 2.984,1.22933333 2.824,1.368 L2.232,0.648 C2.46666667,0.445333333 2.71333333,0.286666667 2.972,0.172 C3.23066667,0.0573333333 3.51733333,0 3.832,0 C4.09333333,0 4.332,0.0306666667 4.548,0.092 C4.764,0.153333333 4.948,0.244 5.1,0.364 C5.252,0.484 5.37066667,0.629333333 5.456,0.8 C5.54133333,0.970666667 5.584,1.168 5.584,1.392 C5.584,1.65866667 5.51066667,1.884 5.364,2.068 C5.21733333,2.252 5.008,2.40266667 4.736,2.52 L4.736,2.552 C5.02933333,2.63733333 5.27066667,2.78266667 5.46,2.988 C5.64933333,3.19333333 5.744,3.46133333 5.744,3.792 C5.744,4.02666667 5.69333333,4.236 5.592,4.42 C5.49066667,4.604 5.35466667,4.75866667 5.184,4.884 C5.01333333,5.00933333 4.81333333,5.10533333 4.584,5.172 C4.35466667,5.23866667 4.112,5.272 3.856,5.272 Z" id="路径"></path>
            </g>
        </g>
    </g>
</svg>