<?xml version="1.0" encoding="UTF-8"?>
<svg width="16px" height="16px" viewBox="0 0 16 16" version="1.1" xmlns="http://www.w3.org/2000/svg" xmlns:xlink="http://www.w3.org/1999/xlink">
    <title>parameter_control_integerVector2</title>
    <g id="Symbol" stroke="none" stroke-width="1" fill="none" fill-rule="evenodd">
        <g id="ic/parameter_control/integer_vector2">
            <rect id="矩形" x="1" y="1" width="14" height="14"></rect>
            <rect id="矩形" fill="#3E5740" x="2.35" y="3.35" width="11.3" height="9.3" rx="2"></rect>
            <g id="12" transform="translate(4.232000, 5.412000)" fill="#91CC96" fill-rule="nonzero">
                <path d="M0,5.176 L0,4.224 L1.104,4.224 L1.104,1.288 L0.152,1.288 L0.152,0.56 C0.429333333,0.506666667 0.664,0.442666667 0.856,0.368 C1.048,0.293333333 1.23466667,0.202666667 1.416,0.096 L2.28,0.096 L2.28,4.224 L3.232,4.224 L3.232,5.176 L0,5.176 Z" id="路径"></path>
                <path d="M3.96,5.176 L3.96,4.504 C4.28533333,4.2 4.58266667,3.916 4.852,3.652 C5.12133333,3.388 5.35333333,3.14 5.548,2.908 C5.74266667,2.676 5.89466667,2.46 6.004,2.26 C6.11333333,2.06 6.168,1.86933333 6.168,1.688 C6.168,1.43733333 6.104,1.24666667 5.976,1.116 C5.848,0.985333333 5.672,0.92 5.448,0.92 C5.26133333,0.92 5.096,0.972 4.952,1.076 C4.808,1.18 4.672,1.30133333 4.544,1.44 L3.904,0.808 C4.15466667,0.541333333 4.41066667,0.34 4.672,0.204 C4.93333333,0.068 5.24533333,0 5.608,0 C5.85866667,0 6.08666667,0.0386666667 6.292,0.116 C6.49733333,0.193333333 6.67466667,0.302666667 6.824,0.444 C6.97333333,0.585333333 7.088,0.754666667 7.168,0.952 C7.248,1.14933333 7.288,1.37066667 7.288,1.616 C7.288,1.82933333 7.24266667,2.04666667 7.152,2.268 C7.06133333,2.48933333 6.94,2.71066667 6.788,2.932 C6.636,3.15333333 6.46266667,3.37466667 6.268,3.596 C6.07333333,3.81733333 5.872,4.03466667 5.664,4.248 C5.792,4.232 5.93466667,4.21733333 6.092,4.204 C6.24933333,4.19066667 6.38933333,4.184 6.512,4.184 L7.536,4.184 L7.536,5.176 L3.96,5.176 Z" id="路径"></path>
            </g>
        </g>
    </g>
</svg>