<?xml version="1.0" encoding="UTF-8"?>
<svg width="16px" height="16px" viewBox="0 0 16 16" version="1.1" xmlns="http://www.w3.org/2000/svg" xmlns:xlink="http://www.w3.org/1999/xlink">
    <title>parameter_control_floatVector2</title>
    <g id="Symbol" stroke="none" stroke-width="1" fill="none" fill-rule="evenodd">
        <g id="ic/parameter_control/float_vector2">
            <rect id="矩形" x="1" y="1" width="14" height="14"></rect>
            <rect id="矩形" fill="#57473E" x="2.35" y="3.35" width="11.3" height="9.3" rx="2"></rect>
            <g id=".2" transform="translate(5.108000, 5.364000)" fill="#CCA691" fill-rule="nonzero">
                <path d="M0.712,5.272 C0.509333333,5.272 0.34,5.20133333 0.204,5.06 C0.068,4.91866667 0,4.744 0,4.536 C0,4.32266667 0.068,4.14533333 0.204,4.004 C0.34,3.86266667 0.509333333,3.792 0.712,3.792 C0.914666667,3.792 1.084,3.86266667 1.22,4.004 C1.356,4.14533333 1.424,4.32266667 1.424,4.536 C1.424,4.744 1.356,4.91866667 1.22,5.06 C1.084,5.20133333 0.914666667,5.272 0.712,5.272 Z" id="路径"></path>
                <path d="M2.208,5.176 L2.208,4.504 C2.53333333,4.2 2.83066667,3.916 3.1,3.652 C3.36933333,3.388 3.60133333,3.14 3.796,2.908 C3.99066667,2.676 4.14266667,2.46 4.252,2.26 C4.36133333,2.06 4.416,1.86933333 4.416,1.688 C4.416,1.43733333 4.352,1.24666667 4.224,1.116 C4.096,0.985333333 3.92,0.92 3.696,0.92 C3.50933333,0.92 3.344,0.972 3.2,1.076 C3.056,1.18 2.92,1.30133333 2.792,1.44 L2.152,0.808 C2.40266667,0.541333333 2.65866667,0.34 2.92,0.204 C3.18133333,0.068 3.49333333,0 3.856,0 C4.10666667,0 4.33466667,0.0386666667 4.54,0.116 C4.74533333,0.193333333 4.92266667,0.302666667 5.072,0.444 C5.22133333,0.585333333 5.336,0.754666667 5.416,0.952 C5.496,1.14933333 5.536,1.37066667 5.536,1.616 C5.536,1.82933333 5.49066667,2.04666667 5.4,2.268 C5.30933333,2.48933333 5.188,2.71066667 5.036,2.932 C4.884,3.15333333 4.71066667,3.37466667 4.516,3.596 C4.32133333,3.81733333 4.12,4.03466667 3.912,4.248 C4.04,4.232 4.18266667,4.21733333 4.34,4.204 C4.49733333,4.19066667 4.63733333,4.184 4.76,4.184 L5.784,4.184 L5.784,5.176 L2.208,5.176 Z" id="路径"></path>
            </g>
        </g>
    </g>
</svg>