<?xml version="1.0" encoding="UTF-8"?>
<svg width="16px" height="16px" viewBox="0 0 16 16" version="1.1" xmlns="http://www.w3.org/2000/svg" xmlns:xlink="http://www.w3.org/1999/xlink">
    <title>parameter_control_integer</title>
    <g id="Symbol" stroke="none" stroke-width="1" fill="none" fill-rule="evenodd">
        <g id="ic/parameter_control/integer">
            <rect id="矩形" x="1" y="1" width="14" height="14"></rect>
            <rect id="矩形" fill="#3E5740" x="2.35" y="3.35" width="11.3" height="9.3" rx="2"></rect>
            <g id="10" transform="translate(4.204000, 5.364000)" fill="#91CC96" fill-rule="nonzero">
                <path d="M0,5.176 L0,4.224 L1.104,4.224 L1.104,1.288 L0.152,1.288 L0.152,0.56 C0.429333333,0.506666667 0.664,0.442666667 0.856,0.368 C1.048,0.293333333 1.23466667,0.202666667 1.416,0.096 L2.28,0.096 L2.28,4.224 L3.232,4.224 L3.232,5.176 L0,5.176 Z M5.776,5.272 C5.504,5.272 5.256,5.21466667 5.032,5.1 C4.808,4.98533333 4.61733333,4.816 4.46,4.592 C4.30266667,4.368 4.18,4.09066667 4.092,3.76 C4.004,3.42933333 3.96,3.048 3.96,2.616 C3.96,2.184 4.004,1.80533333 4.092,1.48 C4.18,1.15466667 4.30266667,0.881333333 4.46,0.66 C4.61733333,0.438666667 4.808,0.273333333 5.032,0.164 C5.256,0.0546666667 5.504,0 5.776,0 C6.048,0 6.296,0.0546666667 6.52,0.164 C6.744,0.273333333 6.93466667,0.438666667 7.092,0.66 C7.24933333,0.881333333 7.372,1.15466667 7.46,1.48 C7.548,1.80533333 7.592,2.184 7.592,2.616 C7.592,3.048 7.548,3.42933333 7.46,3.76 C7.372,4.09066667 7.24933333,4.368 7.092,4.592 C6.93466667,4.816 6.744,4.98533333 6.52,5.1 C6.296,5.21466667 6.048,5.272 5.776,5.272 Z M5.776,4.36 C5.87733333,4.36 5.97066667,4.33466667 6.056,4.284 C6.14133333,4.23333333 6.216,4.14133333 6.28,4.008 C6.344,3.87466667 6.39333333,3.696 6.428,3.472 C6.46266667,3.248 6.48,2.96266667 6.48,2.616 C6.48,2.26933333 6.46266667,1.98533333 6.428,1.764 C6.39333333,1.54266667 6.344,1.36933333 6.28,1.244 C6.216,1.11866667 6.14133333,1.032 6.056,0.984 C5.97066667,0.936 5.87733333,0.912 5.776,0.912 C5.68,0.912 5.58933333,0.936 5.504,0.984 C5.41866667,1.032 5.344,1.11866667 5.28,1.244 C5.216,1.36933333 5.16533333,1.54266667 5.128,1.764 C5.09066667,1.98533333 5.072,2.26933333 5.072,2.616 C5.072,2.96266667 5.09066667,3.248 5.128,3.472 C5.16533333,3.696 5.216,3.87466667 5.28,4.008 C5.344,4.14133333 5.41866667,4.23333333 5.504,4.284 C5.58933333,4.33466667 5.68,4.36 5.776,4.36 Z" id="形状结合"></path>
            </g>
        </g>
    </g>
</svg>