<svg id="图层_1" data-name="图层 1" xmlns="http://www.w3.org/2000/svg" viewBox="0 0 64 64"><defs><style>.cls-1{fill:#fff;}.cls-2{fill:#636362;}</style></defs><title>playforward_lastframe_hover</title><polygon class="cls-1" points="28.1 13.85 47.12 32.59 28.13 51.33 28.1 13.85"/><path class="cls-2" d="M29.6,17.44,45,32.59,29.63,47.75l0-30.31m-3-7.18,0,44.66L49.25,32.59,26.6,10.26Z"/><polygon class="cls-1" points="6.56 13.85 25.58 32.59 6.59 51.33 6.56 13.85"/><path class="cls-2" d="M8.06,17.44,23.44,32.59,8.09,47.75l0-30.31m-3-7.18,0,44.66L27.71,32.59,5.06,10.26Z"/><rect class="cls-1" x="49.18" y="10.5" width="8.26" height="43"/><path class="cls-2" d="M55.94,12V52H50.68V12h5.26m3-3H47.68V55H58.94V9Z"/></svg>