<svg id="图层_1" data-name="图层 1" xmlns="http://www.w3.org/2000/svg" viewBox="0 0 64 64"><defs><style>.cls-1{fill:#fff;}.cls-2{fill:#636362;}</style></defs><title>playforward_firstframe_hover</title><polygon class="cls-1" points="16.89 32.59 35.9 13.85 35.87 51.33 16.89 32.59"/><path class="cls-2" d="M34.4,17.44l0,30.31L19,32.59,34.4,17.44m3-7.18L14.75,32.59,37.36,54.92l0-44.66Z"/><polygon class="cls-1" points="38.42 32.59 57.44 13.85 57.41 51.33 38.42 32.59"/><path class="cls-2" d="M55.94,17.44l0,30.31L40.56,32.59,55.94,17.44m3-7.18L36.29,32.59,58.9,54.92l0-44.66Z"/><rect class="cls-1" x="6.56" y="10.5" width="8.26" height="43"/><path class="cls-2" d="M13.32,12V52H8.06V12h5.26m3-3H5.06V55H16.32V9Z"/></svg>