<svg width="30" height="30" viewBox="0 0 30 30" fill="none" xmlns="http://www.w3.org/2000/svg">
<rect x="5" y="5" width="20" height="20" fill="#E67B19"/>
<path d="M12.4961 10.1317C12.344 10.0448 12.1718 9.99941 11.9967 10C11.8216 10.0006 11.6497 10.0472 11.4982 10.1351C11.3467 10.2229 11.221 10.3491 11.1335 10.5008C11.0461 10.6526 11.0001 10.8246 11 10.9997V19.0003C11.0001 19.1754 11.0461 19.3474 11.1335 19.4992C11.221 19.6509 11.3467 19.7771 11.4982 19.8649C11.6497 19.9528 11.8216 19.9994 11.9967 20C12.1718 20.0006 12.344 19.9552 12.4961 19.8683L19.4965 15.8681C19.6495 15.7806 19.7766 15.6542 19.865 15.5017C19.9535 15.3493 20 15.1762 20 15C20 14.8238 19.9535 14.6507 19.865 14.4983C19.7766 14.3458 19.6495 14.2194 19.4965 14.1319L12.4961 10.1317Z" fill="#F8F8F8"/>
</svg>
