<?xml version="1.0" encoding="UTF-8"?>
<svg width="20px" height="20px" viewBox="0 0 20 20" version="1.1" xmlns="http://www.w3.org/2000/svg" xmlns:xlink="http://www.w3.org/1999/xlink">
    <title>ic/subnet/main</title>
    <g id="Symbol" stroke="none" stroke-width="1" fill="none" fill-rule="evenodd">
        <g id="ic/subnet/main" fill="#CBCDCF" fill-rule="nonzero">
            <path d="M9.62473361,4.32279938 C9.8201961,4.1795923 10.0771452,4.16169141 10.2876093,4.26882657 L10.3746474,4.32239612 L15.5961127,8.12057133 C16.0674018,8.46418053 15.8654519,9.18860399 15.3220031,9.26803496 L15.2226229,9.27514798 L14.574,9.27508359 L14.574,13.9880836 L15.3593417,13.9884292 C15.4812083,13.9884292 15.5868241,14.0592261 15.6372277,14.1618582 L15.6605328,14.2269461 L15.6687167,14.2978042 L15.6687167,15.0087417 C15.6687167,15.1549816 15.5667692,15.2778205 15.4301998,15.3099328 L15.3593417,15.3181167 L4.64059168,15.3181167 C4.49435179,15.3181167 4.37151294,15.2161693 4.33940061,15.0795999 L4.33121668,15.0087417 L4.33121668,14.2978042 C4.33121668,14.1515643 4.43316412,14.0287255 4.56973351,13.9966132 L4.64059168,13.9884292 L5.424,13.9880836 L5.424,9.27508359 L4.77867762,9.27514798 C4.22961153,9.27514798 3.9656975,8.64914563 4.26486979,8.25549432 L4.32763112,8.18461712 L4.40399692,8.120443 L9.62473361,4.32279938 Z M8.008,9.27508359 L6.809,9.27508359 L6.809,13.9880836 L8.008,13.9880836 L8.008,9.27508359 Z M10.592,9.27508359 L9.393,9.27508359 L9.393,13.9880836 L10.592,13.9880836 L10.592,9.27508359 Z M13.19,9.27508359 L11.977,9.27508359 L11.977,13.9880836 L13.19,13.9880836 L13.19,9.27508359 Z M10,5.69408359 L6.907,7.94408359 L13.092,7.94408359 L10,5.69408359 Z" id="形状"></path>
        </g>
    </g>
</svg>