<?xml version="1.0" encoding="UTF-8"?>
<svg width="14px" height="14px" viewBox="0 0 14 14" version="1.1" xmlns="http://www.w3.org/2000/svg" xmlns:xlink="http://www.w3.org/1999/xlink">
    <title>timeline_kill_clean</title>
    <g id="Symbol" stroke="none" stroke-width="1" fill="none" fill-rule="evenodd">
        <g id="ic/timeline/kill_clean" fill-rule="nonzero">
            <rect id="Rectangle" fill="#000000" opacity="0" x="0" y="0" width="14" height="14"></rect>
            <path d="M12.0353516,8.00488281 C11.9546875,6.39023438 10.9005859,4.96699219 9.3625,4.28613281 L9.3625,2.79179687 C9.3625,1.73632812 8.47382813,0.879101562 7.38144531,0.879101562 C6.29179687,0.879101562 5.40449219,1.73769531 5.40449219,2.79179687 L5.40449219,4.24648438 C3.7515625,4.93417969 2.64003906,6.46132813 2.64003906,8.203125 C2.64003906,8.28105469 2.646875,8.35761719 2.66054687,8.43417969 C2.82460937,9.37617188 2.34746094,10.3509766 1.91269531,11.0947266 C1.66933594,11.5117188 1.66796875,12.0257813 1.90722656,12.4441406 C2.14785156,12.8625 2.59355469,13.1208984 3.07617187,13.1208984 L9.29414062,13.1208984 C9.56894531,13.1208984 9.83554687,13.0375 10.0611328,12.8802734 C11.7085937,11.7373047 12.4865234,9.8 12.0353516,8.00488281 Z M6.75117187,5.25820313 L6.75117187,2.79179687 C6.75117187,2.48144531 7.0328125,2.22578125 7.38007812,2.22578125 C7.72734375,2.22578125 8.01445312,2.48144531 8.01445312,2.79179687 L8.01445312,5.27050781 C9.27636719,5.50429688 10.2757812,6.36289063 10.5888672,7.46894531 L4.09199219,7.46894531 C4.41191406,6.33964844 5.45097656,5.46601562 6.75117187,5.25820312 L6.75117187,5.25820313 Z M9.29277344,11.7728516 L3.07617187,11.7728516 C3.43984375,11.1507812 4.03730469,10.0474609 4.0359375,8.815625 L5.03808594,8.815625 L5.03808594,10.2826172 C5.03808594,10.6544922 5.34023437,10.9566406 5.71210937,10.9566406 C6.08398437,10.9566406 6.38613281,10.6544922 6.38613281,10.2826172 L6.38613281,8.815625 L7.80117187,8.815625 L7.80117187,9.76035156 C7.80117187,10.1322266 8.10332031,10.434375 8.47519531,10.434375 C8.84707031,10.434375 9.14921875,10.1322266 9.14921875,9.76035156 L9.14921875,8.815625 L10.8035156,8.815625 C10.8923828,9.98183594 10.2675781,11.0974609 9.29277344,11.7728516 L9.29277344,11.7728516 Z" id="Shape" fill="#FFFFFF"></path>
        </g>
    </g>
</svg>