<?xml version="1.0" encoding="UTF-8"?>
<svg width="24px" height="20px" viewBox="0 0 24 20" version="1.1" xmlns="http://www.w3.org/2000/svg" xmlns:xlink="http://www.w3.org/1999/xlink">
    <title>ic/timeLine/setting/idle</title>
    <g id="Symbol" stroke="none" stroke-width="1" fill="none" fill-rule="evenodd">
        <g id="ic/timeLine/setting/idle">
            <rect id="bg" x="0" y="0" width="24" height="20"></rect>
            <path d="M13.0917241,3.5 C13.3278436,3.5 13.5317781,3.66517932 13.5808203,3.89614962 L13.9024942,5.41109597 C14.3042751,5.57785397 14.6794288,5.79584132 15.0198054,6.05690801 L16.4957959,5.57859455 C16.7202752,5.50575162 16.9651219,5.59978931 17.0831286,5.8041701 L18.1751468,7.69548283 C18.2932018,7.89994743 18.2521449,8.1591265 18.0766765,8.31709363 L16.9248456,9.35486712 C16.9522375,9.56603637 16.966365,9.78136836 16.966365,10 C16.966365,10.2186316 16.9522375,10.4339636 16.9248456,10.6451329 L18.0766654,11.6827526 C18.25214,11.8407146 18.293205,12.099894 18.1751549,12.3043629 L17.0832687,14.1955653 C16.9652422,14.3999932 16.7203233,14.4940282 16.4958133,14.4211149 L15.0198054,13.943092 C14.6794288,14.2041587 14.3042751,14.422146 13.9024942,14.588904 L13.5809672,16.103787 C13.5319499,16.3347874 13.3280014,16.5 13.0918576,16.5 L10.9081895,16.5 C10.6721327,16.5 10.4682344,16.3349064 10.419128,16.1040137 L10.0958923,14.5882125 C9.69445022,14.4214231 9.3196114,14.2034833 8.97950975,13.9425268 L7.50437231,14.4211834 C7.27984725,14.4941486 7.03488097,14.4001258 6.91683368,14.1956747 L5.82484676,12.3044161 C5.70681812,12.0999973 5.74782769,11.8408808 5.92321228,11.6828996 L7.07520624,10.6451329 C7.04781432,10.4339636 7.03368681,10.2186316 7.03368681,10 C7.03368681,9.78136836 7.04781432,9.56603637 7.07520624,9.35486712 L5.92323221,8.31725381 C5.74783688,8.15927845 5.70681663,7.90015825 5.82484178,7.6957327 L6.91682038,5.80437027 C7.03483005,5.59997152 7.27969925,5.50593032 7.50419019,5.57879284 L8.98050655,6.05670856 C9.32034376,5.79609099 9.69484237,5.57841395 10.0958923,5.41178752 L10.4189395,3.89598416 C10.4680466,3.66509254 10.6719445,3.5 10.9080006,3.5 L13.0917241,3.5 Z M12.0000259,7.66516146 C10.7105302,7.66516146 9.66518738,8.71050428 9.66518738,10 C9.66518738,11.2894957 10.7105302,12.3348385 12.0000259,12.3348385 C13.2895216,12.3348385 14.3348645,11.2894957 14.3348645,10 C14.3348645,8.71050428 13.2895216,7.66516146 12.0000259,7.66516146 Z" id="形状结合" fill="#A3B1C0"></path>
        </g>
    </g>
</svg>