<?xml version="1.0" encoding="UTF-8"?>
<svg width="24px" height="20px" viewBox="0 0 24 20" version="1.1" xmlns="http://www.w3.org/2000/svg" xmlns:xlink="http://www.w3.org/1999/xlink">
    <title>ic/timeLine/sound/on</title>
    <g id="Symbol" stroke="none" stroke-width="1" fill="none" fill-rule="evenodd">
        <g id="ic/timeLine/sound/on">
            <rect id="bg" x="0" y="0" width="24" height="20"></rect>
            <polygon id="矩形" fill="#A3B1C0" points="5.97293299 7.76838737 8.61164389 7.76838737 12.1541342 5.03406226 12.1541342 14.9659377 8.61164389 12.2361147 5.97293299 12.2361147"></polygon>
            <path d="M14.3752668,7.27210472 C15.741805,9.022685 15.7964665,10.9198091 14.521087,12.5433711 L14.354736,12.7448612 L13.3989839,11.9168115 C14.386128,10.7774292 14.4354853,9.53836262 13.5294529,8.25348573 L13.378453,8.05023759 L14.3752668,7.27210472 Z" id="路径-9" fill="#A3B1C0" fill-rule="nonzero"></path>
            <path d="M16.1602502,5.03406226 C18.5772428,7.88925535 18.6483308,11.8715664 16.3672226,14.7110174 L16.1533691,14.9659377 L15.2019552,14.132907 C17.2166707,11.8318778 17.2816615,8.53916841 15.3906913,6.09285041 L15.1950741,5.85110799 L16.1602502,5.03406226 Z" id="路径-9" fill="#A3B1C0" fill-rule="nonzero"></path>
        </g>
    </g>
</svg>