<?xml version="1.0" encoding="UTF-8"?>
<svg width="20px" height="20px" viewBox="0 0 20 20" version="1.1" xmlns="http://www.w3.org/2000/svg" xmlns:xlink="http://www.w3.org/1999/xlink">
    <title>viewToolbar_rotate_idle</title>
    <g id="Symbol" stroke="none" stroke-width="1" fill="none" fill-rule="evenodd">
        <g id="ic/viewToolbar/rotate/idle">
            <circle id="Oval" fill="#69727B" cx="10" cy="10" r="1.5"></circle>
            <g id="arrow-rotate-right" transform="translate(3.000000, 3.000000)" fill-rule="nonzero">
                <rect id="Rectangle" fill="#000000" opacity="0" x="0" y="0" width="14" height="14"></rect>
                <path d="M12.8625,1.77871094 L12.8625,5.22128906 C12.8625,5.36347656 12.7476562,5.47695313 12.6068359,5.47695313 L9.165625,5.47695313 C8.93867187,5.47695313 8.82382812,5.20214844 8.98515625,5.04082031 L10.0734375,3.95253906 C9.29960937,3.17050781 8.23046875,2.68105469 7.04648437,2.66601563 C4.63613281,2.6359375 2.67285156,4.55546875 2.65234375,6.96445313 C2.63183594,9.37753906 4.5828125,11.3394531 6.99042969,11.3394531 C8.27011719,11.3394531 9.42128906,10.784375 10.215625,9.90253906 C10.3837891,9.71523438 10.6257812,9.60996094 10.8787109,9.61269531 C11.6402344,9.61953125 12.0408203,10.521875 11.5322266,11.0878906 C10.4138672,12.3306641 8.79375,13.1113281 6.99042969,13.1113281 C3.61347656,13.1113281 0.876367188,10.3701172 0.881827757,6.99179688 C0.887304688,3.62578125 3.63671875,0.888671875 7.00273437,0.895495036 C8.69257812,0.898242188 10.2210937,1.58867188 11.3244141,2.70019531 L12.4263672,1.59824219 C12.5876953,1.43691406 12.8625,1.55175781 12.8625,1.77871094 Z" id="Path" fill="#69727B"></path>
            </g>
        </g>
    </g>
</svg>