<?xml version="1.0" encoding="UTF-8"?>
<svg width="20px" height="20px" viewBox="0 0 20 20" version="1.1" xmlns="http://www.w3.org/2000/svg" xmlns:xlink="http://www.w3.org/1999/xlink">
    <title>viewToolbar_move_light</title>
    <g id="Symbol" stroke="none" stroke-width="1" fill="none" fill-rule="evenodd">
        <g id="ic/viewToolbar/move/light" fill="#DFE2E5" fill-rule="nonzero">
            <path d="M10.1251414,2.28811799 L12.4658323,5.29273449 C12.5477635,5.39726746 12.4728953,5.54841648 12.3415228,5.54982909 L10.79613,5.54982909 L10.7956696,7.79866955 L12.2010155,7.7989845 L12.2006696,9.20266955 L14.4515835,9.20412116 L14.4515835,7.65872838 C14.4515835,7.52594326 14.6041452,7.45248766 14.7086781,7.5344189 L17.711882,9.8736972 C17.7938133,9.93867715 17.7938133,10.0601614 17.711882,10.1251414 L14.7072655,12.4658323 C14.6027325,12.5477635 14.4515835,12.4728953 14.4501709,12.3415228 L14.4501709,10.79613 L12.2006696,10.7956696 L12.2010155,12.2010155 L10.7966696,12.2006696 L10.7958788,14.4515835 L12.3412716,14.4515835 C12.4740567,14.4515835 12.5475123,14.6041452 12.4655811,14.7086781 L10.1263028,17.711882 C10.0613229,17.7938133 9.93983859,17.7938133 9.87485864,17.711882 L7.53416774,14.7072655 C7.45223649,14.6027325 7.5271047,14.4515835 7.65847721,14.4501709 L9.20387,14.4501709 L9.20366955,12.2006696 L7.7989845,12.2010155 L7.79866955,10.7966696 L5.54841648,10.7958788 L5.54841648,12.3412716 C5.54841648,12.4740567 5.39585485,12.5475123 5.29132188,12.4655811 L2.28811799,10.1263028 C2.20618674,10.0613229 2.20618674,9.93983859 2.28811799,9.87485864 L5.29273449,7.53416774 C5.39726746,7.45223649 5.54841648,7.5271047 5.54982909,7.65847721 L5.54982909,9.20387 L7.79866955,9.20366955 L7.7989845,7.7989845 L9.20266955,7.79866955 L9.20412116,5.54841648 L7.65872838,5.54841648 C7.52594326,5.54841648 7.45248766,5.39585485 7.5344189,5.29132188 L9.8736972,2.28811799 C9.93867715,2.20618674 10.0601614,2.20618674 10.1251414,2.28811799 Z M10.9009845,9.0989845 L9.0989845,9.0989845 L9.0989845,10.9009845 L10.9009845,10.9009845 L10.9009845,9.0989845 Z" id="Combined-Shape"></path>
        </g>
    </g>
</svg>