<?xml version="1.0" encoding="UTF-8"?>
<svg width="20px" height="20px" viewBox="0 0 20 20" version="1.1" xmlns="http://www.w3.org/2000/svg" xmlns:xlink="http://www.w3.org/1999/xlink">
    <title>viewToolbar_grid_idle</title>
    <g id="Symbol" stroke="none" stroke-width="1" fill="none" fill-rule="evenodd">
        <g id="ic/viewToolbar/grid/idle" fill="#69727B" fill-rule="nonzero">
            <path d="M4.52833807,5.66445185 L7.21433807,8.37045185 L5.53733807,8.37045185 L5.23233807,9.96845185 L7.37733807,9.96845185 L7.51033807,8.66945185 L10.2883381,11.4684519 L8.73233807,11.4684519 L8.44333807,14.2864519 L11.5263381,14.2864519 L11.3473381,12.5354519 L13.0283381,14.2294519 L13.0343381,14.2864519 L13.0853381,14.2864519 L14.5743381,15.7864519 L3.50057391,15.7865481 C3.0298865,15.7865481 2.67553075,15.3580297 2.76391521,14.8957151 L4.52833807,5.66445185 Z M14.5736702,4.21345185 C14.9335785,4.21345185 15.2427463,4.46911271 15.3103289,4.82261881 L15.7013381,6.87045185 L15.75,6.87111255 L15.7493381,7.12345185 L17.2360848,14.8957151 C17.3060208,15.2615307 17.0987535,15.6061863 16.7759926,15.7341283 L15.3393381,14.2864519 L15.5925739,14.2864519 L15.0533381,11.4684519 L12.7463381,11.4684519 L12.7693381,11.6974519 L11.0533381,9.96845185 L11.0843381,9.96845185 L10.9203381,8.37045185 L9.46733807,8.37045185 L7.72133807,6.61145185 L7.81333807,5.71345185 L6.83033807,5.71345185 L5.34678424,4.2176467 C5.37296492,4.21487191 5.39950644,4.21345185 5.42632979,4.21345185 L14.5736702,4.21345185 Z M7.22333807,11.4684519 L4.94533807,11.4684519 L4.40657391,14.2864519 L6.93533807,14.2864519 L7.22333807,11.4684519 Z M14.4613381,8.37045185 L12.4293381,8.37045185 L12.5923381,9.96845185 L14.7663381,9.96845185 L14.4613381,8.37045185 Z M10.6483381,5.71345185 L9.32033807,5.71345185 L9.20233807,6.87045185 L10.7673381,6.87045185 L10.6483381,5.71345185 Z M13.9535739,5.71345185 L12.1573381,5.71345185 L12.2753381,6.87045185 L14.1743381,6.87045185 L13.9535739,5.71345185 Z" id="Combined-Shape"></path>
            <polygon id="Path" points="2.86863725 4.99571801 4.00428199 3.86863725 16.3327982 16.2908301 15.1971535 17.4179109"></polygon>
        </g>
    </g>
</svg>