<?xml version="1.0" encoding="UTF-8"?>
<svg width="20px" height="20px" viewBox="0 0 20 20" version="1.1" xmlns="http://www.w3.org/2000/svg" xmlns:xlink="http://www.w3.org/1999/xlink">
    <title>viewToolbar_normalcheck_light</title>
    <g id="Symbol" stroke="none" stroke-width="1" fill="none" fill-rule="evenodd">
        <g id="Group" fill="#DFE2E5" transform="translate(10.337558, 9.662442) rotate(45.000000) translate(-10.337558, -9.662442) translate(3.761661, 1.545669)">
            <path d="M10.4758017,5.75886801 L2.67599172,5.74563412 C2.31608344,5.74563412 2.00691565,6.00129498 1.93933302,6.35480108 L0.013577138,12.4278974 C-0.0748073195,12.890212 0.279548428,13.3187304 0.750235847,13.3187304 L12.4015576,13.3319643 C12.872245,13.3319643 13.2266007,12.9034459 13.1382163,12.4411313 L11.2124604,6.36803497 C11.1448778,6.01452887 10.83571,5.75886801 10.4758017,5.75886801 Z M9.87744324,7.31144408 L11.2434975,11.8844441 L1.80310396,11.8712102 L3.31697368,7.29821019 L9.87744324,7.31144408 Z" id="Shape" fill-rule="nonzero"></path>
            <path d="M6.57623453,2.67707923e-14 L9.38989671,3.464 L7.57489671,3.464 L7.57589671,9.67656804 L5.57589671,9.67656804 L5.57489671,3.464 L3.76189671,3.464 L6.57623453,2.67707923e-14 Z" id="形状结合"></path>
            <rect id="矩形" x="5.57589671" y="14.4591891" width="2" height="1.77435795"></rect>
        </g>
    </g>
</svg>