<?xml version="1.0" encoding="UTF-8"?>
<svg width="20px" height="20px" viewBox="0 0 20 20" version="1.1" xmlns="http://www.w3.org/2000/svg" xmlns:xlink="http://www.w3.org/1999/xlink">
    <title>viewToolbar_screenshot_idle</title>
    <g id="Symbol" stroke="none" stroke-width="1" fill="none" fill-rule="evenodd">
        <g id="ic/viewToolbar/screenshot/idle" fill="#69727B" fill-rule="nonzero">
            <path d="M13.6278235,8.03878487 C13.8496053,8.03878487 14.0567365,8.14953826 14.1798245,8.33402825 L14.8671552,9.36569291 L16.636594,9.36569291 C17.0030138,9.36569291 17.3000558,9.66273487 17.3000558,10.0291547 L17.3000558,15.3368024 C17.3000558,15.5127634 17.2301555,15.6815175 17.1057323,15.8059407 C16.9813091,15.930364 16.812555,16.0002642 16.636594,16.0002642 L8.6834734,16.0002642 C8.31705964,16.0002642 8.02002715,15.7032162 8.02002715,15.3368024 L8.02002715,10.0291547 C8.02002715,9.66274095 8.31705964,9.3657015 8.6834734,9.36569291 L10.4529122,9.36569291 L11.1402584,8.33402825 C11.2633464,8.14953826 11.4704776,8.03878487 11.6922595,8.03878487 L13.6278235,8.03878487 Z M4.20069707,14.4788542 L4.20069707,15.979607 L2.69994422,15.979607 L2.69994422,14.4788542 L4.20069707,14.4788542 Z M6.81727345,14.4788542 L6.81727345,15.979607 L5.31652059,15.979607 L5.31652059,14.4788542 L6.81727345,14.4788542 Z M12.0753319,9.5455112 L11.2533249,10.7788542 L9.43384983,10.7788542 L9.43384983,14.4788542 L15.8032762,14.486196 L15.8032762,10.786196 L14.0137293,10.786196 L13.1917078,9.55285305 L12.0753319,9.5455112 Z M12.6638436,11.2934923 C13.3449961,11.2934923 13.8971793,11.8456756 13.8971793,12.5268281 C13.8971793,13.2079806 13.3449961,13.7601638 12.6638436,13.7601638 C12.2232151,13.7601638 11.8160577,13.5250914 11.5957435,13.143496 C11.3754292,12.7619005 11.3754292,12.2917556 11.5957435,11.9101602 C11.8160577,11.5285648 12.2232151,11.2934923 12.6638436,11.2934923 Z M4.20069707,11.8590746 L4.20069707,13.3598274 L2.69994422,13.3598274 L2.69994422,11.8590746 L4.20069707,11.8590746 Z M4.20069707,9.23929499 L4.20069707,10.7400478 L2.69994422,10.7400478 L2.69994422,9.23929499 L4.20069707,9.23929499 Z M17.3000558,6.6195154 L17.3000558,8.12026826 L15.7993029,8.12026826 L15.7993029,6.6195154 L17.3000558,6.6195154 Z M4.20069707,6.6195154 L4.20069707,8.12026826 L2.69994422,8.12026826 L2.69994422,6.6195154 L4.20069707,6.6195154 Z M17.3000558,3.99973581 L17.3000558,5.50048867 L15.7993029,5.50048867 L15.7993029,3.99973581 L17.3000558,3.99973581 Z M4.20069707,3.99973581 L4.20069707,5.50048867 L2.69994422,5.50048867 L2.69994422,3.99973581 L4.20069707,3.99973581 Z M6.81727345,3.99973581 L6.81727345,5.50048867 L5.31652059,5.50048867 L5.31652059,3.99973581 L6.81727345,3.99973581 Z M9.43384983,3.99973581 L9.43384983,5.50048867 L7.93309697,5.50048867 L7.93309697,3.99973581 L9.43384983,3.99973581 Z M12.0504262,3.99973581 L12.0504262,5.50048867 L10.5496733,5.50048867 L10.5496733,3.99973581 L12.0504262,3.99973581 Z M14.6670026,3.99973581 L14.6670026,5.50048867 L13.1662497,5.50048867 L13.1662497,3.99973581 L14.6670026,3.99973581 Z" id="Combined-Shape"></path>
        </g>
    </g>
</svg>