<?xml version="1.0" encoding="UTF-8"?>
<svg width="26px" height="24px" viewBox="0 0 26 24" version="1.1" xmlns="http://www.w3.org/2000/svg" xmlns:xlink="http://www.w3.org/1999/xlink">
    <title>welcome_Zeno_logo</title>
    <g id="Symbol" stroke="none" stroke-width="1" fill="none" fill-rule="evenodd">
        <g id="ic/welcome/logo" fill="#A3B1C0">
            <path d="M5.10148581,16.393624 C3.69872174,16.393624 2.01530354,16.393624 1.44908102,16.393624 C0.828306273,16.393624 0.497372514,15.8666669 0.887832082,14.9322565 C1.27829165,13.9978461 3.76513538,11.0057833 5.31941882,11.0057833 C6.87370226,11.0057833 6.87370226,12.3519758 7.51550247,12.7722735 C8.15730268,13.1925712 8.94793362,12.4590607 8.42027328,11.6892536 C7.02572341,9.65473566 5.67836082,9.01029108 3.57706957,7.38363386 C1.47577832,5.75697664 7.50543169,3.70544404 9.49159054,4.71926537 C11.4777494,5.73308669 10.8775383,8.98530433 11.1967432,10.1267805 C11.515948,11.2682567 12.4986271,10.9544968 12.7037778,9.18767238 C12.9089285,7.4208479 12.2903496,4.2634024 12.4284087,2.59500924 C12.5664678,0.926616079 16.5415095,3.02758217 18.2155361,5.6713396 C19.8895628,8.31509703 14.7779244,10.9856269 14.7779244,12.2510221 C14.7779244,13.5164174 16.4825055,12.9242465 17.6957015,11.0057833 C18.9088975,9.0873201 20.11863,6.44163749 21.3193305,5.6713396 C22.5200309,4.90104171 25.1619184,11.7561745 22.9049276,13.2847749 C20.6479367,14.8133753 17.4252312,15.056198 16.8948432,15.2739204 C16.3644552,15.4916428 16.3236767,16.2224981 17.3192298,16.393624 C18.314783,16.5647499 21.7954427,16.0166537 23.1041348,15.5219718 C24.412827,15.0272899 25.4100663,15.1330049 25.2667546,16.2410429 C25.123443,17.349081 22.6564573,21.1028034 20.3886001,21.8432943 C18.120743,22.5837853 15.6610675,20.6090781 15.1095233,17.8346805 C14.5579791,15.060283 12.7690966,14.1501551 11.3909595,14.45711 C10.0128224,14.764065 8.76436635,16.5559173 9.93088652,18.043023 C11.0974067,19.5301288 11.8983375,18.1718665 11.1967432,17.4147211 C10.4951488,16.6575757 11.0131585,15.8458731 11.8584682,15.9010939 C12.7037778,15.9563147 13.9073612,16.8150485 13.9073612,18.3629998 C13.9073612,19.9109511 12.6151193,21.4942808 10.1743317,21.0925498 C8.08454506,20.7485904 6.7210401,19.348718 6.26334901,17.4122972 C6.08736794,16.6677483 5.98744449,16.393624 5.10148581,16.393624 Z" id="路径"></path>
        </g>
    </g>
</svg>