<?xml version="1.0" encoding="UTF-8"?>
<svg width="24px" height="24px" viewBox="0 0 24 24" version="1.1" xmlns="http://www.w3.org/2000/svg" xmlns:xlink="http://www.w3.org/1999/xlink">
    <title>welcome_forum</title>
    <g id="Symbol" stroke="none" stroke-width="1" fill="none" fill-rule="evenodd">
        <g id="ic/welcome/forum" fill-rule="nonzero">
            <g id="36合作、关系" transform="translate(3.000000, 3.000000)">
                <rect id="Rectangle" fill="#000000" opacity="0" x="0" y="0" width="18" height="18"></rect>
                <path d="M2.2359375,4.5 C2.2359375,3.2625 3.2484375,2.25 4.4859375,2.25 C5.7234375,2.25 6.7359375,3.2625 6.7359375,4.5 C6.7359375,5.7375 5.7234375,6.75 4.4859375,6.75 C3.2484375,6.75 2.2359375,5.7375 2.2359375,4.5 L2.2359375,4.5 Z M13.5140625,6.75 C14.7515625,6.75 15.7640625,5.7375 15.7640625,4.5 C15.7640625,3.2625 14.7515625,2.25 13.5140625,2.25 C12.2765625,2.25 11.2640625,3.2625 11.2640625,4.5 C11.2640625,5.7375 12.2625,6.75 13.5140625,6.75 Z M13.5140625,7.875 C12.2765625,7.875 11.2640625,8.8875 11.2640625,10.125 L11.2640625,11.025 L9,12.3328125 L6.75,11.025 L6.75,10.125 C6.75,8.8875 5.7375,7.875 4.5,7.875 C3.2625,7.875 2.25,8.8875 2.25,10.125 L2.25,15.1875 C2.25,15.496875 2.503125,15.75 2.8125,15.75 L6.1875,15.75 C6.496875,15.75 6.75,15.496875 6.75,15.1875 L6.75,12.3328125 L8.690625,13.4578125 C8.7046875,13.4578125 8.7046875,13.471875 8.71875,13.471875 C8.8875,13.5703125 9.0984375,13.584375 9.28125,13.471875 L11.2640625,12.31875 L11.2640625,15.1875 C11.2640625,15.496875 11.5171875,15.75 11.8265625,15.75 L15.2015625,15.75 C15.5109375,15.75 15.7640625,15.496875 15.7640625,15.1875 L15.7640625,10.125 C15.7640625,8.8875 14.7515625,7.875 13.5140625,7.875 L13.5140625,7.875 Z" id="Shape" fill="#737B85"></path>
            </g>
        </g>
    </g>
</svg>