<?xml version="1.0" encoding="UTF-8"?>
<svg width="24px" height="24px" viewBox="0 0 24 24" version="1.1" xmlns="http://www.w3.org/2000/svg" xmlns:xlink="http://www.w3.org/1999/xlink">
    <title>welcome_website</title>
    <g id="Symbol" stroke="none" stroke-width="1" fill="none" fill-rule="evenodd">
        <g id="ic/welcome/website" fill-rule="nonzero">
            <g id="39-国际" transform="translate(3.000000, 3.000000)">
                <rect id="Rectangle" fill="#000000" opacity="0" x="0" y="0" width="18" height="18"></rect>
                <path d="M9,1.125 C4.6546875,1.125 1.125,4.6546875 1.125,9 C1.125,13.3453125 4.6546875,16.875 9,16.875 C13.3453125,16.875 16.875,13.3453125 16.875,9 C16.875,4.6546875 13.3453125,1.125 9,1.125 Z M8.184375,15.7359375 C4.8515625,15.328125 2.278125,12.4875 2.278125,9.0421875 C2.278125,8.521875 2.3484375,8.015625 2.4609375,7.5375 L6.496875,11.5734375 L6.496875,12.4171875 C6.496875,13.3453125 7.25625,14.1046875 8.184375,14.1046875 L8.184375,15.7359375 Z M14.00625,13.55625 C13.7953125,12.8671875 13.1625,12.375 12.403125,12.375 L11.559375,12.375 L11.559375,9.8578125 C11.559375,9.3796875 11.1796875,9 10.7015625,9 L5.5125,9 L5.5125,7.3125 L7.3265625,7.3125 C7.8046875,7.3125 8.184375,6.9328125 8.184375,6.4546875 L8.184375,4.78125 L9.84375,4.78125 C10.7859375,4.78125 11.559375,4.0078125 11.559375,3.065625 L11.559375,2.7421875 C14.034375,3.740625 15.778125,6.159375 15.778125,9 C15.778125,10.7578125 15.1171875,12.346875 14.00625,13.55625 Z" id="Shape" fill="#737B85"></path>
            </g>
        </g>
    </g>
</svg>