<?xml version="1.0" encoding="UTF-8"?>
<svg width="20px" height="20px" viewBox="0 0 20 20" version="1.1" xmlns="http://www.w3.org/2000/svg" xmlns:xlink="http://www.w3.org/1999/xlink">
    <title>ic/toolbar/wiki/light</title>
    <g id="Symbol" stroke="none" stroke-width="1" fill="none" fill-rule="evenodd">
        <g id="ic/toolbar/wiki/light" fill-rule="nonzero">
            <g id="book" transform="translate(1.000000, 1.000000)">
                <rect id="矩形" fill="#000000" opacity="0" x="0" y="0" width="18" height="18"></rect>
                <path d="M5.5125,3.00000001 L13.7625,3.00000001 C14.25,3.00000001 14.5125,3.2625 14.5125,3.74999999 L14.5125,12.75 C14.5125,12.9 14.4375,13.05 14.325,13.1625 L13.6875,13.8 C13.65,13.8375 13.575,13.875 13.575,13.8375 C13.5375,13.8375 13.5375,13.7625 13.5375,13.725 L13.5375,4.23750001 C13.5375,4.1625 13.5,4.12500001 13.4625,4.05 C13.425,3.97499999 13.35,3.97499999 13.275,3.97499999 L6.26250001,3.97499999 C6.11250001,3.97499999 5.9625,4.05 5.85,4.1625 L5.21249999,4.80000001 C5.175,4.8375 5.13749999,4.91250001 5.175,4.91250001 C5.175,4.95 5.25000001,4.95 5.2875,4.95 L12.3,4.95 C12.375,4.95 12.4125,4.98749999 12.4875,5.02500001 C12.5625,5.06250002 12.5625,5.13750001 12.5625,5.21249999 L12.5625,14.7 C12.5625,14.775 12.525,14.8125 12.4875,14.8875 C12.45,14.9625 12.375,14.9625 12.3,14.9625 L3.74999999,14.9625 C3.67499999,14.9625 3.63749999,14.925 3.56250001,14.8875 C3.4875,14.85 3.4875,14.775 3.4875,14.7 L3.4875,4.95 C3.4875,4.80000001 3.56250001,4.64999999 3.67500001,4.53749999 L5.0625,3.15 C5.175,3.07499999 5.32499999,3.00000001 5.5125,3.00000001 Z" id="路径" fill="#DFE2E5"></path>
            </g>
        </g>
    </g>
</svg>