<?xml version="1.0" encoding="UTF-8"?>
<svg width="74px" height="74px" viewBox="0 0 74 74" version="1.1" xmlns="http://www.w3.org/2000/svg" xmlns:xlink="http://www.w3.org/1999/xlink">
    <title>Logo-ZENO2@2x</title>
    <defs>
        <radialGradient cx="50%" cy="33.9363731%" fx="50%" fy="33.9363731%" r="75.4120544%" id="radialGradient-1">
            <stop stop-color="#364C69" offset="0%"></stop>
            <stop stop-color="#27364B" offset="100%"></stop>
        </radialGradient>
        <path d="M10.211063,32.0889524 C7.33539669,32.0889524 3.98447551,32.0889524 2.83112387,32.0426774 C2.36657877,32.0240388 1.73687721,31.9788895 1.23817354,31.6753356 C0.741385595,31.3729478 0.321058032,30.7401407 0.118257603,30.0604779 C0.134011562,29.6666564 1.35424119,29.6168362 1.57307289,29.0931491 C2.37351501,27.1776078 7.71058947,20.5057332 10.6578257,21.043879 C13.6050619,21.5820249 13.8441068,23.8035737 15.1597972,24.6651839 C16.4754876,25.5267942 18.096281,24.0230978 17.0145774,22.4449932 C14.1557501,18.2742314 11.6311445,16.9438076 7.32349745,13.6091603 C6.9337085,13.3074159 6.60866382,12.9989467 6.16008738,12.4538038 C5.5255257,11.682638 5.31129291,10.7241929 5.2251912,10.289497 C10.5625737,8.45591872 16.1555695,6.59700693 19.2107777,8.15651728 C22.0519705,9.6067849 22.0519705,16.9018972 22.7063406,19.2419233 C23.3607106,21.5819495 25.3752026,20.9387418 25.7957616,17.3167517 C26.2163206,13.6947615 25.6175526,7.20266217 25.231255,3.80179222 C24.8449573,0.400922267 33.6631115,4.68856673 37.0948662,10.1082695 C37.3954734,10.5830127 38.1989041,10.4082613 38.3024312,10.8818737 C38.1424758,12.1708377 37.8161429,13.2290844 37.3214739,14.357645 C35.6449991,18.1824323 30.0477621,21.7017288 30.0477621,23.5966187 C30.0477621,26.190679 33.5421533,24.9767286 36.0292052,21.043879 C38.5162571,17.1110295 40.9962087,11.6873801 43.4576446,10.1082695 C45.4286318,8.84380146 49.1935704,17.5214503 49.1935704,22.1840199 C48.9729805,22.8808126 48.6513713,23.6983646 48.2875113,24.2846499 C47.9236514,24.8709351 47.1911673,25.3886558 46.7081186,25.7158118 C42.0812874,28.8494426 35.4747411,29.3472292 34.3874458,29.7935601 C33.3001504,30.239891 33.2165544,31.7381443 35.2574383,32.0889524 C37.2983222,32.4397605 44.4336746,31.3161635 47.1164935,30.3020656 C49.7993124,29.2879677 51.843653,29.5046833 51.5498641,31.7761613 C51.2560753,34.0476393 46.1987546,41.7427702 41.5496474,43.2607767 C36.9005402,44.7787831 31.8582056,40.7306333 30.72754,35.0431183 C29.5968744,29.3556034 25.9296651,27.4898412 23.1044841,28.1190989 C20.279303,28.7483565 17.7199681,32.4216538 20.1113345,35.4702205 C22.5027008,38.5187872 23.8678777,35.7086991 22.7063406,34.1822015 C21.94846,33.1861912 21.5695919,32.6843424 21.8380299,31.3599356 C21.9083897,31.0127978 22.8503989,30.6527422 23.8678777,30.7192101 C25.6007625,30.8324127 28.2631075,32.9528728 28.2631075,36.1261729 C28.2631075,39.2994731 25.6140116,42.5452989 20.610397,41.7217505 C16.3263345,41.0166336 13.5311493,38.1468952 12.5928826,34.1772325 C12.2321214,32.6509073 12.0272783,32.0889524 10.211063,32.0889524 Z" id="path-2"></path>
        <filter x="-19.4%" y="-19.5%" width="138.9%" height="148.8%" filterUnits="objectBoundingBox" id="filter-3">
            <feMorphology radius="1" operator="erode" in="SourceAlpha" result="shadowSpreadOuter1"></feMorphology>
            <feOffset dx="0" dy="3" in="shadowSpreadOuter1" result="shadowOffsetOuter1"></feOffset>
            <feGaussianBlur stdDeviation="1" in="shadowOffsetOuter1" result="shadowBlurOuter1"></feGaussianBlur>
            <feColorMatrix values="0 0 0 0 0.0381733328   0 0 0 0 0.11784313   0 0 0 0 0.399230072  0 0 0 1 0" type="matrix" in="shadowBlurOuter1" result="shadowMatrixOuter1"></feColorMatrix>
            <feMorphology radius="1" operator="erode" in="SourceAlpha" result="shadowSpreadOuter2"></feMorphology>
            <feOffset dx="0" dy="2" in="shadowSpreadOuter2" result="shadowOffsetOuter2"></feOffset>
            <feGaussianBlur stdDeviation="4" in="shadowOffsetOuter2" result="shadowBlurOuter2"></feGaussianBlur>
            <feColorMatrix values="0 0 0 0 0.0393076978   0 0 0 0 0.0804568178   0 0 0 0 0.229846014  0 0 0 1 0" type="matrix" in="shadowBlurOuter2" result="shadowMatrixOuter2"></feColorMatrix>
            <feMerge>
                <feMergeNode in="shadowMatrixOuter1"></feMergeNode>
                <feMergeNode in="shadowMatrixOuter2"></feMergeNode>
            </feMerge>
        </filter>
        <linearGradient x1="26.9811542%" y1="38.653867%" x2="71.4338606%" y2="99.6374611%" id="linearGradient-4">
            <stop stop-color="#8ABCE3" stop-opacity="0" offset="0%"></stop>
            <stop stop-color="#9886FF" stop-opacity="0.391526442" offset="100%"></stop>
        </linearGradient>
        <path d="M9.42121161,30.9462915 C6.40526886,30.9462915 2.78591974,30.9462915 1.56854132,30.9462915 C0.23387561,30.9462915 -0.47763197,29.8133339 0.361856101,27.8043515 C1.20134417,25.7953691 6.54805818,19.3624341 9.88976759,19.3624341 C13.231477,19.3624341 13.231477,22.256748 14.6113474,23.160388 C15.9912179,24.064028 17.6910744,22.4869806 16.5566047,20.8318953 C13.5583225,16.4576817 10.6614929,15.0721258 6.1437167,11.5748128 C1.62594051,8.07749978 14.5896953,3.66670469 18.8599368,5.84642054 C23.1301783,8.02613638 21.8397244,15.0184043 22.5260149,17.4725781 C23.2123054,19.9267519 25.3250653,19.2521682 25.7661394,15.4534956 C26.2072134,11.654823 24.8772689,4.86631515 25.1740958,1.27926986 C25.4709228,-2.30777543 34.0172625,2.20930167 37.6164198,7.89338014 C41.215577,13.5774586 30.2255545,19.3190977 30.2255545,22.0396976 C30.2255545,24.7602974 33.8904039,23.48713 36.4987753,19.3624341 C39.1071468,15.2377382 41.7080717,9.5495206 44.2895777,7.89338014 C46.8710836,6.23723968 52.5511417,20.9757752 47.6986114,24.2622661 C42.8460811,27.5487569 35.9172643,28.0708257 34.7769301,28.5389289 C33.6365959,29.007032 33.548922,30.5783709 35.6893613,30.9462915 C37.8298005,31.3142122 45.3132189,30.1358055 48.126907,29.0722395 C50.9405951,28.0086734 53.0846596,28.2359605 52.7765396,30.6182423 C52.4684196,33.0005241 47.1644003,41.0710273 42.2885074,42.6630828 C37.4126145,44.2551383 32.1243123,40.0095178 30.9384923,34.0445631 C29.7526723,28.0796084 25.9065748,26.1228334 22.94358,26.7827866 C19.9805853,27.4427397 17.2964048,31.2952223 19.8044231,34.4924996 C22.3124415,37.6897768 24.0344428,34.7695129 22.5260149,33.1416503 C21.017587,31.5137877 22.131308,29.7686272 23.9487237,29.8873518 C25.7661394,30.0060765 28.3538436,31.8523544 28.3538436,35.1804496 C28.3538436,38.5085449 25.5755236,41.9127037 20.3278302,41.0489822 C15.834789,40.3094694 12.9032533,37.2997437 11.9192175,33.136439 C11.5408582,31.5356589 11.3260228,30.9462915 9.42121161,30.9462915 Z" id="path-5"></path>
        <filter x="-6.2%" y="-6.4%" width="112.3%" height="115.1%" filterUnits="objectBoundingBox" id="filter-6">
            <feMorphology radius="0.5" operator="erode" in="SourceAlpha" result="shadowSpreadOuter1"></feMorphology>
            <feOffset dx="0" dy="0.5" in="shadowSpreadOuter1" result="shadowOffsetOuter1"></feOffset>
            <feGaussianBlur stdDeviation="1.5" in="shadowOffsetOuter1" result="shadowBlurOuter1"></feGaussianBlur>
            <feColorMatrix values="0 0 0 0 0   0 0 0 0 0   0 0 0 0 0  0 0 0 0.5 0" type="matrix" in="shadowBlurOuter1"></feColorMatrix>
        </filter>
        <filter x="-4.3%" y="-4.1%" width="108.5%" height="110.5%" filterUnits="objectBoundingBox" id="filter-7">
            <feOffset dx="0" dy="-0.5" in="SourceAlpha" result="shadowOffsetInner1"></feOffset>
            <feComposite in="shadowOffsetInner1" in2="SourceAlpha" operator="arithmetic" k2="-1" k3="1" result="shadowInnerInner1"></feComposite>
            <feColorMatrix values="0 0 0 0 0.921568627   0 0 0 0 0.909803922   0 0 0 0 0.992156863  0 0 0 1 0" type="matrix" in="shadowInnerInner1"></feColorMatrix>
        </filter>
        <linearGradient x1="34.6472452%" y1="42.7481664%" x2="59.5136624%" y2="57.15577%" id="linearGradient-8">
            <stop stop-color="#FFFFFF" offset="0%"></stop>
            <stop stop-color="#FFFFFF" stop-opacity="0" offset="100%"></stop>
        </linearGradient>
        <linearGradient x1="-3.35185592%" y1="26.853722%" x2="74.5542942%" y2="66.3012107%" id="linearGradient-9">
            <stop stop-color="#FFFFFF" offset="0%"></stop>
            <stop stop-color="#FFFFFF" stop-opacity="0" offset="100%"></stop>
        </linearGradient>
    </defs>
    <g id="@LOGO" stroke="none" stroke-width="1" fill="none" fill-rule="evenodd">
        <g id="Logo-ZENO2@2x">
            <path d="M22.0110816,1.5 L51.9889184,1.5 C58.9693204,1.5 61.5952455,2.21134085 64.1483201,3.54893989 L64.3147656,3.63706163 C66.7980108,4.96511567 68.7723228,6.88441855 70.1593057,9.3165744 L70.3629384,9.68523437 C71.7573951,12.2926418 72.5,14.8789317 72.5,22.0110816 L72.5,51.9889184 L72.4959729,52.875063 C72.4369604,59.197524 71.7305027,61.7062487 70.4510601,64.1483201 L70.3629384,64.3147656 C69.0348843,66.7980108 67.1155814,68.7723228 64.6834256,70.1593057 L64.3147656,70.3629384 C61.7073582,71.7573951 59.1210683,72.5 51.9889184,72.5 L22.0110816,72.5 L21.124937,72.4959729 C14.802476,72.4369604 12.2937513,71.7305027 9.85167994,70.4510601 L9.68523437,70.3629384 C7.20198922,69.0348843 5.22767724,67.1155814 3.8406943,64.6834256 L3.63706163,64.3147656 C2.24260489,61.7073582 1.5,59.1210683 1.5,51.9889184 L1.5,22.0110816 C1.5,15.0306796 2.21134085,12.4047545 3.54893989,9.85167994 L3.63706163,9.68523437 C4.96511567,7.20198922 6.88441855,5.22767724 9.3165744,3.8406943 L9.68523437,3.63706163 C12.2926418,2.24260489 14.8789317,1.5 22.0110816,1.5 Z" id="矩形" fill="url(#radialGradient-1)"></path>
            <path d="M23.2263993,3 L22.3449579,3.00397503 C16.7653775,3.05601229 14.0559609,3.62599654 11.2499034,5.1266925 C8.61369954,6.53654976 6.53654976,8.61369954 5.1266925,11.2499034 C3.58751716,14.1279111 3.02739424,16.9042584 3.0009868,22.7798675 L3,50.7736007 L3.00397503,51.6550421 C3.05601229,57.2346225 3.62599654,59.9440391 5.1266925,62.7500966 C6.53654976,65.3863005 8.61369954,67.4634502 11.2499034,68.8733075 C14.1998613,70.4509622 17.0430122,71 23.2263993,71 L50.7736007,71 L51.6550421,70.996025 C57.2346225,70.9439877 59.9440391,70.3740035 62.7500966,68.8733075 C65.3863005,67.4634502 67.4634502,65.3863005 68.8733075,62.7500966 C70.4509622,59.8001387 71,56.9569878 71,50.7736007 L71,23.2263993 L70.996025,22.3449579 C70.9439877,16.7653775 70.3740035,14.0559609 68.8733075,11.2499034 C67.4634502,8.61369954 65.3863005,6.53654976 62.7500966,5.1266925 C59.8720889,3.58751716 57.0957416,3.02739424 51.2201325,3.0009868 L23.2263993,3 Z M22.8103439,5.75759427 L50.7736007,5.75675676 C56.5408148,5.75675676 58.9540287,6.22276986 61.4500132,7.55763699 C63.6058013,8.71056508 65.2894349,10.3941987 66.442363,12.5499868 L66.6315538,12.9150609 C67.8215859,15.2893878 68.2432432,17.7405127 68.2432432,23.2263993 L68.2432432,50.7736007 C68.2432432,56.5408148 67.7772301,58.9540287 66.442363,61.4500132 C65.2894349,63.6058013 63.6058013,65.2894349 61.4500132,66.442363 L61.0849391,66.6315538 C58.7106122,67.8215859 56.2594873,68.2432432 50.7736007,68.2432432 L23.2263993,68.2432432 C17.4591852,68.2432432 15.0459713,67.7772301 12.5499868,66.442363 C10.3941987,65.2894349 8.71056508,63.6058013 7.55763699,61.4500132 L7.36844623,61.0849391 C6.17841406,58.7106122 5.75675676,56.2594873 5.75675676,50.7736007 L5.75675676,23.2263993 C5.75675676,17.4591852 6.22276986,15.0459713 7.55763699,12.5499868 C8.71056508,10.3941987 10.3941987,8.71056508 12.5499868,7.55763699 L12.9150609,7.36844623 C15.2285076,6.20892771 17.6148645,5.77888539 22.8103439,5.75759427 Z" id="矩形" fill="#202731" fill-rule="nonzero"></path>
            <path d="M22.0110816,0 L21.051866,0.00432577072 C14.9799696,0.0609545531 12.0314869,0.681231531 8.97783608,2.31434183 C6.10902597,3.84859827 3.84859827,6.10902597 2.31434183,8.97783608 C0.639356907,12.1097856 0.0298113769,15.1311047 0.00107387031,21.5251499 L0,51.9889184 L0.00432577072,52.948134 C0.0609545531,59.0200304 0.681231531,61.9685131 2.31434183,65.0221639 C3.84859827,67.890974 6.10902597,70.1514017 8.97783608,71.6856582 C12.1880843,73.4025177 15.2821015,74 22.0110816,74 L51.9889184,74 L52.948134,73.9956742 C59.0200304,73.9390454 61.9685131,73.3187685 65.0221639,71.6856582 C67.890974,70.1514017 70.1514017,67.890974 71.6856582,65.0221639 C73.4025177,61.8119157 74,58.7178985 74,51.9889184 L74,22.0110816 L73.9956742,21.051866 C73.9390454,14.9799696 73.3187685,12.0314869 71.6856582,8.97783608 C70.1514017,6.10902597 67.890974,3.84859827 65.0221639,2.31434183 C61.8902144,0.639356907 58.8688953,0.0298113769 52.4748501,0.00107387031 L22.0110816,0 Z M21.5583154,3.00091141 L51.9889184,3 C58.2650043,3 60.8911489,3.50713191 63.6073673,4.95978143 C65.953372,6.21443847 67.7855615,8.04662796 69.0402186,10.3926327 L69.2461026,10.7899192 C70.5411376,13.3737455 71,16.0411462 71,22.0110816 L71,51.9889184 C71,58.2650043 70.4928681,60.8911489 69.0402186,63.6073673 C67.7855615,65.953372 65.953372,67.7855615 63.6073673,69.0402186 L63.2100808,69.2461026 C60.6262545,70.5411376 57.9588538,71 51.9889184,71 L22.0110816,71 C15.7349957,71 13.1088511,70.4928681 10.3926327,69.0402186 C8.04662796,67.7855615 6.21443847,65.953372 4.95978143,63.6073673 L4.75389736,63.2100808 C3.45886236,60.6262545 3,57.9588538 3,51.9889184 L3,22.0110816 C3,15.7349957 3.50713191,13.1088511 4.95978143,10.3926327 C6.21443847,8.04662796 8.04662796,6.21443847 10.3926327,4.95978143 L10.7899192,4.75389736 C13.3074935,3.49206839 15.9044114,3.02408116 21.5583154,3.00091141 Z" id="矩形" fill="#DFE0DF" fill-rule="nonzero"></path>
            <g id="编组" transform="translate(10.596983, 14.208988)">
                <g id="路径">
                    <use fill="black" fill-opacity="1" filter="url(#filter-3)" xlink:href="#path-2"></use>
                    <use fill="#70B5D9" fill-rule="evenodd" xlink:href="#path-2"></use>
                </g>
                <g id="路径">
                    <use fill="black" fill-opacity="1" filter="url(#filter-6)" xlink:href="#path-5"></use>
                    <use fill="#E9E9E9" fill-rule="evenodd" xlink:href="#path-5"></use>
                    <use fill="url(#linearGradient-4)" fill-rule="evenodd" xlink:href="#path-5"></use>
                    <use fill="black" fill-opacity="1" filter="url(#filter-7)" xlink:href="#path-5"></use>
                </g>
                <path d="M15.7826002,12.4919266 C12.8220627,13.2485381 9.27470153,12.7457387 7.29103389,11.2101366 C3.53041717,8.29895786 14.3215035,4.62739268 17.8760713,6.44179771 C21.4306391,8.25620274 18.2920871,11.8505881 15.7826002,12.4919266 Z" id="路径" fill="url(#linearGradient-8)"></path>
                <path d="M9.09838469,27.5356501 C8.2465582,28.066328 5.26254614,29.0747243 3.71855425,29.1839557 C1.63816629,29.3311349 0.859254522,28.75894 1.91958986,27.0541678 C3.09557789,25.163453 7.53416965,20.294118 9.98154924,20.294118 C12.4289288,20.294118 11.9687999,25.7474151 9.09838469,27.5356501 Z" id="路径" fill="url(#linearGradient-9)"></path>
            </g>
        </g>
    </g>
</svg>