<svg xmlns="http://www.w3.org/2000/svg" class="svg-icon icon lock-icon" viewBox="0 0 20 20"><path fill-rule="evenodd" clip-rule="evenodd" d="M5 10C5 9.44772 5.44772 9 6 9H13C13.5523 9 14 9.44772 14 10V14C14 14.5523 13.5523 15 13 15H6C5.44772 15 5 14.5523 5 14V10ZM13 10H6V14H13V10Z" fill="#666666"></path><path d="M5.5 10C5.5 9.72386 5.72386 9.5 6 9.5H13C13.2761 9.5 13.5 9.72386 13.5 10V14C13.5 14.2761 13.2761 14.5 13 14.5H6C5.72386 14.5 5.5 14.2761 5.5 14V10Z" fill="#666666"></path><path d="M9.5 4.5C7.84315 4.5 6.5 5.84315 6.5 7.5V9.5H7.5V7.5C7.5 6.39543 8.39543 5.5 9.5 5.5C10.4319 5.5 11.215 6.13739 11.437 7H12.4585C12.2205 5.58114 10.9865 4.5 9.5 4.5Z" fill="#666666"></path></svg>