<?xml version="1.0" encoding="UTF-8"?>
<svg width="24px" height="24px" viewBox="0 0 24 24" version="1.1" xmlns="http://www.w3.org/2000/svg" xmlns:xlink="http://www.w3.org/1999/xlink">
    <title>IC/MUTE</title>
    <g id="IC/MUTE" stroke="none" stroke-width="1" fill="none" fill-rule="evenodd">
        <g id="Mute" transform="translate(0.000937, 0.000000)" fill-rule="nonzero">
            <rect id="矩形" fill="#000000" opacity="0" x="0" y="0" width="24" height="24"></rect>
            <path d="M12.374,19.939 L18.223,11.166 C18.3764104,10.9358643 18.3907103,10.6399741 18.2602072,10.3961173 C18.1297041,10.1522604 17.8755813,10.0000201 17.599,10 L13,10 L13,4.47700001 C12.999964,4.14652728 12.7836253,3.85502357 12.4673316,3.7592607 C12.1510379,3.66349783 11.8093382,3.78604668 11.626,4.06099999 L5.77699999,12.834 C5.62358956,13.0641357 5.60928967,13.3600259 5.73979281,13.6038827 C5.87029595,13.8477396 6.12441868,13.9999799 6.40099999,14 L11,14 L11,19.523 C11.000036,19.8534727 11.2163747,20.1449764 11.5326684,20.2407393 C11.8489621,20.3365022 12.1906618,20.2139533 12.374,19.939 Z" id="形状结合" fill="#FFFFFF"></path>
        </g>
    </g>
</svg>