<?xml version="1.0" encoding="UTF-8"?>
<svg width="34px" height="34px" viewBox="0 0 34 34" version="1.1" xmlns="http://www.w3.org/2000/svg" xmlns:xlink="http://www.w3.org/1999/xlink">
    <title>Next-click</title>
    <defs>
        <linearGradient x1="50%" y1="100%" x2="50%" y2="4.45200695%" id="linearGradient-1">
            <stop stop-color="#888888" offset="0%"></stop>
            <stop stop-color="#3C3C3C" offset="100%"></stop>
        </linearGradient>
        <path d="M16,0 C7.1634601,0 0,7.1634601 0,16 C0,24.8365399 7.1634601,32 16,32 C24.8365399,32 32,24.8365399 32,16 C32,7.1634601 24.8365399,0 16,0 Z" id="path-2"></path>
        <filter x="-6.2%" y="-3.1%" width="112.5%" height="112.5%" filterUnits="objectBoundingBox" id="filter-3">
            <feOffset dx="0" dy="1" in="SourceAlpha" result="shadowOffsetOuter1"></feOffset>
            <feGaussianBlur stdDeviation="0.5" in="shadowOffsetOuter1" result="shadowBlurOuter1"></feGaussianBlur>
            <feColorMatrix values="0 0 0 0 0   0 0 0 0 0   0 0 0 0 0  0 0 0 0.623934659 0" type="matrix" in="shadowBlurOuter1"></feColorMatrix>
        </filter>
        <filter x="-4.7%" y="-1.6%" width="109.4%" height="109.4%" filterUnits="objectBoundingBox" id="filter-4">
            <feOffset dx="0" dy="1" in="SourceAlpha" result="shadowOffsetInner1"></feOffset>
            <feComposite in="shadowOffsetInner1" in2="SourceAlpha" operator="arithmetic" k2="-1" k3="1" result="shadowInnerInner1"></feComposite>
            <feColorMatrix values="0 0 0 0 1   0 0 0 0 1   0 0 0 0 1  0 0 0 0.323262675 0" type="matrix" in="shadowInnerInner1"></feColorMatrix>
        </filter>
    </defs>
    <g id="Next-click" stroke="none" stroke-width="1" fill="none" fill-rule="evenodd">
        <g id="编组" transform="translate(1.000000, 0.000000)">
            <g id="路径" fill-rule="nonzero">
                <use fill="black" fill-opacity="1" filter="url(#filter-3)" xlink:href="#path-2"></use>
                <use fill="url(#linearGradient-1)" xlink:href="#path-2"></use>
                <use fill="black" fill-opacity="1" filter="url(#filter-4)" xlink:href="#path-2"></use>
            </g>
            <path d="M15.9999921,29.0000079 C8.82033498,29.0000079 2.99999212,23.179665 2.99999212,15.9999921 C2.99999212,8.82033498 8.82033498,2.99999212 15.9999921,2.99999212 C23.179665,2.99999212 29.0000079,8.82033498 29.0000079,15.9999921 C29.0000079,23.179665 23.179665,29.0000079 15.9999921,29.0000079 Z" id="路径" fill="#686868"></path>
        </g>
        <polygon id="路径" fill="#949494" fill-rule="nonzero" points="20.5 11 20.5 23 18.5 23 18.5 17.5 13.5 22.5 13.5 11.5 18.5 16.5 18.5 11"></polygon>
    </g>
</svg>