# File exported by Houdini 18.5.499 (www.sidefx.com)
# 20 points
# 108 vertices
# 36 primitives
# Bounds: [-0.31662035, 0.00885534286, 0] to [0.268195629, 0.875730872, 0.199999988]
g 
v -0.31662035 0.875730872 0
v -0.31662035 0.00885534286 0
v -0.31662035 0.00885534286 0.199999988
v -0.31662035 0.875730872 0.199999988
v 0.268195629 0.875730872 0
v 0.268195629 0.875730872 0.199999988
v 0.268195629 0.773432612 0
v 0.268195629 0.773432612 0.199999988
v -0.201904297 0.773432612 0
v -0.201904297 0.773432612 0.199999988
v -0.201904297 0.504973173 0
v -0.201904297 0.504973173 0.199999988
v 0.204924583 0.504973173 0
v 0.204924583 0.504973173 0.199999988
v 0.204924583 0.402674675 0
v 0.204924583 0.402674675 0.199999988
v -0.201904297 0.402674675 0
v -0.201904297 0.402674675 0.199999988
v -0.201904297 0.00885534286 0
v -0.201904297 0.00885534286 0.199999988
vt 0 0 0
vt 2.16718888 0 0
vt 0 0.5 0
vt 2.16718888 0.5 0
vt -0 0 0
vt 1.46203995 0 0
vt -0 0.5 0
vt 1.46203995 0.5 0
vt 0.255746007 0 0
vt 0.255746007 0.5 0
vt 1.17524898 0 0
vt 1.17524898 0.5 0
vt 0.671149015 0 0
vt 0.671149015 0.5 0
vt 1.01707101 0 0
vt 1.01707101 0.5 0
vt 0.984547973 0 0
vt 0.984547973 0.5 0
vt 0.286790013 0 0
vt 0.286790013 0.5 0
vt 1.08359504 -0.444229007 0
vt 0.0990459993 -0.444229007 0
vt 1.08359504 -0.731019974 0
vt -1.08359504 -0.731019974 0
vt -0.1567 -0.444229007 0
vt -0.827848971 -0.444229007 0
vt 0.0990459993 0.572842002 0
vt -0.1567 0.572842002 0
vt -0.827848971 0.731019974 0
vt -1.08359504 0.731019974 0
vt 0.444229007 -1.08359504 0
vt 0.731019974 -1.08359504 0
vt 0.444229007 -0.0990459993 0
vt 0.731019974 1.08359504 0
vt 0.444229007 0.1567 0
vt 0.444229007 0.827848971 0
vt -0.731019974 1.08359504 0
vt -0.731019974 0.827848971 0
vt -0.572842002 0.1567 0
vt -0.572842002 -0.0990459993 0
vn -0.099999994 0 0
vn -0.099999994 0 0
vn -0.099999994 0 0
vn -0.099999994 0 0
vn -0.099999994 0 0
vn -0.099999994 0 0
vn 0 0.099999994 0
vn 0 0.099999994 0
vn 0 0.099999994 0
vn 0 0.099999994 0
vn 0 0.099999994 0
vn 0 0.099999994 0
vn 0.099999994 0 0
vn 0.099999994 0 0
vn 0.099999994 0 0
vn 0.099999994 0 0
vn 0.099999994 0 0
vn 0.099999994 0 0
vn 0 -0.099999994 0
vn 0 -0.099999994 0
vn 0 -0.099999994 0
vn 0 -0.099999994 0
vn 0 -0.099999994 0
vn 0 -0.099999994 0
vn 0.099999994 0 0
vn 0.099999994 0 0
vn 0.099999994 0 0
vn 0.099999994 0 0
vn 0.099999994 0 0
vn 0.099999994 0 0
vn 0 0.099999994 0
vn 0 0.099999994 0
vn 0 0.099999994 0
vn 0 0.099999994 0
vn 0 0.099999994 0
vn 0 0.099999994 0
vn 0.099999994 0 0
vn 0.099999994 0 0
vn 0.099999994 0 0
vn 0.099999994 0 0
vn 0.099999994 0 0
vn 0.099999994 0 0
vn 0 -0.099999994 0
vn 0 -0.099999994 0
vn 0 -0.099999994 0
vn 0 -0.099999994 0
vn 0 -0.099999994 0
vn 0 -0.099999994 0
vn 0.099999994 0 0
vn 0.099999994 0 0
vn 0.099999994 0 0
vn 0.099999994 0 0
vn 0.099999994 0 0
vn 0.099999994 0 0
vn 0 -0.099999994 0
vn 0 -0.099999994 0
vn 0 -0.099999994 0
vn 0 -0.099999994 0
vn 0 -0.099999994 0
vn 0 -0.099999994 0
vn 0 0 0.099999994
vn 0 0 0.099999994
vn 0 0 0.099999994
vn 0 0 0.099999994
vn 0 0 0.099999994
vn 0 0 0.099999994
vn 0 0 0.099999994
vn 0 0 0.099999994
vn 0 0 0.099999994
vn 0 0 0.099999994
vn 0 0 0.099999994
vn 0 0 0.099999994
vn 0 0 0.099999994
vn 0 0 0.099999994
vn 0 0 0.099999994
vn 0 0 0.099999994
vn 0 0 0.099999994
vn 0 0 0.099999994
vn 0 0 0.099999994
vn 0 0 0.099999994
vn 0 0 0.099999994
vn 0 0 0.099999994
vn 0 0 0.099999994
vn 0 0 0.099999994
vn 0 -0 -0.099999994
vn 0 -0 -0.099999994
vn 0 -0 -0.099999994
vn 0 -0 -0.099999994
vn 0 -0 -0.099999994
vn 0 -0 -0.099999994
vn 0 -0 -0.099999994
vn 0 -0 -0.099999994
vn 0 -0 -0.099999994
vn 0 -0 -0.099999994
vn 0 -0 -0.099999994
vn 0 -0 -0.099999994
vn 0 -0 -0.099999994
vn 0 -0 -0.099999994
vn 0 -0 -0.099999994
vn 0 -0 -0.099999994
vn 0 -0 -0.099999994
vn 0 -0 -0.099999994
vn 0 -0 -0.099999994
vn 0 -0 -0.099999994
vn 0 -0 -0.099999994
vn 0 -0 -0.099999994
vn 0 -0 -0.099999994
vn 0 -0 -0.099999994
g Body49
usemtl /mat/Aluminum_-_Anodized_Glossy_(Red)
f 1/1/1 2/2/2 4/3/3
f 4/3/4 2/2/5 3/4/6
f 5/5/7 1/6/8 6/7/9
f 6/7/10 1/6/11 4/8/12
f 7/5/13 5/9/14 8/7/15
f 8/7/16 5/9/17 6/10/18
f 9/1/19 7/11/20 10/3/21
f 10/3/22 7/11/23 8/12/24
f 11/5/25 9/13/26 12/7/27
f 12/7/28 9/13/29 10/14/30
f 13/5/31 11/15/32 14/7/33
f 14/7/34 11/15/35 12/16/36
f 15/5/37 13/9/38 16/7/39
f 16/7/40 13/9/41 14/10/42
f 17/1/43 15/15/44 18/3/45
f 18/3/46 15/15/47 16/16/48
f 19/5/49 17/17/50 20/7/51
f 20/7/52 17/17/53 18/18/54
f 2/1/55 19/19/56 3/3/57
f 3/3/58 19/19/59 20/20/60
g Body49
usemtl /mat/Bronze_-_Polished
f 20/21/61 18/22/62 3/23/63
f 3/23/64 18/22/65 4/24/66
f 4/24/67 18/22/68 12/25/69
f 4/24/70 12/25/71 10/26/72
f 16/27/73 14/28/74 18/22/75
f 18/22/76 14/28/77 12/25/78
f 8/29/79 6/30/80 10/26/81
f 10/26/82 6/30/83 4/24/84
f 19/31/85 2/32/86 17/33/87
f 17/33/88 2/32/89 1/34/90
f 17/33/91 1/34/92 11/35/93
f 11/35/94 1/34/95 9/36/96
f 9/36/97 1/34/98 5/37/99
f 9/36/100 5/37/101 7/38/102
f 11/35/103 13/39/104 17/33/105
f 17/33/106 13/39/107 15/40/108
