# File exported by Houdini 18.5.499 (www.sidefx.com)
# 8 points
# 36 vertices
# 12 primitives
# Bounds: [-0.0642962605, 0.00885534286, 0] to [0.0682007745, 0.875730872, 0.199999988]
g 
v -0.0642962605 0.875730872 0
v -0.0642962605 0.00885534286 0
v -0.0642962605 0.00885534286 0.199999988
v -0.0642962605 0.875730872 0.199999988
v 0.0682007745 0.875730872 0
v 0.0682007745 0.875730872 0.199999988
v 0.0682007745 0.00885534286 0
v 0.0682007745 0.00885534286 0.199999988
vt 0 0 0
vt 2.16718888 0 0
vt 0 0.5 0
vt 2.16718888 0.5 0
vt -0 0 0
vt 0.286790013 0 0
vt -0 0.5 0
vt 0.286790013 0.5 0
vt 1.08359504 0.143395007 0
vt -1.08359504 0.143395007 0
vt 1.08359504 -0.143395007 0
vt -1.08359504 -0.143395007 0
vt -0.143395007 -1.08359504 0
vt 0.143395007 -1.08359504 0
vt -0.143395007 1.08359504 0
vt 0.143395007 1.08359504 0
vn -0.0999999866 0 0
vn -0.0999999866 0 0
vn -0.0999999866 0 0
vn -0.0999999866 0 0
vn -0.0999999866 0 0
vn -0.0999999866 0 0
vn 0 0.099999994 0
vn 0 0.099999994 0
vn 0 0.099999994 0
vn 0 0.099999994 0
vn 0 0.099999994 0
vn 0 0.099999994 0
vn 0.0999999866 0 0
vn 0.0999999866 0 0
vn 0.0999999866 0 0
vn 0.0999999866 0 0
vn 0.0999999866 0 0
vn 0.0999999866 0 0
vn 0 -0.099999994 0
vn 0 -0.099999994 0
vn 0 -0.099999994 0
vn 0 -0.099999994 0
vn 0 -0.099999994 0
vn 0 -0.099999994 0
vn 0 0 0.099999994
vn 0 0 0.099999994
vn 0 0 0.099999994
vn 0 0 0.099999994
vn 0 0 0.099999994
vn 0 0 0.099999994
vn 0 -0 -0.099999994
vn 0 -0 -0.099999994
vn 0 -0 -0.099999994
vn 0 -0 -0.099999994
vn 0 -0 -0.099999994
vn 0 -0 -0.099999994
g Body49
usemtl /mat/Aluminum_-_Anodized_Glossy_(Red)
f 1/1/1 2/2/2 4/3/3
f 4/3/4 2/2/5 3/4/6
f 5/5/7 1/6/8 6/7/9
f 6/7/10 1/6/11 4/8/12
f 7/5/13 5/2/14 8/7/15
f 8/7/16 5/2/17 6/4/18
f 2/1/19 7/6/20 3/3/21
f 3/3/22 7/6/23 8/8/24
g Body49
usemtl /mat/Bronze_-_Polished
f 8/9/25 6/10/26 3/11/27
f 3/11/28 6/10/29 4/12/30
f 7/13/31 2/14/32 5/15/33
f 5/15/34 2/14/35 1/16/36
