# File exported by Houdini 18.5.499 (www.sidefx.com)
# 16 points
# 84 vertices
# 28 primitives
# Bounds: [-0.31662035, 0.00885534286, 0] to [0.370493889, 0.875730872, 0.199999988]
g 
v -0.0310125351 0.773432612 0
v -0.0310125351 0.00885534286 0
v -0.0310125351 0.00885534286 0.199999988
v -0.0310125351 0.773432612 0.199999988
v -0.31662035 0.773432612 0
v -0.31662035 0.773432612 0.199999988
v -0.31662035 0.875730872 0
v -0.31662035 0.875730872 0.199999988
v 0.370493889 0.875730872 0
v 0.370493889 0.875730872 0.199999988
v 0.370493889 0.773432612 0
v 0.370493889 0.773432612 0.199999988
v 0.0837035179 0.773432612 0
v 0.0837035179 0.773432612 0.199999988
v 0.0837035179 0.00885534286 0
v 0.0837035179 0.00885534286 0.199999988
vt 0 0 0
vt 1.911443 0 0
vt 0 0.5 0
vt 1.911443 0.5 0
vt 0.714019001 0 0
vt 0.714019001 0.5 0
vt 0.255746007 0 0
vt 0.255746007 0.5 0
vt -0 0 0
vt 1.71778595 0 0
vt -0 0.5 0
vt 1.71778595 0.5 0
vt 0.716975987 0 0
vt 0.716975987 0.5 0
vt 0.286790013 0 0
vt 0.286790013 0.5 0
vt 1.08359504 0.141917005 0
vt -0.827848971 0.141917005 0
vt 1.08359504 -0.144872993 0
vt -0.827848971 -0.144872993 0
vt -1.08359504 -0.858892977 0
vt -0.827848971 -0.858892977 0
vt -0.827848971 0.858892977 0
vt -1.08359504 0.858892977 0
vt -0.141917005 -1.08359504 0
vt 0.144872993 -1.08359504 0
vt -0.141917005 0.827848971 0
vt 0.144872993 0.827848971 0
vt 0.858892977 1.08359504 0
vt 0.858892977 0.827848971 0
vt -0.858892977 1.08359504 0
vt -0.858892977 0.827848971 0
vn -0.099999994 0 0
vn -0.099999994 0 0
vn -0.099999994 0 0
vn -0.099999994 0 0
vn -0.099999994 0 0
vn -0.099999994 0 0
vn 0 -0.099999994 0
vn 0 -0.099999994 0
vn 0 -0.099999994 0
vn 0 -0.099999994 0
vn 0 -0.099999994 0
vn 0 -0.099999994 0
vn -0.099999994 0 0
vn -0.099999994 0 0
vn -0.099999994 0 0
vn -0.099999994 0 0
vn -0.099999994 0 0
vn -0.099999994 0 0
vn 0 0.099999994 0
vn 0 0.099999994 0
vn 0 0.099999994 0
vn 0 0.099999994 0
vn 0 0.099999994 0
vn 0 0.099999994 0
vn 0.099999994 0 0
vn 0.099999994 0 0
vn 0.099999994 0 0
vn 0.099999994 0 0
vn 0.099999994 0 0
vn 0.099999994 0 0
vn 0 -0.099999994 0
vn 0 -0.099999994 0
vn 0 -0.099999994 0
vn 0 -0.099999994 0
vn 0 -0.099999994 0
vn 0 -0.099999994 0
vn 0.099999994 0 0
vn 0.099999994 0 0
vn 0.099999994 0 0
vn 0.099999994 0 0
vn 0.099999994 0 0
vn 0.099999994 0 0
vn 0 -0.099999994 0
vn 0 -0.099999994 0
vn 0 -0.099999994 0
vn 0 -0.099999994 0
vn 0 -0.099999994 0
vn 0 -0.099999994 0
vn 0 0 0.099999994
vn 0 0 0.099999994
vn 0 0 0.099999994
vn 0 0 0.099999994
vn 0 0 0.099999994
vn 0 0 0.099999994
vn 0 0 0.099999994
vn 0 0 0.099999994
vn 0 0 0.099999994
vn 0 0 0.099999994
vn 0 0 0.099999994
vn 0 0 0.099999994
vn 0 0 0.099999994
vn 0 0 0.099999994
vn 0 0 0.099999994
vn 0 0 0.099999994
vn 0 0 0.099999994
vn 0 0 0.099999994
vn 0 -0 -0.099999994
vn 0 -0 -0.099999994
vn 0 -0 -0.099999994
vn 0 -0 -0.099999994
vn 0 -0 -0.099999994
vn 0 -0 -0.099999994
vn 0 -0 -0.099999994
vn 0 -0 -0.099999994
vn 0 -0 -0.099999994
vn 0 -0 -0.099999994
vn 0 -0 -0.099999994
vn 0 -0 -0.099999994
vn 0 -0 -0.099999994
vn 0 -0 -0.099999994
vn 0 -0 -0.099999994
vn 0 -0 -0.099999994
vn 0 -0 -0.099999994
vn 0 -0 -0.099999994
g Body49
usemtl /mat/Aluminum_-_Anodized_Glossy_(Red)
f 1/1/1 2/2/2 4/3/3
f 4/3/4 2/2/5 3/4/6
f 5/1/7 1/5/8 6/3/9
f 6/3/10 1/5/11 4/6/12
f 7/1/13 5/7/14 8/3/15
f 8/3/16 5/7/17 6/8/18
f 9/9/19 7/10/20 10/11/21
f 10/11/22 7/10/23 8/12/24
f 11/9/25 9/7/26 12/11/27
f 12/11/28 9/7/29 10/8/30
f 13/1/31 11/13/32 14/3/33
f 14/3/34 11/13/35 12/14/36
f 15/9/37 13/2/38 16/11/39
f 16/11/40 13/2/41 14/4/42
f 2/1/43 15/15/44 3/3/45
f 3/3/46 15/15/47 16/16/48
g Body49
usemtl /mat/Bronze_-_Polished
f 16/17/49 14/18/50 3/19/51
f 3/19/52 14/18/53 4/20/54
f 4/20/55 14/18/56 8/21/57
f 4/20/58 8/21/59 6/22/60
f 12/23/61 10/24/62 14/18/63
f 14/18/64 10/24/65 8/21/66
f 15/25/67 2/26/68 13/27/69
f 13/27/70 2/26/71 1/28/72
f 13/27/73 1/28/74 7/29/75
f 7/29/76 1/28/77 5/30/78
f 7/29/79 9/31/80 13/27/81
f 13/27/82 9/31/83 11/32/84
