# File exported by Houdini 18.5.499 (www.sidefx.com)
# 74 points
# 432 vertices
# 144 primitives
# Bounds: [-0.402465343, 0.00885534286, 0] to [0.433514118, 0.875730872, 0.199999988]
g 
v -0.402465343 0.875730872 0
v -0.229947567 0.00885534286 0
v -0.229947567 0.00885534286 0.199999988
v -0.402465343 0.875730872 0.199999988
v -0.314210892 0.875730872 0
v -0.314210892 0.875730872 0.199999988
v -0.215312481 0.307471991 0
v -0.215312481 0.307471991 0.199999988
v -0.187816143 0.130075932 0
v -0.193987846 0.174618483 0
v -0.200544834 0.219054937 0
v -0.207738876 0.263315678 0
v -0.207738876 0.263315678 0.199999988
v -0.200544834 0.219054937 0.199999988
v -0.193987846 0.174618483 0.199999988
v -0.187816143 0.130075932 0.199999988
v -0.158545494 0.290323734 0
v -0.16608429 0.250334263 0
v -0.173464298 0.210292578 0
v -0.180680752 0.170197725 0
v -0.180680752 0.170197725 0.199999988
v -0.173464298 0.210292578 0.199999988
v -0.16608429 0.250334263 0.199999988
v -0.158545494 0.290323734 0.199999988
v -0.0348114967 0.875730872 0
v -0.0348114967 0.875730872 0.199999988
v 0.0689649582 0.875730872 0
v 0.0689649582 0.875730872 0.199999988
v 0.162097931 0.436971188 0
v 0.162097931 0.436971188 0.199999988
v 0.212656021 0.130075932 0
v 0.202722073 0.207587242 0
v 0.191268444 0.284656048 0
v 0.177385807 0.361018181 0
v 0.177385807 0.361018181 0.199999988
v 0.191268444 0.284656048 0.199999988
v 0.202722073 0.207587242 0.199999988
v 0.212656021 0.130075932 0.199999988
v 0.245030403 0.318707228 0
v 0.236392975 0.271714687 0
v 0.228038788 0.224636316 0
v 0.22018528 0.177405357 0
v 0.22018528 0.177405357 0.199999988
v 0.228038788 0.224636316 0.199999988
v 0.236392975 0.271714687 0.199999988
v 0.245030403 0.318707228 0.199999988
v 0.347033501 0.875730872 0
v 0.347033501 0.875730872 0.199999988
v 0.433514118 0.875730872 0
v 0.433514118 0.875730872 0.199999988
v 0.255230427 0.00885534286 0
v 0.255230427 0.00885534286 0.199999988
v 0.172297955 0.00885534286 0
v 0.172297955 0.00885534286 0.199999988
v 0.0352597237 0.669360042 0
v 0.0352597237 0.669360042 0.199999988
v 0.0148587227 0.771067142 0
v 0.0196948051 0.745547295 0
v 0.0247144699 0.720092177 0
v 0.0299358368 0.694708109 0
v 0.0299358368 0.694708109 0.199999988
v 0.0247144699 0.720092177 0.199999988
v 0.0196948051 0.745547295 0.199999988
v 0.0148587227 0.771067142 0.199999988
v -0.00421094894 0.669360042 0
v 0.000888824463 0.694675803 0
v 0.00579500198 0.720055819 0
v 0.0104088783 0.745534182 0
v 0.0104088783 0.745534182 0.199999988
v 0.00579500198 0.720055819 0.199999988
v 0.000888824463 0.694675803 0.199999988
v -0.00421094894 0.669360042 0.199999988
v -0.142136574 0.00885534286 0
v -0.142136574 0.00885534286 0.199999988
vt 0 0 0
vt 2.24218702 0 0
vt -0 0.5 0
vt 2.24218702 0.5 0
vt -0 0 0
vt 0.294182003 0 0
vt 0.294182003 0.5 0
vt 1.458395 0 0
vt 1.458395 0.5 0
vt -0.452861995 0 0
vt -0.339646995 0 0
vt -0.452861995 0.5 0
vt -0.339646995 0.5 0
vt -0.226430997 0 0
vt -0.226430997 0.5 0
vt -0.113215998 0 0
vt -0.113215998 0.5 0
vt 0 0.5 0
vt -0.412330002 0 0
vt -0.309248 0 0
vt -0.412330002 0.5 0
vt -0.309248 0.5 0
vt -0.206165001 0 0
vt -0.206165001 0.5 0
vt -0.103083 0 0
vt -0.103083 0.5 0
vt 1.52052498 0 0
vt 1.52052498 0.5 0
vt 0.345921993 0 0
vt 0.345921993 0.5 0
vt 1.13998401 0 0
vt 1.13998401 0.5 0
vt -0.785530984 0 0
vt -0.589147985 0 0
vt -0.785530984 0.5 0
vt -0.589147985 0.5 0
vt -0.392764986 0 0
vt -0.392764986 0.5 0
vt -0.196382999 0 0
vt -0.196382999 0.5 0
vt -0.483767986 0 0
vt -0.36282599 0 0
vt -0.483767986 0.5 0
vt -0.36282599 0.5 0
vt -0.241883993 0 0
vt -0.241883993 0.5 0
vt -0.120941997 0 0
vt -0.120941997 0.5 0
vt 1.43346703 0 0
vt 1.43346703 0.5 0
vt 0.288269013 0 0
vt 0.288269013 0.5 0
vt 2.24719191 0 0
vt 2.24719191 0.5 0
vt 0.276441991 0 0
vt 0.276441991 0.5 0
vt 1.71327996 0 0
vt 1.71327996 0.5 0
vt -0.263206005 0 0
vt -0.197404996 0 0
vt -0.263206005 0.5 0
vt -0.197404996 0.5 0
vt -0.131603003 0 0
vt -0.131603003 0.5 0
vt -0.0658020005 0 0
vt -0.0658020005 0.5 0
vt -0.262093991 0 0
vt -0.196569994 0 0
vt -0.262093991 0.5 0
vt -0.196569994 0.5 0
vt -0.131046996 0 0
vt -0.131046996 0.5 0
vt -0.0655229986 0 0
vt -0.0655229986 0.5 0
vt 1.71407104 0 0
vt 1.71407104 0.5 0
vt 0.292703986 0 0
vt 0.292703986 0.5 0
vt -0.525536001 -1.08359504 0
vt -0.677801013 -0.780543029 0
vt -0.818239987 -1.08359504 0
vt -0.698373973 -0.669187009 0
vt -0.720229983 -0.558095992 0
vt -0.0657839999 0.567667007 0
vt -0.580232978 -0.379922986 0
vt -0.605363011 -0.479896992 0
vt -0.629961014 -0.580000997 0
vt -0.167787001 1.08359504 0
vt -0.048785001 0.630955994 0
vt -0.0324300006 0.694406986 0
vt -0.0170510001 0.758103013 0
vt -0.00221799989 0.821934998 0
vt 0.178134993 1.08359504 0
vt 0.0139009999 0.758135021 0
vt 0.0306340009 0.694498003 0
vt 0.0480390005 0.63103801 0
vt 0.0657839999 0.567667007 0
vt 0.488577992 -0.013305 0
vt 0.539538026 -0.203187004 0
vt 0.522579014 -1.08359504 0
vt 0.585812986 -0.394093007 0
vt 0.623992026 -0.586764991 0
vt 0.657105029 -0.780543029 0
vt 0.799022019 -1.08359504 0
vt 0.682202995 -0.662220001 0
vt 0.708380997 -0.544142008 0
vt 0.736227989 -0.426445991 0
vt 0.765021026 -0.308964998 0
vt 1.39329898 1.08359504 0
vt 1.10502994 1.08359504 0
vt -0.654016972 -0.680239022 0
vt -0.744210005 -0.447443008 0
vt -0.769456029 -0.337053001 0
vt -1.39329898 1.08359504 0
vt -1.09911704 1.08359504 0
vt 0.818239987 -1.08359504 0
vt 0.677801013 -0.780543029 0
vt 0.525536001 -1.08359504 0
vt 0.654016972 -0.680239022 0
vt 0.629961014 -0.580000997 0
vt 0.769456029 -0.337053001 0
vt 0.744210005 -0.447443008 0
vt 0.720229983 -0.558095992 0
vt 1.09911704 1.08359504 0
vt 0.698373973 -0.669187009 0
vt 0.605363011 -0.479896992 0
vt 0.580232978 -0.379922986 0
vt 0.167787001 1.08359504 0
vt 0.048785001 0.630955994 0
vt 0.0324300006 0.694406986 0
vt 0.0170510001 0.758103013 0
vt 0.00221799989 0.821934998 0
vt -0.178134993 1.08359504 0
vt -0.0139009999 0.758135021 0
vt -0.0306340009 0.694498003 0
vt -0.0480390005 0.63103801 0
vt -0.488577992 -0.013305 0
vt -0.539538026 -0.203187004 0
vt -0.522579014 -1.08359504 0
vt -0.585812986 -0.394093007 0
vt -0.623992026 -0.586764991 0
vt -0.657105029 -0.780543029 0
vt -0.799022019 -1.08359504 0
vt -0.682202995 -0.662220001 0
vt -0.708380997 -0.544142008 0
vt -0.736227989 -0.426445991 0
vt -0.765021026 -0.308964998 0
vt -1.10502994 1.08359504 0
vn -0.0980764925 -0.0195181388 0
vn -0.0980764925 -0.0195181388 0
vn -0.0980764925 -0.0195181388 0
vn -0.0980764925 -0.0195181388 0
vn -0.0980764925 -0.0195181388 0
vn -0.0980764925 -0.0195181388 0
vn 0 0.099999994 0
vn 0 0.099999994 0
vn 0 0.099999994 0
vn 0 0.099999994 0
vn 0 0.099999994 0
vn 0 0.099999994 0
vn 0.0985193551 0.0171457175 0
vn 0.0985193551 0.0171457175 0
vn 0.0985193551 0.0171457175 0
vn 0.0985193551 0.0171457175 0
vn 0.0985193551 0.0171457175 0
vn 0.0985193551 0.0171457175 0
vn 0.0990739614 0.013579851 0
vn 0.0990128815 0.0140161179 0
vn 0.0990739614 0.013579851 0
vn 0.0990739614 0.013579851 0
vn 0.0990128815 0.0140161179 0
vn 0.0990128815 0.0140161179 0
vn 0.0990128815 0.0140161179 0
vn 0.0990128815 0.0140161179 0
vn 0.0988193378 0.0153248208 0
vn 0.0990128815 0.0140161179 0
vn 0.0988193378 0.0153248208 0
vn 0.0988193378 0.0153248208 0
vn 0.0988193378 0.0153248208 0
vn 0.0988193378 0.0153248208 0
vn 0.0986092463 0.0166178923 0
vn 0.0988193378 0.0153248208 0
vn 0.0986092463 0.0166178923 0
vn 0.0986092463 0.0166178923 0
vn 0.0986092463 0.0166178923 0
vn 0.0986092463 0.0166178923 0
vn 0.0985362604 0.0170487501 0
vn 0.0986092463 0.0166178923 0
vn 0.0985362604 0.0170487501 0
vn 0.0985362604 0.0170487501 0
vn -0.0982547477 0.0185992792 0
vn -0.0982971713 0.0183777232 0
vn -0.0982547477 0.0185992792 0
vn -0.0982547477 0.0185992792 0
vn -0.0982971713 0.0183777232 0
vn -0.0982971713 0.0183777232 0
vn -0.0982971713 0.0183777232 0
vn -0.0982971713 0.0183777232 0
vn -0.0983876735 0.0178862046 0
vn -0.0982971713 0.0183777232 0
vn -0.0983876735 0.0178862046 0
vn -0.0983876735 0.0178862046 0
vn -0.0983876735 0.0178862046 0
vn -0.0983876735 0.0178862046 0
vn -0.0984429419 0.0175774675 0
vn -0.0983876735 0.0178862046 0
vn -0.0984429419 0.0175774675 0
vn -0.0984429419 0.0175774675 0
vn -0.0984429419 0.0175774675 0
vn -0.0984429419 0.0175774675 0
vn -0.098460868 0.0174748991 0
vn -0.0984429419 0.0175774675 0
vn -0.098460868 0.0174748991 0
vn -0.098460868 0.0174748991 0
vn -0.0978385881 0.0206793007 0
vn -0.0978385881 0.0206793007 0
vn -0.0978385881 0.0206793007 0
vn -0.0978385881 0.0206793007 0
vn -0.0978385881 0.0206793007 0
vn -0.0978385881 0.0206793007 0
vn 0 0.099999994 0
vn 0 0.099999994 0
vn 0 0.099999994 0
vn 0 0.099999994 0
vn 0 0.099999994 0
vn 0 0.099999994 0
vn 0.0978209376 0.020763604 0
vn 0.0978209376 0.020763604 0
vn 0.0978209376 0.020763604 0
vn 0.0978209376 0.020763604 0
vn 0.0978209376 0.020763604 0
vn 0.0978209376 0.020763604 0
vn 0.0992303491 0.0123814102 0
vn 0.0991012082 0.0133738136 0
vn 0.0992303491 0.0123814102 0
vn 0.0992303491 0.0123814102 0
vn 0.0991012082 0.0133738136 0
vn 0.0991012082 0.0133738136 0
vn 0.0991012082 0.0133738136 0
vn 0.0991012082 0.0133738136 0
vn 0.0986547917 0.0163493454 0
vn 0.0991012082 0.0133738136 0
vn 0.0986547917 0.0163493454 0
vn 0.0986547917 0.0163493454 0
vn 0.0986547917 0.0163493454 0
vn 0.0986547917 0.0163493454 0
vn 0.0981560051 0.0191172976 0
vn 0.0986547917 0.0163493454 0
vn 0.0981560051 0.0191172976 0
vn 0.0981560051 0.0191172976 0
vn 0.0981560051 0.0191172976 0
vn 0.0981560051 0.0191172976 0
vn 0.0979711562 0.0200398266 0
vn 0.0981560051 0.0191172976 0
vn 0.0979711562 0.0200398266 0
vn 0.0979711562 0.0200398266 0
vn -0.0983339101 0.0181789715 0
vn -0.0983893722 0.0178760923 0
vn -0.0983339101 0.0181789715 0
vn -0.0983339101 0.0181789715 0
vn -0.0983893722 0.0178760923 0
vn -0.0983893722 0.0178760923 0
vn -0.0983893722 0.0178760923 0
vn -0.0983893722 0.0178760923 0
vn -0.0985502452 0.0169681031 0
vn -0.0983893722 0.0178760923 0
vn -0.0985502452 0.0169681031 0
vn -0.0985502452 0.0169681031 0
vn -0.0985502452 0.0169681031 0
vn -0.0985502452 0.0169681031 0
vn -0.0987214744 0.0159420129 0
vn -0.0985502452 0.0169681031 0
vn -0.0987214744 0.0159420129 0
vn -0.0987214744 0.0159420129 0
vn -0.0987214744 0.0159420129 0
vn -0.0987214744 0.0159420129 0
vn -0.0987763181 0.0155962203 0
vn -0.0987214744 0.0159420129 0
vn -0.0987763181 0.0155962203 0
vn -0.0987763181 0.0155962203 0
vn -0.0983640924 0.0180123039 0
vn -0.0983640924 0.0180123039 0
vn -0.0983640924 0.0180123039 0
vn -0.0983640924 0.0180123039 0
vn -0.0983640924 0.0180123039 0
vn -0.0983640924 0.0180123039 0
vn 0 0.099999994 0
vn 0 0.099999994 0
vn 0 0.099999994 0
vn 0 0.099999994 0
vn 0 0.099999994 0
vn 0 0.099999994 0
vn 0.0979500785 -0.0201443098 0
vn 0.0979500785 -0.0201443098 0
vn 0.0979500785 -0.0201443098 0
vn 0.0979500785 -0.0201443098 0
vn 0.0979500785 -0.0201443098 0
vn 0.0979500785 -0.0201443098 0
vn 0 -0.099999994 0
vn 0 -0.099999994 0
vn 0 -0.099999994 0
vn 0 -0.099999994 0
vn 0 -0.099999994 0
vn 0 -0.099999994 0
vn -0.0979146063 -0.0203148909 0
vn -0.0979146063 -0.0203148909 0
vn -0.0979146063 -0.0203148909 0
vn -0.0979146063 -0.0203148909 0
vn -0.0979146063 -0.0203148909 0
vn -0.0979146063 -0.0203148909 0
vn -0.0982758105 -0.0184876956 0
vn -0.0982022509 -0.0188772883 0
vn -0.0982758105 -0.0184876956 0
vn -0.0982758105 -0.0184876956 0
vn -0.0982022509 -0.0188772883 0
vn -0.0982022509 -0.0188772883 0
vn -0.0982022509 -0.0188772883 0
vn -0.0982022509 -0.0188772883 0
vn -0.0980185792 -0.0198106021 0
vn -0.0982022509 -0.0188772883 0
vn -0.0980185792 -0.0198106021 0
vn -0.0980185792 -0.0198106021 0
vn -0.0980185792 -0.0198106021 0
vn -0.0980185792 -0.0198106021 0
vn -0.0978936255 -0.0204187185 0
vn -0.0980185792 -0.0198106021 0
vn -0.0978936255 -0.0204187185 0
vn -0.0978936255 -0.0204187185 0
vn -0.0978936255 -0.0204187185 0
vn -0.0978936255 -0.0204187185 0
vn -0.0978511646 -0.0206218027 0
vn -0.0978936255 -0.0204187185 0
vn -0.0978511646 -0.0206218027 0
vn -0.0978511646 -0.0206218027 0
vn 0.0980049148 -0.0198765174 0
vn 0.098081775 -0.0194914993 0
vn 0.0980049148 -0.0198765174 0
vn 0.0980049148 -0.0198765174 0
vn 0.098081775 -0.0194914993 0
vn 0.098081775 -0.0194914993 0
vn 0.098081775 -0.0194914993 0
vn 0.098081775 -0.0194914993 0
vn 0.0983006954 -0.018359011 0
vn 0.098081775 -0.0194914993 0
vn 0.0983006954 -0.018359011 0
vn 0.0983006954 -0.018359011 0
vn 0.0983006954 -0.018359011 0
vn 0.0983006954 -0.018359011 0
vn 0.0984766334 -0.0173863508 0
vn 0.0983006954 -0.018359011 0
vn 0.0984766334 -0.0173863508 0
vn 0.0984766334 -0.0173863508 0
vn 0.0984766334 -0.0173863508 0
vn 0.0984766334 -0.0173863508 0
vn 0.098533906 -0.0170619357 0
vn 0.0984766334 -0.0173863508 0
vn 0.098533906 -0.0170619357 0
vn 0.098533906 -0.0170619357 0
vn 0.0978888199 -0.0204407517 0
vn 0.0978888199 -0.0204407517 0
vn 0.0978888199 -0.0204407517 0
vn 0.0978888199 -0.0204407517 0
vn 0.0978888199 -0.0204407517 0
vn 0.0978888199 -0.0204407517 0
vn 0 -0.099999994 0
vn 0 -0.099999994 0
vn 0 -0.099999994 0
vn 0 -0.099999994 0
vn 0 -0.099999994 0
vn 0 -0.099999994 0
vn 0 0 0.099999994
vn 0 0 0.099999994
vn 0 0 0.099999994
vn 0 0 0.099999994
vn 0 0 0.099999994
vn 0 0 0.099999994
vn 0 0 0.099999994
vn 0 0 0.099999994
vn 0 0 0.099999994
vn 0 0 0.099999994
vn 0 0 0.099999994
vn 0 0 0.099999994
vn 0 0 0.099999994
vn 0 0 0.099999994
vn 0 0 0.099999994
vn 0 0 0.099999994
vn 0 0 0.099999994
vn 0 0 0.099999994
vn 0 0 0.099999994
vn 0 0 0.099999994
vn 0 0 0.099999994
vn 0 0 0.099999994
vn 0 0 0.099999994
vn 0 0 0.099999994
vn 0 0 0.099999994
vn 0 0 0.099999994
vn 0 0 0.099999994
vn 0 0 0.099999994
vn 0 0 0.099999994
vn 0 0 0.099999994
vn 0 0 0.099999994
vn 0 0 0.099999994
vn 0 0 0.099999994
vn 0 0 0.099999994
vn 0 0 0.099999994
vn 0 0 0.099999994
vn 0 0 0.099999994
vn 0 0 0.099999994
vn 0 0 0.099999994
vn 0 0 0.099999994
vn 0 0 0.099999994
vn 0 0 0.099999994
vn 0 0 0.099999994
vn 0 0 0.099999994
vn 0 0 0.099999994
vn 0 0 0.099999994
vn 0 0 0.099999994
vn 0 0 0.099999994
vn 0 0 0.099999994
vn 0 0 0.099999994
vn 0 0 0.099999994
vn 0 0 0.099999994
vn 0 0 0.099999994
vn 0 0 0.099999994
vn 0 0 0.099999994
vn 0 0 0.099999994
vn 0 0 0.099999994
vn 0 0 0.099999994
vn 0 0 0.099999994
vn 0 0 0.099999994
vn 0 0 0.099999994
vn 0 0 0.099999994
vn 0 0 0.099999994
vn 0 0 0.099999994
vn 0 0 0.099999994
vn 0 0 0.099999994
vn 0 0 0.099999994
vn 0 0 0.099999994
vn 0 0 0.099999994
vn 0 0 0.099999994
vn 0 0 0.099999994
vn 0 0 0.099999994
vn 0 0 0.099999994
vn 0 0 0.099999994
vn 0 0 0.099999994
vn 0 0 0.099999994
vn 0 0 0.099999994
vn 0 0 0.099999994
vn 0 0 0.099999994
vn 0 0 0.099999994
vn 0 0 0.099999994
vn 0 0 0.099999994
vn 0 0 0.099999994
vn 0 0 0.099999994
vn 0 0 0.099999994
vn 0 0 0.099999994
vn 0 0 0.099999994
vn 0 0 0.099999994
vn 0 0 0.099999994
vn 0 0 0.099999994
vn 0 0 0.099999994
vn 0 0 0.099999994
vn 0 0 0.099999994
vn 0 0 0.099999994
vn 0 0 0.099999994
vn 0 0 0.099999994
vn 0 0 0.099999994
vn 0 0 0.099999994
vn 0 0 0.099999994
vn 0 0 0.099999994
vn 0 0 0.099999994
vn 0 0 0.099999994
vn 0 0 0.099999994
vn 0 0 0.099999994
vn 0 0 0.099999994
vn 0 -0 -0.099999994
vn 0 -0 -0.099999994
vn 0 -0 -0.099999994
vn 0 -0 -0.099999994
vn 0 -0 -0.099999994
vn 0 -0 -0.099999994
vn 0 -0 -0.099999994
vn 0 -0 -0.099999994
vn 0 -0 -0.099999994
vn 0 -0 -0.099999994
vn 0 -0 -0.099999994
vn 0 -0 -0.099999994
vn 0 -0 -0.099999994
vn 0 -0 -0.099999994
vn 0 -0 -0.099999994
vn 0 -0 -0.099999994
vn 0 -0 -0.099999994
vn 0 -0 -0.099999994
vn 0 -0 -0.099999994
vn 0 -0 -0.099999994
vn 0 -0 -0.099999994
vn 0 -0 -0.099999994
vn 0 -0 -0.099999994
vn 0 -0 -0.099999994
vn 0 -0 -0.099999994
vn 0 -0 -0.099999994
vn 0 -0 -0.099999994
vn 0 -0 -0.099999994
vn 0 -0 -0.099999994
vn 0 -0 -0.099999994
vn 0 -0 -0.099999994
vn 0 -0 -0.099999994
vn 0 -0 -0.099999994
vn 0 -0 -0.099999994
vn 0 -0 -0.099999994
vn 0 -0 -0.099999994
vn 0 -0 -0.099999994
vn 0 -0 -0.099999994
vn 0 -0 -0.099999994
vn 0 -0 -0.099999994
vn 0 -0 -0.099999994
vn 0 -0 -0.099999994
vn 0 -0 -0.099999994
vn 0 -0 -0.099999994
vn 0 -0 -0.099999994
vn 0 -0 -0.099999994
vn 0 -0 -0.099999994
vn 0 -0 -0.099999994
vn 0 -0 -0.099999994
vn 0 -0 -0.099999994
vn 0 -0 -0.099999994
vn 0 -0 -0.099999994
vn 0 -0 -0.099999994
vn 0 -0 -0.099999994
vn 0 -0 -0.099999994
vn 0 -0 -0.099999994
vn 0 -0 -0.099999994
vn 0 -0 -0.099999994
vn 0 -0 -0.099999994
vn 0 -0 -0.099999994
vn 0 -0 -0.099999994
vn 0 -0 -0.099999994
vn 0 -0 -0.099999994
vn 0 -0 -0.099999994
vn 0 -0 -0.099999994
vn 0 -0 -0.099999994
vn 0 -0 -0.099999994
vn 0 -0 -0.099999994
vn 0 -0 -0.099999994
vn 0 -0 -0.099999994
vn 0 -0 -0.099999994
vn 0 -0 -0.099999994
vn 0 -0 -0.099999994
vn 0 -0 -0.099999994
vn 0 -0 -0.099999994
vn 0 -0 -0.099999994
vn 0 -0 -0.099999994
vn 0 -0 -0.099999994
vn 0 -0 -0.099999994
vn 0 -0 -0.099999994
vn 0 -0 -0.099999994
vn 0 -0 -0.099999994
vn 0 -0 -0.099999994
vn 0 -0 -0.099999994
vn 0 -0 -0.099999994
vn 0 -0 -0.099999994
vn 0 -0 -0.099999994
vn 0 -0 -0.099999994
vn 0 -0 -0.099999994
vn 0 -0 -0.099999994
vn 0 -0 -0.099999994
vn 0 -0 -0.099999994
vn 0 -0 -0.099999994
vn 0 -0 -0.099999994
vn 0 -0 -0.099999994
vn 0 -0 -0.099999994
vn 0 -0 -0.099999994
vn 0 -0 -0.099999994
vn 0 -0 -0.099999994
vn 0 -0 -0.099999994
vn 0 -0 -0.099999994
vn 0 -0 -0.099999994
vn 0 -0 -0.099999994
vn 0 -0 -0.099999994
vn 0 -0 -0.099999994
g Body49
usemtl /mat/Aluminum_-_Anodized_Glossy_(Red)
f 1/1/1 2/2/2 4/3/3
f 4/3/4 2/2/5 3/4/6
f 5/5/7 1/6/8 6/3/9
f 6/3/10 1/6/11 4/7/12
f 7/5/13 5/8/14 8/3/15
f 8/3/16 5/8/17 6/9/18
f 9/10/19 10/11/20 16/12/21
f 16/12/22 10/11/23 15/13/24
f 15/13/25 10/11/26 11/14/27
f 15/13/28 11/14/29 14/15/30
f 14/15/31 11/14/32 12/16/33
f 14/15/34 12/16/35 13/17/36
f 13/17/37 12/16/38 7/1/39
f 13/17/40 7/1/41 8/18/42
f 17/19/43 18/20/44 24/21/45
f 24/21/46 18/20/47 23/22/48
f 23/22/49 18/20/50 19/23/51
f 23/22/52 19/23/53 22/24/54
f 22/24/55 19/23/56 20/25/57
f 22/24/58 20/25/59 21/26/60
f 21/26/61 20/25/62 9/1/63
f 21/26/64 9/1/65 16/18/66
f 25/1/67 17/27/68 26/18/69
f 26/18/70 17/27/71 24/28/72
f 27/5/73 25/29/74 28/3/75
f 28/3/76 25/29/77 26/30/78
f 29/5/79 27/31/80 30/3/81
f 30/3/82 27/31/83 28/32/84
f 31/33/85 32/34/86 38/35/87
f 38/35/88 32/34/89 37/36/90
f 37/36/91 32/34/92 33/37/93
f 37/36/94 33/37/95 36/38/96
f 36/38/97 33/37/98 34/39/99
f 36/38/100 34/39/101 35/40/102
f 35/40/103 34/39/104 29/1/105
f 35/40/106 29/1/107 30/18/108
f 39/41/109 40/42/110 46/43/111
f 46/43/112 40/42/113 45/44/114
f 45/44/115 40/42/116 41/45/117
f 45/44/118 41/45/119 44/46/120
f 44/46/121 41/45/122 42/47/123
f 44/46/124 42/47/125 43/48/126
f 43/48/127 42/47/128 31/1/129
f 43/48/130 31/1/131 38/18/132
f 47/1/133 39/49/134 48/18/135
f 48/18/136 39/49/137 46/50/138
f 49/5/139 47/51/140 50/3/141
f 50/3/142 47/51/143 48/52/144
f 51/1/145 49/53/146 52/18/147
f 52/18/148 49/53/149 50/54/150
f 53/1/151 51/55/152 54/18/153
f 54/18/154 51/55/155 52/56/156
f 55/1/157 53/57/158 56/18/159
f 56/18/160 53/57/161 54/58/162
f 57/59/163 58/60/164 64/61/165
f 64/61/166 58/60/167 63/62/168
f 63/62/169 58/60/170 59/63/171
f 63/62/172 59/63/173 62/64/174
f 62/64/175 59/63/176 60/65/177
f 62/64/178 60/65/179 61/66/180
f 61/66/181 60/65/182 55/1/183
f 61/66/184 55/1/185 56/18/186
f 65/67/187 66/68/188 72/69/189
f 72/69/190 66/68/191 71/70/192
f 71/70/193 66/68/194 67/71/195
f 71/70/196 67/71/197 70/72/198
f 70/72/199 67/71/200 68/73/201
f 70/72/202 68/73/203 69/74/204
f 69/74/205 68/73/206 57/1/207
f 69/74/208 57/1/209 64/18/210
f 73/1/211 65/75/212 74/18/213
f 74/18/214 65/75/215 72/76/216
f 2/1/217 73/77/218 3/18/219
f 3/18/220 73/77/221 74/78/222
g Body49
usemtl /mat/Bronze_-_Polished
f 74/79/223 16/80/224 3/81/225
f 3/81/226 16/80/227 15/82/228
f 3/81/229 15/82/230 14/83/231
f 72/84/232 24/85/233 74/79/234
f 74/79/235 24/85/236 23/86/237
f 74/79/238 23/86/239 22/87/240
f 24/85/241 72/84/242 26/88/243
f 26/88/244 72/84/245 71/89/246
f 26/88/247 71/89/248 70/90/249
f 70/90/250 69/91/251 26/88/252
f 26/88/253 69/91/254 64/92/255
f 26/88/256 64/92/257 28/93/258
f 28/93/259 64/92/260 63/94/261
f 28/93/262 63/94/263 62/95/264
f 62/95/265 61/96/266 28/93/267
f 28/93/268 61/96/269 56/97/270
f 28/93/271 56/97/272 30/98/273
f 30/98/274 56/97/275 35/99/276
f 35/99/277 56/97/278 54/100/279
f 35/99/280 54/100/281 36/101/282
f 36/101/283 54/100/284 37/102/285
f 37/102/286 54/100/287 38/103/288
f 38/103/289 54/100/290 52/104/291
f 38/103/292 52/104/293 43/105/294
f 43/105/295 52/104/296 44/106/297
f 44/106/298 52/104/299 45/107/300
f 45/107/301 52/104/302 46/108/303
f 46/108/304 52/104/305 50/109/306
f 46/108/307 50/109/308 48/110/309
f 22/87/310 21/111/311 74/79/312
f 74/79/313 21/111/314 16/80/315
f 14/83/316 13/112/317 3/81/318
f 3/81/319 13/112/320 8/113/321
f 3/81/322 8/113/323 4/114/324
f 4/114/325 8/113/326 6/115/327
f 2/116/328 9/117/329 73/118/330
f 73/118/331 9/117/332 20/119/333
f 73/118/334 20/119/335 19/120/336
f 1/109/337 7/121/338 2/116/339
f 2/116/340 7/121/341 12/122/342
f 2/116/343 12/122/344 11/123/345
f 1/109/346 5/124/347 7/121/348
f 11/123/349 10/125/350 2/116/351
f 2/116/352 10/125/353 9/117/354
f 19/120/355 18/126/356 73/118/357
f 73/118/358 18/126/359 17/127/360
f 73/118/361 17/127/362 65/97/363
f 65/97/364 17/127/365 25/128/366
f 65/97/367 25/128/368 66/129/369
f 66/129/370 25/128/371 67/130/372
f 67/130/373 25/128/374 68/131/375
f 68/131/376 25/128/377 57/132/378
f 57/132/379 25/128/380 27/133/381
f 57/132/382 27/133/383 58/134/384
f 58/134/385 27/133/386 59/135/387
f 59/135/388 27/133/389 60/136/390
f 60/136/391 27/133/392 55/84/393
f 55/84/394 27/133/395 29/137/396
f 55/84/397 29/137/398 34/138/399
f 55/84/400 34/138/401 53/139/402
f 53/139/403 34/138/404 33/140/405
f 53/139/406 33/140/407 32/141/408
f 32/141/409 31/142/410 53/139/411
f 53/139/412 31/142/413 51/143/414
f 51/143/415 31/142/416 42/144/417
f 51/143/418 42/144/419 41/145/420
f 41/145/421 40/146/422 51/143/423
f 51/143/424 40/146/425 39/147/426
f 51/143/427 39/147/428 49/114/429
f 49/114/430 39/147/431 47/148/432
